<?xml version="1.0" encoding="utf-8"?>
<!-- Generator: Adobe Illustrator 16.0.0, SVG Export Plug-In . SVG Version: 6.00 Build 0)  -->
<!DOCTYPE svg PUBLIC "-//W3C//DTD SVG 1.1//EN" "http://www.w3.org/Graphics/SVG/1.1/DTD/svg11.dtd">
<svg version="1.1" id="Layer_1" xmlns="http://www.w3.org/2000/svg" xmlns:xlink="http://www.w3.org/1999/xlink" x="0px" y="0px"
	 width="220px" height="59.866px" viewBox="0 0 220 59.866" enable-background="new 0 0 220 59.866" xml:space="preserve">
<g>
	<rect x="147.491" y="0.247" fill="#EE3224" width="10.14" height="45.412"/>
	<path fill="#EE3224" d="M218.509,21.771c-0.413-0.133-2.268-0.589-3.924-0.589c-3.903,0-6.065,2.715-6.483,3.227v21.25h-9.936
		V13.398h9.525l0.127,4.186c1.648-2.811,4.479-5.06,9.19-5.06c1.041,0,2.107,0.137,2.99,0.355L218.509,21.771z"/>
	<path fill="#EE3224" d="M128.107,46.689c-8.016,0-12.912-2.513-13.256-2.687l3.16-6.998c0.336,0.201,4.094,2.547,8.787,2.547
		c3.73,0,5.256-1.361,5.256-2.762c0-1.496-1.101-2.127-4.373-3.154c-7.088-2.221-11.105-5.168-11.105-10.903
		c0-5.236,4.283-10.322,12.947-10.322c7.711,0,12.5,2.512,13.045,2.803l-2.963,6.784c-0.283-0.17-3.742-2.458-8.148-2.458
		c-2.889,0-4.117,1.19-4.117,2.628c0,1.843,1.669,2.526,5.143,3.582c8.812,2.678,10.881,6.349,10.881,10.494
		C143.365,41.637,138.723,46.689,128.107,46.689"/>
	<path fill="#EE3224" d="M102.102,45.659V24.641c0-2.323-1-4.307-4.2-4.307c-2.344,0-4.42,1.998-4.842,2.372v22.953h-9.941V13.398
		h9.551l0.101,3.932c0.445-0.605,3.377-4.935,8.629-4.935c7.384,0,10.663,5.237,10.663,11.36v21.904H102.102z"/>
	<path fill="#EE3224" d="M162.148,29.527c0-10.69,6.961-17.14,15.735-17.14c9.041,0,15.763,6.712,15.763,17.14
		c0,1.513-0.139,2.513-0.197,3.046h-21.16c0.152,3.328,2.369,7.062,8.061,7.062c4.586,0,8.064-2.391,8.334-2.557l3.305,6.567
		c-0.76,0.424-5.896,3.022-12.646,3.022C168.839,46.668,162.148,40.232,162.148,29.527z M183.59,26.331
		c0-3.931-2.08-6.911-5.684-6.911c-3.854,0-5.7,3.274-5.7,6.911H183.59z"/>
	<path fill="#EE3224" d="M47.102,29.527c0-10.69,6.96-17.14,15.734-17.14c9.042,0,15.763,6.712,15.763,17.14
		c0,1.513-0.138,2.513-0.196,3.046H57.244c0.15,3.328,2.367,7.062,8.06,7.062c4.584,0,8.063-2.391,8.334-2.557l3.303,6.567
		c-0.761,0.424-5.896,3.022-12.645,3.022C53.791,46.668,47.102,40.232,47.102,29.527z M68.542,26.331
		c0-3.931-2.079-6.911-5.683-6.911c-3.853,0-5.702,3.274-5.702,6.911H68.542z"/>
	<path fill="#EE3224" d="M33.473,41.629c-0.351,0.361-4.526,5.086-12.527,5.086C10.098,46.715,0,37.764,0,23.357
		C0,9.263,9.47,0,22.571,0c12.643,0,17.169,8.425,18.06,9.811l-8.333,5.192c-0.521-0.86-3.291-6.105-9.756-6.105
		c-6.975,0-11.523,5.859-11.523,14.459c0,8.161,4.146,14.458,11.523,14.458c6.727,0,10.104-5.541,10.576-9.932H22.551v-6.949h20.028
		v24.721H33.93l-0.373-4.023h-0.084V41.629z"/>
</g>
</svg>
