<?xml version="1.0" standalone="no"?>
<!DOCTYPE svg PUBLIC "-//W3C//DTD SVG 1.1//EN" "http://www.w3.org/Graphics/SVG/1.1/DTD/svg11.dtd" >
<svg xmlns="http://www.w3.org/2000/svg" width="100%" height="100%">
<metadata>
Created by FontXChange 20110222 at Tue Sep 13 13:18:18 2011
 By Kirk Austin
2005 Mike Abbink published by FSI Fonts und Software GmbH
</metadata>
<defs>
<font id="KievitOT-Bold" horiz-adv-x="556" >
  <font-face 
    font-family="KievitOT"
    font-weight="700"
    font-stretch="normal"
    units-per-em="1000"
    panose-1="2 0 5 3 5 0 0 2 0 4"
    ascent="760"
    descent="-240"
    x-height="487"
    cap-height="666"
    bbox="-190 -250 1257 918"
    underline-thickness="20"
    underline-position="-113"
    unicode-range="U+0020-FB04"
  />
<missing-glyph horiz-adv-x="557" 
d="M65 666h427v-666h-427v666zM389 103v460h-221v-460h221z" />
    <glyph glyph-name="uniFB00" unicode="ff" horiz-adv-x="658" 
d="M92 388h-75v99h75v46q0 87 53.5 140t151.5 53q61 0 94.5 -12t53.5 -25q48 43 130 43q54 0 81.5 -9t36.5 -14l-31 -100q-6 3 -23 8.5t-44 5.5q-42 0 -60.5 -24t-18.5 -72v-40h117v-99h-117v-388h-132v388h-159v-388h-133v388zM384 487v50q0 30 6 56q-10 8 -28 15.5
t-49 7.5q-42 0 -65 -22t-23 -78v-29h159z" />
    <glyph glyph-name="fi" unicode="fi" horiz-adv-x="588" 
d="M90 388h-73v99h73v49q0 91 57.5 143.5t159.5 52.5q36 0 64 -4t49.5 -10.5t37.5 -14t28 -14.5l-47 -98q-17 10 -44.5 21t-71.5 11q-48 0 -74 -23.5t-26 -74.5v-38h298v-487h-133v388h-165v-388h-133v388z" />
    <glyph glyph-name="fl" unicode="fl" horiz-adv-x="599" 
d="M90 388h-73v99h73v50q0 92 58.5 143.5t173.5 51.5q66 0 121 -9.5t84 -20.5v-702h-133v612q-9 4 -29.5 7.5t-51.5 3.5q-47 0 -68.5 -25t-21.5 -73v-38h102v-99h-102v-388h-133v388z" />
    <glyph glyph-name="uniFB03" unicode="ffi" horiz-adv-x="878" 
d="M92 388h-75v99h75v46q0 87 53.5 140t151.5 53q32 0 56 -3.5t42 -9.5t31.5 -13t24.5 -13q57 45 149 45q36 0 64 -4t49.5 -10.5t37.5 -14t28 -14.5l-47 -98q-17 10 -44.5 21t-71.5 11q-48 0 -74 -23.5t-26 -74.5v-38h295v-487h-133v388h-162v-388h-132v388h-159v-388h-133
v388zM384 487v49q0 15 1.5 28.5t6.5 27.5q-11 8 -29 16t-50 8q-42 0 -65 -22t-23 -78v-29h159z" />
    <glyph glyph-name="uniFB04" unicode="ffl" horiz-adv-x="892" 
d="M92 388h-75v99h75v46q0 87 53.5 140t151.5 53q31 0 55 -3.5t42 -9.5t31 -13t24 -14q60 46 166 46q66 0 121 -9.5t84 -20.5v-702h-133v612q-9 4 -29.5 7.5t-51.5 3.5q-47 0 -68.5 -25t-21.5 -73v-38h106v-99h-106v-388h-132v388h-159v-388h-133v388zM384 487v50q0 32 7 56
q-10 8 -28 15.5t-50 7.5q-42 0 -65 -22t-23 -78v-29h159z" />
    <glyph glyph-name=".notdef" horiz-adv-x="557" 
d="M65 666h427v-666h-427v666zM389 103v460h-221v-460h221z" />
    <glyph glyph-name=".null" horiz-adv-x="0" 
 />
    <glyph glyph-name="nonmarkingreturn" horiz-adv-x="194" 
 />
    <glyph glyph-name="space" unicode=" " horiz-adv-x="194" 
 />
    <glyph glyph-name="exclam" unicode="!" horiz-adv-x="304" 
d="M152 -10q-37 0 -61 24.5t-24 58.5q0 33 24 57t61 24q36 0 60 -24t24 -57q0 -34 -24 -58.5t-60 -24.5zM74 666h156l-25 -441h-107z" />
    <glyph glyph-name="quotedbl" unicode="&#x22;" horiz-adv-x="385" 
d="M36 666h132l-14 -244h-90zM217 666h132l-28 -244h-89z" />
    <glyph glyph-name="numbersign" unicode="#" horiz-adv-x="526" 
d="M113 213h-89l16 96h88l12 84h-88l15 96h87l19 121h92l-19 -121h80l19 121h92l-19 -121h83l-16 -96h-81l-12 -84h82l-16 -96h-81l-18 -125h-92l18 125h-80l-19 -125h-92zM302 306l13 89h-85l-13 -89h85z" />
    <glyph glyph-name="dollar" unicode="$" horiz-adv-x="499" 
d="M203 -118v107q-34 3 -62 10t-50 16.5t-38 20t-26 18.5l59 97q5 -4 16.5 -12t28 -16t38.5 -14.5t49 -7.5v179q-8 3 -15.5 6.5t-15.5 8.5q-31 15 -57 32.5t-45 41t-30 53.5t-11 71q0 72 45 118.5t114 60.5v112h106v-109q58 -6 92.5 -23t52.5 -30l-56 -98q-15 9 -42.5 21.5
t-62.5 17.5v-167l8 -4q33 -15 64 -32t54.5 -40t38 -55.5t14.5 -78.5q0 -75 -43 -124t-120 -66v-114h-106zM338 179q0 22 -12.5 37.5t-32.5 27.5v-131q21 11 33 27.5t12 38.5zM176 495q0 -22 11 -37t31 -26v124q-20 -8 -31 -23.5t-11 -37.5z" />
    <glyph glyph-name="percent" unicode="%" horiz-adv-x="746" 
d="M133 187q-43 0 -75 13t-53 34.5t-31.5 49.5t-10.5 58t11 58.5t32.5 50t53.5 35t75 13.5t75 -12.5t53 -33.5t31.5 -48.5t10.5 -58.5q0 -30 -11 -59t-32.5 -51t-53.5 -35.5t-75 -13.5zM135 268q33 0 45 22t12 52t-13 53t-45 23t-45 -20.5t-13 -51.5q0 -30 13.5 -54
t45.5 -24zM613 -12q-43 0 -75 12.5t-53 34t-31.5 49.5t-10.5 59q0 30 11 58.5t32.5 50t53.5 35t75 13.5q42 0 74 -12.5t53 -33.5t31.5 -49t10.5 -59q0 -30 -11 -58.5t-32.5 -50.5t-53.5 -35.5t-74 -13.5zM615 69q33 0 44.5 22t11.5 52t-13 53t-45 23t-45 -21t-13 -52
q0 -29 14 -53t46 -24zM466 488h110l-292 -488h-111z" />
    <glyph glyph-name="ampersand" unicode="&#x26;" horiz-adv-x="665" 
d="M267 -12q-58 0 -102 14t-73.5 39t-44.5 59t-15 73q0 67 34.5 110.5t102.5 81.5q-34 40 -51.5 75.5t-17.5 76.5q0 37 15 66.5t41 50.5t62.5 32.5t79.5 11.5q44 0 78.5 -11.5t58.5 -31t37 -47t13 -58.5q0 -56 -36.5 -96.5t-105.5 -81.5l122 -134q14 26 25 56.5t17 63.5
l114 -20q-18 -105 -81 -188l116 -130h-162l-43 48q-40 -29 -86.5 -44.5t-97.5 -15.5zM283 419q44 27 61.5 51.5t17.5 52.5q0 26 -17.5 43.5t-46.5 17.5q-30 0 -48.5 -17.5t-18.5 -46.5q0 -25 13 -48.5t39 -52.5zM277 92q59 0 105 35l-146 161q-32 -22 -49 -47t-17 -58
q0 -42 28.5 -66.5t78.5 -24.5z" />
    <glyph glyph-name="quotesingle" unicode="'" horiz-adv-x="211" 
d="M38 666h135l-22 -244h-91z" />
    <glyph glyph-name="parenleft" unicode="(" horiz-adv-x="347" 
d="M220 -168q-31 33 -62.5 78t-57.5 101t-42.5 124t-16.5 147q0 76 16.5 143t42.5 122.5t57.5 99t62.5 73.5h126q-25 -27 -53.5 -68.5t-52.5 -96.5t-40 -122.5t-16 -147.5q0 -77 13 -143t35 -122t51.5 -102.5t62.5 -85.5h-126z" />
    <glyph glyph-name="parenright" unicode=")" horiz-adv-x="348" 
d="M1 -168q28 33 57.5 76t52.5 97.5t38 121.5t15 147q0 78 -14.5 144.5t-38 122.5t-52.5 100.5t-58 78.5h127q32 -33 64 -77.5t57.5 -100t41.5 -122t16 -142.5q0 -79 -16.5 -147t-43 -124.5t-58 -100t-61.5 -74.5h-127z" />
    <glyph glyph-name="asterisk" unicode="*" horiz-adv-x="493" 
d="M86 346l87 103l-130 37l35 95l120 -47l-6 132h110l-7 -132l120 47l36 -95l-131 -37l88 -103l-88 -61l-73 114l-74 -114z" />
    <glyph glyph-name="plus" unicode="+" horiz-adv-x="560" 
d="M224 212h-183v102h183v180h114v-180h181v-102h-181v-186h-114v186z" />
    <glyph glyph-name="comma" unicode="," horiz-adv-x="220" 
d="M39 -145q16 25 28.5 53.5t12.5 53.5q0 21 -9 33.5t-20.5 24t-20.5 26t-9 39.5q0 33 23.5 54.5t57.5 21.5q39 0 67.5 -29t28.5 -81q0 -51 -22 -103.5t-52 -92.5h-85z" />
    <glyph glyph-name="hyphen" unicode="-" horiz-adv-x="330" 
d="M51 336h228v-108h-228v108z" />
    <glyph glyph-name="period" unicode="." horiz-adv-x="220" 
d="M110 -10q-37 0 -63 25t-26 61t26 60.5t63 24.5t62.5 -24.5t25.5 -60.5t-25.5 -61t-62.5 -25z" />
    <glyph glyph-name="slash" unicode="/" horiz-adv-x="450" 
d="M311 696h129l-284 -786h-129z" />
    <glyph glyph-name="zero" unicode="0" 
d="M278 -12q-66 0 -112 29.5t-75.5 78t-42.5 110.5t-13 127t12.5 127t41 110.5t75 78t113.5 29.5q66 0 112 -29.5t75.5 -78t43 -110.5t13.5 -127t-13.5 -127t-43 -110.5t-75.5 -78t-111 -29.5zM277 94q28 0 47 17t31 48t17.5 75.5t5.5 98.5t-5.5 98.5t-17.5 75.5t-31 48
t-46 17q-28 0 -47.5 -17t-31.5 -48t-17 -75.5t-5 -98.5t5 -98.5t17 -75.5t31 -48t47 -17z" />
    <glyph glyph-name="one" unicode="1" 
d="M78 109h152v440l-142 -43l-27 105l199 54h103v-556h151v-109h-436v109z" />
    <glyph glyph-name="two" unicode="2" 
d="M36 72q48 43 99.5 92t93.5 100.5t69.5 104t27.5 103.5q0 50 -26.5 74t-65.5 24q-43 0 -78 -18.5t-61 -43.5l-63 84q34 33 86 59.5t130 26.5q54 0 95.5 -14t69.5 -39.5t42.5 -60.5t14.5 -76q0 -53 -20.5 -103t-54.5 -98t-78 -94t-91 -89q12 0 25 1q11 1 24 1.5t24 0.5h195
v-107h-458v72z" />
    <glyph glyph-name="three" unicode="3" 
d="M194 -12q-50 0 -87.5 6.5t-56.5 12.5l23 105q15 -5 48.5 -11t70.5 -6q66 0 107.5 27t41.5 78q0 29 -14.5 48.5t-40.5 31.5t-62.5 17.5t-80.5 5.5v92q37 1 70 8.5t57.5 21t38.5 32.5t14 43q0 35 -27.5 52.5t-69.5 17.5q-20 0 -39.5 -4.5t-36.5 -11.5t-31 -15.5t-24 -17.5
l-53 86q13 12 33.5 24.5t47 23t59 17t70.5 6.5q99 0 154.5 -41.5t55.5 -110.5q0 -32 -13 -58t-33.5 -45.5t-46.5 -33t-52 -20.5v-2q30 -3 59.5 -15.5t53.5 -33.5t39 -50.5t15 -66.5q0 -49 -21.5 -88.5t-60 -67t-91.5 -42.5t-117 -15z" />
    <glyph glyph-name="four" unicode="4" 
d="M315 130h-302v90l310 446h125v-432h82v-104h-82v-130h-133v130zM147 232q3 0 11.5 0.5t18.5 1t20 0.5h121v258h-2z" />
    <glyph glyph-name="five" unicode="5" 
d="M182 -12q-42 0 -76.5 4.5t-47.5 8.5l21 107q5 -2 16 -4t25.5 -4t30.5 -3.5t31 -1.5q33 0 62 7t51 21.5t35 37t13 53.5q0 32 -13.5 53.5t-37 34.5t-56 18.5t-70.5 5.5q-24 0 -48 -1.5t-33 -3.5l20 345h358v-107h-238l-8 -130q56 -1 105 -13.5t85 -38t57 -64t21 -91.5
q0 -57 -22 -100.5t-62 -73t-96 -45t-123 -15.5z" />
    <glyph glyph-name="six" unicode="6" 
d="M284 -12q-65 0 -111.5 24.5t-76.5 65t-44 93.5t-14 110q0 89 28 162.5t80.5 125.5t129 80.5t173.5 28.5l28 -108q-54 0 -102 -10.5t-86.5 -33.5t-65.5 -61t-38 -93q23 20 55 31t71 11q43 0 80.5 -14t65.5 -41t44 -65.5t16 -86.5q0 -50 -18 -90.5t-49 -69t-74 -44
t-92 -15.5zM286 90q45 0 67.5 32t22.5 78q0 57 -25.5 85t-69.5 28q-35 0 -59.5 -10.5t-45.5 -29.5v-7q0 -89 31 -132.5t79 -43.5z" />
    <glyph glyph-name="seven" unicode="7" 
d="M89 15l261 540h-309v111h462v-73l-297 -619z" />
    <glyph glyph-name="eight" unicode="8" 
d="M277 -12q-115 0 -177 49t-62 129q0 31 11.5 57.5t31 48.5t43.5 39t50 31q-24 14 -45 29.5t-36.5 35t-25 43t-9.5 52.5q0 39 17.5 71.5t47.5 56t70 36t86 12.5q49 0 89.5 -11t70 -32t45.5 -52.5t16 -71.5q0 -27 -10.5 -50t-28.5 -42t-40.5 -35t-46.5 -29q26 -13 51.5 -30
t45.5 -39.5t32.5 -50.5t12.5 -63q0 -44 -18 -78t-49.5 -57.5t-75.5 -36t-96 -12.5zM277 88q45 0 72.5 23.5t27.5 59.5q0 19 -9.5 36t-25 31t-36 26.5t-41.5 24.5q-16 -11 -32.5 -23t-29.5 -26t-21 -31t-8 -38q0 -38 28 -60.5t75 -22.5zM282 406q16 10 31 21t27 23t19 26
t7 29q0 32 -23 53t-61 21q-39 0 -63.5 -20.5t-24.5 -50.5q0 -17 7.5 -31.5t20 -27t28.5 -23.5t32 -20z" />
    <glyph glyph-name="nine" unicode="9" 
d="M85 90q52 0 99 11.5t84.5 36t63.5 63t37 94.5q-24 -20 -55 -31.5t-70 -11.5q-44 0 -81 14t-65 41t-43.5 65.5t-15.5 86.5q0 50 18 90.5t49 69t73 44t91 15.5q66 0 112.5 -24t76 -64.5t43 -93.5t13.5 -111q0 -90 -25.5 -164.5t-75.5 -127.5t-125.5 -82t-175.5 -29z
M274 353q35 0 58.5 10.5t44.5 29.5v7q0 86 -29 131t-78 45q-45 0 -67 -32t-22 -78q0 -57 24 -85t69 -28z" />
    <glyph glyph-name="colon" unicode=":" horiz-adv-x="286" 
d="M143 -10q-37 0 -63 25t-26 62q0 36 26 60.5t63 24.5t62.5 -24.5t25.5 -60.5q0 -37 -25.5 -62t-62.5 -25zM143 322q-37 0 -63 25t-26 62q0 36 26 60.5t63 24.5t62.5 -24.5t25.5 -60.5q0 -37 -25.5 -62t-62.5 -25z" />
    <glyph glyph-name="semicolon" unicode=";" horiz-adv-x="286" 
d="M75 -145q16 24 28.5 52.5t12.5 54.5q0 21 -9 33.5t-20.5 24t-20.5 26t-9 39.5q0 33 23.5 54.5t57.5 21.5q39 0 67.5 -29t28.5 -81q0 -53 -22.5 -105t-51.5 -91h-85zM143 322q-37 0 -63 25t-26 62q0 36 26 60.5t63 24.5t62.5 -24.5t25.5 -60.5q0 -37 -25.5 -62t-62.5 -25z
" />
    <glyph glyph-name="less" unicode="&#x3c;" horiz-adv-x="391" 
d="M26 248l256 232l71 -72l-173 -157l175 -154l-71 -77z" />
    <glyph glyph-name="equal" unicode="=" horiz-adv-x="478" 
d="M39 221h400v-102h-400v102zM39 408h400v-102h-400v102z" />
    <glyph glyph-name="greater" unicode="&#x3e;" horiz-adv-x="391" 
d="M39 93l173 156l-176 155l72 76l257 -227l-256 -233z" />
    <glyph glyph-name="question" unicode="?" horiz-adv-x="413" 
d="M99 276q0 46 17 71.5t52 48.5q32 21 50.5 42t18.5 56q0 38 -23 56.5t-66 18.5q-27 0 -48 -8t-38 -16l-46 98q26 14 64 24.5t92 10.5q53 0 92.5 -13t65.5 -36.5t38.5 -55t12.5 -67.5q0 -31 -8.5 -55.5t-22 -43t-30.5 -33t-33 -25.5t-29.5 -20t-23 -18.5t-14.5 -20.5
t-5 -27v-40h-116v53zM158 -10q-37 0 -61 24.5t-24 58.5q0 33 24 57t61 24t60.5 -24t23.5 -57q0 -34 -23.5 -58.5t-60.5 -24.5z" />
    <glyph glyph-name="at" unicode="@" horiz-adv-x="812" 
d="M398 -98q-82 0 -147 25.5t-110.5 70.5t-70 107t-24.5 136t28 144.5t78.5 125t120.5 88t154 33.5q87 0 153 -26t110 -69.5t66.5 -100t22.5 -117.5q0 -53 -14.5 -97t-41.5 -75.5t-64.5 -49t-82.5 -17.5q-54 0 -79 24t-29 62h-3q-19 -35 -52.5 -59.5t-79.5 -24.5
q-24 0 -43 9.5t-32 25.5t-20 38t-7 46q0 54 14.5 102t42 85t67.5 58.5t90 21.5q44 0 83 -9t65 -18l-29 -167q-3 -21 -5.5 -37.5t-2.5 -27.5q0 -20 9.5 -32t26.5 -12q40 0 69 39t29 108q0 57 -18.5 101t-53 74.5t-83.5 46t-109 15.5q-56 0 -107 -23t-89.5 -63.5t-61 -96.5
t-22.5 -122q0 -121 66 -189.5t197 -68.5q44 0 82.5 9t62.5 20l32 -79q-28 -11 -79.5 -22.5t-108.5 -11.5zM374 172q21 0 38 15t30 39.5t23 57.5t17 69l6 28q-8 3 -21.5 5.5t-25.5 2.5q-24 0 -42.5 -14t-31 -37.5t-19.5 -53.5t-7 -63q0 -20 7 -34.5t26 -14.5z" />
    <glyph glyph-name="A" unicode="A" horiz-adv-x="680" 
d="M427 238l-57 159q-16 43 -23.5 73.5t-12.5 41.5h-2q-4 -12 -12.5 -43t-22.5 -72l-57 -159h187zM269 666h136l261 -666h-154l-45 125h-266l-44 -125h-142z" />
    <glyph glyph-name="B" unicode="B" horiz-adv-x="602" 
d="M83 666h222q46 0 88 -8t73.5 -27.5t50 -51.5t18.5 -79q0 -65 -32 -102t-86 -51v-2q30 -5 56.5 -17t46.5 -32t31.5 -47.5t11.5 -63.5q0 -51 -19.5 -86.5t-54 -57t-82.5 -31.5t-105 -10h-219v666zM296 108q61 0 92.5 20.5t31.5 68.5q0 47 -28 70.5t-90 23.5h-80v-183h74z
M287 392q57 0 83 20.5t26 65.5q0 80 -106 80h-68v-166h65z" />
    <glyph glyph-name="C" unicode="C" horiz-adv-x="618" 
d="M385 -12q-85 0 -149 28.5t-107 76.5t-64.5 110.5t-21.5 130.5t22 130t65.5 109.5t108 76t148.5 28.5q66 0 113.5 -13.5t86.5 -39.5l-63 -103q-28 18 -60.5 28.5t-78.5 10.5q-47 0 -83 -17.5t-60 -48t-36.5 -71t-12.5 -86.5q0 -48 12 -90t36 -73.5t60.5 -50t85.5 -18.5
q54 0 89.5 15.5t61.5 35.5l58 -99q-13 -12 -34 -24t-48 -22.5t-60 -17t-69 -6.5z" />
    <glyph glyph-name="D" unicode="D" horiz-adv-x="706" 
d="M83 666h201q98 0 170 -23.5t119 -66.5t69.5 -102.5t22.5 -131.5t-23 -134.5t-70.5 -108.5t-120.5 -72.5t-172 -26.5h-196v666zM290 113q113 0 169.5 56.5t56.5 168.5t-56 163.5t-175 51.5h-61v-440h66z" />
    <glyph glyph-name="E" unicode="E" horiz-adv-x="530" 
d="M83 666h384v-116h-245v-150h216v-110h-216v-174h252v-116h-391v666z" />
    <glyph glyph-name="F" unicode="F" horiz-adv-x="510" 
d="M83 666h382v-116h-241v-163h212v-110h-212v-277h-141v666z" />
    <glyph glyph-name="G" unicode="G" horiz-adv-x="710" 
d="M395 -12q-86 0 -151.5 28.5t-110 76.5t-67.5 110.5t-23 130.5t24 130t70.5 109.5t114 76t154.5 28.5q75 0 127.5 -15.5t91.5 -44.5l-63 -105q-31 23 -69 35.5t-90 12.5q-53 0 -92.5 -17t-65.5 -47t-39 -70.5t-13 -88.5t11.5 -90.5t36.5 -75t62.5 -51t90.5 -18.5
q41 0 71 7.5t47 18.5v132h-123v109h258v-318q-35 -24 -95.5 -44t-156.5 -20z" />
    <glyph glyph-name="H" unicode="H" horiz-adv-x="745" 
d="M83 666h141v-262h298v262h141v-666h-141v288h-298v-288h-141v666z" />
    <glyph glyph-name="I" unicode="I" horiz-adv-x="324" 
d="M89 666h141v-666h-141v666z" />
    <glyph glyph-name="J" unicode="J" horiz-adv-x="331" 
d="M57 -204q-35 0 -58.5 5t-39.5 11l22 115q7 -3 20 -6t27 -3q42 0 60 22.5t18 76.5v649h142v-668q0 -100 -51 -151t-140 -51z" />
    <glyph glyph-name="K" unicode="K" horiz-adv-x="630" 
d="M83 666h140v-290l227 290h156l-245 -309l256 -357h-167l-227 319v-319h-140v666z" />
    <glyph glyph-name="L" unicode="L" horiz-adv-x="514" 
d="M85 666h142v-552h248v-114h-390v666z" />
    <glyph glyph-name="M" unicode="M" horiz-adv-x="882" 
d="M133 666h137l134 -411q12 -36 20.5 -68.5t13.5 -46.5h2q4 14 13.5 46.5t21.5 68.5l138 411h136l92 -666h-144l-43 344q-5 37 -8 62l-3 35h-2q-2 -11 -9 -36.5t-18 -58.5l-113 -346h-139l-113 345q-10 32 -17 58.5t-10 37.5h-2q-1 -11 -3 -38t-6 -60l-43 -343h-127z" />
    <glyph glyph-name="N" unicode="N" horiz-adv-x="742" 
d="M82 666h142l240 -345q30 -43 47.5 -73.5t22.5 -38.5h2q-1 7 -2.5 37t-1.5 68v352h128v-666h-129l-259 370q-27 38 -42.5 64t-21.5 36h-2q1 -7 2.5 -32t1.5 -57v-381h-128v666z" />
    <glyph glyph-name="O" unicode="O" horiz-adv-x="773" 
d="M390 -12q-84 0 -148.5 28.5t-108.5 76t-67 109.5t-23 130t22.5 130.5t66 110.5t107.5 76.5t148 28.5t148 -28.5t107.5 -75.5t65.5 -109t22 -129q0 -68 -22 -131t-64.5 -111t-106 -77t-147.5 -29zM387 102q50 0 86.5 18.5t60.5 50t35.5 73t11.5 88.5q0 46 -11 88.5
t-34.5 74t-59.5 50.5t-86 19t-87 -18t-61.5 -49.5t-36.5 -73t-12 -87.5q0 -47 11.5 -89.5t35.5 -74.5t60.5 -51t86.5 -19z" />
    <glyph glyph-name="P" unicode="P" horiz-adv-x="591" 
d="M81 666h219q54 0 101 -12.5t81 -38.5t53.5 -65.5t19.5 -93.5t-19 -95t-54.5 -68.5t-85.5 -41.5t-112 -14h-61v-237h-142v666zM286 344q67 0 97 27t30 83q0 51 -29 77.5t-95 26.5h-66v-214h63z" />
    <glyph glyph-name="Q" unicode="Q" horiz-adv-x="773" 
d="M608 -175q-39 0 -74.5 8t-70 27.5t-69.5 52.5t-73 83q-67 10 -118.5 41.5t-87 76.5t-54 101.5t-18.5 116.5q0 68 22.5 130.5t66 110.5t107.5 76.5t148 28.5t148 -28.5t107.5 -75.5t65.5 -109t22 -129q0 -57 -15.5 -111.5t-46.5 -99.5t-77 -78t-107 -48q29 -38 57.5 -53.5
t72.5 -15.5q29 0 49 9.5t31 17.5l45 -93q-15 -12 -48.5 -25.5t-82.5 -13.5zM387 102q50 0 86.5 18.5t60.5 50t35.5 73t11.5 88.5q0 46 -11 88.5t-34.5 74t-59.5 50.5t-86 19t-87 -18t-61.5 -49.5t-36.5 -73t-12 -87.5q0 -47 11.5 -89.5t35.5 -74.5t60.5 -51t86.5 -19z" />
    <glyph glyph-name="R" unicode="R" horiz-adv-x="620" 
d="M83 666h222q118 0 182 -49t64 -143q0 -41 -13 -72t-34.5 -53t-49.5 -35t-58 -19v-2q14 -10 32.5 -31.5t45.5 -63.5l130 -198h-155l-122 190q-20 29 -32.5 45.5t-22.5 25t-18.5 11t-20.5 2.5h-9v-274h-141v666zM301 374q57 0 83.5 24t26.5 68q0 46 -27.5 69t-88.5 23h-71
v-184h77z" />
    <glyph glyph-name="S" unicode="S" horiz-adv-x="516" 
d="M237 -12q-41 0 -74 7t-58.5 17t-44 21.5t-29.5 20.5l60 98q6 -4 18 -12.5t30 -16.5t42 -14.5t53 -6.5q51 0 78.5 22.5t27.5 54.5q0 22 -12.5 37.5t-33 27.5t-47.5 23.5t-56 26.5q-31 15 -57 33t-45 41t-30 53.5t-11 71.5q0 43 17 77t46 58t68 37t84 13q41 0 72.5 -6
t55.5 -14.5t40 -18t27 -17.5l-57 -99q-9 6 -22 13t-30 13t-37 10.5t-41 4.5q-41 0 -65 -17.5t-24 -51.5q0 -20 9.5 -33.5t26 -24.5t39 -21t48.5 -22q33 -15 64 -32t54.5 -41t38 -56.5t14.5 -78.5q0 -45 -16.5 -82t-47.5 -62.5t-75.5 -39.5t-99.5 -14z" />
    <glyph glyph-name="T" unicode="T" horiz-adv-x="537" 
d="M198 550h-184v116h509v-116h-183v-550h-142v550z" />
    <glyph glyph-name="U" unicode="U" horiz-adv-x="715" 
d="M363 -12q-145 0 -214.5 69.5t-69.5 200.5v408h141v-396q0 -86 33.5 -126t112.5 -40q75 0 107.5 42t32.5 115v405h130v-395q0 -137 -68 -210t-205 -73z" />
    <glyph glyph-name="V" unicode="V" horiz-adv-x="665" 
d="M13 666h152l140 -399q14 -38 23 -70t11 -41h2q3 9 12.5 41t21.5 70l135 399h142l-248 -666h-134z" />
    <glyph glyph-name="W" unicode="W" horiz-adv-x="914" 
d="M17 666h150l84 -348q5 -20 9.5 -41t7.5 -39t5 -29.5t2 -12.5h2q0 1 3 13t6.5 30.5t8.5 40.5t10 42l91 344h139l89 -342q5 -21 10 -43t8.5 -40.5t6 -30.5t2.5 -13h2q0 1 2 12.5t5 29.5t7.5 39.5t9.5 41.5l86 346h135l-182 -666h-130l-96 369q-5 20 -10 41.5t-9 39.5t-6 30
t-2 13h-2q0 -1 -3 -12.5t-7 -29.5t-9 -39.5t-11 -42.5l-105 -369h-130z" />
    <glyph glyph-name="X" unicode="X" horiz-adv-x="616" 
d="M230 342l-201 324h160l126 -208l118 208h142l-192 -322l214 -344h-160l-140 230l-135 -230h-143z" />
    <glyph glyph-name="Y" unicode="Y" horiz-adv-x="598" 
d="M232 251l-221 415h157l141 -283h1l140 283h137l-214 -415v-251h-141v251z" />
    <glyph glyph-name="Z" unicode="Z" horiz-adv-x="571" 
d="M46 92l305 459h-292v115h463v-90l-308 -461h317v-115h-485v92z" />
    <glyph glyph-name="bracketleft" unicode="[" horiz-adv-x="341" 
d="M65 720h250v-99h-123v-683h123v-99h-250v881z" />
    <glyph glyph-name="backslash" unicode="\" horiz-adv-x="450" 
d="M1 720h129l318 -881h-129z" />
    <glyph glyph-name="bracketright" unicode="]" horiz-adv-x="341" 
d="M26 -62h123v683h-123v99h250v-881h-250v99z" />
    <glyph glyph-name="asciicircum" unicode="^" horiz-adv-x="584" 
d="M245 666h93l201 -378h-122l-125 241l-125 -241h-123z" />
    <glyph glyph-name="underscore" unicode="_" horiz-adv-x="433" 
d="M-1 -81h435v-103h-435v103z" />
    <glyph glyph-name="grave" unicode="`" horiz-adv-x="500" 
d="M127 676h171l83 -135h-114z" />
    <glyph glyph-name="a" unicode="a" horiz-adv-x="502" 
d="M180 -12q-31 0 -58 9t-46.5 26.5t-31 43t-11.5 58.5q0 48 22.5 81t59 53.5t83.5 29.5t95 9h17v28q0 35 -17.5 51.5t-61.5 16.5q-40 0 -71 -14.5t-53 -31.5l-58 81q29 27 78.5 48.5t118.5 21.5q100 0 148 -41.5t48 -138.5v-175q0 -50 4.5 -85.5t9.5 -58.5h-131q-3 9 -5 25
t-3 27q-20 -24 -54.5 -44t-82.5 -20zM220 85q31 0 52.5 12.5t37.5 30.5v88h-17q-59 0 -95.5 -18.5t-36.5 -61.5q0 -27 18 -39t41 -12z" />
    <glyph glyph-name="b" unicode="b" horiz-adv-x="553" 
d="M263 -12q-74 0 -124.5 13t-75.5 26v693h133v-271q19 19 50 34.5t69 15.5q46 0 84 -16t65.5 -47.5t42.5 -78.5t15 -110q0 -62 -20 -110.5t-54.5 -81.5t-82 -50t-102.5 -17zM263 92q56 0 87 40t31 115q0 69 -24.5 108t-78.5 39q-27 0 -49 -12.5t-33 -24.5v-254q11 -5 27 -8
t40 -3z" />
    <glyph glyph-name="c" unicode="c" horiz-adv-x="458" 
d="M282 -12q-59 0 -105.5 18.5t-79 52.5t-50 80.5t-17.5 103.5q0 61 19.5 109t53.5 80.5t81 49.5t102 17q60 0 96 -14t53 -25l-43 -91q-17 11 -41 20t-61 9q-59 0 -89 -41.5t-30 -109.5q0 -34 7.5 -62.5t22.5 -49.5t38 -32.5t54 -11.5q42 0 68 11.5t37 18.5l41 -89
q-9 -6 -22 -13.5t-32 -14t-44.5 -11.5t-58.5 -5z" />
    <glyph glyph-name="d" unicode="d" horiz-adv-x="557" 
d="M231 -13q-92 0 -146 66t-54 189q0 58 16.5 105.5t45.5 81.5t69 52t87 18q39 0 67.5 -10t45.5 -24v255h133v-581q0 -45 4.5 -80t9.5 -59h-131q-3 9 -6 25.5t-4 27.5q-25 -30 -58 -48t-79 -18zM271 94q29 0 53 15t38 34v220q-16 14 -36 23t-49 9q-51 0 -78 -40.5
t-27 -112.5q0 -70 24 -109t75 -39z" />
    <glyph glyph-name="e" unicode="e" horiz-adv-x="519" 
d="M285 -12q-61 0 -108.5 18.5t-80 52.5t-49.5 81.5t-17 105.5t18.5 104.5t51 79.5t76.5 51t95 18q104 0 158 -62.5t54 -177.5q0 -11 -0.5 -22.5t-1.5 -23.5h-308q5 -54 34 -90t90 -36q50 0 79.5 12.5t47.5 21.5l43 -86q-12 -7 -28 -15t-37.5 -15t-50.5 -12t-66 -5zM353 303
q0 21 -5 39t-14.5 31.5t-25.5 21.5t-39 8q-43 0 -66.5 -26t-31.5 -74h182z" />
    <glyph glyph-name="f" unicode="f" horiz-adv-x="365" 
d="M90 388h-73v99h73v50q0 88 49 141.5t143 53.5q54 0 81.5 -9t36.5 -14l-31 -100q-6 3 -23 8.5t-44 5.5q-79 0 -79 -96v-40h116v-99h-116v-388h-133v388z" />
    <glyph glyph-name="g" unicode="g" horiz-adv-x="537" 
d="M243 -239q-101 0 -157.5 32t-56.5 98q0 41 23 70t59 49q-20 12 -31.5 30t-11.5 44q0 34 16 56t38 36q-42 23 -64 60.5t-22 85.5q0 39 15 72t42.5 56t67.5 36t91 13q49 0 87 -12h177v-87h-67q20 -35 20 -78q0 -78 -53.5 -127t-156.5 -49q-15 0 -29.5 1t-28.5 3
q-18 -11 -18 -28q0 -20 22.5 -26t75.5 -9q38 -2 78.5 -5.5t74 -17.5t55 -43.5t21.5 -83.5q0 -39 -19 -71t-54.5 -55.5t-84.5 -36.5t-109 -13zM251 -150q61 0 94 20.5t33 51.5q0 19 -8.5 29.5t-23.5 15.5t-36.5 6.5t-48.5 3.5q-17 2 -34 3t-33 4q-38 -27 -38 -68
q0 -29 22 -47.5t73 -18.5zM253 232q42 0 65 24t23 66q0 43 -23 66.5t-65 23.5t-65 -23.5t-23 -66.5q0 -42 23 -66t65 -24z" />
    <glyph glyph-name="h" unicode="h" 
d="M63 720h133v-292q9 10 23 22.5t32.5 23t42.5 18t54 7.5q40 0 68 -12t45 -33t25 -50t8 -63v-341h-133v314q0 37 -14.5 55.5t-49.5 18.5q-20 0 -36.5 -7.5t-29.5 -18t-22 -20.5t-13 -15v-327h-133v720z" />
    <glyph glyph-name="i" unicode="i" horiz-adv-x="280" 
d="M140 550q-35 0 -58 24t-23 56t23 55t58 23t58.5 -23t23.5 -55t-23.5 -56t-58.5 -24zM73 487h134v-487h-134v487z" />
    <glyph glyph-name="j" unicode="j" horiz-adv-x="275" 
d="M37 -233q-37 0 -57.5 4t-29.5 8l23 103q5 -2 14 -4t24 -2q35 0 47.5 23.5t12.5 80.5v507h134v-521q0 -45 -9 -82t-29.5 -63t-52.5 -40t-77 -14zM137 550q-35 0 -58 24t-23 56t23 55t58 23q36 0 59 -23t23 -55t-23 -56t-59 -24z" />
    <glyph glyph-name="k" unicode="k" horiz-adv-x="517" 
d="M63 720h133v-430l161 197h145l-180 -217l184 -270h-154l-156 238v-238h-133v720z" />
    <glyph glyph-name="l" unicode="l" horiz-adv-x="275" 
d="M71 720h133v-720h-133v720z" />
    <glyph glyph-name="m" unicode="m" horiz-adv-x="823" 
d="M65 487h130v-60q9 10 22 23t31 23.5t41 18t52 7.5q52 0 81.5 -21t43.5 -56q31 35 67 56t89 21q39 0 65.5 -12t43 -33t23.5 -50t7 -63v-341h-133v314q0 36 -12.5 55t-45.5 19q-15 0 -28.5 -5.5t-25 -13.5t-21 -17.5t-16.5 -18.5v-333h-133v314q0 37 -13.5 55.5t-43.5 18.5
q-18 0 -33.5 -7.5t-27 -17.5t-19 -20t-11.5 -15v-328h-133v487z" />
    <glyph glyph-name="n" unicode="n" horiz-adv-x="557" 
d="M65 487h130v-61q26 31 64 52t91 21q40 0 67.5 -12t45 -33t25.5 -50t8 -63v-341h-133v314q0 37 -14.5 55.5t-50.5 18.5q-16 0 -31 -5.5t-27.5 -14.5t-23.5 -20t-18 -21v-327h-133v487z" />
    <glyph glyph-name="o" unicode="o" horiz-adv-x="550" 
d="M274 -12q-64 0 -110 22t-76 58t-44 81.5t-14 92.5t14 93t43.5 82.5t75.5 59t110 22.5t110.5 -22t77 -57.5t45 -81t14.5 -92.5q0 -46 -14.5 -92t-44.5 -83t-76.5 -60t-110.5 -23zM276 89q57 0 80 42t23 111q0 34 -6 63t-19.5 50t-34 33t-48.5 12t-47 -11.5t-31 -31.5
t-17 -48.5t-5 -62.5t6 -63t18.5 -50t32.5 -32.5t48 -11.5z" />
    <glyph glyph-name="p" unicode="p" horiz-adv-x="559" 
d="M65 487h130v-51q20 25 52.5 44t82.5 19q93 0 145.5 -66t52.5 -189q0 -58 -16 -105t-45 -80.5t-69 -52t-88 -18.5q-45 0 -72 12t-40 23v-242h-133v706zM282 91q51 0 78 40.5t27 112.5q0 69 -24 109t-73 40q-19 0 -34 -6t-27 -14t-19.5 -16.5t-11.5 -13.5v-219
q13 -11 32.5 -22t51.5 -11z" />
    <glyph glyph-name="q" unicode="q" horiz-adv-x="554" 
d="M359 39q-18 -19 -48 -35t-71 -16q-46 0 -84 16t-65.5 47.5t-42.5 79t-15 109.5t20 110.5t55 81.5t82 50t102 17q42 0 75.5 -4t58 -10t41 -12t25.5 -10v-681h-133v257zM277 93q16 0 29.5 4.5t24 10.5t18 12t10.5 10v254q-7 2 -23 6.5t-43 4.5q-57 0 -88.5 -40t-31.5 -115
q0 -69 25 -108t79 -39z" />
    <glyph glyph-name="r" unicode="r" horiz-adv-x="390" 
d="M65 487h133v-66q8 13 19.5 27t26.5 25.5t34.5 18.5t42.5 7q27 0 42.5 -4t23.5 -9l-32 -116q-6 4 -18 7.5t-33 3.5q-22 0 -39.5 -8.5t-31 -20.5t-22.5 -24.5t-13 -20.5v-307h-133v487z" />
    <glyph glyph-name="s" unicode="s" horiz-adv-x="420" 
d="M199 -12q-66 0 -108 15.5t-65 30.5l45 93q7 -5 19 -12t28 -13t34.5 -10.5t38.5 -4.5q38 0 59 11t21 33q0 12 -9.5 21t-26 16.5t-39 16.5t-48.5 21q-51 24 -80 56t-29 88q0 69 49.5 109t132.5 40q63 0 101 -14.5t55 -24.5l-47 -91q-14 9 -41.5 20t-62.5 11t-51 -11.5
t-16 -31.5q0 -12 7.5 -20.5t21 -15.5t32 -13.5t39.5 -14.5q29 -12 53.5 -25.5t42 -30.5t27.5 -39.5t10 -53.5q0 -77 -51 -116.5t-142 -39.5z" />
    <glyph glyph-name="t" unicode="t" horiz-adv-x="387" 
d="M251 -12q-86 0 -120 41t-34 111v248h-78v99h78v141h132v-141h114v-99h-114v-222q0 -36 10.5 -52.5t38.5 -16.5q22 0 39 6.5t25 11.5l31 -99q-15 -8 -45.5 -18t-76.5 -10z" />
    <glyph glyph-name="u" unicode="u" horiz-adv-x="557" 
d="M207 -12q-40 0 -68 12t-45 33.5t-25 50.5t-8 62v341h133v-314q0 -37 14.5 -55.5t50.5 -18.5q19 0 35.5 8t29.5 18t22 20t13 15v327h133v-347q0 -47 4 -82.5t9 -57.5h-131q-3 10 -6 30t-4 35q-10 -12 -24 -26t-33.5 -25t-44.5 -18.5t-55 -7.5z" />
    <glyph glyph-name="v" unicode="v" horiz-adv-x="507" 
d="M10 487h144l101 -322h2l104 322h135l-180 -487h-125z" />
    <glyph glyph-name="w" unicode="w" horiz-adv-x="743" 
d="M11 487h143l74 -310h2l83 310h123l83 -312h2l76 312h133l-139 -487h-120l-100 326h-2l-100 -326h-120z" />
    <glyph glyph-name="x" unicode="x" horiz-adv-x="511" 
d="M182 252l-160 235h150q24 -36 43 -65q17 -25 30 -45.5t15 -22.5l78 133h137l-151 -229l172 -258h-150l-101 156l-92 -156h-137z" />
    <glyph glyph-name="y" unicode="y" horiz-adv-x="517" 
d="M78 -234q-31 0 -49 3.5t-26 5.5l19 105q5 -2 15 -3.5t32 -1.5q51 0 74 23t37 62l18 50l-183 477h142l110 -321h3l99 321h137l-201 -539q-16 -43 -35 -77t-45 -57t-61.5 -35.5t-85.5 -12.5z" />
    <glyph glyph-name="z" unicode="z" horiz-adv-x="458" 
d="M39 72l212 315h-202v100h364v-77l-211 -310h213v-100h-376v72z" />
    <glyph glyph-name="braceleft" unicode="{" horiz-adv-x="406" 
d="M259 -161q-22 0 -43 7.5t-38 23t-27.5 38.5t-10.5 55v171q0 47 -27.5 73t-86.5 28v100q114 3 114 101v161q0 32 10 55t27 38t38.5 22.5t44.5 7.5h119v-99h-62q-31 0 -40.5 -18t-9.5 -50v-146q0 -54 -26 -81t-65 -38v-2q40 -13 65.5 -41.5t25.5 -84.5v-155q0 -35 9 -51
t41 -16h62v-99h-120z" />
    <glyph glyph-name="bar" unicode="|" horiz-adv-x="286" 
d="M85 750h117v-1000h-117v1000z" />
    <glyph glyph-name="braceright" unicode="}" horiz-adv-x="406" 
d="M26 -62h62q32 0 41.5 18t9.5 50v157q0 54 25.5 81t65.5 38v2q-41 13 -66 41.5t-25 84.5v144q0 35 -9 51t-41 16h-63v99h121q22 0 43 -7.5t38 -23t27.5 -39t10.5 -54.5v-160q0 -47 27 -73t87 -28v-100q-59 -2 -86.5 -27t-27.5 -74v-172q0 -32 -10.5 -55t-27 -38
t-38.5 -22.5t-44 -7.5h-120v99z" />
    <glyph glyph-name="asciitilde" unicode="~" horiz-adv-x="585" 
d="M390 165q-37 0 -62.5 9t-46.5 20t-42.5 20t-51.5 9q-34 0 -55 -14.5t-34 -26.5l-60 79q10 10 25 22.5t34.5 23t43.5 18t52 7.5q34 0 57.5 -9t45 -20t44.5 -20t56 -9q29 0 53 13.5t38 27.5l60 -78q-11 -12 -26.5 -24.5t-35.5 -23t-44 -17.5t-51 -7z" />
    <glyph glyph-name="uni00A0" unicode="&#xa0;" horiz-adv-x="194" 
 />
    <glyph glyph-name="exclamdown" unicode="&#xa1;" horiz-adv-x="298" 
d="M152 336q-37 0 -60.5 24t-23.5 57q0 34 23.5 58t60.5 24t60.5 -24t23.5 -58q0 -33 -23.5 -57t-60.5 -24zM99 264h106l25 -440h-156z" />
    <glyph glyph-name="cent" unicode="&#xa2;" horiz-adv-x="458" 
d="M205 -3q-84 21 -129.5 87t-45.5 159q0 100 48.5 163t126.5 83v110h111v-101q47 -4 75.5 -16t43.5 -22l-43 -91q-17 11 -41 20t-61 9q-59 0 -89 -41.5t-30 -109.5q0 -34 7.5 -62.5t22.5 -49.5t38 -32.5t54 -11.5q42 0 68 11.5t37 18.5l41 -89q-15 -10 -43.5 -23.5
t-79.5 -18.5v-113h-111v120z" />
    <glyph glyph-name="sterling" unicode="&#xa3;" horiz-adv-x="513" 
d="M62 366h84q-5 26 -8.5 55t-3.5 62q0 87 56 141t161 54q54 0 88 -12t55 -25l-53 -93q-14 8 -33.5 15.5t-52.5 7.5q-42 0 -62 -25.5t-20 -73.5q0 -28 3 -54t8 -52h145v-97h-132v-14q0 -55 -20.5 -93.5t-42.5 -55.5h234v-106h-404v85q51 26 74 72t23 94v9q0 4 -1 9h-98v97z
" />
    <glyph glyph-name="currency" unicode="&#xa4;" horiz-adv-x="622" 
d="M62 69l79 99q-18 26 -27 56.5t-9 62.5q0 33 10 64.5t30 57.5l-80 101l96 74l78 -105q17 6 36 9.5t40 3.5q38 0 68 -11l77 103l97 -74l-76 -95q23 -26 34 -60t11 -68q0 -35 -10.5 -67.5t-31.5 -59.5l72 -91l-97 -74l-71 97q-35 -11 -73 -11q-47 0 -81 15l-75 -101z
M315 195q42 0 64.5 26.5t22.5 65.5q0 40 -23.5 66t-63.5 26q-39 0 -63 -26.5t-24 -65.5t23 -65.5t64 -26.5z" />
    <glyph glyph-name="yen" unicode="&#xa5;" horiz-adv-x="583" 
d="M225 85h-162v93h162v58h-162v92h121l-180 338h157l140 -286h2l140 286h137l-175 -338h124v-92h-163v-58h163v-93h-163v-85h-141v85z" />
    <glyph glyph-name="brokenbar" unicode="&#xa6;" horiz-adv-x="241" 
d="M60 128h117v-378h-117v378zM60 750h117v-368h-117v368z" />
    <glyph glyph-name="section" unicode="&#xa7;" horiz-adv-x="465" 
d="M192 -152q-52 0 -85.5 11.5t-50.5 22.5l41 96q11 -8 31 -16.5t49 -8.5q36 0 55.5 18t19.5 47q0 21 -16 41.5t-39.5 42t-51 45.5t-51 52t-39.5 61t-16 72q0 48 23.5 81.5t53.5 52.5q-14 21 -24 46t-10 55q0 39 14.5 69.5t39 51.5t57 32.5t69.5 11.5q57 0 89.5 -12.5
t50.5 -25.5l-49 -87q-10 7 -27 15.5t-49 8.5q-31 0 -46.5 -17t-15.5 -42q0 -22 15.5 -43.5t39 -44t50.5 -47.5t50.5 -53.5t39 -62t15.5 -73.5q0 -24 -6.5 -44t-17 -36.5t-23.5 -29.5t-26 -23q14 -20 24 -44.5t10 -51.5q0 -44 -16 -76.5t-43 -53.5t-62 -31t-73 -10zM276 191
q10 10 16 22.5t6 29.5t-12 36.5t-29 39.5t-37.5 39t-36.5 35q-9 -8 -13.5 -20t-4.5 -32q0 -17 11.5 -36.5t28.5 -39.5t36 -39z" />
    <glyph glyph-name="dieresis" unicode="&#xa8;" horiz-adv-x="500" 
d="M145 542q-32 0 -53 21t-21 51q0 29 21 50t53 21t53 -21t21 -50q0 -30 -21 -51t-53 -21zM355 542q-32 0 -53 21t-21 51q0 29 21 50t53 21t53 -21t21 -50q0 -30 -21 -51t-53 -21z" />
    <glyph glyph-name="copyright" unicode="&#xa9;" horiz-adv-x="836" 
d="M424 135q-47 0 -87.5 17t-70 47t-46 71t-16.5 89t17 89t47 71t70.5 47t87.5 17q28 0 51 -5t41 -13t32 -17.5t24 -18.5l-53 -75q-13 10 -34.5 22t-57.5 12q-27 0 -48 -10t-36 -27.5t-23 -40.5t-8 -49q0 -29 9 -53.5t24.5 -42.5t37 -28t47.5 -10q38 0 62.5 16t38.5 28
l50 -72q-10 -9 -24.5 -20t-34 -21t-44.5 -16.5t-56 -6.5zM417 -14q-77 0 -144.5 29.5t-118 80t-80 118.5t-29.5 145t29.5 145t80 118.5t118 80t144.5 29.5t145 -29.5t118.5 -80t80 -118.5t29.5 -145t-29.5 -145t-80 -118.5t-118.5 -80t-145 -29.5zM417 63q63 0 116.5 21
t92 60t60.5 93.5t22 121.5q0 66 -22 120.5t-60.5 93.5t-92 60.5t-116.5 21.5t-116 -21.5t-91.5 -60.5t-60.5 -93.5t-22 -120.5q0 -67 22 -121.5t60.5 -93.5t91.5 -60t116 -21z" />
    <glyph glyph-name="ordfeminine" unicode="&#xaa;" horiz-adv-x="377" 
d="M135 312q-48 0 -80 26t-32 74q0 30 13 51.5t33 36.5q27 19 66 26.5t86 7.5v17q0 23 -10.5 35t-42.5 12t-54.5 -12t-34.5 -21l-45 63q8 7 21.5 16t31.5 16.5t41 12.5t51 5q75 0 110.5 -30.5t35.5 -99.5v-123q0 -35 3.5 -60t8.5 -44h-103q-2 6 -4 15.5t-3 17.5
q-14 -14 -37 -28t-55 -14zM162 386q24 0 38 9.5t21 17.5v59q-32 0 -53 -4t-34 -17q-12 -12 -12 -31q0 -34 40 -34z" />
    <glyph glyph-name="guillemotleft" unicode="&#xab;" horiz-adv-x="539" 
d="M32 245l120 193h136l-119 -193l119 -192h-136zM254 245l120 193h136l-119 -193l119 -192h-136z" />
    <glyph glyph-name="logicalnot" unicode="&#xac;" horiz-adv-x="624" 
d="M470 215h-430v103h537v-288h-107v185z" />
    <glyph glyph-name="uni00AD" unicode="&#xad;" horiz-adv-x="330" 
d="M51 336h228v-108h-228v108z" />
    <glyph glyph-name="registered" unicode="&#xae;" horiz-adv-x="836" 
d="M275 573h148q73 0 111 -33t38 -89q0 -50 -27.5 -76.5t-68.5 -34.5q10 -8 22 -22t28 -40l75 -122h-103l-79 132q-14 23 -24 31t-27 8v-171h-93v417zM417 -14q-77 0 -144.5 29.5t-118 80t-80 118.5t-29.5 145t29.5 145t80 118.5t118 80t144.5 29.5t145 -29.5t118.5 -80
t80 -118.5t29.5 -145t-29.5 -145t-80 -118.5t-118.5 -80t-145 -29.5zM417 63q63 0 116.5 21t92 60t60.5 93.5t22 121.5q0 66 -22 120.5t-60.5 93.5t-92 60.5t-116.5 21.5t-116 -21.5t-91.5 -60.5t-60.5 -93.5t-22 -120.5q0 -67 22 -121.5t60.5 -93.5t91.5 -60t116 -21z
M406 391q30 0 51 11.5t21 43.5q0 26 -15 41t-50 15h-45v-111h38z" />
    <glyph glyph-name="macron" unicode="&#xaf;" horiz-adv-x="500" 
d="M108 657h283v-95h-283v95z" />
    <glyph glyph-name="degree" unicode="&#xb0;" horiz-adv-x="346" 
d="M173 397q-29 0 -55 11t-45.5 30t-31 44.5t-11.5 54.5q0 30 11.5 55.5t31 44.5t45.5 30t55 11t55 -11t45.5 -30t31 -44.5t11.5 -55.5q0 -29 -11 -54.5t-30.5 -44.5t-45.5 -30t-56 -11zM173 472q27 0 44 18.5t17 46.5q0 29 -17 47.5t-44 18.5t-44 -18.5t-17 -47.5
q0 -28 17 -46.5t44 -18.5z" />
    <glyph glyph-name="plusminus" unicode="&#xb1;" horiz-adv-x="574" 
d="M225 212h-184v102h184v180h114v-180h181v-102h-181v-186h-114v186zM55 -49h453v-103h-453v103z" />
    <glyph glyph-name="twosuperior" unicode="&#xb2;" horiz-adv-x="343" 
d="M25 385q29 22 57 44t49.5 43.5t35 42.5t13.5 41t-11.5 28.5t-28.5 8.5q-21 0 -40.5 -9t-34.5 -23l-49 65q23 19 56.5 33t81.5 14q69 0 102.5 -30t33.5 -75q0 -24 -10 -45t-26.5 -41t-38 -38t-43.5 -36q5 2 19.5 2.5t28.5 0.5h85v-80h-280v54z" />
    <glyph glyph-name="threesuperior" unicode="&#xb3;" horiz-adv-x="322" 
d="M106 325q-29 0 -52 3.5t-34 8.5l20 75q10 -4 27.5 -7t34.5 -3q29 0 49 7.5t20 24.5q0 19 -24 27.5t-68 9.5v60q40 2 61.5 12.5t21.5 27.5q0 25 -38 25q-18 0 -36.5 -7t-28.5 -14l-37 64q18 12 51.5 23t74.5 11q57 0 88.5 -21t31.5 -58q0 -17 -6.5 -30t-17 -22t-23 -15.5
t-25.5 -9.5v-1q14 -2 29 -7t27.5 -15t20.5 -24.5t8 -34.5q0 -52 -46 -81t-129 -29z" />
    <glyph glyph-name="acute" unicode="&#xb4;" horiz-adv-x="500" 
d="M228 676h172l-140 -135h-115z" />
    <glyph glyph-name="mu" unicode="&#xb5;" horiz-adv-x="565" 
d="M62 487h133v-317q0 -32 12 -51.5t47 -19.5q18 0 34.5 6.5t30 16t24 20t17.5 18.5v327h133v-349q0 -44 3.5 -80.5t8.5 -57.5h-131q-3 9 -6 29.5t-4 35.5q-9 -10 -21 -22t-27.5 -22.5t-35 -18.5t-43.5 -10q-12 -1 -24.5 0.5t-21.5 5.5h-3q2 -10 3 -36t1 -64v-107h-130v696z
" />
    <glyph glyph-name="paragraph" unicode="&#xb6;" horiz-adv-x="662" 
d="M243 252q-42 0 -79.5 14.5t-65.5 41.5t-44 65t-16 85t16 85.5t44 65.5t65.5 42t79.5 15h385v-104h-75v-739h-115v739h-78v-739h-117v429z" />
    <glyph glyph-name="periodcentered" unicode="&#xb7;" horiz-adv-x="258" 
d="M129 204q-37 0 -62.5 25t-25.5 61t25.5 61t62.5 25t62.5 -25t25.5 -61t-25.5 -61t-62.5 -25z" />
    <glyph glyph-name="cedilla" unicode="&#xb8;" horiz-adv-x="494" 
d="M229 -230q-32 0 -52 5t-30 10l17 60q8 -4 21 -7.5t30 -3.5q22 0 35 8.5t13 25.5q0 13 -6.5 20.5t-16.5 12t-22.5 5.5t-25.5 0l36 97h76l-21 -58q31 -7 51 -28t20 -54q0 -42 -34.5 -67.5t-90.5 -25.5z" />
    <glyph glyph-name="onesuperior" unicode="&#xb9;" horiz-adv-x="286" 
d="M107 579l-73 -18l-22 79l121 26h77v-335h-103v248z" />
    <glyph glyph-name="ordmasculine" unicode="&#xba;" horiz-adv-x="410" 
d="M205 312q-46 0 -79.5 15t-55.5 40.5t-33 58.5t-11 68t10.5 68.5t32.5 59t55.5 41t79.5 15.5q45 0 78.5 -15t56 -40t34 -58t11.5 -68t-11 -68.5t-33 -59.5t-56 -41.5t-79 -15.5zM206 389q38 0 52.5 28.5t14.5 76.5t-16.5 78t-54.5 30t-51.5 -28.5t-13.5 -76.5t15.5 -78
t53.5 -30z" />
    <glyph glyph-name="guillemotright" unicode="&#xbb;" horiz-adv-x="539" 
d="M148 246l-120 192h136l120 -192l-120 -193h-136zM370 246l-119 192h135l121 -192l-121 -193h-135z" />
    <glyph glyph-name="onequarter" unicode="&#xbc;" horiz-adv-x="745" 
d="M107 579l-73 -18l-22 79l121 26h77v-335h-103v248zM504 666h106l-409 -666h-105zM570 62h-170v62l175 211h98v-199h52v-74h-52v-62h-103v62zM497 134q7 1 18.5 1.5t24.5 0.5h33v91h-1z" />
    <glyph glyph-name="onehalf" unicode="&#xbd;" horiz-adv-x="766" 
d="M107 579l-73 -18l-22 79l121 26h77v-335h-103v248zM504 666h106l-409 -666h-105zM447 54q29 22 57 44t50 43.5t35.5 42t13.5 41.5q0 19 -12 27.5t-29 8.5q-21 0 -40 -8.5t-35 -22.5l-49 64q23 20 56.5 33.5t81.5 13.5q69 0 103 -29.5t34 -75.5q0 -23 -10.5 -44.5t-27 -41
t-38 -38t-43.5 -35.5q5 1 20 1.5t28 0.5h85v-79h-280v54z" />
    <glyph glyph-name="threequarters" unicode="&#xbe;" horiz-adv-x="782" 
d="M106 325q-29 0 -52 3.5t-34 8.5l20 75q10 -4 27.5 -7t34.5 -3q29 0 49 7.5t20 24.5q0 19 -24 27.5t-68 9.5v60q40 2 61.5 12.5t21.5 27.5q0 25 -38 25q-18 0 -36.5 -7t-28.5 -14l-37 64q18 12 51.5 23t74.5 11q57 0 88.5 -21t31.5 -58q0 -17 -6.5 -30t-17 -22t-23 -15.5
t-25.5 -9.5v-1q14 -2 29 -7t27.5 -15t20.5 -24.5t8 -34.5q0 -52 -46 -81t-129 -29zM541 666h106l-409 -666h-106zM607 62h-170v62l175 211h97v-199h53v-74h-53v-62h-102v62zM534 134q7 1 18 1.5t24 0.5h34v91h-1z" />
    <glyph glyph-name="questiondown" unicode="&#xbf;" horiz-adv-x="411" 
d="M240 -188q-53 0 -92 13t-65 36.5t-38.5 55t-12.5 67.5q0 31 8.5 55t22 42.5t30 33t33.5 25.5q16 11 29 20t22.5 18.5t15 21t5.5 27.5v40h116v-54q0 -46 -17 -71.5t-52 -47.5q-33 -22 -51 -42.5t-18 -56.5q0 -74 88 -74q30 0 51 8t35 15l46 -98q-22 -11 -59 -22.5
t-97 -11.5zM255 336q-37 0 -60.5 24t-23.5 57q0 34 23.5 58t60.5 24t60.5 -24t23.5 -58q0 -33 -23.5 -57t-60.5 -24z" />
    <glyph glyph-name="Agrave" unicode="&#xc0;" horiz-adv-x="680" 
d="M427 238l-57 159q-16 43 -23.5 73.5t-12.5 41.5h-2q-4 -12 -12.5 -43t-22.5 -72l-57 -159h187zM269 666h136l261 -666h-154l-45 125h-266l-44 -125h-142zM146 852h171l83 -135h-114z" />
    <glyph glyph-name="Aacute" unicode="&#xc1;" horiz-adv-x="680" 
d="M427 238l-57 159q-16 43 -23.5 73.5t-12.5 41.5h-2q-4 -12 -12.5 -43t-22.5 -72l-57 -159h187zM269 666h136l261 -666h-154l-45 125h-266l-44 -125h-142zM350 852h172l-140 -135h-115z" />
    <glyph glyph-name="Acircumflex" unicode="&#xc2;" horiz-adv-x="680" 
d="M427 238l-57 159q-16 43 -23.5 73.5t-12.5 41.5h-2q-4 -12 -12.5 -43t-22.5 -72l-57 -159h187zM269 666h136l261 -666h-154l-45 125h-266l-44 -125h-142zM283 877h102l125 -159h-113l-64 66l-64 -66h-113z" />
    <glyph glyph-name="Atilde" unicode="&#xc3;" horiz-adv-x="680" 
d="M427 238l-57 159q-16 43 -23.5 73.5t-12.5 41.5h-2q-4 -12 -12.5 -43t-22.5 -72l-57 -159h187zM269 666h136l261 -666h-154l-45 125h-266l-44 -125h-142zM392 722q-23 0 -38 5.5t-28 12t-25 12t-27 5.5q-18 0 -32 -11t-22 -19l-61 53q7 12 18 25.5t25.5 24.5t32 18
t37.5 7q23 0 38.5 -5.5t28 -12t24.5 -12t27 -5.5q21 0 35 11.5t21 19.5l61 -53q-8 -13 -19 -26.5t-25.5 -24.5t-32 -18t-38.5 -7z" />
    <glyph glyph-name="Adieresis" unicode="&#xc4;" horiz-adv-x="680" 
d="M427 238l-57 159q-16 43 -23.5 73.5t-12.5 41.5h-2q-4 -12 -12.5 -43t-22.5 -72l-57 -159h187zM269 666h136l261 -666h-154l-45 125h-266l-44 -125h-142zM228 718q-32 0 -53 21t-21 51q0 29 21 50t53 21t53 -21t21 -50q0 -30 -21 -51t-53 -21zM438 718q-32 0 -53 21
t-21 51q0 29 21 50t53 21t53 -21t21 -50q0 -30 -21 -51t-53 -21z" />
    <glyph glyph-name="Aring" unicode="&#xc5;" horiz-adv-x="680" 
d="M427 238l-57 159q-16 43 -23.5 73.5t-12.5 41.5h-2q-4 -12 -12.5 -43t-22.5 -72l-57 -159h187zM269 666h136l261 -666h-154l-45 125h-266l-44 -125h-142zM333 705q-21 0 -41 8t-35.5 22.5t-24.5 34t-9 42.5q0 22 9 41.5t24.5 34t35.5 22.5t41 8t41 -8t35.5 -22.5
t24.5 -34t9 -41.5q0 -23 -9 -42.5t-24.5 -34t-35.5 -22.5t-41 -8zM333 761q22 0 34 15.5t12 35.5t-12 35t-34 15t-34 -15t-12 -35t12 -35.5t34 -15.5z" />
    <glyph glyph-name="AE" unicode="&#xc6;" horiz-adv-x="859" 
d="M355 666h440v-116h-245v-150h216v-110h-216v-174h252v-116h-391v141h-205l-77 -141h-152zM411 251v269l-147 -269h147z" />
    <glyph glyph-name="Ccedilla" unicode="&#xc7;" horiz-adv-x="618" 
d="M315 -230q-32 0 -52 5t-30 10l17 60q8 -4 21 -7.5t30 -3.5q22 0 35 8.5t13 25.5q0 13 -6.5 20.5t-16.5 12t-22.5 5.5t-25.5 0l33 89q-67 12 -117 43.5t-83.5 77.5t-50.5 102t-17 116q0 68 22 130t65.5 109.5t108 76t148.5 28.5q66 0 113.5 -13.5t86.5 -39.5l-63 -103
q-28 18 -60.5 28.5t-78.5 10.5q-47 0 -83 -17.5t-60 -48t-36.5 -71t-12.5 -86.5q0 -48 12 -90t36 -73.5t60.5 -50t85.5 -18.5q54 0 89.5 15.5t61.5 35.5l58 -99q-13 -12 -34 -24t-48 -22.5t-60 -17t-69 -6.5h-1l-15 -43q31 -7 51 -28t20 -54q0 -42 -34.5 -67.5t-90.5 -25.5z
" />
    <glyph glyph-name="Egrave" unicode="&#xc8;" horiz-adv-x="530" 
d="M83 666h384v-116h-245v-150h216v-110h-216v-174h252v-116h-391v666zM89 852h171l83 -135h-114z" />
    <glyph glyph-name="Eacute" unicode="&#xc9;" horiz-adv-x="530" 
d="M291 852h172l-140 -135h-115zM83 666h384v-116h-245v-150h216v-110h-216v-174h252v-116h-391v666z" />
    <glyph glyph-name="Ecircumflex" unicode="&#xca;" horiz-adv-x="530" 
d="M224 877h102l125 -159h-113l-64 66l-64 -66h-113zM83 666h384v-116h-245v-150h216v-110h-216v-174h252v-116h-391v666z" />
    <glyph glyph-name="Edieresis" unicode="&#xcb;" horiz-adv-x="530" 
d="M169 718q-32 0 -53 21t-21 51q0 29 21 50t53 21t53 -21t21 -50q0 -30 -21 -51t-53 -21zM379 718q-32 0 -53 21t-21 51q0 29 21 50t53 21t53 -21t21 -50q0 -30 -21 -51t-53 -21zM83 666h384v-116h-245v-150h216v-110h-216v-174h252v-116h-391v666z" />
    <glyph glyph-name="Igrave" unicode="&#xcc;" horiz-adv-x="324" 
d="M89 666h141v-666h-141v666zM-27 852h171l83 -135h-114z" />
    <glyph glyph-name="Iacute" unicode="&#xcd;" horiz-adv-x="324" 
d="M89 666h141v-666h-141v666zM177 852h172l-140 -135h-115z" />
    <glyph glyph-name="Icircumflex" unicode="&#xce;" horiz-adv-x="324" 
d="M89 666h141v-666h-141v666zM110 877h102l125 -159h-113l-64 66l-64 -66h-113z" />
    <glyph glyph-name="Idieresis" unicode="&#xcf;" horiz-adv-x="324" 
d="M89 666h141v-666h-141v666zM55 718q-32 0 -53 21t-21 51q0 29 21 50t53 21t53 -21t21 -50q0 -30 -21 -51t-53 -21zM265 718q-32 0 -53 21t-21 51q0 29 21 50t53 21t53 -21t21 -50q0 -30 -21 -51t-53 -21z" />
    <glyph glyph-name="Eth" unicode="&#xd0;" horiz-adv-x="701" 
d="M83 289h-65v99h65v278h201q98 0 170 -23.5t119 -66.5t69.5 -102.5t22.5 -131.5t-23 -134.5t-70.5 -108.5t-120.5 -72.5t-172 -26.5h-196v289zM290 113q113 0 169.5 56.5t56.5 168.5t-56 163.5t-175 51.5h-61v-165h105v-99h-105v-176h66z" />
    <glyph glyph-name="Ntilde" unicode="&#xd1;" horiz-adv-x="742" 
d="M82 666h142l240 -345q30 -43 47.5 -73.5t22.5 -38.5h2q-1 7 -2.5 37t-1.5 68v352h128v-666h-129l-259 370q-27 38 -42.5 64t-21.5 36h-2q1 -7 2.5 -32t1.5 -57v-381h-128v666zM429 722q-23 0 -38 5.5t-28 12t-25 12t-27 5.5q-18 0 -32 -11t-22 -19l-61 53q7 12 18 25.5
t25.5 24.5t32 18t37.5 7q23 0 38.5 -5.5t28 -12t24.5 -12t27 -5.5q21 0 35 11.5t21 19.5l61 -53q-8 -13 -19 -26.5t-25.5 -24.5t-32 -18t-38.5 -7z" />
    <glyph glyph-name="Ograve" unicode="&#xd2;" horiz-adv-x="773" 
d="M390 -12q-84 0 -148.5 28.5t-108.5 76t-67 109.5t-23 130t22.5 130.5t66 110.5t107.5 76.5t148 28.5t148 -28.5t107.5 -75.5t65.5 -109t22 -129q0 -68 -22 -131t-64.5 -111t-106 -77t-147.5 -29zM387 102q50 0 86.5 18.5t60.5 50t35.5 73t11.5 88.5q0 46 -11 88.5
t-34.5 74t-59.5 50.5t-86 19t-87 -18t-61.5 -49.5t-36.5 -73t-12 -87.5q0 -47 11.5 -89.5t35.5 -74.5t60.5 -51t86.5 -19zM200 852h171l83 -135h-114z" />
    <glyph glyph-name="Oacute" unicode="&#xd3;" horiz-adv-x="773" 
d="M403 852h172l-140 -135h-115zM390 -12q-84 0 -148.5 28.5t-108.5 76t-67 109.5t-23 130t22.5 130.5t66 110.5t107.5 76.5t148 28.5t148 -28.5t107.5 -75.5t65.5 -109t22 -129q0 -68 -22 -131t-64.5 -111t-106 -77t-147.5 -29zM387 102q50 0 86.5 18.5t60.5 50t35.5 73
t11.5 88.5q0 46 -11 88.5t-34.5 74t-59.5 50.5t-86 19t-87 -18t-61.5 -49.5t-36.5 -73t-12 -87.5q0 -47 11.5 -89.5t35.5 -74.5t60.5 -51t86.5 -19z" />
    <glyph glyph-name="Ocircumflex" unicode="&#xd4;" horiz-adv-x="773" 
d="M336 877h102l125 -159h-113l-64 66l-64 -66h-113zM390 -12q-84 0 -148.5 28.5t-108.5 76t-67 109.5t-23 130t22.5 130.5t66 110.5t107.5 76.5t148 28.5t148 -28.5t107.5 -75.5t65.5 -109t22 -129q0 -68 -22 -131t-64.5 -111t-106 -77t-147.5 -29zM387 102q50 0 86.5 18.5
t60.5 50t35.5 73t11.5 88.5q0 46 -11 88.5t-34.5 74t-59.5 50.5t-86 19t-87 -18t-61.5 -49.5t-36.5 -73t-12 -87.5q0 -47 11.5 -89.5t35.5 -74.5t60.5 -51t86.5 -19z" />
    <glyph glyph-name="Otilde" unicode="&#xd5;" horiz-adv-x="773" 
d="M390 -12q-84 0 -148.5 28.5t-108.5 76t-67 109.5t-23 130t22.5 130.5t66 110.5t107.5 76.5t148 28.5t148 -28.5t107.5 -75.5t65.5 -109t22 -129q0 -68 -22 -131t-64.5 -111t-106 -77t-147.5 -29zM387 102q50 0 86.5 18.5t60.5 50t35.5 73t11.5 88.5q0 46 -11 88.5
t-34.5 74t-59.5 50.5t-86 19t-87 -18t-61.5 -49.5t-36.5 -73t-12 -87.5q0 -47 11.5 -89.5t35.5 -74.5t60.5 -51t86.5 -19zM445 722q-23 0 -38 5.5t-28 12t-25 12t-27 5.5q-18 0 -32 -11t-22 -19l-61 53q7 12 18 25.5t25.5 24.5t32 18t37.5 7q23 0 38.5 -5.5t28 -12t24.5 -12
t27 -5.5q21 0 35 11.5t21 19.5l61 -53q-8 -13 -19 -26.5t-25.5 -24.5t-32 -18t-38.5 -7z" />
    <glyph glyph-name="Odieresis" unicode="&#xd6;" horiz-adv-x="773" 
d="M281 718q-32 0 -53 21t-21 51q0 29 21 50t53 21t53 -21t21 -50q0 -30 -21 -51t-53 -21zM491 718q-32 0 -53 21t-21 51q0 29 21 50t53 21t53 -21t21 -50q0 -30 -21 -51t-53 -21zM390 -12q-84 0 -148.5 28.5t-108.5 76t-67 109.5t-23 130t22.5 130.5t66 110.5t107.5 76.5
t148 28.5t148 -28.5t107.5 -75.5t65.5 -109t22 -129q0 -68 -22 -131t-64.5 -111t-106 -77t-147.5 -29zM387 102q50 0 86.5 18.5t60.5 50t35.5 73t11.5 88.5q0 46 -11 88.5t-34.5 74t-59.5 50.5t-86 19t-87 -18t-61.5 -49.5t-36.5 -73t-12 -87.5q0 -47 11.5 -89.5t35.5 -74.5
t60.5 -51t86.5 -19z" />
    <glyph glyph-name="multiply" unicode="&#xd7;" horiz-adv-x="511" 
d="M254 188l-120 -119l-76 76l120 120l-121 121l78 78l121 -120l119 119l77 -77l-119 -119l125 -125l-79 -78z" />
    <glyph glyph-name="Oslash" unicode="&#xd8;" horiz-adv-x="773" 
d="M82 -15l66 92q-52 49 -78.5 115t-26.5 140q0 68 22.5 130.5t66 110.5t107.5 76.5t148 28.5q47 0 87 -9t75 -26l64 90l84 -60l-64 -90q48 -48 72.5 -112t24.5 -135q0 -68 -22 -131t-64.5 -111t-106 -77t-147.5 -29q-45 0 -84 8.5t-73 23.5l-68 -94zM193 336q0 -43 9 -81.5
t29 -69.5l251 357q-20 11 -42.5 16.5t-49.5 5.5q-50 0 -87 -18t-61.5 -49.5t-36.5 -73t-12 -87.5zM387 102q50 0 86.5 18.5t60.5 50t35.5 73t11.5 88.5q0 39 -7.5 75.5t-24.5 65.5l-250 -351q38 -20 88 -20z" />
    <glyph glyph-name="Ugrave" unicode="&#xd9;" horiz-adv-x="715" 
d="M363 -12q-145 0 -214.5 69.5t-69.5 200.5v408h141v-396q0 -86 33.5 -126t112.5 -40q75 0 107.5 42t32.5 115v405h130v-395q0 -137 -68 -210t-205 -73zM170 852h171l83 -135h-114z" />
    <glyph glyph-name="Uacute" unicode="&#xda;" horiz-adv-x="715" 
d="M374 852h172l-140 -135h-115zM363 -12q-145 0 -214.5 69.5t-69.5 200.5v408h141v-396q0 -86 33.5 -126t112.5 -40q75 0 107.5 42t32.5 115v405h130v-395q0 -137 -68 -210t-205 -73z" />
    <glyph glyph-name="Ucircumflex" unicode="&#xdb;" horiz-adv-x="715" 
d="M307 877h102l125 -159h-113l-64 66l-64 -66h-113zM363 -12q-145 0 -214.5 69.5t-69.5 200.5v408h141v-396q0 -86 33.5 -126t112.5 -40q75 0 107.5 42t32.5 115v405h130v-395q0 -137 -68 -210t-205 -73z" />
    <glyph glyph-name="Udieresis" unicode="&#xdc;" horiz-adv-x="715" 
d="M252 718q-32 0 -53 21t-21 51q0 29 21 50t53 21t53 -21t21 -50q0 -30 -21 -51t-53 -21zM462 718q-32 0 -53 21t-21 51q0 29 21 50t53 21t53 -21t21 -50q0 -30 -21 -51t-53 -21zM363 -12q-145 0 -214.5 69.5t-69.5 200.5v408h141v-396q0 -86 33.5 -126t112.5 -40
q75 0 107.5 42t32.5 115v405h130v-395q0 -137 -68 -210t-205 -73z" />
    <glyph glyph-name="Yacute" unicode="&#xdd;" horiz-adv-x="598" 
d="M232 251l-221 415h157l141 -283h1l140 283h137l-214 -415v-251h-141v251zM319 852h172l-140 -135h-115z" />
    <glyph glyph-name="Thorn" unicode="&#xde;" horiz-adv-x="598" 
d="M81 666h142v-108h77q54 0 101 -13t81 -39t53.5 -65.5t19.5 -92.5q0 -54 -19 -95.5t-54.5 -69t-85.5 -41.5t-112 -14h-61v-128h-142v666zM286 236q67 0 97 27t30 82q0 51 -29 78t-95 27h-66v-214h63z" />
    <glyph glyph-name="germandbls" unicode="&#xdf;" horiz-adv-x="579" 
d="M378 -12q-57 0 -89 10.5t-51 21.5l38 95q13 -8 35.5 -18t50.5 -10q68 0 68 49q0 14 -7.5 24.5t-20 20.5t-29 19.5t-34.5 21.5q-31 19 -56 47t-25 72q0 25 7 43t17.5 32t23 25t24.5 22q17 17 29 35t12 49q0 38 -18.5 59.5t-60.5 21.5q-45 0 -69 -32.5t-24 -100.5v-495
h-133v497q0 62 18.5 106.5t49.5 73t72.5 42t88.5 13.5q52 0 91 -14.5t65 -39t39.5 -57t13.5 -68.5q0 -45 -19 -71.5t-41 -45.5q-12 -12 -23.5 -21.5t-21 -18.5t-15 -18.5t-5.5 -21.5q0 -22 20.5 -36t56.5 -36q18 -11 35.5 -23.5t31.5 -29.5t23 -40t9 -54q0 -69 -46 -109
t-131 -40z" />
    <glyph glyph-name="agrave" unicode="&#xe0;" horiz-adv-x="502" 
d="M180 -12q-31 0 -58 9t-46.5 26.5t-31 43t-11.5 58.5q0 48 22.5 81t59 53.5t83.5 29.5t95 9h17v28q0 35 -17.5 51.5t-61.5 16.5q-40 0 -71 -14.5t-53 -31.5l-58 81q29 27 78.5 48.5t118.5 21.5q100 0 148 -41.5t48 -138.5v-175q0 -50 4.5 -85.5t9.5 -58.5h-131q-3 9 -5 25
t-3 27q-20 -24 -54.5 -44t-82.5 -20zM220 85q31 0 52.5 12.5t37.5 30.5v88h-17q-59 0 -95.5 -18.5t-36.5 -61.5q0 -27 18 -39t41 -12zM62 676h171l83 -135h-114z" />
    <glyph glyph-name="aacute" unicode="&#xe1;" horiz-adv-x="502" 
d="M180 -12q-31 0 -58 9t-46.5 26.5t-31 43t-11.5 58.5q0 48 22.5 81t59 53.5t83.5 29.5t95 9h17v28q0 35 -17.5 51.5t-61.5 16.5q-40 0 -71 -14.5t-53 -31.5l-58 81q29 27 78.5 48.5t118.5 21.5q100 0 148 -41.5t48 -138.5v-175q0 -50 4.5 -85.5t9.5 -58.5h-131q-3 9 -5 25
t-3 27q-20 -24 -54.5 -44t-82.5 -20zM220 85q31 0 52.5 12.5t37.5 30.5v88h-17q-59 0 -95.5 -18.5t-36.5 -61.5q0 -27 18 -39t41 -12zM265 676h172l-140 -135h-115z" />
    <glyph glyph-name="acircumflex" unicode="&#xe2;" horiz-adv-x="502" 
d="M180 -12q-31 0 -58 9t-46.5 26.5t-31 43t-11.5 58.5q0 48 22.5 81t59 53.5t83.5 29.5t95 9h17v28q0 35 -17.5 51.5t-61.5 16.5q-40 0 -71 -14.5t-53 -31.5l-58 81q29 27 78.5 48.5t118.5 21.5q100 0 148 -41.5t48 -138.5v-175q0 -50 4.5 -85.5t9.5 -58.5h-131q-3 9 -5 25
t-3 27q-20 -24 -54.5 -44t-82.5 -20zM220 85q31 0 52.5 12.5t37.5 30.5v88h-17q-59 0 -95.5 -18.5t-36.5 -61.5q0 -27 18 -39t41 -12zM199 701h102l125 -159h-113l-64 66l-64 -66h-113z" />
    <glyph glyph-name="atilde" unicode="&#xe3;" horiz-adv-x="502" 
d="M180 -12q-31 0 -58 9t-46.5 26.5t-31 43t-11.5 58.5q0 48 22.5 81t59 53.5t83.5 29.5t95 9h17v28q0 35 -17.5 51.5t-61.5 16.5q-40 0 -71 -14.5t-53 -31.5l-58 81q29 27 78.5 48.5t118.5 21.5q100 0 148 -41.5t48 -138.5v-175q0 -50 4.5 -85.5t9.5 -58.5h-131q-3 9 -5 25
t-3 27q-20 -24 -54.5 -44t-82.5 -20zM220 85q31 0 52.5 12.5t37.5 30.5v88h-17q-59 0 -95.5 -18.5t-36.5 -61.5q0 -27 18 -39t41 -12zM308 546q-23 0 -38 5.5t-28 12t-25 12t-27 5.5q-18 0 -32 -11t-22 -19l-61 53q7 12 18 25.5t25.5 24.5t32 18t37.5 7q23 0 38.5 -5.5
t28 -12t24.5 -12t27 -5.5q21 0 35 11.5t21 19.5l61 -53q-8 -13 -19 -26.5t-25.5 -24.5t-32 -18t-38.5 -7z" />
    <glyph glyph-name="adieresis" unicode="&#xe4;" horiz-adv-x="502" 
d="M180 -12q-31 0 -58 9t-46.5 26.5t-31 43t-11.5 58.5q0 48 22.5 81t59 53.5t83.5 29.5t95 9h17v28q0 35 -17.5 51.5t-61.5 16.5q-40 0 -71 -14.5t-53 -31.5l-58 81q29 27 78.5 48.5t118.5 21.5q100 0 148 -41.5t48 -138.5v-175q0 -50 4.5 -85.5t9.5 -58.5h-131q-3 9 -5 25
t-3 27q-20 -24 -54.5 -44t-82.5 -20zM220 85q31 0 52.5 12.5t37.5 30.5v88h-17q-59 0 -95.5 -18.5t-36.5 -61.5q0 -27 18 -39t41 -12zM144 542q-32 0 -53 21t-21 51q0 29 21 50t53 21t53 -21t21 -50q0 -30 -21 -51t-53 -21zM354 542q-32 0 -53 21t-21 51q0 29 21 50t53 21
t53 -21t21 -50q0 -30 -21 -51t-53 -21z" />
    <glyph glyph-name="aring" unicode="&#xe5;" horiz-adv-x="502" 
d="M180 -12q-31 0 -58 9t-46.5 26.5t-31 43t-11.5 58.5q0 48 22.5 81t59 53.5t83.5 29.5t95 9h17v28q0 35 -17.5 51.5t-61.5 16.5q-40 0 -71 -14.5t-53 -31.5l-58 81q29 27 78.5 48.5t118.5 21.5q100 0 148 -41.5t48 -138.5v-175q0 -50 4.5 -85.5t9.5 -58.5h-131q-3 9 -5 25
t-3 27q-20 -24 -54.5 -44t-82.5 -20zM220 85q31 0 52.5 12.5t37.5 30.5v88h-17q-59 0 -95.5 -18.5t-36.5 -61.5q0 -27 18 -39t41 -12zM249 539q-21 0 -41 8t-35.5 22.5t-24.5 34t-9 42.5q0 22 9 41.5t24.5 34t35.5 22.5t41 8t41 -8t35.5 -22.5t24.5 -34t9 -41.5
q0 -23 -9 -42.5t-24.5 -34t-35.5 -22.5t-41 -8zM249 595q22 0 34 15.5t12 35.5t-12 35t-34 15t-34 -15t-12 -35t12 -35.5t34 -15.5z" />
    <glyph glyph-name="ae" unicode="&#xe6;" horiz-adv-x="795" 
d="M180 -12q-31 0 -58 9t-46.5 26.5t-31 43t-11.5 58.5q0 48 22.5 81t59 53.5t83.5 29.5t95 9h19v28q0 32 -17 50t-64 18q-24 0 -43.5 -5.5t-35.5 -13t-27 -15t-18 -12.5l-58 81q11 10 28.5 22t42 22.5t56 18t70.5 7.5q107 0 151 -57q30 27 68 42t82 15q105 0 158.5 -63.5
t53.5 -178.5q0 -11 -0.5 -22t-1.5 -22h-309q3 -27 11 -50t23 -40t37.5 -26.5t53.5 -9.5q50 0 79.5 12.5t46.5 21.5l43 -86q-12 -7 -28 -15t-37.5 -15t-50 -12t-65.5 -5q-66 0 -115.5 22.5t-81.5 62.5q-14 -16 -33 -31t-42 -27t-50.5 -19.5t-58.5 -7.5zM220 85q38 0 64 17.5
t41 39.5q-13 33 -16 74h-16q-59 0 -95.5 -18.5t-36.5 -61.5q0 -27 18 -39t41 -12zM629 303q-2 42 -20.5 71t-63.5 29q-43 0 -67 -26t-32 -74h183z" />
    <glyph glyph-name="ccedilla" unicode="&#xe7;" horiz-adv-x="458" 
d="M211 -230q-32 0 -52 5t-30 10l17 60q8 -4 21 -7.5t30 -3.5q22 0 35 8.5t13 25.5q0 13 -6.5 20.5t-16.5 12t-22.5 5.5t-25.5 0l33 91q-84 20 -130.5 86t-46.5 160q0 61 19.5 109t53.5 80.5t81 49.5t102 17q60 0 96 -14t53 -25l-43 -91q-17 11 -41 20t-61 9
q-59 0 -89 -41.5t-30 -109.5q0 -34 7.5 -62.5t22.5 -49.5t38 -32.5t54 -11.5q42 0 68 11.5t37 18.5l41 -89q-9 -6 -22 -13.5t-32 -14t-44.5 -11.5t-58.5 -5h-2l-15 -43q31 -7 51 -28t20 -54q0 -42 -34.5 -67.5t-90.5 -25.5z" />
    <glyph glyph-name="egrave" unicode="&#xe8;" horiz-adv-x="519" 
d="M285 -12q-61 0 -108.5 18.5t-80 52.5t-49.5 81.5t-17 105.5t18.5 104.5t51 79.5t76.5 51t95 18q104 0 158 -62.5t54 -177.5q0 -11 -0.5 -22.5t-1.5 -23.5h-308q5 -54 34 -90t90 -36q50 0 79.5 12.5t47.5 21.5l43 -86q-12 -7 -28 -15t-37.5 -15t-50.5 -12t-66 -5zM353 303
q0 21 -5 39t-14.5 31.5t-25.5 21.5t-39 8q-43 0 -66.5 -26t-31.5 -74h182zM85 676h171l83 -135h-114z" />
    <glyph glyph-name="eacute" unicode="&#xe9;" horiz-adv-x="519" 
d="M287 676h172l-140 -135h-115zM285 -12q-61 0 -108.5 18.5t-80 52.5t-49.5 81.5t-17 105.5t18.5 104.5t51 79.5t76.5 51t95 18q104 0 158 -62.5t54 -177.5q0 -11 -0.5 -22.5t-1.5 -23.5h-308q5 -54 34 -90t90 -36q50 0 79.5 12.5t47.5 21.5l43 -86q-12 -7 -28 -15
t-37.5 -15t-50.5 -12t-66 -5zM353 303q0 21 -5 39t-14.5 31.5t-25.5 21.5t-39 8q-43 0 -66.5 -26t-31.5 -74h182z" />
    <glyph glyph-name="ecircumflex" unicode="&#xea;" horiz-adv-x="519" 
d="M220 701h102l125 -159h-113l-64 66l-64 -66h-113zM285 -12q-61 0 -108.5 18.5t-80 52.5t-49.5 81.5t-17 105.5t18.5 104.5t51 79.5t76.5 51t95 18q104 0 158 -62.5t54 -177.5q0 -11 -0.5 -22.5t-1.5 -23.5h-308q5 -54 34 -90t90 -36q50 0 79.5 12.5t47.5 21.5l43 -86
q-12 -7 -28 -15t-37.5 -15t-50.5 -12t-66 -5zM353 303q0 21 -5 39t-14.5 31.5t-25.5 21.5t-39 8q-43 0 -66.5 -26t-31.5 -74h182z" />
    <glyph glyph-name="edieresis" unicode="&#xeb;" horiz-adv-x="519" 
d="M165 542q-32 0 -53 21t-21 51q0 29 21 50t53 21t53 -21t21 -50q0 -30 -21 -51t-53 -21zM375 542q-32 0 -53 21t-21 51q0 29 21 50t53 21t53 -21t21 -50q0 -30 -21 -51t-53 -21zM285 -12q-61 0 -108.5 18.5t-80 52.5t-49.5 81.5t-17 105.5t18.5 104.5t51 79.5t76.5 51
t95 18q104 0 158 -62.5t54 -177.5q0 -11 -0.5 -22.5t-1.5 -23.5h-308q5 -54 34 -90t90 -36q50 0 79.5 12.5t47.5 21.5l43 -86q-12 -7 -28 -15t-37.5 -15t-50.5 -12t-66 -5zM353 303q0 21 -5 39t-14.5 31.5t-25.5 21.5t-39 8q-43 0 -66.5 -26t-31.5 -74h182z" />
    <glyph glyph-name="igrave" unicode="&#xec;" horiz-adv-x="280" 
d="M73 487h134v-487h-134v487zM-46 676h171l83 -135h-114z" />
    <glyph glyph-name="iacute" unicode="&#xed;" horiz-adv-x="280" 
d="M158 676h172l-140 -135h-115zM73 487h134v-487h-134v487z" />
    <glyph glyph-name="icircumflex" unicode="&#xee;" horiz-adv-x="280" 
d="M91 701h102l125 -159h-113l-64 66l-64 -66h-113zM73 487h134v-487h-134v487z" />
    <glyph glyph-name="idieresis" unicode="&#xef;" horiz-adv-x="280" 
d="M36 542q-32 0 -53 21t-21 51q0 29 21 50t53 21t53 -21t21 -50q0 -30 -21 -51t-53 -21zM246 542q-32 0 -53 21t-21 51q0 29 21 50t53 21t53 -21t21 -50q0 -30 -21 -51t-53 -21zM73 487h134v-487h-134v487z" />
    <glyph glyph-name="eth" unicode="&#xf0;" horiz-adv-x="559" 
d="M275 -12q-51 0 -95.5 16.5t-77.5 49t-52 79t-19 106.5t18 106t48.5 78t71 48.5t86.5 16.5q35 0 62 -10t45 -27q-24 82 -85 127l-67 -60l-52 54l43 39q-54 18 -125 18l27 103q108 0 193 -34l68 62l53 -55l-50 -45q78 -54 118.5 -144.5t40.5 -215.5q0 -67 -15.5 -124
t-46.5 -99t-78.5 -65.5t-110.5 -23.5zM277 89q53 0 81 49t28 161q0 7 -0.5 17t-0.5 16q-17 25 -44 40.5t-68 15.5q-51 0 -76 -40t-25 -107q0 -71 27 -111.5t78 -40.5z" />
    <glyph glyph-name="ntilde" unicode="&#xf1;" horiz-adv-x="557" 
d="M65 487h130v-61q26 31 64 52t91 21q40 0 67.5 -12t45 -33t25.5 -50t8 -63v-341h-133v314q0 37 -14.5 55.5t-50.5 18.5q-16 0 -31 -5.5t-27.5 -14.5t-23.5 -20t-18 -21v-327h-133v487zM334 546q-23 0 -38 5.5t-28 12t-25 12t-27 5.5q-18 0 -32 -11t-22 -19l-61 53
q7 12 18 25.5t25.5 24.5t32 18t37.5 7q23 0 38.5 -5.5t28 -12t24.5 -12t27 -5.5q21 0 35 11.5t21 19.5l61 -53q-8 -13 -19 -26.5t-25.5 -24.5t-32 -18t-38.5 -7z" />
    <glyph glyph-name="ograve" unicode="&#xf2;" horiz-adv-x="550" 
d="M274 -12q-64 0 -110 22t-76 58t-44 81.5t-14 92.5t14 93t43.5 82.5t75.5 59t110 22.5t110.5 -22t77 -57.5t45 -81t14.5 -92.5q0 -46 -14.5 -92t-44.5 -83t-76.5 -60t-110.5 -23zM276 89q57 0 80 42t23 111q0 34 -6 63t-19.5 50t-34 33t-48.5 12t-47 -11.5t-31 -31.5
t-17 -48.5t-5 -62.5t6 -63t18.5 -50t32.5 -32.5t48 -11.5zM89 676h171l83 -135h-114z" />
    <glyph glyph-name="oacute" unicode="&#xf3;" horiz-adv-x="550" 
d="M292 676h172l-140 -135h-115zM274 -12q-64 0 -110 22t-76 58t-44 81.5t-14 92.5t14 93t43.5 82.5t75.5 59t110 22.5t110.5 -22t77 -57.5t45 -81t14.5 -92.5q0 -46 -14.5 -92t-44.5 -83t-76.5 -60t-110.5 -23zM276 89q57 0 80 42t23 111q0 34 -6 63t-19.5 50t-34 33
t-48.5 12t-47 -11.5t-31 -31.5t-17 -48.5t-5 -62.5t6 -63t18.5 -50t32.5 -32.5t48 -11.5z" />
    <glyph glyph-name="ocircumflex" unicode="&#xf4;" horiz-adv-x="550" 
d="M225 701h102l125 -159h-113l-64 66l-64 -66h-113zM274 -12q-64 0 -110 22t-76 58t-44 81.5t-14 92.5t14 93t43.5 82.5t75.5 59t110 22.5t110.5 -22t77 -57.5t45 -81t14.5 -92.5q0 -46 -14.5 -92t-44.5 -83t-76.5 -60t-110.5 -23zM276 89q57 0 80 42t23 111q0 34 -6 63
t-19.5 50t-34 33t-48.5 12t-47 -11.5t-31 -31.5t-17 -48.5t-5 -62.5t6 -63t18.5 -50t32.5 -32.5t48 -11.5z" />
    <glyph glyph-name="otilde" unicode="&#xf5;" horiz-adv-x="550" 
d="M274 -12q-64 0 -110 22t-76 58t-44 81.5t-14 92.5t14 93t43.5 82.5t75.5 59t110 22.5t110.5 -22t77 -57.5t45 -81t14.5 -92.5q0 -46 -14.5 -92t-44.5 -83t-76.5 -60t-110.5 -23zM276 89q57 0 80 42t23 111q0 34 -6 63t-19.5 50t-34 33t-48.5 12t-47 -11.5t-31 -31.5
t-17 -48.5t-5 -62.5t6 -63t18.5 -50t32.5 -32.5t48 -11.5zM334 546q-23 0 -38 5.5t-28 12t-25 12t-27 5.5q-18 0 -32 -11t-22 -19l-61 53q7 12 18 25.5t25.5 24.5t32 18t37.5 7q23 0 38.5 -5.5t28 -12t24.5 -12t27 -5.5q21 0 35 11.5t21 19.5l61 -53q-8 -13 -19 -26.5
t-25.5 -24.5t-32 -18t-38.5 -7z" />
    <glyph glyph-name="odieresis" unicode="&#xf6;" horiz-adv-x="550" 
d="M170 542q-32 0 -53 21t-21 51q0 29 21 50t53 21t53 -21t21 -50q0 -30 -21 -51t-53 -21zM380 542q-32 0 -53 21t-21 51q0 29 21 50t53 21t53 -21t21 -50q0 -30 -21 -51t-53 -21zM274 -12q-64 0 -110 22t-76 58t-44 81.5t-14 92.5t14 93t43.5 82.5t75.5 59t110 22.5
t110.5 -22t77 -57.5t45 -81t14.5 -92.5q0 -46 -14.5 -92t-44.5 -83t-76.5 -60t-110.5 -23zM276 89q57 0 80 42t23 111q0 34 -6 63t-19.5 50t-34 33t-48.5 12t-47 -11.5t-31 -31.5t-17 -48.5t-5 -62.5t6 -63t18.5 -50t32.5 -32.5t48 -11.5z" />
    <glyph glyph-name="divide" unicode="&#xf7;" horiz-adv-x="572" 
d="M283 -3q-30 0 -51.5 21t-21.5 51t21.5 51t51.5 21q31 0 52 -21t21 -51t-21 -51t-52 -21zM283 346q-30 0 -51.5 21t-21.5 51t21.5 51t51.5 21q31 0 52 -21t21 -51t-21 -51t-52 -21zM40 294h491v-100h-491v100z" />
    <glyph glyph-name="oslash" unicode="&#xf8;" horiz-adv-x="550" 
d="M36 -19l56 83q-32 36 -47 82.5t-15 95.5q0 47 14 93t43.5 82.5t75.5 59t110 22.5q29 0 54.5 -5t48.5 -14l58 87l75 -49l-60 -87q36 -37 53.5 -85.5t17.5 -99.5q0 -46 -14.5 -92t-44.5 -83t-76.5 -60t-110.5 -23q-62 0 -111 22l-54 -77zM276 86q28 0 48.5 11.5t33.5 32.5
t19 49.5t6 62.5q0 23 -3.5 44t-9.5 39l-151 -223q26 -16 57 -16zM166 246q0 -42 9 -73l145 217q-21 12 -49 12t-48 -11.5t-32.5 -32.5t-18.5 -49.5t-6 -62.5z" />
    <glyph glyph-name="ugrave" unicode="&#xf9;" horiz-adv-x="557" 
d="M207 -12q-40 0 -68 12t-45 33.5t-25 50.5t-8 62v341h133v-314q0 -37 14.5 -55.5t50.5 -18.5q19 0 35.5 8t29.5 18t22 20t13 15v327h133v-347q0 -47 4 -82.5t9 -57.5h-131q-3 10 -6 30t-4 35q-10 -12 -24 -26t-33.5 -25t-44.5 -18.5t-55 -7.5zM92 676h171l83 -135h-114z
" />
    <glyph glyph-name="uacute" unicode="&#xfa;" horiz-adv-x="557" 
d="M295 676h172l-140 -135h-115zM207 -12q-40 0 -68 12t-45 33.5t-25 50.5t-8 62v341h133v-314q0 -37 14.5 -55.5t50.5 -18.5q19 0 35.5 8t29.5 18t22 20t13 15v327h133v-347q0 -47 4 -82.5t9 -57.5h-131q-3 10 -6 30t-4 35q-10 -12 -24 -26t-33.5 -25t-44.5 -18.5t-55 -7.5
z" />
    <glyph glyph-name="ucircumflex" unicode="&#xfb;" horiz-adv-x="557" 
d="M228 701h102l125 -159h-113l-64 66l-64 -66h-113zM207 -12q-40 0 -68 12t-45 33.5t-25 50.5t-8 62v341h133v-314q0 -37 14.5 -55.5t50.5 -18.5q19 0 35.5 8t29.5 18t22 20t13 15v327h133v-347q0 -47 4 -82.5t9 -57.5h-131q-3 10 -6 30t-4 35q-10 -12 -24 -26t-33.5 -25
t-44.5 -18.5t-55 -7.5z" />
    <glyph glyph-name="udieresis" unicode="&#xfc;" horiz-adv-x="557" 
d="M173 542q-32 0 -53 21t-21 51q0 29 21 50t53 21t53 -21t21 -50q0 -30 -21 -51t-53 -21zM383 542q-32 0 -53 21t-21 51q0 29 21 50t53 21t53 -21t21 -50q0 -30 -21 -51t-53 -21zM207 -12q-40 0 -68 12t-45 33.5t-25 50.5t-8 62v341h133v-314q0 -37 14.5 -55.5t50.5 -18.5
q19 0 35.5 8t29.5 18t22 20t13 15v327h133v-347q0 -47 4 -82.5t9 -57.5h-131q-3 10 -6 30t-4 35q-10 -12 -24 -26t-33.5 -25t-44.5 -18.5t-55 -7.5z" />
    <glyph glyph-name="yacute" unicode="&#xfd;" horiz-adv-x="517" 
d="M78 -234q-31 0 -49 3.5t-26 5.5l19 105q5 -2 15 -3.5t32 -1.5q51 0 74 23t37 62l18 50l-183 477h142l110 -321h3l99 321h137l-201 -539q-16 -43 -35 -77t-45 -57t-61.5 -35.5t-85.5 -12.5zM280 676h172l-140 -135h-115z" />
    <glyph glyph-name="thorn" unicode="&#xfe;" horiz-adv-x="569" 
d="M65 719h133v-280q22 26 53 43t79 17q93 0 145.5 -66t52.5 -189q0 -58 -16 -105t-45 -80.5t-69 -52t-88 -18.5q-41 0 -68.5 10.5t-43.5 24.5v-242h-133v938zM282 91q51 0 78 40.5t27 112.5q0 69 -24 109t-73 40q-30 0 -54 -15.5t-38 -34.5v-219q15 -14 35 -23.5t49 -9.5z
" />
    <glyph glyph-name="ydieresis" unicode="&#xff;" horiz-adv-x="517" 
d="M78 -234q-31 0 -49 3.5t-26 5.5l19 105q5 -2 15 -3.5t32 -1.5q51 0 74 23t37 62l18 50l-183 477h142l110 -321h3l99 321h137l-201 -539q-16 -43 -35 -77t-45 -57t-61.5 -35.5t-85.5 -12.5zM158 542q-32 0 -53 21t-21 51q0 29 21 50t53 21t53 -21t21 -50q0 -30 -21 -51
t-53 -21zM368 542q-32 0 -53 21t-21 51q0 29 21 50t53 21t53 -21t21 -50q0 -30 -21 -51t-53 -21z" />
    <glyph glyph-name="dotlessi" unicode="&#x131;" horiz-adv-x="280" 
d="M73 487h134v-487h-134v487z" />
    <glyph glyph-name="IJ" unicode="&#x132;" horiz-adv-x="655" 
d="M89 666h141v-666h-141v666zM381 -204q-35 0 -58.5 5t-39.5 11l22 115q7 -3 20 -6t27 -3q42 0 60 22.5t18 76.5v649h142v-668q0 -100 -51 -151t-140 -51z" />
    <glyph glyph-name="ij" unicode="&#x133;" 
d="M140 550q-35 0 -58 24t-23 56t23 55t58 23t58.5 -23t23.5 -55t-23.5 -56t-58.5 -24zM73 487h134v-487h-134v487zM317 -233q-37 0 -57.5 4t-29.5 8l23 103q5 -2 14 -4t24 -2q35 0 47.5 23.5t12.5 80.5v507h134v-521q0 -45 -9 -82t-29.5 -63t-52.5 -40t-77 -14zM417 550
q-35 0 -58 24t-23 56t23 55t58 23q36 0 59 -23t23 -55t-23 -56t-59 -24z" />
    <glyph glyph-name="Lslash" unicode="&#x141;" horiz-adv-x="530" 
d="M93 234l-57 -42l-51 71l108 79v324h142v-224l97 72l51 -72l-148 -108v-220h248v-114h-390v234z" />
    <glyph glyph-name="lslash" unicode="&#x142;" horiz-adv-x="339" 
d="M92 247l-66 -45v101l66 45v372h133v-286l80 55v-102l-80 -55v-332h-133v247z" />
    <glyph glyph-name="OE" unicode="&#x152;" horiz-adv-x="921" 
d="M383 -12q-84 0 -148.5 28.5t-108.5 76t-66.5 109.5t-22.5 130t22 130.5t65.5 110.5t107.5 76.5t148 28.5q26 0 52 -3.5t49 -8.5h377v-116h-245v-150h215v-110h-215v-174h252v-116h-377q-23 -5 -50.5 -8.5t-54.5 -3.5zM380 102q30 0 53 4.5t42 12.5v427q-17 8 -40 13
t-52 5q-50 0 -87 -18t-61.5 -49.5t-36.5 -73t-12 -87.5q0 -47 11.5 -89.5t35.5 -74.5t60.5 -51t86.5 -19z" />
    <glyph glyph-name="oe" unicode="&#x153;" horiz-adv-x="867" 
d="M274 -12q-64 0 -110 22t-76 58t-44 81.5t-14 92.5t14 93t43.5 82.5t75.5 59t110 22.5q60 0 103 -20.5t72 -55.5q31 36 74 56t95 20q105 0 158.5 -63.5t53.5 -178.5q0 -11 -0.5 -22t-1.5 -22h-309q5 -55 34 -90.5t90 -35.5q50 0 80 12.5t47 21.5l43 -86q-12 -7 -28 -15
t-37.5 -15t-50 -12t-65.5 -5q-61 0 -107 21t-77 56q-29 -35 -71.5 -56t-101.5 -21zM276 89q57 0 80 42t23 111q0 34 -6 63t-19.5 50t-34 33t-48.5 12t-47 -11.5t-31 -31.5t-17 -48.5t-5 -62.5t6 -63t18.5 -50t32.5 -32.5t48 -11.5zM699 303q-2 42 -20.5 71t-63.5 29
q-43 0 -66.5 -26t-31.5 -74h182z" />
    <glyph glyph-name="Scaron" unicode="&#x160;" horiz-adv-x="516" 
d="M80 876h113l64 -66l64 66h113l-127 -159h-102zM237 -12q-41 0 -74 7t-58.5 17t-44 21.5t-29.5 20.5l60 98q6 -4 18 -12.5t30 -16.5t42 -14.5t53 -6.5q51 0 78.5 22.5t27.5 54.5q0 22 -12.5 37.5t-33 27.5t-47.5 23.5t-56 26.5q-31 15 -57 33t-45 41t-30 53.5t-11 71.5
q0 43 17 77t46 58t68 37t84 13q41 0 72.5 -6t55.5 -14.5t40 -18t27 -17.5l-57 -99q-9 6 -22 13t-30 13t-37 10.5t-41 4.5q-41 0 -65 -17.5t-24 -51.5q0 -20 9.5 -33.5t26 -24.5t39 -21t48.5 -22q33 -15 64 -32t54.5 -41t38 -56.5t14.5 -78.5q0 -45 -16.5 -82t-47.5 -62.5
t-75.5 -39.5t-99.5 -14z" />
    <glyph glyph-name="scaron" unicode="&#x161;" horiz-adv-x="420" 
d="M32 700h113l64 -66l64 66h113l-127 -159h-102zM199 -12q-66 0 -108 15.5t-65 30.5l45 93q7 -5 19 -12t28 -13t34.5 -10.5t38.5 -4.5q38 0 59 11t21 33q0 12 -9.5 21t-26 16.5t-39 16.5t-48.5 21q-51 24 -80 56t-29 88q0 69 49.5 109t132.5 40q63 0 101 -14.5t55 -24.5
l-47 -91q-14 9 -41.5 20t-62.5 11t-51 -11.5t-16 -31.5q0 -12 7.5 -20.5t21 -15.5t32 -13.5t39.5 -14.5q29 -12 53.5 -25.5t42 -30.5t27.5 -39.5t10 -53.5q0 -77 -51 -116.5t-142 -39.5z" />
    <glyph glyph-name="Ydieresis" unicode="&#x178;" horiz-adv-x="598" 
d="M232 251l-221 415h157l141 -283h1l140 283h137l-214 -415v-251h-141v251zM197 718q-32 0 -53 21t-21 51q0 29 21 50t53 21t53 -21t21 -50q0 -30 -21 -51t-53 -21zM407 718q-32 0 -53 21t-21 51q0 29 21 50t53 21t53 -21t21 -50q0 -30 -21 -51t-53 -21z" />
    <glyph glyph-name="Zcaron" unicode="&#x17d;" horiz-adv-x="571" 
d="M115 876h113l64 -66l64 66h113l-127 -159h-102zM46 92l305 459h-292v115h463v-90l-308 -461h317v-115h-485v92z" />
    <glyph glyph-name="zcaron" unicode="&#x17e;" horiz-adv-x="458" 
d="M54 700h113l64 -66l64 66h113l-127 -159h-102zM39 72l212 315h-202v100h364v-77l-211 -310h213v-100h-376v72z" />
    <glyph glyph-name="florin" unicode="&#x192;" horiz-adv-x="474" 
d="M58 -188q-41 0 -67 7t-40 14l34 96q7 -4 21 -9t37 -5q45 0 65.5 25.5t25.5 72.5l35 321h-103l13 99h102l11 107q11 94 64 143t151 49q48 0 78.5 -9.5t50.5 -22.5l-43 -90q-11 7 -32 13.5t-49 6.5q-45 0 -66 -25.5t-26 -75.5l-11 -96h116l-16 -99h-111l-36 -325
q-10 -91 -58 -144t-146 -53z" />
    <glyph glyph-name="circumflex" unicode="&#x2c6;" horiz-adv-x="500" 
d="M200 701h102l125 -159h-113l-64 66l-64 -66h-113z" />
    <glyph glyph-name="caron" unicode="&#x2c7;" horiz-adv-x="500" 
d="M73 700h113l64 -66l64 66h113l-127 -159h-102z" />
    <glyph glyph-name="breve" unicode="&#x2d8;" horiz-adv-x="500" 
d="M250 530q-31 0 -59.5 9t-52 27.5t-38.5 47t-19 67.5h109q2 -30 17 -47.5t43 -17.5q27 0 42 17.5t18 47.5h108q-3 -39 -18.5 -67.5t-38.5 -47t-51.5 -27.5t-59.5 -9z" />
    <glyph glyph-name="dotaccent" unicode="&#x2d9;" horiz-adv-x="500" 
d="M250 556q-32 0 -53 21t-21 51q0 29 21 50t53 21t53 -21t21 -50q0 -30 -21 -51t-53 -21z" />
    <glyph glyph-name="ring" unicode="&#x2da;" horiz-adv-x="500" 
d="M250 539q-21 0 -41 8t-35.5 22.5t-24.5 34t-9 42.5q0 22 9 41.5t24.5 34t35.5 22.5t41 8t41 -8t35.5 -22.5t24.5 -34t9 -41.5q0 -23 -9 -42.5t-24.5 -34t-35.5 -22.5t-41 -8zM250 595q22 0 34 15.5t12 35.5t-12 35t-34 15t-34 -15t-12 -35t12 -35.5t34 -15.5z" />
    <glyph glyph-name="ogonek" unicode="&#x2db;" horiz-adv-x="500" 
d="M256 -230q-54 0 -87 26t-33 73q0 21 7 40.5t17.5 36.5t23 30.5t23.5 23.5h76q-22 -27 -38 -54t-16 -60q0 -45 48 -45q13 0 22.5 2.5t18.5 6.5l16 -62q-11 -6 -30 -12t-48 -6z" />
    <glyph glyph-name="tilde" unicode="&#x2dc;" horiz-adv-x="500" 
d="M309 546q-23 0 -38 5.5t-28 12t-25 12t-27 5.5q-18 0 -32 -11t-22 -19l-61 53q7 12 18 25.5t25.5 24.5t32 18t37.5 7q23 0 38.5 -5.5t28 -12t24.5 -12t27 -5.5q21 0 35 11.5t21 19.5l61 -53q-8 -13 -19 -26.5t-25.5 -24.5t-32 -18t-38.5 -7z" />
    <glyph glyph-name="hungarumlaut" unicode="&#x2dd;" horiz-adv-x="500" 
d="M123 676h154l-140 -135h-106zM325 676h154l-140 -135h-106z" />
    <glyph glyph-name="uni0394" unicode="&#x394;" horiz-adv-x="658" 
d="M26 72l233 594h134l240 -594v-72h-607v72zM467 116l-107 283q-7 19 -13 37.5t-11 34t-8.5 27t-4.5 16.5h-2q-2 -5 -5 -16.5t-8 -27t-11 -34t-13 -37.5l-104 -283h287z" />
    <glyph glyph-name="uni03A9" unicode="&#x3a9;" horiz-adv-x="764" 
d="M44 109h126q-23 16 -44 41t-36.5 57.5t-25 71.5t-9.5 83q0 71 26 129.5t71 100t104.5 64t125.5 22.5t125.5 -22.5t104.5 -64t71.5 -100t26.5 -129.5q0 -44 -9.5 -83t-25.5 -71.5t-37 -57.5t-44 -41h127v-109h-282v103q69 45 100 105.5t31 148.5q0 41 -14 78.5t-39 66
t-59.5 45.5t-75.5 17t-75.5 -17t-59.5 -45.5t-39 -66t-14 -78.5q0 -88 31.5 -148.5t100.5 -105.5v-103h-282v109z" />
    <glyph glyph-name="uni03BC" unicode="&#x3bc;" horiz-adv-x="565" 
d="M62 487h133v-317q0 -32 12 -51.5t47 -19.5q18 0 34.5 6.5t30 16t24 20t17.5 18.5v327h133v-349q0 -44 3.5 -80.5t8.5 -57.5h-131q-3 9 -6 29.5t-4 35.5q-9 -10 -21 -22t-27.5 -22.5t-35 -18.5t-43.5 -10q-12 -1 -24.5 0.5t-21.5 5.5h-3q2 -10 3 -36t1 -64v-116h-130v705z
" />
    <glyph glyph-name="pi" unicode="&#x3c0;" horiz-adv-x="650" 
d="M509 -12q-40 0 -66.5 10.5t-42.5 29t-23 44.5t-7 58v257h-123q0 -44 -2 -95t-5.5 -102t-8.5 -100t-11 -90h-134q7 42 12.5 92t9.5 102t6.5 101.5t2.5 91.5h-93v100h593v-100h-115v-231q0 -32 7.5 -45.5t26.5 -13.5q21 0 38 12l31 -98q-17 -10 -42 -16.5t-54 -6.5z" />
    <glyph glyph-name="uni2007" unicode="&#x2007;" 
 />
    <glyph glyph-name="uni2008" unicode="&#x2008;" horiz-adv-x="284" 
 />
    <glyph glyph-name="uni200B" unicode="&#x200b;" horiz-adv-x="0" 
 />
    <glyph glyph-name="endash" unicode="&#x2013;" horiz-adv-x="550" 
d="M48 320h454v-103h-454v103z" />
    <glyph glyph-name="emdash" unicode="&#x2014;" horiz-adv-x="870" 
d="M48 320h774v-103h-774v103z" />
    <glyph glyph-name="quoteleft" unicode="&#x2018;" horiz-adv-x="225" 
d="M121 389q-37 0 -64 26t-27 72q0 25 7 51t17.5 49.5t23 44t23.5 34.5h83q-13 -17 -25 -43t-12 -51q0 -19 8 -30.5t17.5 -22t17.5 -23.5t8 -35q0 -32 -22.5 -52t-54.5 -20z" />
    <glyph glyph-name="quoteright" unicode="&#x2019;" horiz-adv-x="225" 
d="M42 401q12 17 24.5 43t12.5 52q0 19 -8 30.5t-18 22t-18 23.5t-8 35q0 32 22.5 51.5t55.5 19.5q36 0 63.5 -26t27.5 -72q0 -26 -7 -51.5t-17.5 -49t-23.5 -44t-24 -34.5h-82z" />
    <glyph glyph-name="quotesinglbase" unicode="&#x201a;" horiz-adv-x="253" 
d="M56 -125q12 17 24.5 43t12.5 51q0 19 -8 30.5t-18 22t-18 23.5t-8 35q0 32 22.5 51.5t55.5 19.5q36 0 63.5 -25.5t27.5 -71.5q0 -26 -7 -51.5t-17.5 -49.5t-23.5 -44t-24 -34h-82z" />
    <glyph glyph-name="quotedblleft" unicode="&#x201c;" horiz-adv-x="435" 
d="M116 389q-36 0 -63.5 26t-27.5 72q0 25 7 51t17.5 49.5t23.5 44t24 34.5h82q-12 -17 -24.5 -43t-12.5 -51q0 -19 8 -30.5t18 -22t18 -23.5t8 -35q0 -32 -22.5 -52t-55.5 -20zM331 389q-37 0 -64.5 26t-27.5 72q0 25 7 51t17.5 49.5t23.5 44t24 34.5h82q-12 -17 -24.5 -43
t-12.5 -51q0 -19 8 -30.5t18 -22t18 -23.5t8 -35q0 -32 -22.5 -52t-54.5 -20z" />
    <glyph glyph-name="quotedblright" unicode="&#x201d;" horiz-adv-x="435" 
d="M42 401q12 17 24.5 43t12.5 52q0 19 -8 30.5t-18 22t-18 23.5t-8 35q0 32 22.5 51.5t55.5 19.5q36 0 63.5 -26t27.5 -72q0 -26 -7 -51.5t-17.5 -49t-23.5 -44t-24 -34.5h-82zM256 401q12 17 24.5 43t12.5 52q0 19 -8 30.5t-18 22t-18 23.5t-8 35q0 32 22.5 51.5
t55.5 19.5q36 0 63.5 -26t27.5 -72q0 -26 -7 -51.5t-17.5 -49t-23 -44t-23.5 -34.5h-83z" />
    <glyph glyph-name="quotedblbase" unicode="&#x201e;" horiz-adv-x="440" 
d="M42 -125q12 17 24.5 43t12.5 51q0 19 -8 30.5t-18 22t-18 23.5t-8 35q0 32 22.5 51.5t55.5 19.5q36 0 63.5 -25.5t27.5 -71.5q0 -26 -7 -51.5t-17.5 -49.5t-23.5 -44t-24 -34h-82zM256 -125q12 17 24.5 43t12.5 51q0 19 -8 30.5t-18 22t-18 23.5t-8 35q0 32 22.5 51.5
t55.5 19.5q36 0 63.5 -25.5t27.5 -71.5q0 -26 -7 -51.5t-17.5 -49.5t-23 -44t-23.5 -34h-83z" />
    <glyph glyph-name="dagger" unicode="&#x2020;" horiz-adv-x="558" 
d="M202 254l20 126l-72 -9h-110v116h110l72 -9l-15 105v137h144v-137l-14 -105l71 9h110v-116h-110l-71 9l18 -126l-33 -424h-86z" />
    <glyph glyph-name="daggerdbl" unicode="&#x2021;" horiz-adv-x="569" 
d="M207 -51l15 105l-72 -9h-110v117h110l72 -10l-19 114l19 114l-72 -9h-110v116h110l72 -9l-15 105v137h144v-137l-14 -105l71 9h110v-116h-110l-71 9l17 -114l-17 -114l71 10h110v-117h-110l-71 9l14 -105v-118h-144v118z" />
    <glyph glyph-name="bullet" unicode="&#x2022;" horiz-adv-x="438" 
d="M219 111q-36 0 -68.5 14t-56.5 38t-38 56t-14 68q0 37 14 69t38 56t56.5 38t68.5 14q37 0 69 -14t56 -38t38 -56t14 -69q0 -36 -14 -68t-38 -56t-56 -38t-69 -14z" />
    <glyph glyph-name="ellipsis" unicode="&#x2026;" horiz-adv-x="759" 
d="M142 -10q-37 0 -62.5 25t-25.5 61q0 18 7 33t19 26.5t28 18t34 6.5t34 -6.5t28 -18t19 -26.5t7 -33q0 -36 -25.5 -61t-62.5 -25zM379 -10q-36 0 -61.5 25t-25.5 61q0 35 25.5 59.5t61.5 24.5q38 0 63 -24.5t25 -59.5q0 -36 -25 -61t-63 -25zM617 -10q-36 0 -62 25t-26 61
q0 18 7 33t19 26.5t28 18t34 6.5t34 -6.5t28 -18t19 -26.5t7 -33q0 -36 -25.5 -61t-62.5 -25z" />
    <glyph glyph-name="perthousand" unicode="&#x2030;" horiz-adv-x="1245" 
d="M194 187q-43 0 -75 13t-53 34.5t-31.5 49.5t-10.5 58t11 58.5t32.5 50t53.5 35t75 13.5t75 -12.5t53 -33.5t31.5 -48.5t10.5 -58.5q0 -30 -11 -59t-32.5 -51t-53.5 -35.5t-75 -13.5zM196 268q33 0 45 22t12 52t-13 53t-45 23t-45 -20.5t-13 -51.5q0 -30 13.5 -54
t45.5 -24zM674 -12q-43 0 -75 12.5t-53 34t-31.5 49.5t-10.5 59q0 30 11 58.5t32.5 50t53.5 35t75 13.5q42 0 74 -12.5t53 -33.5t31.5 -49t10.5 -59q0 -30 -11 -58.5t-32.5 -50.5t-53.5 -35.5t-74 -13.5zM676 69q33 0 44.5 22t11.5 52t-13 53t-45 23t-45 -21t-13 -52
q0 -29 14 -53t46 -24zM1049 -12q-43 0 -75 12.5t-53 34t-31.5 49.5t-10.5 59q0 30 11 58.5t32.5 50t53.5 35t75 13.5q42 0 74 -12.5t53.5 -33.5t32 -49t10.5 -59q0 -30 -11 -58.5t-32.5 -50.5t-54 -35.5t-74.5 -13.5zM1051 69q33 0 45 22t12 52t-13 53t-45 23t-45.5 -21
t-13.5 -52q0 -29 14 -53t46 -24zM527 488h110l-292 -488h-111z" />
    <glyph glyph-name="guilsinglleft" unicode="&#x2039;" horiz-adv-x="320" 
d="M32 245l120 193h140l-119 -193l119 -192h-140z" />
    <glyph glyph-name="guilsinglright" unicode="&#x203a;" horiz-adv-x="320" 
d="M148 246l-120 192h140l120 -192l-120 -193h-140z" />
    <glyph glyph-name="fraction" unicode="&#x2044;" horiz-adv-x="137" 
d="M219 666h105l-408 -666h-106z" />
    <glyph glyph-name="uni2070" unicode="&#x2070;" horiz-adv-x="394" 
d="M196 325q-43 0 -74 14t-51.5 38t-30 55.5t-9.5 66.5q0 34 9.5 65.5t29.5 55.5t51 38.5t75 14.5q43 0 74.5 -14.5t52 -38.5t30.5 -55.5t10 -65.5q0 -35 -10 -66.5t-30.5 -55.5t-52 -38t-74.5 -14zM196 405q26 0 41 22.5t15 71.5t-15 71.5t-41 22.5q-23 0 -39 -22.5
t-16 -71.5t16 -71.5t39 -22.5z" />
    <glyph glyph-name="uni2074" unicode="&#x2074;" horiz-adv-x="362" 
d="M187 393h-170v62l176 212h97v-199h53v-75h-53v-62h-103v62zM114 465q7 2 18.5 2.5t24.5 0.5h34v90h-1z" />
    <glyph glyph-name="uni2075" unicode="&#x2075;" horiz-adv-x="314" 
d="M104 325q-26 0 -45.5 3t-31.5 7l15 78q11 -4 27 -7t33 -3q26 0 47.5 8.5t21.5 30.5q0 23 -23 31t-55 8q-15 0 -28 -1t-20 -2l11 189h212v-78h-121l-3 -42q27 -1 51 -7t43 -18t30 -30.5t11 -44.5q0 -30 -13 -53t-36 -38t-55 -23t-71 -8z" />
    <glyph glyph-name="uni2076" unicode="&#x2076;" horiz-adv-x="352" 
d="M180 325q-75 0 -110.5 44t-35.5 110q0 43 16.5 78.5t47 61t74.5 40t99 14.5l23 -71q-27 -1 -52.5 -5.5t-47 -14.5t-37.5 -24.5t-23 -35.5q14 8 34 13.5t40 5.5q46 0 79.5 -25t33.5 -76q0 -28 -11 -49.5t-30.5 -36t-45 -22t-54.5 -7.5zM180 397q19 0 30.5 10.5t11.5 26.5
q0 20 -13 30t-32 10q-14 0 -26 -3t-20 -9v-7q0 -30 14.5 -44t34.5 -14z" />
    <glyph glyph-name="uni2077" unicode="&#x2077;" horiz-adv-x="321" 
d="M57 349l109 234h-146v84h267v-49l-137 -301z" />
    <glyph glyph-name="uni2078" unicode="&#x2078;" horiz-adv-x="344" 
d="M172 325q-61 0 -101.5 23.5t-40.5 67.5q0 29 18.5 47.5t50.5 35.5q-26 15 -42.5 34.5t-16.5 45.5q0 22 11 39.5t29.5 29.5t42.5 18.5t50 6.5q27 0 51.5 -6t42.5 -17.5t28.5 -28.5t10.5 -38q0 -23 -18 -41t-45 -33q29 -15 50.5 -36t21.5 -51q0 -24 -12 -42t-31.5 -30.5
t-45.5 -18.5t-54 -6zM171 390q20 0 33 8.5t13 21.5t-15 22.5t-37 20.5q-14 -8 -28 -18.5t-14 -24.5t13.5 -22t34.5 -8zM176 542q11 7 23.5 17t12.5 22q0 11 -10.5 19t-26.5 8q-17 0 -28 -8t-11 -19q0 -14 12.5 -22.5t27.5 -16.5z" />
    <glyph glyph-name="uni2079" unicode="&#x2079;" horiz-adv-x="353" 
d="M56 394q27 1 52 6.5t46.5 15.5t37 25t22.5 35q-14 -8 -34 -13.5t-41 -5.5q-23 0 -43 6t-36 19t-25 31.5t-9 44.5q0 28 11.5 49.5t30.5 36t44.5 22t54.5 7.5q38 0 66 -11.5t46 -32.5t27 -49.5t9 -61.5q0 -43 -16 -78.5t-46 -61t-74 -40t-100 -14.5zM171 524q30 0 46 11v8
q0 29 -14.5 43.5t-34.5 14.5t-31 -11t-11 -26q0 -20 13 -30t32 -10z" />
    <glyph glyph-name="uni207A" unicode="&#x207a;" horiz-adv-x="332" 
d="M124 460h-87v76h87v76h84v-76h87v-76h-87v-76h-84v76z" />
    <glyph glyph-name="uni207B" unicode="&#x207b;" horiz-adv-x="307" 
d="M50 534h207v-74h-207v74z" />
    <glyph glyph-name="uni207D" unicode="&#x207d;" horiz-adv-x="239" 
d="M140 276q-18 15 -36 36t-32.5 49t-23.5 62t-9 75q0 39 9 72.5t23 61t32.5 48.5t36.5 35h99q-17 -14 -34 -35.5t-30.5 -49t-21.5 -61.5t-8 -71q0 -76 28.5 -133t65.5 -89h-99z" />
    <glyph glyph-name="uni207E" unicode="&#x207e;" horiz-adv-x="239" 
d="M0 276q17 15 34 36.5t30.5 49t21.5 61.5t8 73q0 37 -8 70.5t-21.5 61.5t-30 50t-34.5 37h99q19 -15 37 -36t32 -48t22.5 -60.5t8.5 -73.5q0 -42 -9 -76t-23.5 -61.5t-32 -48t-35.5 -35.5h-99z" />
    <glyph glyph-name="uni2080" unicode="&#x2080;" horiz-adv-x="394" 
d="M196 -206q-43 0 -74 14t-51.5 38t-30 55.5t-9.5 66.5q0 34 9.5 65.5t29.5 55.5t51 38t75 14q43 0 74.5 -14t52 -38t30.5 -55.5t10 -65.5q0 -35 -10 -66.5t-30.5 -55.5t-52 -38t-74.5 -14zM196 -127q26 0 41 22.5t15 72.5q0 49 -15 71t-41 22q-23 0 -39 -22t-16 -71
q0 -50 16 -72.5t39 -22.5z" />
    <glyph glyph-name="uni2081" unicode="&#x2081;" horiz-adv-x="286" 
d="M107 48l-73 -19l-22 79l121 27h77v-335h-103v248z" />
    <glyph glyph-name="uni2082" unicode="&#x2082;" horiz-adv-x="343" 
d="M25 -146q29 22 57 44t49.5 43.5t35 42t13.5 41.5q0 19 -11.5 27.5t-28.5 8.5q-21 0 -40.5 -8.5t-34.5 -22.5l-49 64q23 20 56.5 33.5t81.5 13.5q69 0 102.5 -29.5t33.5 -75.5q0 -23 -10 -44.5t-26.5 -41t-38 -38t-43.5 -35.5q5 1 19.5 1.5t28.5 0.5h85v-79h-280v54z" />
    <glyph glyph-name="uni2083" unicode="&#x2083;" horiz-adv-x="322" 
d="M106 -206q-29 0 -52 3t-34 8l20 76q10 -4 27.5 -7.5t34.5 -3.5q29 0 49 8t20 25q0 19 -24 27.5t-68 9.5v60q40 2 61.5 12.5t21.5 26.5q0 25 -38 25q-18 0 -36.5 -7t-28.5 -13l-37 64q18 12 51.5 22.5t74.5 10.5q57 0 88.5 -20.5t31.5 -57.5q0 -17 -6.5 -30t-17 -22
t-23 -15.5t-25.5 -9.5v-1q14 -2 29 -7.5t27.5 -15t20.5 -24t8 -35.5q0 -51 -46 -80t-129 -29z" />
    <glyph glyph-name="uni2084" unicode="&#x2084;" horiz-adv-x="362" 
d="M187 -138h-170v62l176 211h97v-199h53v-74h-53v-62h-103v62zM114 -66q7 1 18.5 1.5t24.5 0.5h34v91h-1z" />
    <glyph glyph-name="uni2085" unicode="&#x2085;" horiz-adv-x="314" 
d="M104 -206q-26 0 -45.5 3t-31.5 7l15 77q11 -3 27 -6t33 -3q26 0 47.5 8.5t21.5 30.5q0 23 -23 31t-55 8q-15 0 -28 -1t-20 -3l11 189h212v-77h-121l-3 -43q27 -1 51 -7t43 -18t30 -30.5t11 -44.5q0 -30 -13 -52.5t-36 -37.5t-55 -23t-71 -8z" />
    <glyph glyph-name="uni2086" unicode="&#x2086;" horiz-adv-x="352" 
d="M180 -206q-75 0 -110.5 44t-35.5 110q0 43 16.5 78.5t47 61t74.5 39.5t99 14l23 -70q-27 -1 -52.5 -5.5t-47 -14.5t-37.5 -24.5t-23 -35.5q14 8 34 13.5t40 5.5q23 0 43.5 -6t36 -19t24.5 -32t9 -45q0 -28 -11 -49t-30.5 -35.5t-45 -22t-54.5 -7.5zM180 -134
q19 0 30.5 10t11.5 27q0 20 -13 30t-32 10q-29 0 -46 -12v-7q0 -31 14.5 -44.5t34.5 -13.5z" />
    <glyph glyph-name="uni2087" unicode="&#x2087;" horiz-adv-x="321" 
d="M57 -183l109 234h-146v84h267v-48l-137 -302z" />
    <glyph glyph-name="uni2088" unicode="&#x2088;" horiz-adv-x="344" 
d="M172 -206q-61 0 -101.5 23.5t-40.5 67.5q0 28 18.5 47t50.5 35q-26 16 -42.5 35.5t-16.5 45.5q0 22 11 39.5t29.5 29.5t42.5 18t50 6q27 0 51.5 -6t42.5 -17t28.5 -28t10.5 -38q0 -24 -18 -42t-45 -32q29 -15 50.5 -36.5t21.5 -51.5q0 -24 -12 -42t-31.5 -30t-45.5 -18
t-54 -6zM171 -141q20 0 33 8t13 22q0 13 -15 22.5t-37 20.5q-14 -8 -28 -18.5t-14 -24.5t13.5 -22t34.5 -8zM176 10q11 8 23.5 18t12.5 21q0 12 -10.5 19.5t-26.5 7.5q-17 0 -28 -7.5t-11 -19.5q0 -13 12.5 -21.5t27.5 -17.5z" />
    <glyph glyph-name="uni2089" unicode="&#x2089;" horiz-adv-x="353" 
d="M56 -137q27 0 52 5.5t46.5 15.5t37 25t22.5 35q-14 -8 -34 -13t-41 -5q-23 0 -43 6t-36 19t-25 31.5t-9 44.5q0 28 11.5 49t30.5 35.5t44.5 22t54.5 7.5q76 0 112 -43.5t36 -110.5q0 -43 -16 -78.5t-46 -61t-74 -40t-100 -14.5zM171 -8q29 0 46 12v7q0 29 -14.5 44
t-34.5 15t-31 -11t-11 -27q0 -20 13 -30t32 -10z" />
    <glyph glyph-name="colonmonetary" unicode="&#x20a1;" horiz-adv-x="538" 
d="M451 784l-10 -116q24 -6 42.5 -14t34.5 -19l-56 -104q-7 4 -14.5 8t-17.5 8l-38 -439q26 6 45 16t33 21l55 -100q-21 -15 -54.5 -32t-89.5 -23l-9 -108h-72l9 108q-8 1 -17 1.5t-17 2.5l-10 -112h-72l11 134q-75 35 -118 114.5t-43 203.5q0 73 16 130t45.5 98.5
t69.5 67.5t88 38l10 116h72l-10 -106h22q7 0 13 -1l10 107h72zM285 115q8 -3 16.5 -5.5t17.5 -4.5l40 457q-3 0 -6.5 0.5t-7.5 0.5q-5 0 -10.5 -0.5t-10.5 -1.5zM187 338q0 -48 7 -88.5t24 -71.5l31 350q-28 -26 -45 -72t-17 -118z" />
    <glyph glyph-name="Euro" unicode="&#x20ac;" horiz-adv-x="853" 
d="M156 450h71q12 52 36.5 94t60.5 72t83.5 46t105.5 16q34 0 60.5 -3t47.5 -9t37.5 -14t30.5 -17l-56 -104q-17 10 -43.5 21t-73.5 11q-55 0 -90.5 -30t-52.5 -83h159v-92h-174v-39q0 -9 1 -18h173v-92h-156q18 -51 53.5 -78t86.5 -27q47 0 76 13.5t49 27.5l55 -100
q-12 -9 -28.5 -19t-38.5 -18.5t-51.5 -14t-66.5 -5.5q-50 0 -95 13t-82 40t-64.5 68.5t-41.5 99.5h-72v92h59q-1 8 -1 16v41h-58v92z" />
    <glyph glyph-name="uni2117" unicode="&#x2117;" horiz-adv-x="836" 
d="M417 -14q-77 0 -144.5 29.5t-118 80t-80 118.5t-29.5 145t29.5 145t80 118.5t118 80t144.5 29.5t145 -29.5t118.5 -80t80 -118.5t29.5 -145t-29.5 -145t-80 -118.5t-118.5 -80t-145 -29.5zM417 63q63 0 116.5 21t92 60t60.5 93.5t22 121.5q0 66 -22 120.5t-60.5 93.5
t-92 60.5t-116.5 21.5t-116 -21.5t-91.5 -60.5t-60.5 -93.5t-22 -120.5q0 -67 22 -121.5t60.5 -93.5t91.5 -60t116 -21zM285 569h151q39 0 68.5 -11t48.5 -29.5t28.5 -43t9.5 -51.5q0 -28 -9.5 -52.5t-30 -43t-52.5 -29.5t-78 -11h-43v-146h-93v417zM421 367q76 0 76 64
q0 32 -16.5 49t-54.5 17h-48v-130h43z" />
    <glyph glyph-name="trademark" unicode="&#x2122;" horiz-adv-x="739" 
d="M351 666h83l53 -145q8 -21 12.5 -39.5t4.5 -20.5h2q1 2 6 20t13 40l52 145h85l39 -296h-85l-13 129q-2 18 -2.5 34t-0.5 18h-2q0 -2 -4 -19.5t-12 -41.5l-44 -120h-73l-40 119q-8 21 -12.5 40.5t-5.5 21.5h-2q0 -2 -1 -16.5t-3 -36.5l-14 -128h-76zM120 598h-87v68h256
v-68h-86v-228h-83v228z" />
    <glyph glyph-name="Omega" unicode="&#x2126;" horiz-adv-x="733" 
d="M42 107h117q-23 16 -44 41.5t-37.5 58.5t-26.5 72t-10 83q0 72 26.5 130.5t71.5 100t104 63.5t123 22t123 -22t104 -63.5t71.5 -100t26.5 -130.5q0 -44 -10 -83t-26.5 -72t-38 -58.5t-43.5 -41.5h117v-107h-267v103q69 45 100 105.5t31 148.5q0 41 -14 78.5t-39 66
t-59.5 45.5t-75.5 17t-75.5 -17t-59.5 -45.5t-39 -66t-14 -78.5q0 -88 31.5 -148.5t100.5 -105.5v-103h-268v107z" />
    <glyph glyph-name="partialdiff" unicode="&#x2202;" horiz-adv-x="630" 
d="M268 -11q-48 0 -90 17t-72.5 46.5t-48 68t-17.5 81.5q0 54 18.5 97t50.5 73t75 46.5t92 16.5q48 0 92 -10t71 -24q-9 60 -35.5 97.5t-65.5 58.5t-87 29t-100 8l33 122q8 1 16 1h16q88 0 157.5 -24t117.5 -69.5t73.5 -112.5t25.5 -152q0 -79 -22.5 -147t-64.5 -117.5
t-101.5 -77.5t-133.5 -28zM282 105q29 0 54.5 12.5t46 36t35 56t20.5 72.5q-10 8 -26 15.5t-35.5 13.5t-41 10t-41.5 4q-51 0 -79 -35.5t-28 -86.5q0 -42 28 -70t67 -28z" />
    <glyph glyph-name="Delta" unicode="&#x2206;" horiz-adv-x="833" 
d="M347 701h128l297 -701h-722zM584 125l-173 405l-173 -405h346z" />
    <glyph glyph-name="product" unicode="&#x220f;" horiz-adv-x="899" 
d="M170 581h-109v119h756v-119h-109v-805h-133v805h-272v-805h-133v805z" />
    <glyph glyph-name="summation" unicode="&#x2211;" horiz-adv-x="658" 
d="M53 -59l273 400l-257 350v88h531v-116h-376l238 -318l-256 -376h409v-115h-562v87z" />
    <glyph glyph-name="minus" unicode="&#x2212;" horiz-adv-x="550" 
d="M86 328h369v-101h-369v101z" />
    <glyph glyph-name="uni2219" unicode="&#x2219;" horiz-adv-x="258" 
d="M129 204q-37 0 -62.5 25t-25.5 61t25.5 61t62.5 25t62.5 -25t25.5 -61t-25.5 -61t-62.5 -25z" />
    <glyph glyph-name="radical" unicode="&#x221a;" horiz-adv-x="582" 
d="M23 487h141l108 -310h2l168 543h135l-243 -720h-124z" />
    <glyph glyph-name="infinity" unicode="&#x221e;" horiz-adv-x="947" 
d="M243 79q-42 0 -78.5 12.5t-63.5 36t-42.5 55.5t-15.5 71t16.5 72.5t44.5 58t64.5 38t77.5 13.5q57 0 112.5 -29t115.5 -76q60 47 116 76t111 29q41 0 77 -12.5t62.5 -36t42 -55.5t15.5 -71q0 -40 -16.5 -73.5t-44.5 -57.5t-65 -37.5t-78 -13.5q-54 0 -109 28.5t-116 76.5
q-63 -49 -117.5 -77t-108.5 -28zM247 191q25 0 58 18t72 47q-41 31 -72.5 49t-60.5 18q-15 0 -29.5 -4.5t-26 -13t-18.5 -20t-7 -26.5q0 -16 7 -28.5t19 -21.5t27 -13.5t31 -4.5zM700 191q15 0 29 5t25 14t18 21t7 26q0 16 -7 28t-19 20.5t-27 13t-31 4.5q-26 0 -58.5 -18
t-70.5 -46q42 -32 74.5 -50t59.5 -18z" />
    <glyph glyph-name="integral" unicode="&#x222b;" horiz-adv-x="359" 
d="M34 -234q-32 0 -62 11t-53 27l46 109q21 -10 42 -15.5t38 -5.5q38 0 54.5 32t16.5 84v575q0 44 14 83.5t41 69t67 47t92 17.5q35 0 63 -11t52 -28l-48 -108q-21 10 -40.5 15.5t-37.5 5.5q-37 0 -54.5 -32.5t-17.5 -83.5v-575q0 -44 -13.5 -83.5t-40.5 -69t-67 -47
t-92 -17.5z" />
    <glyph glyph-name="approxequal" unicode="&#x2248;" horiz-adv-x="635" 
d="M63 186q28 34 69.5 56t90.5 22q35 0 60.5 -9t47.5 -20t43 -20t46 -9q27 0 56.5 15.5t52.5 42.5l50 -96q-28 -35 -72.5 -55t-93.5 -20q-35 0 -60.5 9t-48 20t-43 20t-44.5 9q-28 0 -51 -13t-49 -45zM53 394q26 33 67.5 55.5t92.5 22.5q35 0 60.5 -9t47.5 -20t43 -20t46 -9
q26 0 56 15.5t53 41.5l50 -95q-28 -35 -72.5 -55.5t-93.5 -20.5q-35 0 -60.5 9t-48 20t-43 20t-44.5 9q-27 0 -50.5 -12.5t-49.5 -44.5z" />
    <glyph glyph-name="notequal" unicode="&#x2260;" horiz-adv-x="665" 
d="M133 12l68 113h-140v98h200l40 66h-240v98h300l84 138l88 -49l-57 -89h128v-98h-188l-40 -66h228v-98h-288l-96 -161z" />
    <glyph glyph-name="lessequal" unicode="&#x2264;" horiz-adv-x="549" 
d="M64 206v92l452 201v-122l-315 -125l315 -125v-123zM64 -50h452v-103h-452v103z" />
    <glyph glyph-name="greaterequal" unicode="&#x2265;" horiz-adv-x="580" 
d="M64 127l315 125l-315 125v122l452 -201v-92l-452 -202v123zM64 -50h452v-103h-452v103z" />
    <glyph glyph-name="dotmath" unicode="&#x22c5;" horiz-adv-x="258" 
d="M129 204q-37 0 -62.5 25t-25.5 61t25.5 61t62.5 25t62.5 -25t25.5 -61t-25.5 -61t-62.5 -25z" />
    <glyph glyph-name="lozenge" unicode="&#x25ca;" horiz-adv-x="706" 
d="M49 325l252 350h113l256 -330l-251 -347h-116zM513 340l-156 202l-151 -214l157 -202z" />
    <glyph glyph-name="parenleft.subs" horiz-adv-x="239" 
d="M140 -55q-18 15 -36 36t-32.5 48.5t-23.5 61.5t-9 75q0 39 9 72.5t23 61t32.5 49t36.5 35.5h99q-17 -14 -34 -35.5t-30.5 -49.5t-21.5 -61.5t-8 -70.5q0 -76 28.5 -133t65.5 -89h-99z" />
    <glyph glyph-name="parenright.subs" horiz-adv-x="239" 
d="M0 -55q17 15 34 36.5t30.5 49t21.5 61t8 72.5q0 37 -8 71t-21.5 62t-30 50t-34.5 37h99q19 -15 37 -36t32 -48t22.5 -61t8.5 -74q0 -41 -9 -75.5t-23.5 -61.5t-32 -48t-35.5 -35h-99z" />
    <glyph glyph-name="plus.subs" horiz-adv-x="332" 
d="M124 128h-87v77h87v75h84v-75h87v-77h-87v-76h-84v76z" />
    <glyph glyph-name="minus.subs" horiz-adv-x="307" 
d="M50 203h207v-75h-207v75z" />
    <glyph glyph-name="zero.dnom" horiz-adv-x="394" 
d="M196 -6q-43 0 -74 14t-51.5 38t-30 55.5t-9.5 66.5q0 34 9.5 65.5t29.5 55.5t51 38t75 14q43 0 74.5 -14t52 -38t30.5 -55.5t10 -65.5q0 -35 -10 -66.5t-30.5 -55.5t-52 -38t-74.5 -14zM196 73q26 0 41 22.5t15 72.5q0 49 -15 71t-41 22q-23 0 -39 -22t-16 -71
q0 -50 16 -72.5t39 -22.5z" />
    <glyph glyph-name="one.dnom" horiz-adv-x="286" 
d="M107 248l-73 -19l-22 79l121 27h77v-335h-103v248z" />
    <glyph glyph-name="two.dnom" horiz-adv-x="343" 
d="M25 54q29 22 57 44t49.5 43.5t35 42t13.5 41.5q0 19 -11.5 27.5t-28.5 8.5q-21 0 -40.5 -8.5t-34.5 -22.5l-49 64q23 20 56.5 33.5t81.5 13.5q69 0 102.5 -29.5t33.5 -75.5q0 -23 -10 -44.5t-26.5 -41t-38 -38t-43.5 -35.5q5 1 19.5 1.5t28.5 0.5h85v-79h-280v54z" />
    <glyph glyph-name="three.dnom" horiz-adv-x="322" 
d="M106 -6q-29 0 -52 3t-34 8l20 76q10 -4 27.5 -7.5t34.5 -3.5q29 0 49 8t20 25q0 19 -24 27.5t-68 9.5v60q40 2 61.5 12.5t21.5 26.5q0 25 -38 25q-18 0 -36.5 -7t-28.5 -13l-37 64q18 12 51.5 22.5t74.5 10.5q57 0 88.5 -20.5t31.5 -57.5q0 -17 -6.5 -30t-17 -22
t-23 -15.5t-25.5 -9.5v-1q14 -2 29 -7.5t27.5 -15t20.5 -24t8 -35.5q0 -51 -46 -80t-129 -29z" />
    <glyph glyph-name="four.dnom" horiz-adv-x="362" 
d="M187 62h-170v62l176 211h97v-199h53v-74h-53v-62h-103v62zM114 134q7 1 18.5 1.5t24.5 0.5h34v91h-1z" />
    <glyph glyph-name="five.dnom" horiz-adv-x="314" 
d="M104 -6q-26 0 -45.5 3t-31.5 7l15 77q11 -3 27 -6t33 -3q26 0 47.5 8.5t21.5 30.5q0 23 -23 31t-55 8q-15 0 -28 -1t-20 -3l11 189h212v-77h-121l-3 -43q27 -1 51 -7t43 -18t30 -30.5t11 -44.5q0 -30 -13 -52.5t-36 -37.5t-55 -23t-71 -8z" />
    <glyph glyph-name="six.dnom" horiz-adv-x="352" 
d="M180 -6q-75 0 -110.5 44t-35.5 110q0 43 16.5 78.5t47 61t74.5 39.5t99 14l23 -70q-27 -1 -52.5 -5.5t-47 -14.5t-37.5 -24.5t-23 -35.5q14 8 34 13.5t40 5.5q23 0 43.5 -6t36 -19t24.5 -32t9 -45q0 -28 -11 -49t-30.5 -35.5t-45 -22t-54.5 -7.5zM180 66q19 0 30.5 10
t11.5 27q0 20 -13 30t-32 10q-29 0 -46 -12v-7q0 -31 14.5 -44.5t34.5 -13.5z" />
    <glyph glyph-name="seven.dnom" horiz-adv-x="321" 
d="M57 17l109 234h-146v84h267v-48l-137 -302z" />
    <glyph glyph-name="eight.dnom" horiz-adv-x="344" 
d="M172 -6q-61 0 -101.5 23.5t-40.5 67.5q0 28 18.5 47t50.5 35q-26 16 -42.5 35.5t-16.5 45.5q0 22 11 39.5t29.5 29.5t42.5 18t50 6q27 0 51.5 -6t42.5 -17t28.5 -28t10.5 -38q0 -24 -18 -42t-45 -32q29 -15 50.5 -36.5t21.5 -51.5q0 -24 -12 -42t-31.5 -30t-45.5 -18
t-54 -6zM171 59q20 0 33 8t13 22q0 13 -15 22.5t-37 20.5q-14 -8 -28 -18.5t-14 -24.5t13.5 -22t34.5 -8zM176 210q11 8 23.5 18t12.5 21q0 12 -10.5 19.5t-26.5 7.5q-17 0 -28 -7.5t-11 -19.5q0 -13 12.5 -21.5t27.5 -17.5z" />
    <glyph glyph-name="nine.dnom" horiz-adv-x="353" 
d="M56 63q27 0 52 5.5t46.5 15.5t37 25t22.5 35q-14 -8 -34 -13t-41 -5q-23 0 -43 6t-36 19t-25 31.5t-9 44.5q0 28 11.5 49t30.5 35.5t44.5 22t54.5 7.5q76 0 112 -43.5t36 -110.5q0 -43 -16 -78.5t-46 -61t-74 -40t-100 -14.5zM171 192q29 0 46 12v7q0 29 -14.5 44
t-34.5 15t-31 -11t-11 -27q0 -20 13 -30t32 -10z" />
    <glyph glyph-name="dollar.osf" horiz-adv-x="425" 
d="M160 -10q-48 5 -81 18t-53 27l45 94q19 -13 52.5 -27.5t75.5 -14.5q45 0 64.5 12t19.5 32q0 15 -12 24.5t-31.5 17.5t-44 16t-49.5 20q-24 12 -44 25t-34.5 29.5t-22.5 38t-8 48.5q0 55 32.5 92t90.5 50v107h111v-102q42 -5 70.5 -16t45.5 -22l-47 -91q-17 12 -47.5 22
t-63.5 10q-72 0 -72 -43q0 -13 9.5 -22t25.5 -16t35.5 -14t40.5 -15q27 -11 51.5 -23.5t43.5 -30t30 -40t11 -52.5q0 -62 -34.5 -100t-98.5 -50v-117h-111v113z" />
    <glyph glyph-name="zero.osf" horiz-adv-x="585" 
d="M293 -12q-68 0 -117.5 22.5t-81.5 58.5t-47 81.5t-15 91.5t15.5 91.5t47.5 82.5t82 60t118 23t117 -22t81 -58t47 -81.5t15 -91.5t-15.5 -92t-47.5 -83t-81.5 -60t-117.5 -23zM295 94q58 0 88 39t30 109t-30.5 110.5t-89.5 40.5t-89 -38.5t-30 -108.5t30.5 -111t90.5 -41
z" />
    <glyph glyph-name="one.osf" horiz-adv-x="368" 
d="M163 372l-116 -35l-27 105l173 45h102v-487h-132v372z" />
    <glyph glyph-name="two.osf" horiz-adv-x="509" 
d="M21 60q36 25 83 59.5t89.5 71t72 73.5t29.5 67t-20.5 46.5t-58.5 16.5q-34 0 -65.5 -16t-51.5 -36l-65 83q33 32 86 53.5t116 21.5q44 0 81 -8.5t63.5 -26t41.5 -44.5t15 -64q0 -39 -19.5 -75t-50 -68t-67 -60t-70.5 -52q5 1 25 2.5t39 1.5h184v-106h-457v60z" />
    <glyph glyph-name="three.osf" horiz-adv-x="458" 
d="M140 -188q-42 0 -67 2.5t-37 4.5l20 107q8 -3 29 -6t47 -3q33 0 61.5 7t49.5 20.5t33 34t12 47.5q0 28 -12.5 47t-35 31t-54 17t-68.5 5v96q26 0 53 8t49 22t36 33.5t14 43.5q0 64 -80 64q-33 0 -59 -12.5t-47 -31.5l-62 84q30 26 78 46t117 20q46 0 82 -11.5t60 -31.5
t36.5 -47t12.5 -59t-12.5 -58t-32 -46t-43 -33t-45.5 -19v-1q28 -3 56 -15.5t50 -33.5t35.5 -50t13.5 -66q0 -50 -21.5 -90t-60 -68t-91.5 -43t-117 -15z" />
    <glyph glyph-name="four.osf" horiz-adv-x="603" 
d="M334 0h-311v84l326 403h117v-385h104v-102h-104v-177h-132v177zM334 102v213h-2l-166 -213h168z" />
    <glyph glyph-name="five.osf" horiz-adv-x="455" 
d="M126 -188q-37 0 -61 4t-35 6l25 106q8 -2 26 -6t46 -4q31 0 59 7.5t49 23t33 38.5t12 54q0 33 -11.5 55.5t-32 36.5t-48 20t-60.5 6q-20 0 -38.5 -1.5t-31.5 -4.5l21 334h329v-102h-209l-8 -123q55 -1 98 -17t72.5 -44t45 -67t15.5 -86q0 -53 -20.5 -96.5t-58.5 -74.5
t-93 -48t-124 -17z" />
    <glyph glyph-name="six.osf" horiz-adv-x="545" 
d="M278 -12q-66 0 -112.5 24.5t-75.5 65t-42.5 93t-13.5 109.5q0 88 29 161.5t83 126t131.5 81.5t175.5 29l29 -106q-63 0 -125 -16.5t-101 -50.5q-60 -53 -75 -137q23 17 56 28t73 11q44 0 81.5 -13.5t64.5 -39t42.5 -63.5t15.5 -86q0 -49 -18 -89t-49.5 -68.5t-74.5 -44
t-94 -15.5zM282 90q44 0 68 30.5t24 75.5q0 55 -25 82.5t-71 27.5q-35 0 -60.5 -10.5t-43.5 -25.5v-12q-1 -34 5 -64.5t19 -53.5t34 -36.5t50 -13.5z" />
    <glyph glyph-name="seven.osf" horiz-adv-x="479" 
d="M39 -147l246 526h-265v109h419v-72l-289 -617z" />
    <glyph glyph-name="eight.osf" horiz-adv-x="536" 
d="M268 -12q-56 0 -99 13.5t-72 37t-44.5 56t-15.5 71.5q0 55 33 98.5t95 77.5q-57 33 -83 71t-26 88q0 40 16.5 72.5t45.5 55.5t67 36t82 13q100 0 158 -45t58 -124q0 -46 -30.5 -83.5t-88.5 -70.5q66 -35 100 -77.5t34 -105.5q0 -44 -17 -78t-47.5 -57.5t-73 -36
t-92.5 -12.5zM268 87q46 0 69.5 25t23.5 60q0 30 -23.5 57.5t-81.5 58.5q-44 -27 -64.5 -55t-20.5 -62q0 -37 25.5 -60.5t71.5 -23.5zM273 406q39 26 57 50t18 48q0 32 -19.5 54t-57.5 22t-58.5 -21t-20.5 -52q0 -27 18 -51t63 -50z" />
    <glyph glyph-name="nine.osf" horiz-adv-x="548" 
d="M55 -79q31 0 64 4.5t64 13t58.5 21t48.5 29.5q32 26 51 58t26 74q-56 -39 -130 -39q-44 0 -82 13.5t-65.5 39.5t-43 63.5t-15.5 85.5q0 49 19 89t51.5 68t76 43t93.5 15q67 0 113.5 -24.5t75 -65t41 -93.5t12.5 -109q0 -89 -28.5 -161t-83 -123t-135 -79t-183.5 -28z
M269 183q30 0 57 9t47 26l1 11q1 34 -5 64.5t-18.5 54t-33.5 37t-50 13.5q-41 0 -67.5 -28.5t-26.5 -79.5q0 -52 25 -79.5t71 -27.5z" />
    <glyph glyph-name="zero.lf" horiz-adv-x="614" 
d="M307 -12q-73 0 -124.5 29.5t-83.5 78t-47 110.5t-15 127t14 127t46 110.5t83.5 78t125.5 29.5q73 0 124.5 -29.5t84 -78t47.5 -110.5t15 -127t-15 -127t-47.5 -110.5t-84 -78t-123.5 -29.5zM306 94q68 0 98 63.5t30 175.5t-29.5 175.5t-97.5 63.5t-98 -63.5t-30 -175.5
t29.5 -175.5t97.5 -63.5z" />
    <glyph glyph-name="one.lf" horiz-adv-x="385" 
d="M166 549l-128 -38l-28 105l186 50h103v-666h-133v549z" />
    <glyph glyph-name="two.lf" horiz-adv-x="516" 
d="M24 72q48 43 99.5 92t94 100.5t70 104t27.5 103.5q0 52 -27 75t-66 23q-45 0 -78.5 -18.5t-59.5 -44.5l-64 84q18 17 40 33t48.5 28t59 19t72.5 7q54 0 95 -14t68.5 -39.5t41.5 -60.5t14 -76q0 -53 -21 -103t-55.5 -98t-79.5 -94t-92 -89q12 0 25 1q11 1 24 1.5t24 0.5
h190v-107h-450v72z" />
    <glyph glyph-name="three.lf" horiz-adv-x="488" 
d="M144 -12q-46 0 -75 5t-39 8l21 106q9 -3 31.5 -7.5t57.5 -4.5q73 0 114.5 26.5t41.5 78.5q0 57 -48 79.5t-136 23.5v92q75 2 120.5 30t45.5 75q0 34 -22.5 52t-64.5 18q-38 0 -67 -12.5t-49 -28.5l-56 86q27 21 76.5 42t121.5 21q99 0 149.5 -42.5t50.5 -110.5
q0 -32 -11.5 -58t-31 -45.5t-44.5 -32.5t-51 -20v-2q30 -3 58.5 -15.5t51 -33.5t36.5 -50.5t14 -66.5q0 -51 -21 -90.5t-59.5 -66.5t-93 -41.5t-121.5 -14.5z" />
    <glyph glyph-name="four.lf" horiz-adv-x="589" 
d="M331 138h-308v90l315 438h125v-424h97v-104h-97v-138h-132v138zM156 239q11 2 31 2.5t45 0.5h100v249h-2z" />
    <glyph glyph-name="five.lf" horiz-adv-x="470" 
d="M121 -12q-39 0 -62.5 4t-33.5 7l20 107q8 -2 29 -6.5t47 -4.5q35 0 65 7t52.5 21.5t35 37t12.5 53.5q0 32 -12 53.5t-33.5 34.5t-51.5 18.5t-67 5.5q-19 0 -38.5 -1t-28.5 -3l20 344h333v-107h-212l-8 -130q111 -3 175.5 -55.5t64.5 -151.5q0 -57 -22 -100.5t-62.5 -73
t-97 -45t-125.5 -15.5z" />
    <glyph glyph-name="six.lf" horiz-adv-x="558" 
d="M288 -12q-66 0 -113.5 24.5t-77.5 65t-44.5 93.5t-14.5 110q0 90 29 163t83 125t131.5 80.5t174.5 28.5l28 -108q-31 0 -62 -3.5t-59.5 -11t-53.5 -19t-44 -26.5q-32 -26 -51.5 -59.5t-28.5 -78.5q24 20 57.5 31t72.5 11q45 0 83.5 -14t67 -41t44.5 -65.5t16 -86.5
q0 -50 -18 -90.5t-50 -69t-75.5 -44t-94.5 -15.5zM291 90q47 0 70.5 32t23.5 78q0 57 -26 85t-73 28q-35 0 -62 -10.5t-47 -29.5v-7q0 -89 31.5 -132.5t82.5 -43.5z" />
    <glyph glyph-name="seven.lf" horiz-adv-x="479" 
d="M69 15l220 540h-270v111h421v-73l-251 -619z" />
    <glyph glyph-name="eight.lf" horiz-adv-x="528" 
d="M264 -12q-113 0 -172.5 49.5t-59.5 128.5q0 31 10.5 57.5t28.5 48t41.5 39t48.5 31.5q-47 28 -78 64.5t-31 95.5q0 39 16.5 71.5t45.5 56t68 36t84 12.5q96 0 154.5 -43.5t58.5 -124.5q0 -27 -9.5 -49.5t-26 -41t-38 -34.5t-45.5 -30q26 -14 50.5 -31t43 -39t30 -50
t11.5 -63q0 -43 -17 -77t-47.5 -58t-73 -36.5t-93.5 -12.5zM263 88q46 0 69.5 24t23.5 60q0 39 -31 66.5t-73 50.5q-16 -11 -31 -22.5t-26.5 -26t-18.5 -31.5t-7 -38q0 -38 23.5 -60.5t70.5 -22.5zM268 406q32 20 54 44t22 55q0 32 -19 53t-57 21t-59 -20.5t-21 -50.5
q0 -35 24 -59t56 -43z" />
    <glyph glyph-name="nine.lf" horiz-adv-x="557" 
d="M78 90q31 0 62.5 4.5t60.5 13t54.5 21.5t44.5 31q56 52 71 135q-23 -20 -57 -31.5t-73 -11.5q-45 0 -83.5 14t-67 41t-44.5 65.5t-16 86.5q0 50 18.5 90.5t50.5 69t75 44t93 15.5q67 0 114.5 -24t78 -64.5t44.5 -93.5t14 -111q0 -91 -26.5 -165t-79 -127t-129.5 -82
t-177 -29zM271 353q35 0 61.5 10.5t46.5 29.5v7q0 86 -30.5 131t-81.5 45q-48 0 -71.5 -32t-23.5 -78q0 -57 26 -85t73 -28z" />
    <glyph glyph-name="zero.tosf" 
d="M277 -12q-64 0 -110 22.5t-75.5 58.5t-43.5 81.5t-14 91.5t14 91.5t44 82.5t76.5 60t110.5 23t110 -22t75.5 -58t43.5 -81.5t14 -91.5t-14.5 -92t-44.5 -83t-76 -60t-110 -23zM279 94q48 0 74.5 39t26.5 109t-27.5 110.5t-75.5 40.5t-74.5 -38.5t-26.5 -108.5t27.5 -111
t75.5 -41z" />
    <glyph glyph-name="one.tosf" 
d="M82 106h150v266l-134 -42l-27 105l190 52h103v-381h148v-106h-430v106z" />
    <glyph glyph-name="two.tosf" 
d="M40 60q48 34 98 68.5t90.5 69t66.5 68t26 63.5q0 32 -21 48.5t-58 16.5q-20 0 -39.5 -5t-37.5 -12.5t-33.5 -17.5t-26.5 -19l-61 82q16 13 37.5 27t48.5 25.5t59 18.5t70 7q45 0 82.5 -8.5t64.5 -26t42.5 -45t15.5 -64.5q0 -41 -18.5 -75.5t-48.5 -65.5t-68 -58.5
t-77 -54.5q5 1 25.5 2.5t38.5 1.5h186v-106h-462v60z" />
    <glyph glyph-name="three.tosf" 
d="M183 -188q-44 0 -78.5 4.5t-53.5 9.5l22 105q16 -5 47.5 -9t65.5 -4q32 0 60.5 7t49.5 20.5t33.5 33.5t12.5 46q0 30 -17.5 50t-46 31.5t-65 16t-73.5 4.5v93q26 0 58 7.5t60 21t47 34.5t19 48q0 29 -23 45.5t-62 16.5q-40 0 -77 -14.5t-60 -34.5l-61 83q29 26 81.5 49
t130.5 23q46 0 84.5 -10.5t66 -30t43 -46.5t15.5 -61q0 -33 -13.5 -60t-34.5 -46.5t-46 -32t-48 -18.5v-1q28 -3 57.5 -15t53.5 -32.5t39 -49.5t15 -68q0 -52 -24 -92.5t-65 -68t-96 -41.5t-117 -14z" />
    <glyph glyph-name="four.tosf" 
d="M314 0h-299v84l314 403h117v-385h86v-102h-86v-177h-132v177zM316 102v217h-1l-157 -217h158z" />
    <glyph glyph-name="five.tosf" 
d="M179 -188q-40 0 -73.5 4.5t-44.5 7.5l21 106q10 -3 40 -7.5t58 -4.5q31 0 59.5 8t50.5 23.5t34.5 38.5t12.5 53q0 33 -15.5 55.5t-41 36.5t-57 20t-64.5 6q-26 0 -44 -2t-31 -4l22 334h359v-103h-239l-9 -122q55 -1 103 -15.5t83 -42t55.5 -66.5t20.5 -90
q0 -53 -21 -96.5t-60 -74.5t-94.5 -48t-124.5 -17z" />
    <glyph glyph-name="six.tosf" 
d="M282 -12q-66 0 -112.5 24.5t-75.5 65t-42.5 93t-13.5 109.5q0 88 29 161.5t83 126t131.5 81.5t175.5 29l28 -106q-54 0 -104.5 -11.5t-90.5 -36.5t-68 -63.5t-37 -92.5q23 17 56 28t73 11q44 0 81.5 -13.5t65 -39t43 -63.5t15.5 -86q0 -49 -18 -89t-49.5 -68.5t-75 -44
t-94.5 -15.5zM286 90q44 0 68 30.5t24 75.5q0 55 -25 82.5t-70 27.5q-37 0 -62 -10.5t-43 -25.5v-12q0 -34 6 -64.5t19 -53.5t33.5 -36.5t49.5 -13.5z" />
    <glyph glyph-name="seven.tosf" 
d="M67 -147l288 526h-309v109h466v-72l-335 -617z" />
    <glyph glyph-name="eight.tosf" 
d="M278 -12q-57 0 -100.5 13.5t-73 37t-45 56t-15.5 71.5q0 55 34 98.5t96 77.5q-57 33 -84 71t-27 88q0 39 16.5 72t45.5 56t68 36t84 13q51 0 91.5 -12t69 -33.5t43.5 -53t15 -70.5q0 -46 -31.5 -83.5t-89.5 -70.5q66 -35 101 -77.5t35 -105.5q0 -44 -17.5 -78t-48 -57.5
t-73.5 -36t-94 -12.5zM277 87q47 0 72 25t25 60q0 30 -25.5 57.5t-82.5 58.5q-44 -27 -66 -55t-22 -62q0 -36 27 -60t72 -24zM282 406q79 51 79 98q0 32 -21 54t-59 22t-60.5 -21.5t-22.5 -51.5q0 -27 20 -51t64 -50z" />
    <glyph glyph-name="nine.tosf" 
d="M55 -79q52 1 104 12t95 34t73 61t39 93q-56 -39 -130 -39q-45 0 -82.5 13.5t-65 39.5t-43 63.5t-15.5 85.5q0 49 19 89t51.5 68t76 43t93.5 15q67 0 113 -24.5t74.5 -65t41.5 -93.5t13 -109q0 -89 -28.5 -161.5t-83.5 -123.5t-134.5 -78.5t-182.5 -27.5zM268 183
q63 0 104 35v11q0 34 -5.5 64.5t-18 54t-33 37t-49.5 13.5q-41 0 -68 -28.5t-27 -79.5q0 -52 25.5 -79.5t71.5 -27.5z" />
    <glyph glyph-name="uni2007.tosf" 
 />
    <glyph glyph-name="exclam.sc" horiz-adv-x="267" 
d="M134 -9q-35 0 -57 22.5t-22 53.5q0 30 22 52t57 22q34 0 56 -22t22 -52q0 -31 -22 -53.5t-56 -22.5zM61 523h146l-21 -334h-103z" />
    <glyph glyph-name="ampersand.sc" horiz-adv-x="569" 
d="M225 -9q-97 0 -146.5 40.5t-49.5 106.5q0 55 30 89.5t84 61.5q-25 29 -39 56t-14 59q0 29 12.5 53t35 41t53.5 26t67 9q77 0 118.5 -34.5t41.5 -84.5q0 -44 -30 -76t-84 -62l86 -92q23 40 32 87l104 -18q-8 -41 -25 -77.5t-43 -68.5l97 -107h-148l-32 35
q-33 -20 -70.5 -32t-79.5 -12zM249 334q32 19 45 36.5t13 35.5q0 20 -13.5 32t-35.5 12t-35.5 -12t-13.5 -33q0 -19 11 -35t29 -36zM237 83q41 0 74 22l-107 115q-23 -15 -34.5 -32.5t-11.5 -40.5q0 -30 22 -47t57 -17z" />
    <glyph glyph-name="question.sc" horiz-adv-x="358" 
d="M90 219q0 38 14.5 59t40.5 38q24 16 37 30.5t13 35.5q0 26 -17 37.5t-49 11.5q-23 0 -41 -5.5t-29 -12.5l-43 89q20 11 53 21t88 10q45 0 77.5 -10.5t54.5 -29t32.5 -43.5t10.5 -53q0 -21 -6 -38.5t-16 -31.5t-22.5 -25.5t-25.5 -20.5t-24.5 -16.5t-20.5 -15.5t-14 -18
t-5 -25v-17h-108v30zM145 -9q-35 0 -57 22.5t-22 53.5q0 30 22 52t57 22q34 0 55.5 -22t21.5 -52q0 -31 -21.5 -53.5t-55.5 -22.5z" />
    <glyph glyph-name="a.sc" horiz-adv-x="584" 
d="M225 523h128l216 -523h-142l-34 91h-214l-32 -91h-132zM358 188l-41 112q-6 18 -12 34.5t-10 29.5t-7 21l-2 9h-2l-3 -9q-2 -8 -6 -21t-9.5 -30t-11.5 -34l-41 -112h145z" />
    <glyph glyph-name="b.sc" horiz-adv-x="516" 
d="M69 523h195q39 0 74 -6.5t61.5 -22t42.5 -41t16 -63.5q0 -53 -27.5 -80.5t-69.5 -37.5v-2q24 -3 45.5 -12t38 -25t26 -38t9.5 -50q0 -40 -16 -67.5t-45 -45t-69 -25t-88 -7.5h-193v523zM258 96q48 0 70 14t22 49q0 65 -87 65h-63v-128h58zM248 310q45 0 64 15t19 47
q0 56 -80 56h-51v-118h48z" />
    <glyph glyph-name="c.sc" horiz-adv-x="521" 
d="M321 -9q-71 0 -124.5 22t-88.5 59t-52.5 86t-17.5 103t18.5 103.5t54.5 87t90 59.5t125 22q54 0 93.5 -11t70.5 -33l-57 -97q-20 14 -44.5 23t-63.5 9q-70 0 -107.5 -44t-37.5 -114q0 -74 36.5 -120t109.5 -46q45 0 72 12t47 26l51 -95q-23 -17 -66 -34.5t-109 -17.5z
" />
    <glyph glyph-name="d.sc" horiz-adv-x="599" 
d="M69 523h179q81 0 140 -18.5t97.5 -51.5t57 -80t18.5 -104t-19 -106.5t-58 -85.5t-99 -56.5t-142 -20.5h-174v523zM254 105q167 0 167 159q0 82 -41.5 118t-130.5 36h-46v-313h51z" />
    <glyph glyph-name="e.sc" horiz-adv-x="470" 
d="M69 523h344v-104h-213v-103h190v-96h-190v-116h218v-104h-349v523z" />
    <glyph glyph-name="f.sc" horiz-adv-x="447" 
d="M69 523h336v-105h-202v-116h180v-100h-180v-202h-134v523z" />
    <glyph glyph-name="g.sc" horiz-adv-x="595" 
d="M333 -9q-72 0 -127.5 22t-92.5 59.5t-56 86t-19 102.5t20.5 103.5t59.5 87t96 59.5t130 22q68 0 111 -14t70 -32l-56 -98q-20 13 -51 23.5t-76 10.5q-81 0 -122 -42.5t-41 -116.5q0 -37 9.5 -68t28.5 -53t48.5 -34.5t69.5 -12.5q32 0 52.5 6t28.5 10v89h-93v94h220v-254
l-28 -15q-16 -9 -41.5 -16.5t-60 -13t-80.5 -5.5z" />
    <glyph glyph-name="h.sc" horiz-adv-x="629" 
d="M69 523h134v-199h224v199h132v-523h-132v216h-224v-216h-134v523z" />
    <glyph glyph-name="i.sc" horiz-adv-x="282" 
d="M74 523h134v-523h-134v523z" />
    <glyph glyph-name="j.sc" horiz-adv-x="295" 
d="M58 -171q-34 0 -55.5 5t-35.5 10l20 104q6 -2 17.5 -5t23.5 -3q34 0 48.5 16t14.5 55v512h135v-527q0 -83 -45.5 -125t-122.5 -42z" />
    <glyph glyph-name="k.sc" horiz-adv-x="544" 
d="M69 523h133v-230l180 230h144l-191 -242l196 -281h-148l-181 258v-258h-133v523z" />
    <glyph glyph-name="l.sc" horiz-adv-x="448" 
d="M72 523h133v-418h210v-105h-343v523z" />
    <glyph glyph-name="m.sc" horiz-adv-x="747" 
d="M115 523h129l101 -310q5 -14 9 -29t8 -28l8 -30h2l8 30q4 13 8.5 28t9.5 29l106 310h129l74 -523h-135l-31 246q-4 32 -6 54.5t-2 23.5h-2q0 -1 -6 -24t-15 -52l-81 -248h-127l-81 248q-4 13 -8 26.5t-7 24.5t-5 18l-1 7h-2l-1 -8q0 -7 -0.5 -18t-2 -25t-3.5 -27
l-34 -246h-118z" />
    <glyph glyph-name="n.sc" horiz-adv-x="623" 
d="M69 523h133l175 -242q27 -38 43 -65t17 -28h2q0 1 -0.5 9t-1.5 20.5t-1.5 27.5t-0.5 30v248h119v-523h-121l-190 262q-27 37 -41 60t-15 25h-2q0 -1 1.5 -24.5t1.5 -52.5v-270h-119v523z" />
    <glyph glyph-name="o.sc" horiz-adv-x="650" 
d="M327 -9q-70 0 -124 22t-90.5 59t-55.5 86t-19 103q0 52 18.5 101.5t55 87t90 60.5t123.5 23t123.5 -22t90 -58.5t55 -85.5t18.5 -103t-18 -103.5t-53.5 -87t-89 -60t-124.5 -22.5zM325 97q39 0 66.5 13t45 35.5t26 52.5t8.5 63t-8 63.5t-25.5 53t-45 36t-65.5 13.5
t-66 -13t-46 -35.5t-26.5 -52t-8.5 -62.5q0 -34 8.5 -64t26.5 -53t45 -36.5t65 -13.5z" />
    <glyph glyph-name="p.sc" horiz-adv-x="510" 
d="M68 523h196q46 0 85.5 -10.5t68 -31.5t45 -53.5t16.5 -76.5q0 -89 -62 -132.5t-167 -43.5h-49v-175h-133v523zM249 272q50 0 74.5 18.5t24.5 59.5q0 40 -23.5 57.5t-71.5 17.5h-52v-153h48z" />
    <glyph glyph-name="q.sc" horiz-adv-x="650" 
d="M502 -145q-33 0 -63.5 6.5t-60 22.5t-59 44t-61.5 71q-53 9 -94 33.5t-69 60t-42.5 78.5t-14.5 90q0 52 18.5 101.5t55 87t90 60.5t123.5 23t123.5 -22t90 -58.5t55 -85.5t18.5 -103q0 -45 -12.5 -87.5t-37.5 -77.5t-62.5 -60.5t-87.5 -37.5q22 -27 42.5 -38.5
t52.5 -11.5q23 0 40 7.5t25 13.5l42 -86q-13 -9 -43 -20t-69 -11zM325 95q39 0 67 13.5t45.5 36t26 52.5t8.5 64q0 33 -8.5 63.5t-26 53t-45 36t-65.5 13.5t-66 -13t-46 -35.5t-27 -52t-9 -62.5q0 -35 8.5 -65.5t26.5 -53.5t45.5 -36.5t65.5 -13.5z" />
    <glyph glyph-name="r.sc" horiz-adv-x="532" 
d="M69 523h194q102 0 157 -39t55 -116q0 -33 -10.5 -57.5t-27.5 -41.5t-39 -27t-45 -15v-1q11 -8 29 -27t40 -54l95 -145h-143l-95 149q-13 18 -22 29t-16.5 17t-14.5 7.5t-16 1.5h-7v-204h-134v523zM261 294q81 0 81 65q0 33 -20.5 49.5t-66.5 16.5h-52v-131h58z" />
    <glyph glyph-name="s.sc" horiz-adv-x="440" 
d="M202 -9q-35 0 -62.5 5t-49.5 12.5t-37 15.5t-24 15l52 93q6 -4 16 -10.5t24 -12.5t32.5 -10.5t41.5 -4.5q38 0 59.5 12.5t21.5 35.5q0 15 -9 25.5t-25 18.5t-38 17t-49 21q-52 23 -83.5 58t-31.5 97q0 37 15 66t40 48.5t58.5 29.5t71.5 10q33 0 59 -4.5t45.5 -10.5
t34 -13.5t24.5 -13.5l-50 -93q-16 11 -43 21t-62 10q-29 0 -48 -10.5t-19 -33.5q0 -14 7 -23.5t20.5 -17t32 -14.5t42.5 -17q27 -12 51.5 -26t43.5 -32.5t30 -43.5t11 -58q0 -78 -53 -120t-149 -42z" />
    <glyph glyph-name="t.sc" horiz-adv-x="475" 
d="M170 416h-154v107h443v-107h-155v-416h-134v416z" />
    <glyph glyph-name="u.sc" horiz-adv-x="602" 
d="M306 -9q-122 0 -181.5 57.5t-59.5 168.5v306h134v-296q0 -70 24.5 -99.5t85.5 -29.5q57 0 81 30.5t24 93.5v301h123v-292q0 -116 -58 -178t-173 -62z" />
    <glyph glyph-name="v.sc" horiz-adv-x="570" 
d="M14 523h144l108 -297l10 -30q5 -15 8.5 -27.5t5.5 -20.5l3 -8h2l2 8q2 8 5.5 20.5t8.5 27.5l10 30l103 297h131l-203 -523h-127z" />
    <glyph glyph-name="w.sc" horiz-adv-x="771" 
d="M16 523h140l64 -246q4 -17 8 -34.5t7 -31.5t4 -23l2 -9h2l2 9l5 25q3 15 7.5 33t9.5 36l63 241h127l62 -240q5 -17 8.5 -35.5t6.5 -33.5q4 -18 7 -34h2q3 16 7 33q3 14 7 31.5t9 34.5l64 244h125l-149 -523h-123l-70 269q-5 17 -9 34t-7 31q-4 17 -7 33h-2q-3 -16 -7 -33
q-3 -14 -7.5 -31.5t-9.5 -33.5l-78 -269h-122z" />
    <glyph glyph-name="x.sc" horiz-adv-x="531" 
d="M193 269l-165 254h150l95 -155l89 155h132l-159 -254l175 -269h-146l-109 173l-103 -173h-133z" />
    <glyph glyph-name="y.sc" horiz-adv-x="511" 
d="M191 197l-181 326h147l106 -210h2l105 210h130l-174 -326v-197h-135v197z" />
    <glyph glyph-name="z.sc" horiz-adv-x="486" 
d="M41 85l239 332h-230v106h391v-84l-240 -334h248v-105h-408v85z" />
    <glyph glyph-name="exclamdown.sc" horiz-adv-x="267" 
d="M133 381q-34 0 -56 22.5t-22 52.5q0 31 22 53t56 22q35 0 57.5 -22t22.5 -53q0 -30 -22.5 -52.5t-57.5 -22.5zM82 334h102l22 -334h-145z" />
    <glyph glyph-name="mu.sc" horiz-adv-x="747" 
d="M115 523h129l101 -310q5 -14 9 -29t8 -28l8 -30h2l8 30q4 13 8.5 28t9.5 29l106 310h129l74 -523h-135l-31 246q-4 32 -6 54.5t-2 23.5h-2q0 -1 -6 -24t-15 -52l-81 -248h-127l-81 248q-4 13 -8 26.5t-7 24.5t-5 18l-1 7h-2l-1 -8q0 -7 -0.5 -18t-2 -25t-3.5 -27
l-34 -246h-118z" />
    <glyph glyph-name="questiondown.sc" horiz-adv-x="358" 
d="M201 -10q-45 0 -77.5 10.5t-54.5 29t-32.5 43.5t-10.5 53q0 21 6 38.5t16 31.5t22.5 25.5t25.5 20.5t24.5 16.5t20.5 15.5t14 18t5 25v17h107v-30q0 -38 -14 -59t-40 -38q-25 -16 -37.5 -30.5t-12.5 -35.5q0 -26 17 -37.5t48 -11.5q24 0 41.5 5.5t29.5 12.5l42 -89
q-20 -11 -53 -21t-87 -10zM213 382q-35 0 -56.5 22t-21.5 52q0 31 21.5 53.5t56.5 22.5t57 -22.5t22 -53.5q0 -30 -22 -52t-57 -22z" />
    <glyph glyph-name="germandbls.sc" horiz-adv-x="878" 
d="M202 -9q-35 0 -62.5 5t-49.5 12.5t-37 15.5t-24 15l52 93q6 -4 16 -10.5t24 -12.5t32.5 -10.5t41.5 -4.5q38 0 59.5 12.5t21.5 35.5q0 15 -9 25.5t-25 18.5t-38 17t-49 21q-52 24 -83.5 58.5t-31.5 96.5q0 37 15 66t40 48.5t58.5 29.5t71.5 10q33 0 59 -4.5t45.5 -10.5
t34 -13.5t24.5 -13.5l-50 -93q-16 11 -43 21t-62 10q-29 0 -48 -10.5t-19 -33.5q0 -14 7 -23.5t20.5 -17t32 -14.5t42.5 -17q27 -12 51.5 -26t43.5 -32.5t30 -43.5t11 -58q0 -78 -53 -120t-149 -42zM640 -9q-35 0 -62.5 5t-49.5 12.5t-37 15.5t-24 15l52 93q6 -4 16 -10.5
t24 -12.5t32.5 -10.5t41.5 -4.5q38 0 59.5 12.5t21.5 35.5q0 15 -9 25.5t-25 18.5t-38 17t-49 21q-52 24 -83.5 58.5t-31.5 96.5q0 37 14.5 66t40 48.5t58.5 29.5t71 10q67 0 105.5 -15t58.5 -27l-50 -93q-16 11 -43.5 21t-61.5 10q-29 0 -48 -10.5t-19 -33.5q0 -14 7 -23.5
t20.5 -17t32 -14.5t42.5 -17q27 -12 51.5 -26t43.5 -32.5t30 -43.5t11 -58q0 -78 -53 -120t-149 -42z" />
    <glyph glyph-name="agrave.sc" horiz-adv-x="584" 
d="M225 523h128l216 -523h-142l-34 91h-214l-32 -91h-132zM105 704h171l83 -135h-114zM358 188l-41 112q-6 18 -12 34.5t-10 29.5t-7 21l-2 9h-2l-3 -9q-2 -8 -6 -21t-9.5 -30t-11.5 -34l-41 -112h145z" />
    <glyph glyph-name="aacute.sc" horiz-adv-x="584" 
d="M225 523h128l216 -523h-142l-34 91h-214l-32 -91h-132zM308 704h172l-140 -135h-115zM358 188l-41 112q-6 18 -12 34.5t-10 29.5t-7 21l-2 9h-2l-3 -9q-2 -8 -6 -21t-9.5 -30t-11.5 -34l-41 -112h145z" />
    <glyph glyph-name="acircumflex.sc" horiz-adv-x="584" 
d="M225 523h128l216 -523h-142l-34 91h-214l-32 -91h-132zM241 729h102l125 -159h-113l-64 66l-64 -66h-113zM358 188l-41 112q-6 18 -12 34.5t-10 29.5t-7 21l-2 9h-2l-3 -9q-2 -8 -6 -21t-9.5 -30t-11.5 -34l-41 -112h145z" />
    <glyph glyph-name="atilde.sc" horiz-adv-x="584" 
d="M225 523h128l216 -523h-142l-34 91h-214l-32 -91h-132zM350 574q-23 0 -38 5.5t-28 12t-25 12t-27 5.5q-18 0 -32 -11t-22 -19l-61 53q7 12 18 25.5t25.5 24.5t32 18t37.5 7q23 0 38.5 -5.5t28 -12t24.5 -12t27 -5.5q21 0 35 11.5t21 19.5l61 -53q-8 -13 -19 -26.5
t-25.5 -24.5t-32 -18t-38.5 -7zM358 188l-41 112q-6 18 -12 34.5t-10 29.5t-7 21l-2 9h-2l-3 -9q-2 -8 -6 -21t-9.5 -30t-11.5 -34l-41 -112h145z" />
    <glyph glyph-name="adieresis.sc" horiz-adv-x="584" 
d="M225 523h128l216 -523h-142l-34 91h-214l-32 -91h-132zM396 570q-32 0 -53 21t-21 51q0 29 21 50t53 21t53 -21t21 -50q0 -30 -21 -51t-53 -21zM186 570q-32 0 -53 21t-21 51q0 29 21 50t53 21t53 -21t21 -50q0 -30 -21 -51t-53 -21zM358 188l-41 112q-6 18 -12 34.5
t-10 29.5t-7 21l-2 9h-2l-3 -9q-2 -8 -6 -21t-9.5 -30t-11.5 -34l-41 -112h145z" />
    <glyph glyph-name="aring.sc" horiz-adv-x="584" 
d="M225 523h128l216 -523h-142l-34 91h-214l-32 -91h-132zM291 567q-21 0 -41 8t-35.5 22.5t-24.5 34t-9 42.5q0 22 9 41.5t24.5 34t35.5 22.5t41 8t41 -8t35.5 -22.5t24.5 -34t9 -41.5q0 -23 -9 -42.5t-24.5 -34t-35.5 -22.5t-41 -8zM358 188l-41 112q-6 18 -12 34.5
t-10 29.5t-7 21l-2 9h-2l-3 -9q-2 -8 -6 -21t-9.5 -30t-11.5 -34l-41 -112h145zM291 623q22 0 34 15.5t12 35.5t-12 35t-34 15t-34 -15t-12 -35t12 -35.5t34 -15.5z" />
    <glyph glyph-name="ae.sc" horiz-adv-x="728" 
d="M294 523h383v-105h-203v-102h179v-96h-179v-115h208v-105h-338v95h-163l-54 -95h-144zM344 193v194l-110 -194h110z" />
    <glyph glyph-name="ccedilla.sc" horiz-adv-x="521" 
d="M267 -230q-32 0 -52 5t-30 10l17 60q8 -4 21 -7.5t30 -3.5q22 0 35 8.5t13 25.5q0 13 -6.5 20.5t-16.5 12t-22.5 5.5t-25.5 0l33 89q-57 9 -99 33.5t-70 60t-42 80t-14 92.5q0 54 18.5 103.5t54.5 87t90 59.5t125 22q54 0 93.5 -11t70.5 -33l-57 -97q-20 14 -44.5 23
t-63.5 9q-70 0 -107.5 -44t-37.5 -114q0 -74 36.5 -120t109.5 -46q45 0 72 12t47 26l51 -95q-22 -17 -61 -33t-97 -18l-17 -47q31 -7 51 -28t20 -54q0 -42 -34.5 -67.5t-90.5 -25.5z" />
    <glyph glyph-name="egrave.sc" horiz-adv-x="470" 
d="M55 704h171l83 -135h-114zM69 523h344v-104h-213v-103h190v-96h-190v-116h218v-104h-349v523z" />
    <glyph glyph-name="eacute.sc" horiz-adv-x="470" 
d="M257 704h172l-140 -135h-115zM69 523h344v-104h-213v-103h190v-96h-190v-116h218v-104h-349v523z" />
    <glyph glyph-name="ecircumflex.sc" horiz-adv-x="470" 
d="M191 729h102l125 -159h-113l-64 66l-64 -66h-113zM69 523h344v-104h-213v-103h190v-96h-190v-116h218v-104h-349v523z" />
    <glyph glyph-name="edieresis.sc" horiz-adv-x="470" 
d="M136 570q-32 0 -53 21t-21 51q0 29 21 50t53 21t53 -21t21 -50q0 -30 -21 -51t-53 -21zM346 570q-32 0 -53 21t-21 51q0 29 21 50t53 21t53 -21t21 -50q0 -30 -21 -51t-53 -21zM69 523h344v-104h-213v-103h190v-96h-190v-116h218v-104h-349v523z" />
    <glyph glyph-name="igrave.sc" horiz-adv-x="282" 
d="M74 523h134v-523h-134v523zM-46 704h171l83 -135h-114z" />
    <glyph glyph-name="iacute.sc" horiz-adv-x="282" 
d="M158 704h172l-140 -135h-115zM74 523h134v-523h-134v523z" />
    <glyph glyph-name="icircumflex.sc" horiz-adv-x="282" 
d="M91 729h102l125 -159h-113l-64 66l-64 -66h-113zM74 523h134v-523h-134v523z" />
    <glyph glyph-name="idieresis.sc" horiz-adv-x="282" 
d="M36 570q-32 0 -53 21t-21 51q0 29 21 50t53 21t53 -21t21 -50q0 -30 -21 -51t-53 -21zM246 570q-32 0 -53 21t-21 51q0 29 21 50t53 21t53 -21t21 -50q0 -30 -21 -51t-53 -21zM74 523h134v-523h-134v523z" />
    <glyph glyph-name="eth.sc" horiz-adv-x="599" 
d="M69 211h-51v95h51v217h179q81 0 140 -18.5t97.5 -51.5t57 -80t18.5 -104t-19 -106.5t-58 -85.5t-99 -56.5t-142 -20.5h-174v211zM254 105q167 0 167 159q0 82 -41.5 118t-130.5 36h-46v-112h101v-95h-101v-106h51z" />
    <glyph glyph-name="ntilde.sc" horiz-adv-x="623" 
d="M69 523h133l175 -242q27 -38 43 -65t17 -28h2q0 1 -0.5 9t-1.5 20.5t-1.5 27.5t-0.5 30v248h119v-523h-121l-190 262q-27 37 -41 60t-15 25h-2q0 -1 1.5 -24.5t1.5 -52.5v-270h-119v523zM369 574q-23 0 -38 5.5t-28 12t-25 12t-27 5.5q-18 0 -32 -11t-22 -19l-61 53
q7 12 18 25.5t25.5 24.5t32 18t37.5 7q23 0 38.5 -5.5t28 -12t24.5 -12t27 -5.5q21 0 35 11.5t21 19.5l61 -53q-8 -13 -19 -26.5t-25.5 -24.5t-32 -18t-38.5 -7z" />
    <glyph glyph-name="ograve.sc" horiz-adv-x="650" 
d="M327 -9q-70 0 -124 22t-90.5 59t-55.5 86t-19 103q0 52 18.5 101.5t55 87t90 60.5t123.5 23t123.5 -22t90 -58.5t55 -85.5t18.5 -103t-18 -103.5t-53.5 -87t-89 -60t-124.5 -22.5zM325 97q39 0 66.5 13t45 35.5t26 52.5t8.5 63t-8 63.5t-25.5 53t-45 36t-65.5 13.5
t-66 -13t-46 -35.5t-26.5 -52t-8.5 -62.5q0 -34 8.5 -64t26.5 -53t45 -36.5t65 -13.5zM138 704h171l83 -135h-114z" />
    <glyph glyph-name="oacute.sc" horiz-adv-x="650" 
d="M342 704h172l-140 -135h-115zM327 -9q-70 0 -124 22t-90.5 59t-55.5 86t-19 103q0 52 18.5 101.5t55 87t90 60.5t123.5 23t123.5 -22t90 -58.5t55 -85.5t18.5 -103t-18 -103.5t-53.5 -87t-89 -60t-124.5 -22.5zM325 97q39 0 66.5 13t45 35.5t26 52.5t8.5 63t-8 63.5
t-25.5 53t-45 36t-65.5 13.5t-66 -13t-46 -35.5t-26.5 -52t-8.5 -62.5q0 -34 8.5 -64t26.5 -53t45 -36.5t65 -13.5z" />
    <glyph glyph-name="ocircumflex.sc" horiz-adv-x="650" 
d="M275 729h102l125 -159h-113l-64 66l-64 -66h-113zM327 -9q-70 0 -124 22t-90.5 59t-55.5 86t-19 103q0 52 18.5 101.5t55 87t90 60.5t123.5 23t123.5 -22t90 -58.5t55 -85.5t18.5 -103t-18 -103.5t-53.5 -87t-89 -60t-124.5 -22.5zM325 97q39 0 66.5 13t45 35.5t26 52.5
t8.5 63t-8 63.5t-25.5 53t-45 36t-65.5 13.5t-66 -13t-46 -35.5t-26.5 -52t-8.5 -62.5q0 -34 8.5 -64t26.5 -53t45 -36.5t65 -13.5z" />
    <glyph glyph-name="otilde.sc" horiz-adv-x="650" 
d="M327 -9q-70 0 -124 22t-90.5 59t-55.5 86t-19 103q0 52 18.5 101.5t55 87t90 60.5t123.5 23t123.5 -22t90 -58.5t55 -85.5t18.5 -103t-18 -103.5t-53.5 -87t-89 -60t-124.5 -22.5zM325 97q39 0 66.5 13t45 35.5t26 52.5t8.5 63t-8 63.5t-25.5 53t-45 36t-65.5 13.5
t-66 -13t-46 -35.5t-26.5 -52t-8.5 -62.5q0 -34 8.5 -64t26.5 -53t45 -36.5t65 -13.5zM384 574q-23 0 -38 5.5t-28 12t-25 12t-27 5.5q-18 0 -32 -11t-22 -19l-61 53q7 12 18 25.5t25.5 24.5t32 18t37.5 7q23 0 38.5 -5.5t28 -12t24.5 -12t27 -5.5q21 0 35 11.5t21 19.5
l61 -53q-8 -13 -19 -26.5t-25.5 -24.5t-32 -18t-38.5 -7z" />
    <glyph glyph-name="odieresis.sc" horiz-adv-x="650" 
d="M220 570q-32 0 -53 21t-21 51q0 29 21 50t53 21t53 -21t21 -50q0 -30 -21 -51t-53 -21zM430 570q-32 0 -53 21t-21 51q0 29 21 50t53 21t53 -21t21 -50q0 -30 -21 -51t-53 -21zM327 -9q-70 0 -124 22t-90.5 59t-55.5 86t-19 103q0 52 18.5 101.5t55 87t90 60.5t123.5 23
t123.5 -22t90 -58.5t55 -85.5t18.5 -103t-18 -103.5t-53.5 -87t-89 -60t-124.5 -22.5zM325 97q39 0 66.5 13t45 35.5t26 52.5t8.5 63t-8 63.5t-25.5 53t-45 36t-65.5 13.5t-66 -13t-46 -35.5t-26.5 -52t-8.5 -62.5q0 -34 8.5 -64t26.5 -53t45 -36.5t65 -13.5z" />
    <glyph glyph-name="oslash.sc" horiz-adv-x="650" 
d="M65 -6l54 71q-40 38 -60.5 88.5t-20.5 107.5q0 52 18.5 101.5t55 87t90 60.5t123.5 23q38 0 70 -6.5t61 -18.5l53 71l80 -56l-52 -69q37 -38 56 -87t19 -103t-18 -103.5t-53.5 -87t-89 -60t-124.5 -22.5q-72 0 -127 23l-54 -75zM180 264q0 -56 21 -96l187 247
q-26 12 -61 12q-38 0 -66 -13t-46 -35.5t-26.5 -52t-8.5 -62.5zM325 97q39 0 66.5 13t45 35.5t26 52.5t8.5 63q0 50 -18 91l-186 -245q12 -5 26.5 -7.5t31.5 -2.5z" />
    <glyph glyph-name="ugrave.sc" horiz-adv-x="602" 
d="M115 704h171l83 -135h-114zM306 -9q-122 0 -181.5 57.5t-59.5 168.5v306h134v-296q0 -70 24.5 -99.5t85.5 -29.5q57 0 81 30.5t24 93.5v301h123v-292q0 -116 -58 -178t-173 -62z" />
    <glyph glyph-name="uacute.sc" horiz-adv-x="602" 
d="M318 704h172l-140 -135h-115zM306 -9q-122 0 -181.5 57.5t-59.5 168.5v306h134v-296q0 -70 24.5 -99.5t85.5 -29.5q57 0 81 30.5t24 93.5v301h123v-292q0 -116 -58 -178t-173 -62z" />
    <glyph glyph-name="ucircumflex.sc" horiz-adv-x="602" 
d="M251 729h102l125 -159h-113l-64 66l-64 -66h-113zM306 -9q-122 0 -181.5 57.5t-59.5 168.5v306h134v-296q0 -70 24.5 -99.5t85.5 -29.5q57 0 81 30.5t24 93.5v301h123v-292q0 -116 -58 -178t-173 -62z" />
    <glyph glyph-name="udieresis.sc" horiz-adv-x="602" 
d="M196 570q-32 0 -53 21t-21 51q0 29 21 50t53 21t53 -21t21 -50q0 -30 -21 -51t-53 -21zM406 570q-32 0 -53 21t-21 51q0 29 21 50t53 21t53 -21t21 -50q0 -30 -21 -51t-53 -21zM306 -9q-122 0 -181.5 57.5t-59.5 168.5v306h134v-296q0 -70 24.5 -99.5t85.5 -29.5
q57 0 81 30.5t24 93.5v301h123v-292q0 -116 -58 -178t-173 -62z" />
    <glyph glyph-name="yacute.sc" horiz-adv-x="511" 
d="M275 704h172l-140 -135h-115zM191 197l-181 326h147l106 -210h2l105 210h130l-174 -326v-197h-135v197z" />
    <glyph glyph-name="thorn.sc" horiz-adv-x="512" 
d="M68 523h133v-78h66q46 0 85.5 -10t68 -31t45 -53.5t16.5 -76.5q0 -90 -62 -133.5t-167 -43.5h-52v-97h-133v523zM252 194q50 0 74.5 18.5t24.5 59.5q0 40 -23.5 57.5t-71.5 17.5h-55v-153h51z" />
    <glyph glyph-name="ydieresis.sc" horiz-adv-x="511" 
d="M153 570q-32 0 -53 21t-21 51q0 29 21 50t53 21t53 -21t21 -50q0 -30 -21 -51t-53 -21zM363 570q-32 0 -53 21t-21 51q0 29 21 50t53 21t53 -21t21 -50q0 -30 -21 -51t-53 -21zM191 197l-181 326h147l106 -210h2l105 210h130l-174 -326v-197h-135v197z" />
    <glyph glyph-name="dotlessi.sc" horiz-adv-x="282" 
d="M74 523h134v-523h-134v523z" />
    <glyph glyph-name="ij.sc" horiz-adv-x="577" 
d="M74 523h134v-523h-134v523zM339 -171q-34 0 -55.5 5t-35.5 10l20 104q6 -2 17.5 -5t23.5 -3q34 0 48.5 16t14.5 55v512h135v-527q0 -83 -45.5 -125t-122.5 -42z" />
    <glyph glyph-name="lslash.sc" horiz-adv-x="456" 
d="M80 167l-43 -29l-46 71l89 62v252h134v-164l80 56l47 -72l-127 -87v-151h210v-105h-344v167z" />
    <glyph glyph-name="oe.sc" horiz-adv-x="789" 
d="M328 -9q-71 0 -125 22t-91 59t-55.5 86t-18.5 103q0 52 18.5 101.5t54.5 87t89.5 60.5t123.5 23q27 0 48.5 -2.5t40.5 -7.5h320v-105h-202v-102h179v-96h-179v-115h208v-105h-328q-17 -4 -38 -6.5t-45 -2.5zM325 97q26 0 44.5 4t32.5 11v297q-13 8 -31 13t-44 5
q-38 0 -66 -13t-46 -35.5t-27 -52t-9 -62.5q0 -34 8.5 -64t26.5 -53t45.5 -36.5t65.5 -13.5z" />
    <glyph glyph-name="scaron.sc" horiz-adv-x="440" 
d="M46 728h113l64 -66l64 66h113l-127 -159h-102zM202 -9q-35 0 -62.5 5t-49.5 12.5t-37 15.5t-24 15l52 93q6 -4 16 -10.5t24 -12.5t32.5 -10.5t41.5 -4.5q38 0 59.5 12.5t21.5 35.5q0 15 -9 25.5t-25 18.5t-38 17t-49 21q-52 23 -83.5 58t-31.5 97q0 37 15 66t40 48.5
t58.5 29.5t71.5 10q33 0 59 -4.5t45.5 -10.5t34 -13.5t24.5 -13.5l-50 -93q-16 11 -43 21t-62 10q-29 0 -48 -10.5t-19 -33.5q0 -14 7 -23.5t20.5 -17t32 -14.5t42.5 -17q27 -12 51.5 -26t43.5 -32.5t30 -43.5t11 -58q0 -78 -53 -120t-149 -42z" />
    <glyph glyph-name="zcaron.sc" horiz-adv-x="486" 
d="M68 728h113l64 -66l64 66h113l-127 -159h-102zM41 85l239 332h-230v106h391v-84l-240 -334h248v-105h-408v85z" />
    <glyph glyph-name="pi.sc" horiz-adv-x="620" 
d="M69 523h482v-523h-133v415h-215v-415h-134v523z" />
    <glyph glyph-name="fi.sc" horiz-adv-x="735" 
d="M69 523h336v-105h-202v-116h180v-100h-180v-202h-134v523zM521 523h134v-523h-134v523z" />
    <glyph glyph-name="fl.sc" horiz-adv-x="895" 
d="M69 523h336v-105h-202v-116h180v-100h-180v-202h-134v523zM519 523h133v-418h210v-105h-343v523z" />
    <glyph glyph-name="numbersign.case" horiz-adv-x="567" 
d="M124 186h-109l17 99h106l16 103h-107l16 98h106l28 180h90l-27 -180h98l28 180h91l-27 -180h101l-17 -98h-99l-16 -103h101l-16 -99h-100l-28 -186h-90l28 186h-100l-28 -186h-90zM330 282l16 109h-103l-16 -109h103z" />
    <glyph glyph-name="percent.case" horiz-adv-x="868" 
d="M207 331q-46 0 -80.5 14t-57.5 38t-34.5 55t-11.5 65q0 33 11.5 64.5t34.5 55.5t57.5 39t80.5 15t81 -14t58 -37.5t34.5 -54.5t11.5 -64q0 -34 -11.5 -65.5t-35 -56t-58 -39.5t-80.5 -15zM208 414q38 0 54.5 27t16.5 62q0 36 -17.5 63.5t-54.5 27.5t-54 -25t-17 -62
t17.5 -65t54.5 -28zM661 -10q-47 0 -81.5 14.5t-57.5 38.5t-34.5 55t-11.5 65q0 33 11.5 64t35 55.5t58 39.5t80.5 15t80.5 -14t57.5 -38t34.5 -55t11.5 -64q0 -34 -11.5 -65.5t-34.5 -56t-57.5 -39.5t-80.5 -15zM662 73q38 0 54 27t16 63q0 35 -17.5 62.5t-53.5 27.5
q-38 0 -55 -25t-17 -62q0 -36 17.5 -64.5t55.5 -28.5zM581 666h110l-405 -666h-110z" />
    <glyph glyph-name="parenleft.case" horiz-adv-x="347" 
d="M220 -114q-31 33 -62.5 78t-57.5 101t-42.5 124t-16.5 147q0 76 16.5 142.5t42.5 122t57.5 99.5t62.5 74h126q-25 -27 -53.5 -68.5t-52.5 -96.5t-40 -122.5t-16 -147.5q0 -78 13 -143.5t35 -121.5t51.5 -102.5t62.5 -85.5h-126z" />
    <glyph glyph-name="parenright.case" horiz-adv-x="348" 
d="M1 -114q28 33 57.5 76t52.5 97.5t38 121.5t15 147q0 78 -14.5 144.5t-38 122.5t-52.5 100.5t-58 78.5h127q32 -33 64 -77.5t57.5 -100t41.5 -122.5t16 -143q0 -79 -16.5 -146.5t-43 -124t-58 -100t-61.5 -74.5h-127z" />
    <glyph glyph-name="hyphen.case" horiz-adv-x="330" 
d="M51 400h228v-107h-228v107z" />
    <glyph glyph-name="slash.case" horiz-adv-x="450" 
d="M319 720h129l-318 -881h-129z" />
    <glyph glyph-name="less.case" horiz-adv-x="425" 
d="M41 244l258 251l73 -75l-179 -174l181 -171l-74 -78z" />
    <glyph glyph-name="equal.case" horiz-adv-x="526" 
d="M54 214h418v-101h-418v101zM54 402h418v-102h-418v102z" />
    <glyph glyph-name="greater.case" horiz-adv-x="425" 
d="M53 72l178 173l-181 172l74 78l260 -247l-258 -251z" />
    <glyph glyph-name="bracketleft.case" horiz-adv-x="341" 
d="M65 771h250v-99h-123v-683h123v-99h-250v881z" />
    <glyph glyph-name="bracketright.case" horiz-adv-x="341" 
d="M26 -11h123v683h-123v99h250v-881h-250v99z" />
    <glyph glyph-name="braceleft.case" horiz-adv-x="406" 
d="M259 -110q-22 0 -43 7.5t-38 23.5t-27.5 39t-10.5 55v170q0 48 -27.5 73.5t-86.5 27.5v101q114 1 114 100v161q0 32 10 55.5t27 38.5t38.5 22t44.5 7h119v-99h-62q-31 0 -40.5 -18t-9.5 -50v-145q0 -55 -26 -82t-65 -38v-2q40 -13 65.5 -41.5t25.5 -84.5v-155
q0 -35 9 -51t41 -16h62v-99h-120z" />
    <glyph glyph-name="braceright.case" horiz-adv-x="406" 
d="M26 -11h62q32 0 41.5 18.5t9.5 50.5v156q0 55 25.5 81.5t65.5 37.5v2q-41 13 -66 41.5t-25 85.5v144q0 35 -9 50.5t-41 15.5h-63v99h121q22 0 43 -7.5t38 -23t27.5 -39t10.5 -54.5v-160q0 -47 27 -73t87 -27v-101q-59 -2 -86.5 -26.5t-27.5 -74.5v-171q0 -32 -10.5 -55.5
t-27 -38.5t-38.5 -22.5t-44 -7.5h-120v99z" />
    <glyph glyph-name="exclamdown.case" horiz-adv-x="298" 
d="M152 512q-37 0 -60.5 24t-23.5 57q0 34 23.5 58.5t60.5 24.5t60.5 -24.5t23.5 -58.5q0 -33 -23.5 -57t-60.5 -24zM99 441h106l25 -441h-156z" />
    <glyph glyph-name="guillemotleft.case" horiz-adv-x="539" 
d="M32 344l120 193h136l-119 -193l119 -192h-136zM254 344l120 193h136l-119 -193l119 -192h-136z" />
    <glyph glyph-name="uni00AD.case" horiz-adv-x="330" 
d="M51 400h228v-107h-228v107z" />
    <glyph glyph-name="guillemotright.case" horiz-adv-x="539" 
d="M148 344l-120 193h136l120 -193l-120 -192h-136zM370 344l-119 193h135l121 -193l-121 -192h-135z" />
    <glyph glyph-name="questiondown.case" horiz-adv-x="411" 
d="M240 -12q-53 0 -92 13t-65 36.5t-38.5 55t-12.5 67.5q0 31 8.5 55.5t22 43t30 33t33.5 25.5q16 11 29 20t22.5 18.5t15 20.5t5.5 27v40h116v-53q0 -46 -17 -71.5t-52 -48.5q-33 -21 -51 -42t-18 -56q0 -75 88 -75q30 0 51 8.5t35 15.5l46 -98q-22 -12 -59 -23.5
t-97 -11.5zM255 512q-37 0 -60.5 24t-23.5 57q0 34 23.5 58.5t60.5 24.5t60.5 -24.5t23.5 -58.5q0 -33 -23.5 -57t-60.5 -24z" />
    <glyph glyph-name="endash.case" horiz-adv-x="550" 
d="M48 396h454v-102h-454v102z" />
    <glyph glyph-name="emdash.case" horiz-adv-x="870" 
d="M48 396h774v-102h-774v102z" />
    <glyph glyph-name="perthousand.case" horiz-adv-x="1280" 
d="M207 331q-46 0 -80.5 14t-57.5 38t-34.5 55t-11.5 65q0 33 11.5 64.5t34.5 55.5t57.5 39t80.5 15t81 -14t58 -37.5t34.5 -54.5t11.5 -64q0 -34 -11.5 -65.5t-35 -56t-58 -39.5t-80.5 -15zM208 414q38 0 54.5 27t16.5 62q0 36 -17.5 63.5t-54.5 27.5t-54 -25t-17 -62
t17.5 -65t54.5 -28zM661 -10q-47 0 -81.5 14.5t-57.5 38.5t-34.5 55t-11.5 65q0 33 11.5 64t35 55.5t58 39.5t80.5 15t80.5 -14t57.5 -38t34.5 -55t11.5 -64q0 -34 -11.5 -65.5t-34.5 -56t-57.5 -39.5t-80.5 -15zM662 73q38 0 54 27t16 63q0 35 -17.5 62.5t-53.5 27.5
q-38 0 -55 -25t-17 -62q0 -36 17.5 -64.5t55.5 -28.5zM1072 -10q-46 0 -80.5 14.5t-57.5 38.5t-34.5 55t-11.5 65q0 33 11.5 64t34.5 55.5t57.5 39.5t80.5 15t81 -14t58 -38t34.5 -55t11.5 -64q0 -34 -11.5 -65.5t-35 -56t-58 -39.5t-80.5 -15zM1073 73q38 0 54.5 27
t16.5 63q0 35 -17.5 62.5t-54.5 27.5t-54 -25t-17 -62q0 -36 17.5 -64.5t54.5 -28.5zM581 666h110l-405 -666h-110z" />
    <glyph glyph-name="guilsinglleft.case" horiz-adv-x="320" 
d="M32 344l120 193h140l-119 -193l119 -192h-140z" />
    <glyph glyph-name="guilsinglright.case" horiz-adv-x="320" 
d="M148 344l-120 193h140l120 -193l-120 -192h-140z" />
    <glyph glyph-name="slash.ss01" horiz-adv-x="416" 
d="M385 720h122l-407 -833h-123z" />
    <glyph glyph-name="pi.ss01" horiz-adv-x="707" 
d="M145 369h-109v119h626v-119h-126v-177q0 -46 10 -62.5t25 -16.5q29 0 61 16l43 -94q-24 -23 -58 -34.5t-69 -11.5q-74 0 -107.5 41t-33.5 114v225h-130v-467h-132v467z" />
    <glyph glyph-name="commaaccent" horiz-adv-x="500" 
d="M195 -227q11 10 19.5 22.5t8.5 29.5q0 13 -6.5 21.5t-14 16t-13.5 17t-6 25.5q0 23 18.5 38t44.5 15q29 0 51 -18.5t22 -50.5q0 -37 -19 -67.5t-39 -48.5h-66z" />
    <glyph glyph-name="f_b" horiz-adv-x="883" 
d="M593 -12q-74 0 -124 13t-75 26v585q-9 4 -29.5 7.5t-51.5 3.5q-47 0 -68.5 -25t-21.5 -73v-38h102v-99h-102v-388h-133v388h-73v99h73v50q0 92 58.5 143.5t173.5 51.5q66 0 121 -9.5t84 -20.5v-253q19 19 50 34.5t69 15.5q46 0 84 -16t65.5 -47.5t42.5 -78.5t15 -110
q0 -62 -20 -110.5t-54.5 -81.5t-82.5 -50t-103 -17zM594 92q56 0 87 40t31 115q0 69 -24.5 108t-79.5 39q-26 0 -48 -12.5t-33 -24.5v-254q10 -5 26.5 -8t40.5 -3z" />
    <glyph glyph-name="f_f_b" horiz-adv-x="1176" 
d="M886 -12q-73 0 -123.5 13t-75.5 26v585q-9 4 -29.5 7.5t-51.5 3.5q-47 0 -68.5 -25t-21.5 -73v-38h106v-99h-106v-388h-132v388h-159v-388h-133v388h-75v99h75v46q0 87 53.5 140t151.5 53q31 0 55 -3.5t42 -9.5t31 -13t24 -14q60 46 166 46q66 0 121 -9.5t84 -20.5v-253
q19 19 50 34.5t69 15.5q46 0 84 -16t65.5 -47.5t42.5 -78.5t15 -110q0 -62 -20 -110.5t-54.5 -81.5t-82.5 -50t-103 -17zM887 92q56 0 87 40t31 115q0 69 -24.5 108t-79.5 39q-26 0 -48 -12.5t-33 -24.5v-254q10 -5 26.5 -8t40.5 -3zM384 487v50q0 32 7 56q-10 8 -28 15.5
t-50 7.5q-42 0 -65 -22t-23 -78v-29h159z" />
    <glyph glyph-name="f_f_h" horiz-adv-x="1180" 
d="M92 388h-75v99h75v46q0 87 53.5 140t151.5 53q31 0 55 -3.5t42 -9.5t31 -13t24 -14q60 46 166 46q66 0 121 -9.5t84 -20.5v-274q9 10 22.5 22.5t32.5 23t43 18t54 7.5q40 0 68 -12t45 -33t25 -50t8 -63v-341h-133v314q0 37 -14.5 55.5t-50.5 18.5q-19 0 -35.5 -7.5
t-29.5 -18t-22 -20.5t-13 -15v-327h-133v612q-9 4 -29.5 7.5t-51.5 3.5q-47 0 -68.5 -25t-21.5 -73v-38h106v-99h-106v-388h-132v388h-159v-388h-133v388zM384 487v50q0 32 7 56q-10 8 -28 15.5t-50 7.5q-42 0 -65 -22t-23 -78v-29h159z" />
    <glyph glyph-name="f_f_j" horiz-adv-x="879" 
d="M645 -233q-38 0 -58.5 4t-29.5 8l23 103q5 -2 14 -4t24 -2q35 0 47.5 23.5t12.5 80.5v408h-162v-388h-132v388h-159v-388h-133v388h-75v99h75v46q0 87 53.5 140t151.5 53q32 0 56 -3.5t42 -9.5t31.5 -13t24.5 -13q57 45 149 45q36 0 64 -4t49.5 -10.5t37.5 -14t28 -14.5
l-47 -98q-17 10 -44.5 21t-71.5 11q-48 0 -74 -23.5t-26 -74.5v-38h296v-521q0 -91 -38.5 -145t-128.5 -54zM384 487v49q0 15 1.5 28.5t6.5 27.5q-11 8 -29 16t-50 8q-42 0 -65 -22t-23 -78v-29h159z" />
    <glyph glyph-name="f_f_k" horiz-adv-x="1141" 
d="M820 236v-236h-133v612q-9 4 -29.5 7.5t-51.5 3.5q-47 0 -68.5 -25t-21.5 -73v-38h106v-99h-106v-388h-132v388h-159v-388h-133v388h-75v99h75v46q0 87 53.5 140t151.5 53q31 0 55 -3.5t42 -9.5t31 -13t24 -14q60 46 166 46q66 0 121 -9.5t84 -20.5v-411l160 196h146
l-181 -217l185 -270h-154zM384 487v50q0 32 7 56q-10 8 -28 15.5t-50 7.5q-42 0 -65 -22t-23 -78v-29h159z" />
    <glyph glyph-name="f_h" horiz-adv-x="887" 
d="M90 388h-73v99h73v50q0 92 58.5 143.5t173.5 51.5q66 0 121 -9.5t84 -20.5v-274q9 10 22.5 22.5t32.5 23t43 18t54 7.5q40 0 68 -12t45 -33t25 -50t8 -63v-341h-133v314q0 37 -14.5 55.5t-50.5 18.5q-19 0 -35.5 -7.5t-29.5 -18t-22 -20.5t-13 -15v-327h-133v612
q-9 4 -29.5 7.5t-51.5 3.5q-47 0 -68.5 -25t-21.5 -73v-38h102v-99h-102v-388h-133v388z" />
    <glyph glyph-name="f_j" horiz-adv-x="588" 
d="M353 -233q-37 0 -58 4t-29 8l22 103q5 -2 14.5 -4t24.5 -2q35 0 47.5 23.5t12.5 80.5v408h-164v-388h-133v388h-73v99h73v49q0 91 57.5 143.5t159.5 52.5q36 0 64 -4t49.5 -10.5t37.5 -14t28 -14.5l-47 -98q-17 10 -44.5 21t-71.5 11q-48 0 -74 -23.5t-26 -74.5v-38h298
v-521q0 -91 -39 -145t-129 -54z" />
    <glyph glyph-name="f_k" horiz-adv-x="848" 
d="M527 236v-236h-133v612q-9 4 -29.5 7.5t-51.5 3.5q-47 0 -68.5 -25t-21.5 -73v-38h102v-99h-102v-388h-133v388h-73v99h73v50q0 92 58.5 143.5t173.5 51.5q66 0 121 -9.5t84 -20.5v-411l160 196h146l-181 -217l185 -270h-154z" />
    </font>
</defs>
</svg>
