<?xml version="1.0" standalone="no"?>
<!DOCTYPE svg PUBLIC "-//W3C//DTD SVG 1.1//EN" "http://www.w3.org/Graphics/SVG/1.1/DTD/svg11.dtd" >
<svg xmlns="http://www.w3.org/2000/svg" width="100%" height="100%">
<metadata>
Created by FontXChange 20110222 at Tue Sep 13 13:18:18 2011
 By Kirk Austin
2005 Mike Abbink published by FSI Fonts und Software GmbH
</metadata>
<defs>
<font id="KievitOT-Italic" horiz-adv-x="500" >
  <font-face 
    font-family="KievitOT"
    font-weight="400"
    font-style="italic"
    font-stretch="normal"
    units-per-em="1000"
    panose-1="2 0 5 3 4 0 0 2 0 4"
    ascent="760"
    descent="-240"
    x-height="480"
    cap-height="666"
    bbox="-226 -250 1158 921"
    underline-thickness="20"
    underline-position="-113"
    slope="-10"
    unicode-range="U+000D-FB04"
  />
<missing-glyph horiz-adv-x="511" 
d="M32 666h447v-666h-447v666zM418 61v544h-325v-544h325z" />
    <glyph glyph-name="uniFB00" unicode="ff" horiz-adv-x="611" 
d="M-42 -233q-29 0 -49 5.5t-37 13.5l24 60q14 -6 30.5 -10.5t36.5 -4.5q23 0 39.5 10.5t27.5 27.5t18 38.5t11 44.5l86 470h-96l10 58h97l10 56q17 97 67 142.5t138 45.5q52 0 85 -13.5t54 -29.5q23 25 55 38t74 13t72 -11t44 -20l-32 -60q-11 7 -35 16t-55 9
q-27 0 -45.5 -8.5t-30.5 -24t-19.5 -37t-11.5 -46.5l-13 -70h118l-10 -58h-119l-85 -469q-16 -87 -54 -132.5t-114 -45.5q-29 0 -49 5.5t-36 13.5l24 60q14 -6 30 -10.5t36 -4.5q22 0 37.5 10t26 26.5t17 37t10.5 42.5l86 467h-214l-86 -472q-17 -91 -55.5 -137t-117.5 -46z
M441 480l15 80q6 36 18 64q-17 14 -42 24t-67 10q-60 0 -88 -30.5t-41 -101.5l-8 -46h213z" />
    <glyph glyph-name="fi" unicode="fi" horiz-adv-x="549" 
d="M-43 -230q-29 0 -49 5.5t-37 13.5l24 60q14 -6 30.5 -10.5t36.5 -4.5q23 0 39.5 10.5t27.5 27.5t18 38.5t11 44.5l86 467h-95l10 58h95l8 40q4 18 7 40q17 91 69 131.5t136 40.5q56 0 89 -13.5t50 -24.5l-33 -60q-14 8 -40.5 20t-71.5 12q-59 0 -88.5 -27t-40.5 -89
l-13 -70h275l-87 -480h-72l76 422h-203l-85 -469q-17 -91 -55.5 -137t-117.5 -46z" />
    <glyph glyph-name="fl" unicode="fl" horiz-adv-x="546" 
d="M-43 -230q-29 0 -49 5.5t-37 13.5l24 60q14 -6 30.5 -10.5t36.5 -4.5q23 0 39.5 10.5t27.5 27.5t18 38.5t11 44.5l86 467h-95l10 58h95l8 40q4 18 7 40q17 91 69 131.5t136 40.5q65 0 104 -9t63 -19l-127 -704h-72l118 655q-17 5 -39.5 8t-52.5 3q-59 0 -88.5 -27
t-40.5 -89l-13 -70h118l-10 -58h-119l-85 -469q-17 -91 -55.5 -137t-117.5 -46z" />
    <glyph glyph-name="uniFB03" unicode="ffi" horiz-adv-x="836" 
d="M-42 -233q-29 0 -49 5.5t-37 13.5l24 60q14 -6 30.5 -10.5t36.5 -4.5q23 0 39.5 10.5t27.5 27.5t18 38.5t11 44.5l86 470h-96l10 58h97l10 56q17 97 67 142.5t138 45.5q54 0 87 -14t54 -31q27 28 64 40.5t85 12.5q56 0 89 -13.5t50 -24.5l-33 -60q-14 8 -40.5 20
t-71.5 12q-59 0 -88.5 -27t-40.5 -89l-13 -70h275l-87 -480h-72l76 422h-203l-85 -469q-17 -91 -55.5 -137t-117.5 -46q-29 0 -49 5.5t-37 13.5l24 60q14 -6 30.5 -10.5t36.5 -4.5q23 0 39.5 10.5t27.5 27.5t18 38.5t11 44.5l86 467h-214l-86 -472q-17 -91 -55.5 -137
t-117.5 -46zM442 480l14 80q3 18 8 33.5t11 29.5q-17 14 -42.5 24.5t-67.5 10.5q-60 0 -88 -30.5t-41 -101.5l-8 -46h214z" />
    <glyph glyph-name="uniFB04" unicode="ffl" horiz-adv-x="833" 
d="M-42 -233q-29 0 -49 5.5t-37 13.5l24 60q14 -6 30.5 -10.5t36.5 -4.5q23 0 39.5 10.5t27.5 27.5t18 38.5t11 44.5l86 470h-96l10 58h97l10 56q17 97 67 142.5t138 45.5q54 0 87 -14t54 -31q27 28 64 40.5t85 12.5q65 0 104 -9t63 -19l-127 -704h-72l118 655
q-17 5 -39.5 8t-52.5 3q-59 0 -88.5 -27t-40.5 -89l-13 -70h118l-10 -58h-119l-85 -469q-16 -87 -54 -132.5t-114 -45.5q-29 0 -49 5.5t-36 13.5l24 60q14 -6 30 -10.5t36 -4.5q22 0 37.5 10t26 26.5t17 37t10.5 42.5l86 467h-214l-86 -472q-17 -91 -55.5 -137t-117.5 -46z
M441 480l15 80q3 18 8 33.5t11 29.5q-17 14 -42.5 24.5t-67.5 10.5q-60 0 -88 -30.5t-41 -101.5l-8 -46h213z" />
    <glyph glyph-name=".notdef" horiz-adv-x="511" 
d="M32 666h447v-666h-447v666zM418 61v544h-325v-544h325z" />
    <glyph glyph-name=".null" horiz-adv-x="0" 
 />
    <glyph glyph-name=".null" horiz-adv-x="0" 
 />
    <glyph glyph-name="nonmarkingreturn" unicode="&#xd;" horiz-adv-x="220" 
 />
    <glyph glyph-name="space" unicode=" " horiz-adv-x="220" 
 />
    <glyph glyph-name="exclam" unicode="!" horiz-adv-x="248" 
d="M95 -9q-25 0 -42 17t-17 41q0 23 17 39.5t42 16.5q23 0 40 -16.5t17 -39.5q0 -24 -17 -41t-40 -17zM150 666h88l-98 -467h-56z" />
    <glyph glyph-name="quotedbl" unicode="&#x22;" horiz-adv-x="359" 
d="M138 666h87l-44 -222h-57zM282 666h87l-56 -222h-57z" />
    <glyph glyph-name="numbersign" unicode="#" horiz-adv-x="514" 
d="M134 250h-87l17 59h89l36 111h-97l17 59h99l42 131h58l-42 -131h100l42 131h58l-42 -131h89l-17 -59h-91l-36 -111h99l-17 -59h-101l-46 -144h-58l46 144h-100l-46 -144h-58zM311 309l36 111h-100l-36 -111h100z" />
    <glyph glyph-name="dollar" unicode="$" horiz-adv-x="453" 
d="M129 -118l18 110q-32 4 -56.5 13t-43.5 20t-32 22.5t-22 19.5l48 53q18 -17 46 -37t75 -27l46 271q-23 21 -44.5 41.5t-37.5 43t-25.5 48t-9.5 55.5q0 38 13.5 67.5t36.5 50t55 31.5t70 13l19 107h57l-19 -109q44 -7 72.5 -22t44.5 -27l-40 -59q-16 13 -37 25.5t-54 17.5
l-41 -237q25 -22 48.5 -43.5t41 -45.5t28 -52t10.5 -63q0 -32 -10.5 -63.5t-34 -57t-60 -42t-87.5 -18.5l-18 -106h-57zM319 167q0 38 -17.5 64.5t-48.5 55.5l-41 -233q57 5 82 37.5t25 75.5zM167 515q0 -30 15 -53.5t41 -49.5l35 200q-47 -4 -69 -29.5t-22 -67.5z" />
    <glyph glyph-name="percent" unicode="%" horiz-adv-x="709" 
d="M163 213q-28 0 -49.5 9.5t-36.5 26t-23 38.5t-8 46q0 30 11.5 59t31.5 51t48.5 35.5t61.5 13.5q60 0 89 -33t29 -85q0 -32 -11.5 -61t-32 -51.5t-49 -35.5t-61.5 -13zM168 261q39 0 63.5 31t24.5 79q0 35 -15.5 54t-45.5 19q-39 0 -63.5 -29t-24.5 -77q0 -77 61 -77z
M508 -12q-28 0 -49.5 9.5t-36.5 26t-23 38.5t-8 46q0 30 11.5 59t31.5 51t48.5 35.5t61.5 13.5q60 0 89 -33t29 -85q0 -32 -11.5 -61t-32 -51.5t-49 -35.5t-61.5 -13zM513 36q39 0 63.5 31t24.5 79q0 35 -15.5 54t-45.5 19q-39 0 -63.5 -29t-24.5 -77q0 -77 61 -77zM510 480
h61l-369 -480h-61z" />
    <glyph glyph-name="ampersand" unicode="&#x26;" horiz-adv-x="612" 
d="M223 -12q-48 0 -84.5 13t-61.5 35.5t-37.5 53t-12.5 64.5q0 40 13.5 71t36.5 55.5t54.5 44t67.5 36.5q-26 35 -40.5 70t-14.5 73q0 39 15 71t41.5 55t61 35.5t73.5 12.5q67 0 106.5 -35.5t39.5 -90.5q0 -65 -45.5 -111.5t-132.5 -90.5l136 -172q26 35 46 75t33 81l66 -15
q-19 -54 -45 -102.5t-59 -89.5l100 -127h-92l-59 74q-45 -41 -96.5 -63.5t-109.5 -22.5zM270 392q74 37 105.5 73t31.5 79q0 32 -20 53t-58 21q-49 0 -78 -28.5t-29 -78.5q0 -31 12 -59t36 -60zM229 53q45 0 85.5 19t75.5 51l-157 195q-63 -30 -96 -65.5t-33 -91.5
q0 -46 32 -77t93 -31z" />
    <glyph glyph-name="quotesingle" unicode="'" horiz-adv-x="215" 
d="M136 666h91l-55 -222h-56z" />
    <glyph glyph-name="parenleft" unicode="(" horiz-adv-x="296" 
d="M154 -177q-15 19 -34.5 50t-37 73.5t-29.5 97.5t-12 123q0 109 29 198.5t70 158.5t86 118t77 78h71q-34 -31 -78.5 -81.5t-84.5 -119.5t-67.5 -157t-27.5 -193q0 -63 9 -114.5t24 -93.5t33.5 -76t36.5 -62h-65z" />
    <glyph glyph-name="parenright" unicode=")" horiz-adv-x="301" 
d="M-71 -177q42 40 89 96t86.5 127t65.5 156.5t26 183.5q0 61 -11 114t-27 95t-34.5 73.5t-33.5 51.5h68q15 -18 34.5 -49t37 -73t29.5 -95t12 -116q0 -111 -31 -203t-74.5 -163t-89 -121t-74.5 -77h-73z" />
    <glyph glyph-name="asterisk" unicode="*" horiz-adv-x="434" 
d="M107 364l107 116l-128 37l24 56l127 -48l20 141h66l-30 -142l137 47l13 -56l-145 -36l72 -123l-53 -27l-63 123l-102 -123z" />
    <glyph glyph-name="plus" unicode="+" horiz-adv-x="563" 
d="M239 236h-179l11 61h179l32 185h67l-32 -185h181l-11 -61h-181l-34 -194h-67z" />
    <glyph glyph-name="comma" unicode="," horiz-adv-x="216" 
d="M-6 -117q20 19 37.5 41.5t17.5 48.5q0 13 -4.5 22t-9.5 17.5t-9.5 18.5t-4.5 24q0 25 16 41t39 16q25 0 44 -17.5t19 -49.5q0 -31 -11.5 -60t-29 -53.5t-37.5 -44.5t-36 -32z" />
    <glyph glyph-name="hyphen" unicode="-" horiz-adv-x="305" 
d="M65 319h201l-11 -64h-201z" />
    <glyph glyph-name="period" unicode="." horiz-adv-x="216" 
d="M80 -9q-26 0 -43.5 17.5t-17.5 42.5q0 24 17.5 41.5t43.5 17.5q24 0 41.5 -17.5t17.5 -41.5q0 -25 -17.5 -42.5t-41.5 -17.5z" />
    <glyph glyph-name="slash" unicode="/" horiz-adv-x="402" 
d="M405 720h67l-462 -881h-67z" />
    <glyph glyph-name="zero" unicode="0" horiz-adv-x="556" 
d="M236 -12q-50 0 -84.5 21.5t-56 58t-31 84t-9.5 100.5q0 47 8 97t24 97t39.5 89.5t55 74t71 50t86.5 18.5q49 0 83.5 -21.5t56.5 -56.5t32.5 -81t10.5 -95q0 -77 -18 -155t-54.5 -140.5t-90 -101.5t-123.5 -39zM243 51q44 0 80.5 31.5t63 83.5t41.5 119t15 138
q0 42 -6.5 77.5t-20.5 61t-35 39.5t-50 14q-44 0 -80.5 -32.5t-63 -84.5t-41.5 -116t-15 -128q0 -93 28 -148t84 -55z" />
    <glyph glyph-name="one" unicode="1" horiz-adv-x="556" 
d="M58 66h168l92 531l-164 -52l-16 60l204 61h61l-104 -600h164l-11 -66h-405z" />
    <glyph glyph-name="two" unicode="2" horiz-adv-x="556" 
d="M31 43q85 71 157.5 134t125.5 121t83 112.5t30 108.5q0 46 -27.5 70t-72.5 24q-52 0 -91 -19.5t-68 -42.5l-39 47q38 33 92 56.5t114 23.5q81 0 127.5 -40t46.5 -111q0 -63 -34 -124.5t-88 -119.5t-120 -113t-129 -106q13 0 26 1q11 0 24.5 0.5t26.5 0.5h227l-12 -66
h-407z" />
    <glyph glyph-name="three" unicode="3" horiz-adv-x="556" 
d="M156 -12q-45 0 -79.5 6.5t-45.5 10.5l18 63q4 -2 15.5 -4.5t27 -4.5t33.5 -4t35 -2q99 0 155.5 41t56.5 118q0 32 -16.5 54.5t-44.5 37t-65.5 20t-78.5 4.5l8 53q46 6 88 17.5t74.5 30.5t52 46.5t19.5 65.5q0 34 -28.5 52t-73.5 18q-48 0 -85 -15.5t-68 -35.5l-33 47
q16 12 37 24.5t46.5 23t54.5 17t59 6.5q42 0 74 -10t53 -27.5t32 -41t11 -51.5q0 -36 -16 -66t-42 -53t-59 -39.5t-66 -26.5v-1q28 -5 54.5 -17.5t46.5 -31.5t32.5 -44t12.5 -55q0 -57 -24 -99t-64.5 -70.5t-94 -42.5t-112.5 -14z" />
    <glyph glyph-name="four" unicode="4" horiz-adv-x="556" 
d="M338 151h-308l10 61l380 454h76l-78 -448h87l-11 -67h-87l-26 -151h-70zM118 214q13 2 36 3t46 1h147l58 338h-2z" />
    <glyph glyph-name="five" unicode="5" horiz-adv-x="556" 
d="M138 -12q-28 0 -52.5 4.5t-34.5 7.5l15 64q10 -3 32.5 -7t48.5 -4q52 0 95.5 12t74 35.5t47.5 57.5t17 78q0 32 -15 55t-41 37.5t-61 21.5t-75 7q-16 0 -31.5 -0.5t-23.5 -1.5l60 311h317l-11 -66h-248l-34 -179q53 0 97 -13t76 -36.5t50 -56t18 -72.5
q0 -63 -24.5 -110.5t-67 -79.5t-101.5 -48.5t-128 -16.5z" />
    <glyph glyph-name="six" unicode="6" horiz-adv-x="556" 
d="M257 -12q-52 0 -89 19.5t-60.5 51.5t-34.5 73t-11 83q0 98 35 182.5t96 147t143.5 98t177.5 35.5l9 -59q-88 0 -162 -33.5t-126 -94.5q-26 -32 -47 -69t-33 -81q26 28 67.5 45.5t85.5 17.5q86 0 132.5 -47.5t46.5 -123.5q0 -48 -16.5 -92.5t-46.5 -78.5t-72.5 -54
t-94.5 -20zM262 51q39 0 67 16t46 41.5t26.5 58t8.5 64.5q0 54 -29.5 82.5t-83.5 28.5q-49 0 -84.5 -15.5t-69.5 -45.5q-2 -17 -3.5 -34.5t-1.5 -36.5q0 -75 30.5 -117t93.5 -42z" />
    <glyph glyph-name="seven" unicode="7" horiz-adv-x="556" 
d="M81 0l368 600h-329l11 66h410l-9 -54l-391 -641z" />
    <glyph glyph-name="eight" unicode="8" horiz-adv-x="556" 
d="M236 -12q-45 0 -79 12.5t-57 33.5t-35 48.5t-12 57.5q0 37 14.5 67.5t39.5 56t56.5 46.5t66.5 39q-18 14 -35.5 30.5t-31 35.5t-22 40.5t-8.5 45.5q0 39 17 71.5t46 56t66.5 36.5t78.5 13q82 0 126.5 -38.5t44.5 -98.5q0 -33 -14.5 -60.5t-37.5 -51t-53 -42.5t-61 -35
q24 -15 45.5 -33t38 -39t26 -44.5t9.5 -50.5q0 -40 -16 -75.5t-45.5 -62.5t-72 -43t-95.5 -16zM244 53q31 0 57 9.5t45.5 26.5t30.5 40t11 50q0 41 -32 73t-82 64q-32 -17 -58 -34.5t-45.5 -38t-30 -44.5t-10.5 -54q0 -40 30 -66t84 -26zM300 386q62 31 99 65.5t37 80.5
q0 35 -25 58.5t-76 23.5q-25 0 -48 -8t-40 -22.5t-27.5 -35t-10.5 -44.5q0 -37 25 -64t66 -54z" />
    <glyph glyph-name="nine" unicode="9" horiz-adv-x="556" 
d="M62 41q131 0 223 63q54 37 91.5 93t54.5 130q-32 -33 -76 -49t-83 -16q-83 0 -130.5 47.5t-47.5 123.5q0 49 18.5 93.5t51 78t75 53.5t90.5 20q53 0 89 -19.5t58.5 -51t32.5 -71t10 -79.5q0 -102 -30.5 -189t-88.5 -150.5t-141.5 -99.5t-189.5 -36zM283 324q48 0 86 15.5
t72 45.5q2 18 3 36.5t1 38.5q0 70 -30.5 112.5t-92.5 42.5q-35 0 -63 -16.5t-47.5 -42t-30 -57.5t-10.5 -63q0 -57 29 -84.5t83 -27.5z" />
    <glyph glyph-name="colon" unicode=":" horiz-adv-x="216" 
d="M80 -9q-26 0 -43.5 17.5t-17.5 42.5q0 24 17.5 41.5t43.5 17.5q24 0 41.5 -17.5t17.5 -41.5q0 -25 -17.5 -42.5t-41.5 -17.5zM143 366q-26 0 -43.5 17.5t-17.5 42.5q0 24 17.5 41.5t43.5 17.5q24 0 41.5 -17.5t17.5 -41.5q0 -25 -17.5 -42.5t-41.5 -17.5z" />
    <glyph glyph-name="semicolon" unicode=";" horiz-adv-x="216" 
d="M-6 -117q20 19 37.5 41.5t17.5 48.5q0 13 -4.5 22t-9.5 17.5t-9.5 18.5t-4.5 24q0 25 16 41t39 16q25 0 44 -17.5t19 -49.5q0 -31 -11.5 -60t-29 -53.5t-37.5 -44.5t-36 -32zM144 366q-26 0 -43.5 17.5t-17.5 42.5q0 24 17.5 41.5t43.5 17.5q24 0 41.5 -17.5t17.5 -41.5
q0 -25 -17.5 -42.5t-41.5 -17.5z" />
    <glyph glyph-name="less" unicode="&#x3c;" horiz-adv-x="398" 
d="M46 246l279 218l37 -48l-227 -175l163 -174l-43 -41z" />
    <glyph glyph-name="equal" unicode="=" horiz-adv-x="531" 
d="M66 216h389l-11 -63h-389zM95 379h389l-11 -63h-389z" />
    <glyph glyph-name="greater" unicode="&#x3e;" horiz-adv-x="398" 
d="M36 74l227 175l-163 174l43 41l209 -220l-279 -218z" />
    <glyph glyph-name="question" unicode="?" horiz-adv-x="406" 
d="M114 256q4 24 10 42t16.5 32t27 27t41.5 27q26 15 47.5 28.5t36.5 29.5t23.5 36t8.5 48q0 40 -26 64t-78 24q-28 0 -50.5 -7.5t-34.5 -12.5l-21 58q18 9 48.5 17.5t68.5 8.5q42 0 74 -12t53.5 -32t32.5 -46.5t11 -54.5q0 -40 -14 -70t-36.5 -53.5t-51 -41t-56.5 -33.5
q-29 -16 -43 -35t-20 -52l-10 -55h-69zM116 -9q-25 0 -42 17t-17 41q0 23 17 39.5t42 16.5q23 0 40 -16.5t17 -39.5q0 -24 -17 -41t-40 -17z" />
    <glyph glyph-name="at" unicode="@" horiz-adv-x="745" 
d="M369 -91q-77 0 -138 26t-103.5 71t-65 105.5t-22.5 128.5q0 74 27 142.5t75.5 121t115 84t145.5 31.5t140 -28.5t102.5 -72t62.5 -97t21 -102.5q0 -47 -13 -90t-36 -75.5t-55 -51.5t-70 -19q-51 0 -78 31.5t-27 80.5h-2q-7 -16 -19 -35.5t-29 -36.5t-40 -28.5t-51 -11.5
q-23 0 -40.5 10t-29.5 26t-18 37t-6 42q0 48 13 95.5t39.5 85.5t66.5 61.5t93 23.5q32 0 63.5 -8t53.5 -13l-25 -139q-4 -20 -9 -46t-5 -49q0 -29 15 -49.5t38 -20.5q25 0 46 14t36 37.5t23.5 55t8.5 66.5q0 55 -21 101t-57.5 79.5t-85.5 52.5t-105 19q-57 0 -110.5 -25.5
t-95 -69t-66.5 -102t-25 -124.5q0 -60 18.5 -110.5t53.5 -88t86 -58.5t116 -21q44 0 84.5 9t64.5 20l23 -51q-28 -11 -77 -22.5t-106 -11.5zM327 145q30 0 53.5 24t41.5 60t30.5 77.5t19.5 76.5l4 20q-4 1 -11 3t-15 3.5t-16 2.5t-13 1q-30 0 -55 -17.5t-42 -46t-26.5 -65
t-9.5 -75.5q0 -22 9 -43t30 -21z" />
    <glyph glyph-name="A" unicode="A" horiz-adv-x="607" 
d="M426 231l-36 223q-4 23 -7.5 45.5t-5.5 39.5q-3 20 -5 39h-2q-8 -20 -19 -40q-9 -18 -20.5 -39.5t-23.5 -44.5l-123 -223h242zM352 666h75l115 -666h-78l-27 165h-289l-91 -165h-78z" />
    <glyph glyph-name="B" unicode="B" horiz-adv-x="559" 
d="M168 666h167q87 0 138.5 -36.5t51.5 -107.5t-38.5 -114.5t-105.5 -60.5v-2q51 -10 85 -44t34 -89q0 -54 -20.5 -94t-57 -66.5t-87 -39t-111.5 -12.5h-175zM229 65q104 0 148 36t44 108q0 48 -34 78t-107 30h-99l-44 -252h92zM288 379q80 0 118.5 35.5t38.5 95.5
q0 46 -28.5 68.5t-93.5 22.5h-91l-40 -222h96z" />
    <glyph glyph-name="C" unicode="C" horiz-adv-x="607" 
d="M329 -12q-69 0 -119.5 22t-84.5 59.5t-50.5 88.5t-16.5 109q0 85 29.5 159.5t80.5 130.5t120.5 88.5t150.5 32.5q36 0 64 -3.5t49.5 -9.5t38.5 -14.5t32 -18.5l-45 -58q-26 18 -60 28.5t-85 10.5q-65 0 -119 -27t-93 -74t-60.5 -109.5t-21.5 -132.5q0 -45 11 -84.5
t34.5 -69t60.5 -46t89 -16.5q55 0 94.5 17t73.5 43l34 -54q-16 -14 -38.5 -27t-50 -23t-57.5 -16t-61 -6z" />
    <glyph glyph-name="D" unicode="D" horiz-adv-x="660" 
d="M168 666h147q83 0 143 -18.5t99 -52t58 -81t19 -105.5q0 -79 -25 -153t-76 -131t-127.5 -91t-179.5 -34h-177zM238 64q77 0 136 26.5t98.5 72.5t60 108t20.5 133q0 103 -59 150.5t-188 47.5h-73l-95 -538h100z" />
    <glyph glyph-name="E" unicode="E" horiz-adv-x="494" 
d="M168 666h335l-12 -66h-258l-39 -214h228l-12 -66h-227l-45 -254h265l-12 -66h-342z" />
    <glyph glyph-name="F" unicode="F" horiz-adv-x="483" 
d="M168 666h342l-12 -66h-265l-39 -214h232l-12 -66h-231l-57 -320h-77z" />
    <glyph glyph-name="G" unicode="G" horiz-adv-x="690" 
d="M341 -12q-69 0 -122 21.5t-88.5 59t-53.5 89t-18 110.5q0 83 29.5 157.5t81 130.5t122.5 89t154 33q79 0 128.5 -18.5t74.5 -37.5l-46 -58q-26 20 -67.5 34.5t-96.5 14.5q-67 0 -122 -27.5t-94.5 -74t-61 -108.5t-21.5 -132q0 -48 12.5 -88t38 -69t64 -45.5t91.5 -16.5
q38 0 67 5.5t49.5 12.5t32 14t15.5 9l33 189h-145l12 66h221l-53 -294q-5 -3 -22.5 -14t-47.5 -22.5t-72 -20.5t-95 -9z" />
    <glyph glyph-name="H" unicode="H" horiz-adv-x="709" 
d="M167 666h77l-50 -282h370l50 282h77l-119 -666h-77l57 318h-369l-57 -318h-77z" />
    <glyph glyph-name="I" unicode="I" horiz-adv-x="275" 
d="M174 666h77l-119 -666h-77z" />
    <glyph glyph-name="J" unicode="J" horiz-adv-x="270" 
d="M-47 -190q-22 0 -38.5 4t-21.5 7l27 66q5 -2 13.5 -4.5t22.5 -2.5q78 0 99 118l119 668h76l-121 -680q-15 -86 -58.5 -131t-117.5 -45z" />
    <glyph glyph-name="K" unicode="K" horiz-adv-x="553" 
d="M193 347l316 319h90l-320 -320l228 -346h-87zM168 666h75l-118 -666h-76z" />
    <glyph glyph-name="L" unicode="L" horiz-adv-x="458" 
d="M168 666h76l-106 -600h256l-11 -66h-334z" />
    <glyph glyph-name="M" unicode="M" horiz-adv-x="834" 
d="M227 666h70l77 -482q5 -30 7 -51.5t5 -48.5h2q14 29 24.5 51t24.5 49l252 482h71l-34 -666h-74l24 437q2 35 4 57t5 40h-2q-8 -18 -17.5 -37.5t-25.5 -49.5l-235 -447h-71l-71 441q-5 33 -8.5 54.5t-5.5 38.5h-2q-3 -18 -9 -40t-17 -57l-130 -437h-71z" />
    <glyph glyph-name="N" unicode="N" horiz-adv-x="687" 
d="M165 666h75l225 -464q26 -56 39 -97h2q2 20 6 47.5t9 56.5l81 457h70l-118 -666h-71l-231 477q-11 23 -19.5 43t-16.5 45h-2q-2 -20 -5.5 -42.5t-8.5 -52.5l-84 -470h-70z" />
    <glyph glyph-name="O" unicode="O" horiz-adv-x="734" 
d="M340 -12q-67 0 -119 23.5t-88 63.5t-54.5 92t-18.5 108q0 74 26 146.5t73.5 129.5t114.5 92t150 35q71 0 124 -23.5t87.5 -63.5t51.5 -92.5t17 -110.5q0 -74 -25 -145.5t-72.5 -128t-115 -91.5t-151.5 -35zM344 53q66 0 118 28.5t88 76t55 108t19 123.5q0 45 -13 85.5
t-38.5 71t-64 49t-89.5 18.5q-66 0 -117.5 -28.5t-87.5 -75.5t-55 -108t-19 -125q0 -46 14 -86.5t40 -71t64 -48t86 -17.5z" />
    <glyph glyph-name="P" unicode="P" horiz-adv-x="524" 
d="M168 666h157q93 0 149.5 -42.5t56.5 -123.5q0 -55 -20.5 -98t-57.5 -72.5t-87.5 -45t-110.5 -15.5h-81l-48 -269h-77zM262 335q96 0 142 42.5t46 113.5q0 25 -7 45t-23.5 34t-43 22t-64.5 8h-79l-47 -265h76z" />
    <glyph glyph-name="Q" unicode="Q" horiz-adv-x="734" 
d="M499 -162q-77 0 -138 38.5t-115 125.5q-45 15 -79.5 42.5t-58.5 63.5t-36 79t-12 88q0 74 26 146.5t73.5 129.5t114.5 92t150 35q71 0 124 -23.5t87.5 -63.5t51.5 -92.5t17 -110.5q0 -72 -24.5 -143t-70.5 -127t-111.5 -92t-147.5 -38q30 -45 66.5 -65.5t89.5 -20.5
q42 0 73.5 13.5t44.5 21.5l27 -58q-21 -14 -58.5 -27.5t-93.5 -13.5zM344 53q66 0 118 28.5t88 76t55 108t19 123.5q0 45 -13 85.5t-38.5 71t-64 49t-89.5 18.5q-66 0 -117.5 -28.5t-87.5 -75.5t-55 -108t-19 -125q0 -46 14 -86.5t40 -71t64 -48t86 -17.5z" />
    <glyph glyph-name="R" unicode="R" horiz-adv-x="568" 
d="M168 666h174q88 0 137.5 -40.5t49.5 -111.5q0 -89 -57.5 -140t-159.5 -59v-2q12 -8 26.5 -25t37.5 -58l127 -230h-86l-105 192q-20 36 -34 58.5t-26.5 35t-26.5 17t-34 4.5h-10l-55 -307h-77zM292 371q83 0 120.5 39t37.5 100q0 90 -123 90h-94l-42 -229h101z" />
    <glyph glyph-name="S" unicode="S" horiz-adv-x="453" 
d="M193 -12q-42 0 -75 8.5t-57.5 21t-41 26t-26.5 23.5l48 53q11 -10 24.5 -21.5t32 -21.5t43 -16.5t57.5 -6.5t56 9t37.5 25t21 36t6.5 43q0 24 -7.5 43.5t-21 37t-33 35.5t-43.5 39t-46 42.5t-39.5 44.5t-27.5 49t-10 57q0 40 14.5 70.5t40 51t60 31t74.5 10.5
q31 0 56.5 -5.5t45 -13t34 -17t24.5 -16.5l-40 -59q-10 8 -21.5 16t-26 15t-33.5 11t-44 4q-55 0 -81.5 -26t-26.5 -72q0 -21 7 -38t20.5 -33.5t32 -33.5t41.5 -37q25 -22 48.5 -43.5t41 -45.5t28 -52t10.5 -63q0 -32 -11.5 -64.5t-36 -58.5t-63 -42t-92.5 -16z" />
    <glyph glyph-name="T" unicode="T" horiz-adv-x="486" 
d="M270 600h-188l11 66h448l-11 -66h-183l-107 -600h-77z" />
    <glyph glyph-name="U" unicode="U" horiz-adv-x="675" 
d="M304 -12q-112 0 -167 55t-55 145q0 29 6 61l74 417h76l-72 -407q-3 -19 -5 -35.5t-2 -31.5q0 -71 37 -104t115 -33q92 0 140 49.5t66 149.5l73 412h72l-76 -425q-11 -58 -31.5 -104.5t-54.5 -79.5t-82 -51t-114 -18z" />
    <glyph glyph-name="V" unicode="V" horiz-adv-x="593" 
d="M92 666h77l90 -459q7 -33 12 -66.5t7 -52.5h2q9 20 23.5 53.5t31.5 65.5l235 459h79l-349 -666h-73z" />
    <glyph glyph-name="W" unicode="W" horiz-adv-x="855" 
d="M94 666h76l37 -413q4 -41 6.5 -77t3.5 -64h2q9 27 24.5 62.5t33.5 76.5l183 415h78l49 -431q5 -41 7.5 -68t4.5 -55h2q5 14 10 27.5t11 28t13 31.5t16 38l178 429h80l-291 -666h-71l-49 422q-5 45 -8.5 79t-6.5 71h-2q-14 -37 -29 -71t-35 -79l-190 -422h-69z" />
    <glyph glyph-name="X" unicode="X" horiz-adv-x="554" 
d="M252 348l-139 318h80l111 -265l194 265h85l-249 -323l151 -343h-80l-123 290l-214 -290h-85z" />
    <glyph glyph-name="Y" unicode="Y" horiz-adv-x="544" 
d="M240 251l-150 415h80l120 -342h1l227 342h81l-282 -416l-45 -250h-77z" />
    <glyph glyph-name="Z" unicode="Z" horiz-adv-x="515" 
d="M-6 55l447 547h-333l12 64h430l-10 -51l-452 -551h367l-12 -64h-459z" />
    <glyph glyph-name="bracketleft" unicode="[" horiz-adv-x="301" 
d="M162 720h197l-10 -56h-128l-133 -769h128l-10 -56h-197z" />
    <glyph glyph-name="backslash" unicode="\" horiz-adv-x="371" 
d="M78 720h63l163 -881h-63z" />
    <glyph glyph-name="bracketright" unicode="]" horiz-adv-x="300" 
d="M-36 -105h127l134 769h-128l10 56h197l-153 -881h-197z" />
    <glyph glyph-name="asciicircum" unicode="^" horiz-adv-x="605" 
d="M347 666h50l133 -378h-64l-104 307l-217 -307h-67z" />
    <glyph glyph-name="underscore" unicode="_" horiz-adv-x="387" 
d="M-62 -98h391l-11 -61h-391z" />
    <glyph glyph-name="grave" unicode="`" 
d="M167 666h97l71 -126h-62z" />
    <glyph glyph-name="a" unicode="a" horiz-adv-x="481" 
d="M148 -12q-60 0 -89 41t-29 106q0 66 18.5 130.5t54.5 114.5t89 81t122 31q52 0 86.5 -7t49.5 -12l-48 -264q-9 -51 -15 -90t-9 -65q-4 -32 -6 -54h-70q5 40 11 74t16 74h-2q-15 -30 -32.5 -59t-39 -51.5t-48 -36t-59.5 -13.5zM164 53q33 0 65 30t58.5 77t45.5 103t27 109
l7 48q-8 3 -27 6t-40 3q-47 0 -83.5 -24t-62 -64t-38.5 -90.5t-13 -104.5q0 -49 15.5 -71t45.5 -22z" />
    <glyph glyph-name="b" unicode="b" horiz-adv-x="487" 
d="M174 -12q-25 0 -49 2.5t-43.5 5.5t-33 6t-19.5 5l129 713h72l-45 -242q-6 -32 -14 -67t-19 -77h2q16 30 34.5 58t41 50.5t50 36t60.5 13.5q31 0 53 -12.5t36 -33.5t20.5 -49t6.5 -59q0 -67 -19.5 -130t-55.5 -112t-88.5 -78.5t-118.5 -29.5zM181 50q48 0 85.5 23.5
t63 62.5t39 90t13.5 105q0 42 -13 69t-44 27q-37 0 -70 -31.5t-60 -79t-46.5 -104t-28.5 -106.5l-9 -48q7 -2 22.5 -5t47.5 -3z" />
    <glyph glyph-name="c" unicode="c" horiz-adv-x="404" 
d="M186 -12q-73 0 -116 48.5t-43 137.5q0 68 22 126.5t59 101t84 66.5t97 24q47 0 73.5 -11t41.5 -22l-37 -57q-11 8 -31 16.5t-55 8.5q-33 0 -65.5 -17t-58.5 -49t-42 -77.5t-16 -101.5q0 -68 25.5 -99t67.5 -31q22 0 41 6t33.5 14.5t25.5 18t18 16.5l43 -47
q-10 -10 -26 -22.5t-37 -23.5t-47.5 -18.5t-56.5 -7.5z" />
    <glyph glyph-name="d" unicode="d" horiz-adv-x="484" 
d="M149 -12q-32 0 -54.5 12.5t-36.5 33.5t-20.5 49t-6.5 59q0 70 20 133.5t57 111.5t90 76.5t118 28.5q29 0 45.5 -3t26.5 -5l43 236h72l-93 -511q-9 -51 -15 -90t-9 -65q-4 -32 -6 -54h-70q5 40 11 74.5t16 74.5h-2q-16 -30 -35 -58.5t-41.5 -51.5t-50 -37t-59.5 -14z
M161 53q36 0 70 29.5t61.5 76t47 103t28.5 110.5l8 49q-8 3 -29 6.5t-46 3.5q-46 0 -82.5 -23.5t-62 -62.5t-39 -89.5t-13.5 -103.5q0 -43 13 -71t44 -28z" />
    <glyph glyph-name="e" unicode="e" horiz-adv-x="426" 
d="M185 -12q-41 0 -70.5 14t-49 38t-29 55t-9.5 66q0 68 20.5 128t55.5 105t82 71.5t100 26.5q54 0 90.5 -27t36.5 -82q0 -45 -26.5 -77.5t-70 -55t-100 -36.5t-115.5 -21v-23q0 -57 23.5 -87.5t70.5 -30.5q40 0 72.5 19t52.5 40l42 -49q-11 -11 -27.5 -24t-38.5 -24
t-49.5 -18.5t-60.5 -7.5zM274 428q-27 0 -53 -13.5t-48 -37.5t-39 -57t-26 -72q47 6 89 17t73 26.5t49 36.5t18 48q0 52 -63 52z" />
    <glyph glyph-name="f" unicode="f" horiz-adv-x="324" 
d="M-43 -230q-29 0 -49 5.5t-37 13.5l24 60q14 -6 30.5 -10.5t36.5 -4.5q23 0 39.5 10.5t27.5 27.5t18 38.5t11 44.5l86 467h-95l10 58h95l8 40q4 18 7 40q15 82 59.5 127t123.5 45q42 0 72 -11t44 -20l-32 -60q-11 7 -35 16t-55 9q-27 0 -45.5 -8.5t-30.5 -24t-19.5 -37
t-11.5 -46.5l-13 -70h118l-10 -58h-119l-85 -469q-17 -91 -55.5 -137t-117.5 -46z" />
    <glyph glyph-name="g" unicode="g" horiz-adv-x="479" 
d="M134 -229q-26 0 -48 5t-41 12.5t-33 16t-23 15.5l39 57q19 -14 45.5 -28t68.5 -14q72 0 109 44.5t51 121.5l8 43q5 27 11.5 54t13.5 48h-2q-15 -29 -34 -57.5t-41.5 -51t-49.5 -36t-59 -13.5t-54.5 12.5t-36.5 33.5t-20.5 49t-6.5 59q0 70 20 133.5t57 111.5t89.5 76.5
t117.5 28.5q22 0 44.5 -2t42 -4.5t34.5 -5.5t23 -5l-88 -476q-11 -61 -30.5 -104t-48.5 -70.5t-68 -40.5t-90 -13zM161 53q36 0 70 30t61.5 76.5t47 103t28.5 109.5l8 49q-8 3 -28.5 6.5t-46.5 3.5q-47 0 -83.5 -23.5t-61.5 -62.5t-38.5 -89.5t-13.5 -103.5q0 -43 13 -71
t44 -28z" />
    <glyph glyph-name="h" unicode="h" horiz-adv-x="511" 
d="M164 720h72l-45 -240q-5 -29 -9 -49t-7.5 -36.5t-6.5 -31t-7 -30.5h2q11 21 28.5 48.5t42 52t56 41.5t70.5 17q51 0 76 -31t25 -84q0 -21 -5 -49l-60 -328h-72l57 321q2 13 3.5 23.5t1.5 20.5q0 62 -49 62q-30 0 -62 -22.5t-62 -68t-56 -115.5t-43 -166l-10 -55h-72z" />
    <glyph glyph-name="i" unicode="i" horiz-adv-x="234" 
d="M183 572q-21 0 -37 15.5t-16 37.5t16 37.5t37 15.5q22 0 37.5 -15.5t15.5 -37.5t-15.5 -37.5t-37.5 -15.5zM124 480h72l-87 -480h-72z" />
    <glyph glyph-name="j" unicode="j" horiz-adv-x="234" 
d="M-81 -230q-27 0 -43.5 4.5t-26.5 8.5l27 61q5 -3 18 -6.5t31 -3.5q25 0 43 9t30 26t20 41t13 54l93 516h72l-93 -524q-7 -39 -18.5 -73t-32.5 -59t-53 -39.5t-80 -14.5zM183 572q-21 0 -37 15.5t-16 37.5t16 37.5t37 15.5q22 0 37.5 -15.5t15.5 -37.5t-15.5 -37.5
t-37.5 -15.5z" />
    <glyph glyph-name="k" unicode="k" horiz-adv-x="438" 
d="M153 268l220 212h89l-231 -216l153 -264h-77zM151 720h72l-125 -720h-72z" />
    <glyph glyph-name="l" unicode="l" horiz-adv-x="235" 
d="M167 720h72l-130 -720h-72z" />
    <glyph glyph-name="m" unicode="m" horiz-adv-x="790" 
d="M119 480h69q-2 -12 -5 -31t-7.5 -40t-9.5 -42.5t-9 -39.5h2q12 24 29.5 53t41.5 54t54.5 41.5t67.5 16.5q28 0 46.5 -9.5t30 -25t16.5 -35.5t5 -41q0 -12 -1.5 -24t-3.5 -24h2q16 28 34.5 56.5t42 51t53 37t65.5 14.5q51 0 74.5 -32t23.5 -83q0 -12 -1.5 -24t-3.5 -26
l-59 -327h-71l55 308q4 21 5.5 42t-2.5 38.5t-14 28t-30 10.5q-32 0 -64 -24t-61 -71t-53.5 -116.5t-40.5 -160.5l-10 -55h-72l56 308q3 18 4.5 39t-2.5 38.5t-15 29.5t-32 12q-30 0 -61 -23.5t-59.5 -70t-53 -116t-41.5 -162.5l-10 -55h-72z" />
    <glyph glyph-name="n" unicode="n" horiz-adv-x="511" 
d="M119 480h69q-2 -12 -5.5 -31t-7.5 -41t-9 -44t-10 -40h2q12 24 30.5 53t43 54.5t56.5 43t72 17.5q51 0 76 -31t25 -84q0 -21 -5 -49l-60 -328h-72l57 321q2 13 3.5 23.5t1.5 20.5q0 62 -49 62q-30 0 -62 -22.5t-62 -68t-56 -115.5t-43 -166l-10 -55h-72z" />
    <glyph glyph-name="o" unicode="o" horiz-adv-x="477" 
d="M199 -12q-46 0 -78.5 18t-52.5 46.5t-29.5 64t-9.5 70.5q0 56 18.5 110.5t51.5 98t78 70t99 26.5q44 0 76.5 -16.5t53.5 -43.5t31 -62.5t10 -73.5q0 -60 -19 -115.5t-52 -98.5t-78.5 -68.5t-98.5 -25.5zM204 48q38 0 69 21.5t53.5 56t35 76t12.5 82.5q0 72 -26 110
t-77 38q-38 0 -69.5 -22t-54 -57t-35 -78.5t-12.5 -85.5q0 -64 26 -102.5t78 -38.5z" />
    <glyph glyph-name="p" unicode="p" horiz-adv-x="487" 
d="M115 480h70q-4 -23 -8 -41.5t-8 -35t-8 -33.5t-9 -36h2q16 30 34.5 58t41 50.5t50 36t60.5 13.5q31 0 53 -12.5t36 -33.5t20.5 -49t6.5 -59q0 -67 -19.5 -130t-55.5 -112t-88.5 -78.5t-118.5 -29.5q-30 0 -49.5 3t-25.5 5l-39 -214h-72zM180 48q48 0 86 24t63.5 63.5
t39 90.5t13.5 105q0 42 -13 69t-44 27q-37 0 -70 -31t-60 -78.5t-46.5 -104t-28.5 -106.5l-9 -51q7 -2 22 -5t47 -3z" />
    <glyph glyph-name="q" unicode="q" horiz-adv-x="479" 
d="M302 2q3 16 7 35l8 38q4 19 8.5 37.5t9.5 33.5h-2q-15 -29 -34 -57.5t-41.5 -51t-49.5 -36t-59 -13.5t-54.5 12.5t-36.5 33.5t-20.5 49t-6.5 59q0 70 20 133.5t57 111.5t89.5 76.5t117.5 28.5q22 0 44.5 -2t42 -4.5t34.5 -5.5t23 -5l-128 -693h-71zM161 53q36 0 70 30
t61.5 76.5t47 103t28.5 109.5l8 49q-8 3 -28.5 6.5t-46.5 3.5q-47 0 -83.5 -23.5t-61.5 -62.5t-38.5 -89.5t-13.5 -103.5q0 -43 13 -71t44 -28z" />
    <glyph glyph-name="r" unicode="r" horiz-adv-x="355" 
d="M119 480h69q-5 -41 -15 -85t-18 -74h2q13 29 31.5 59.5t41 55t48.5 40.5t53 16q18 0 28.5 -2t20.5 -7l-30 -69q-6 2 -12.5 3t-15.5 1q-32 0 -62.5 -24t-57.5 -70.5t-49.5 -114t-38.5 -154.5l-10 -55h-72z" />
    <glyph glyph-name="s" unicode="s" horiz-adv-x="354" 
d="M135 -12q-54 0 -89.5 17.5t-52.5 32.5l39 52q19 -15 44.5 -28.5t65.5 -13.5q38 0 59.5 19t21.5 49t-20.5 54.5t-57.5 62.5q-17 18 -31 34t-24 32t-15 33t-5 37q0 57 41 90t110 33q40 0 67 -10t46 -24l-37 -54q-11 8 -31 17.5t-55 9.5q-33 0 -52.5 -15t-19.5 -43
q0 -13 4 -24t12 -22.5t20 -24.5t29 -31q21 -23 38 -41t28 -35.5t17 -36t6 -42.5q0 -26 -10 -49t-30 -40.5t-49.5 -28t-68.5 -10.5z" />
    <glyph glyph-name="t" unicode="t" horiz-adv-x="333" 
d="M157 -12q-49 0 -70.5 23t-21.5 65q0 10 1 21t3 23l56 302h-84l10 58h85l25 135l76 18l-28 -153h118l-10 -58h-119l-53 -286q-3 -16 -5 -29t-2 -24q0 -16 6 -24t23 -8q28 0 50.5 16.5t39.5 30.5l37 -50q-26 -23 -59 -41.5t-78 -18.5z" />
    <glyph glyph-name="u" unicode="u" horiz-adv-x="511" 
d="M150 -12q-51 0 -76 30.5t-25 84.5q0 11 1.5 23t3.5 26l60 328h72l-57 -321q-2 -13 -3.5 -23.5t-1.5 -20.5q0 -62 49 -62q28 0 59.5 21t61.5 64.5t56 109.5t42 155l14 77h72l-49 -271q-9 -51 -15 -90t-9 -65q-4 -32 -6 -54h-70q5 39 12.5 82.5t15.5 79.5h-2
q-14 -26 -32.5 -56.5t-43.5 -56.5t-57 -43.5t-72 -17.5z" />
    <glyph glyph-name="v" unicode="v" horiz-adv-x="417" 
d="M47 480h73l38 -299q2 -20 4 -42.5t3 -42.5h2l212 384h76l-279 -480h-64z" />
    <glyph glyph-name="w" unicode="w" horiz-adv-x="680" 
d="M53 480h73l27 -279q2 -25 3 -54l3 -47h2l189 380h69l20 -274q2 -27 3.5 -54t1.5 -44h2l193 372h76l-261 -480h-62l-27 382h-2l-194 -382h-62z" />
    <glyph glyph-name="x" unicode="x" horiz-adv-x="426" 
d="M170 248l-112 232h79l80 -175l140 175h79l-192 -233l118 -247h-79l-87 189l-154 -189h-79z" />
    <glyph glyph-name="y" unicode="y" horiz-adv-x="438" 
d="M-12 -220q-39 0 -57 6.5t-25 10.5l30 59q8 -4 21.5 -7.5t37.5 -3.5q19 0 36.5 6t36 21.5t38 41.5t43.5 67l-97 499h75l63 -352q3 -18 5.5 -35t4.5 -32h2q5 15 11 32.5t14 34.5l161 352h76l-176 -368q-42 -87 -76 -150t-67.5 -103.5t-71 -59.5t-85.5 -19z" />
    <glyph glyph-name="z" unicode="z" horiz-adv-x="412" 
d="M-1 46l307 375h-232l10 59h324l-8 -49l-308 -372h256l-10 -59h-347z" />
    <glyph glyph-name="braceleft" unicode="{" horiz-adv-x="349" 
d="M176 -161q-37 0 -65.5 24t-28.5 69q0 5 0.5 11t1.5 12l35 193q3 15 3 28q0 38 -23 59.5t-70 22.5l10 56q54 0 86 27.5t41 80.5l33 191q10 57 44.5 82t82.5 25h81l-10 -57h-65q-33 0 -47.5 -20.5t-21.5 -58.5l-30 -175q-11 -60 -41.5 -88t-77.5 -38v-2q36 -11 57 -32.5
t21 -61.5q0 -14 -3 -29l-32 -187q0 -1 -0.5 -2t-0.5 -2q-3 -18 -3 -30q0 -21 10 -31t36 -10h66l-10 -57h-79z" />
    <glyph glyph-name="bar" unicode="|" horiz-adv-x="243" 
d="M181 750h57l-176 -1000h-57z" />
    <glyph glyph-name="braceright" unicode="}" horiz-adv-x="349" 
d="M-35 -104h65q35 0 49 21.5t20 57.5l31 183q9 55 40 84.5t80 43.5v2q-35 10 -56.5 33t-21.5 63q0 13 3 28l30 176q2 10 3 18t1 16q0 22 -10 31.5t-36 9.5h-66l10 57h84q35 0 62 -21.5t27 -66.5q0 -14 -3 -27l-32 -183q-1 -6 -1.5 -12t-0.5 -11q0 -39 23.5 -62t68.5 -25
l-10 -56q-49 0 -83 -26.5t-44 -81.5l-35 -202q-10 -57 -45 -82t-78 -25h-85z" />
    <glyph glyph-name="asciitilde" unicode="~" horiz-adv-x="588" 
d="M398 178q-41 0 -69.5 11t-52.5 24t-46 24t-50 11q-30 0 -51 -12.5t-38 -27.5l-36 45q23 20 57 39.5t74 19.5q34 0 59.5 -11t49 -23.5t49 -23.5t60.5 -11q24 0 48.5 11.5t46.5 29.5l34 -45q-27 -26 -63 -43.5t-72 -17.5z" />
    <glyph glyph-name="uni00A0" unicode="&#xa0;" horiz-adv-x="220" 
 />
    <glyph glyph-name="exclamdown" unicode="&#xa1;" horiz-adv-x="248" 
d="M151 378q-23 0 -40 16.5t-17 39.5q0 24 17 41t40 17q25 0 42 -17t17 -41q0 -23 -17 -39.5t-42 -16.5zM106 284h56l-66 -467h-88z" />
    <glyph glyph-name="cent" unicode="&#xa2;" horiz-adv-x="394" 
d="M152 -9q-58 11 -91.5 58t-33.5 125q0 60 17 112t46.5 93t68 68.5t81.5 38.5l19 107h71l-19 -102q36 -3 57.5 -12.5t35.5 -19.5l-37 -57q-11 8 -31 16.5t-55 8.5q-33 0 -65.5 -17t-58.5 -49t-42 -77.5t-16 -101.5q0 -68 25.5 -99t67.5 -31q22 0 41 6t33.5 14.5t25.5 18
t18 16.5l43 -47q-17 -17 -50 -38.5t-79 -29.5l-20 -115h-71z" />
    <glyph glyph-name="sterling" unicode="&#xa3;" horiz-adv-x="455" 
d="M76 356h87q1 32 3.5 70.5t7.5 68.5q15 87 62 135t134 48q25 0 44 -3t33 -8.5t24 -11.5t18 -12l-37 -58q-14 9 -34 19t-57 10q-47 0 -73.5 -29t-38.5 -95q-5 -29 -8.5 -66t-4.5 -68h147l-10 -58h-139q-3 -37 -11.5 -71.5t-23 -65.5t-34.5 -56t-46 -43h254l-10 -62h-355
l9 49q68 35 103.5 102t40.5 147h-95z" />
    <glyph glyph-name="currency" unicode="&#xa4;" horiz-adv-x="463" 
d="M-29 26l95 99q-13 18 -20.5 42.5t-7.5 51.5q0 46 22 89.5t55 73.5l-62 101l58 38l59 -104q21 9 44.5 14.5t50.5 5.5q47 0 81 -16l95 100l43 -38l-93 -95q18 -20 27 -47t9 -53q0 -48 -20.5 -92.5t-58.5 -76.5l56 -93l-58 -38l-54 96q-20 -8 -43 -13t-49 -5q-56 0 -92 22
l-93 -100zM210 123q31 0 58.5 12.5t47.5 34t31.5 50t11.5 60.5q0 45 -28 73t-76 28q-32 0 -59 -13t-47 -34.5t-31.5 -49t-11.5 -57.5q0 -48 28.5 -76t75.5 -28z" />
    <glyph glyph-name="yen" unicode="&#xa5;" horiz-adv-x="544" 
d="M215 96h-163l11 58h163l13 72h-164l11 58h145l-138 382h75l121 -350h1l230 350h78l-259 -382h145l-11 -58h-161l-13 -72h162l-11 -58h-162l-17 -96h-73z" />
    <glyph glyph-name="brokenbar" unicode="&#xa6;" horiz-adv-x="112" 
d="M9 128h60l-67 -378h-60zM118 750h60l-65 -368h-60z" />
    <glyph glyph-name="section" unicode="&#xa7;" horiz-adv-x="409" 
d="M117 -152q-44 0 -72 12t-42 23l38 54q12 -9 29.5 -17t49.5 -8q49 0 72.5 28t23.5 69q0 37 -24.5 75.5t-54 80.5t-54 87.5t-24.5 96.5q0 48 24 80t67 58q-8 18 -13 37t-5 39q0 44 16 76t40.5 52.5t55 30.5t60.5 10q49 0 74.5 -9.5t42.5 -21.5l-39 -57q-11 8 -29.5 16.5
t-53.5 8.5q-48 0 -71.5 -29.5t-23.5 -73.5q0 -36 24.5 -73.5t54.5 -78t54.5 -84.5t24.5 -93q0 -52 -25.5 -85t-65.5 -61q8 -18 12.5 -35.5t4.5 -36.5q0 -44 -14 -76t-37.5 -53t-54.5 -31.5t-65 -10.5zM243 141q26 19 37.5 41t11.5 48q0 29 -22 69.5t-59 91.5q-9 12 -17.5 24
t-16.5 24q-23 -14 -34.5 -33.5t-11.5 -51.5q0 -27 12.5 -56t40.5 -71q16 -23 31 -44.5t28 -41.5z" />
    <glyph glyph-name="dieresis" unicode="&#xa8;" 
d="M219 541q-21 0 -35.5 14.5t-14.5 36.5q0 21 14.5 35.5t35.5 14.5q23 0 37 -14.5t14 -35.5q0 -22 -14.5 -36.5t-36.5 -14.5zM402 541q-21 0 -35.5 14.5t-14.5 36.5q0 21 14.5 35.5t35.5 14.5q23 0 37 -14.5t14 -35.5q0 -22 -14.5 -36.5t-36.5 -14.5z" />
    <glyph glyph-name="copyright" unicode="&#xa9;" horiz-adv-x="825" 
d="M440 127q-50 0 -92 18.5t-72.5 50t-47.5 74t-17 89.5q0 49 17.5 91t48.5 73.5t73 49.5t90 18q53 0 84.5 -15t56.5 -35l-38 -48q-16 14 -39.5 26.5t-64.5 12.5q-40 0 -69 -15.5t-48.5 -40t-29 -55t-9.5 -60.5q0 -36 12.5 -68t34 -56t51 -37.5t63.5 -13.5q44 0 71.5 15
t44.5 29l31 -51q-25 -20 -60.5 -36t-90.5 -16zM432 -14q-77 0 -144.5 29.5t-118 80t-80 118.5t-29.5 145t29.5 145t80 118.5t118 80t144.5 29.5t145 -29.5t118.5 -80t80 -118.5t29.5 -145t-29.5 -145t-80 -118.5t-118.5 -80t-145 -29.5zM432 38q68 0 126 24t100.5 66.5
t66.5 101.5t24 129t-24 128.5t-66.5 101.5t-100.5 67t-126 24t-126 -24t-100 -67t-66 -101.5t-24 -128.5t24 -129t66 -101.5t100 -66.5t126 -24z" />
    <glyph glyph-name="ordfeminine" unicode="&#xaa;" horiz-adv-x="351" 
d="M151 314q-42 0 -65 28.5t-23 72.5q0 48 15 95t43 84.5t67.5 60.5t89.5 23q38 0 64 -6t37 -10l-34 -190q-5 -30 -9 -57t-6 -47l-5 -45h-59q5 29 8.5 54t10.5 54h-1q-23 -49 -56.5 -83t-76.5 -34zM167 370q22 0 45 20t42 51.5t33.5 71.5t20.5 79l4 26q-6 2 -18.5 4t-25.5 2
q-32 0 -58 -16.5t-44.5 -44t-28.5 -64.5t-10 -77q0 -20 8.5 -36t31.5 -16z" />
    <glyph glyph-name="guillemotleft" unicode="&#xab;" horiz-adv-x="450" 
d="M30 245l167 190h80l-171 -196l96 -183h-72zM208 245l167 190h80l-171 -196l96 -183h-72z" />
    <glyph glyph-name="logicalnot" unicode="&#xac;" horiz-adv-x="568" 
d="M459 237h-430l11 64h498l-47 -268h-68z" />
    <glyph glyph-name="uni00AD" unicode="&#xad;" horiz-adv-x="305" 
d="M65 319h201l-11 -64h-201z" />
    <glyph glyph-name="registered" unicode="&#xae;" horiz-adv-x="825" 
d="M297 588h147q34 0 60.5 -10.5t43.5 -28t26 -40.5t9 -48q0 -50 -31.5 -79.5t-88.5 -37.5q15 -11 27 -25t26 -34l105 -149h-79l-109 159q-17 25 -31 34.5t-40 9.5v-203h-65v452zM432 -14q-77 0 -144.5 29.5t-118 80t-80 118.5t-29.5 145t29.5 145t80 118.5t118 80
t144.5 29.5t145 -29.5t118.5 -80t80 -118.5t29.5 -145t-29.5 -145t-80 -118.5t-118.5 -80t-145 -29.5zM432 38q68 0 126 24t100.5 66.5t66.5 101.5t24 129t-24 128.5t-66.5 101.5t-100.5 67t-126 24t-126 -24t-100 -67t-66 -101.5t-24 -128.5t24 -129t66 -101.5t100 -66.5
t126 -24zM408 390q19 0 38 2t34 9t24 21.5t9 38.5q0 32 -18.5 51.5t-65.5 19.5h-67v-142h46z" />
    <glyph glyph-name="macron" unicode="&#xaf;" 
d="M183 635h271l-11 -61h-271z" />
    <glyph glyph-name="degree" unicode="&#xb0;" horiz-adv-x="339" 
d="M213 418q-26 0 -49.5 10.5t-41 28t-27.5 41t-10 50.5t10 50.5t27.5 41t41 28t49.5 10.5q27 0 50.5 -10.5t41 -28t27.5 -41t10 -50.5t-10 -50.5t-27.5 -41t-41 -28t-50.5 -10.5zM213 468q33 0 54 23.5t21 56.5q0 32 -21 56t-54 24q-32 0 -53 -24t-21 -56q0 -33 21 -56.5
t53 -23.5z" />
    <glyph glyph-name="plusminus" unicode="&#xb1;" horiz-adv-x="574" 
d="M238 236h-179l11 61h179l32 185h67l-32 -185h181l-11 -61h-181l-34 -194h-67zM7 -51h428l-11 -64h-428z" />
    <glyph glyph-name="twosuperior" unicode="&#xb2;" horiz-adv-x="322" 
d="M53 376q42 30 80.5 57t67.5 52.5t46 49.5t17 48q0 20 -15.5 29t-35.5 9q-24 0 -45.5 -9.5t-38.5 -22.5l-30 40q20 16 51 29.5t72 13.5q56 0 83.5 -22t27.5 -57q0 -28 -15 -54t-40 -51t-57.5 -49t-66.5 -48q7 0 14 1q6 0 13.5 0.5t15.5 0.5h116l-11 -51h-255z" />
    <glyph glyph-name="threesuperior" unicode="&#xb3;" horiz-adv-x="292" 
d="M113 336q-20 0 -37.5 3t-25.5 6l19 50q8 -3 20.5 -5.5t28.5 -2.5q44 0 73.5 14.5t29.5 44.5q0 24 -28.5 35t-73.5 9l8 43q50 3 82 18t32 40q0 14 -13.5 22t-34.5 8q-22 0 -39.5 -6t-31.5 -14l-25 40q17 11 45.5 21t63.5 10q52 0 76 -19t24 -47q0 -36 -27 -57t-63 -30v-1
q28 -5 50 -22t22 -46q0 -54 -45 -84t-130 -30z" />
    <glyph glyph-name="acute" unicode="&#xb4;" 
d="M260 666h111l-152 -126h-70z" />
    <glyph glyph-name="mu" unicode="&#xb5;" horiz-adv-x="564" 
d="M114 480h72l-57 -321q-2 -13 -3.5 -23.5t-1.5 -20.5q0 -62 49 -62q28 0 59.5 21t61.5 64.5t56 109.5t42 155l14 77h72l-49 -271q-9 -51 -15 -90t-9 -65q-4 -32 -6 -54h-70q5 39 12.5 82.5t15.5 79.5h-2q-14 -26 -32.5 -56.5t-43.5 -56.5t-57 -43.5t-72 -17.5
q-17 0 -32 5.5t-24 17.5q-1 -15 -4 -35.5t-8 -51.5l-23 -131h-72z" />
    <glyph glyph-name="paragraph" unicode="&#xb6;" horiz-adv-x="606" 
d="M251 274q-34 0 -63.5 12t-51 34t-33.5 53t-12 68q0 49 17.5 90.5t48.5 71.5t73 46.5t90 16.5h313l-11 -63h-78l-137 -780h-66l137 780h-102l-137 -780h-67z" />
    <glyph glyph-name="periodcentered" unicode="&#xb7;" horiz-adv-x="235" 
d="M118 234q-24 0 -41 17t-17 40t17 40t41 17q23 0 40 -17t17 -40t-17 -40t-40 -17z" />
    <glyph glyph-name="cedilla" unicode="&#xb8;" 
d="M166 -219q-27 0 -42.5 4t-23.5 7l15 41q5 -2 17.5 -5.5t32.5 -3.5q23 0 36.5 9.5t13.5 29.5q0 14 -6 22.5t-16 13t-23 5.5t-26 0l36 96h51l-25 -66q30 -5 50 -23.5t20 -49.5q0 -38 -32 -59t-78 -21z" />
    <glyph glyph-name="onesuperior" unicode="&#xb9;" horiz-adv-x="244" 
d="M180 614l-87 -24l-14 48l118 28h55l-64 -324h-62z" />
    <glyph glyph-name="ordmasculine" unicode="&#xba;" horiz-adv-x="361" 
d="M196 315q-32 0 -55.5 11.5t-40 31t-24.5 46t-8 56.5q0 40 13.5 79.5t38.5 70t59 49.5t75 19q33 0 57 -11t40 -30.5t24 -45t8 -55.5q0 -47 -14 -87.5t-38.5 -70t-59 -46.5t-75.5 -17zM203 366q27 0 48.5 13.5t36.5 36t23 51.5t8 60q0 48 -16.5 74t-55.5 26
q-27 0 -48.5 -14.5t-36.5 -38t-23 -53.5t-8 -60q0 -47 17 -71t55 -24z" />
    <glyph glyph-name="guillemotright" unicode="&#xbb;" horiz-adv-x="450" 
d="M166 251l-96 184h72l100 -191l-163 -188h-80zM344 251l-96 184h72l100 -191l-163 -188h-80z" />
    <glyph glyph-name="onequarter" unicode="&#xbc;" horiz-adv-x="695" 
d="M241 614l-87 -24l-14 48l118 28h55l-64 -324h-62zM607 666h68l-528 -666h-68zM536 68h-174l8 42l221 214h57l-41 -207h54l-10 -49h-53l-14 -68h-61zM442 115q6 1 16.5 1.5t24.5 0.5h63l24 123h-1z" />
    <glyph glyph-name="onehalf" unicode="&#xbd;" horiz-adv-x="737" 
d="M241 614l-87 -24l-14 48l118 28h55l-64 -324h-62zM607 666h68l-528 -666h-68zM406 34q42 30 80.5 57t67.5 52.5t46 49.5t17 48q0 20 -15.5 29t-35.5 9q-24 0 -45.5 -9.5t-38.5 -22.5l-30 40q20 16 51 29.5t72 13.5q56 0 83.5 -22t27.5 -57q0 -28 -15 -54t-40 -51
t-57.5 -49t-66.5 -48q7 0 14 1q6 0 13.5 0.5t15.5 0.5h116l-11 -51h-255z" />
    <glyph glyph-name="threequarters" unicode="&#xbe;" horiz-adv-x="682" 
d="M113 336q-20 0 -37.5 3t-25.5 6l19 50q8 -3 20.5 -5.5t28.5 -2.5q44 0 73.5 14.5t29.5 44.5q0 24 -28.5 35t-73.5 9l8 43q50 3 82 18t32 40q0 14 -13.5 22t-34.5 8q-22 0 -39.5 -6t-31.5 -14l-25 40q17 11 45.5 21t63.5 10q52 0 76 -19t24 -47q0 -36 -27 -57t-63 -30v-1
q28 -5 50 -22t22 -46q0 -54 -45 -84t-130 -30zM594 666h68l-528 -666h-68zM523 68h-174l8 42l221 214h57l-41 -207h54l-10 -49h-53l-14 -68h-61zM429 115q6 1 16.5 1.5t24.5 0.5h63l24 123h-1z" />
    <glyph glyph-name="questiondown" unicode="&#xbf;" horiz-adv-x="441" 
d="M188 -195q-42 0 -74 12t-53.5 32t-32.5 46t-11 55q0 40 14 70t36.5 53.5t51 41t56.5 33.5q29 16 43 35t20 52l10 55h69l-11 -63q-4 -24 -10 -42t-16.5 -32t-27 -27t-41.5 -27q-26 -15 -47.5 -28.5t-36.5 -29.5t-23.5 -36t-8.5 -48q0 -40 26 -64t78 -24q28 0 50.5 7.5
t34.5 12.5l21 -58q-18 -9 -48.5 -17.5t-68.5 -8.5zM304 378q-23 0 -40 16.5t-17 39.5q0 24 17 41t40 17q25 0 42 -17t17 -41q0 -23 -17 -39.5t-42 -16.5z" />
    <glyph glyph-name="Agrave" unicode="&#xc0;" horiz-adv-x="607" 
d="M426 231l-36 223q-4 23 -7.5 45.5t-5.5 39.5q-3 20 -5 39h-2q-8 -20 -19 -40q-9 -18 -20.5 -39.5t-23.5 -44.5l-123 -223h242zM352 666h75l115 -666h-78l-27 165h-289l-91 -165h-78zM254 852h97l71 -126h-62z" />
    <glyph glyph-name="Aacute" unicode="&#xc1;" horiz-adv-x="607" 
d="M426 231l-36 223q-4 23 -7.5 45.5t-5.5 39.5q-3 20 -5 39h-2q-8 -20 -19 -40q-9 -18 -20.5 -39.5t-23.5 -44.5l-123 -223h242zM352 666h75l115 -666h-78l-27 165h-289l-91 -165h-78zM474 852h111l-152 -126h-70z" />
    <glyph glyph-name="Acircumflex" unicode="&#xc2;" horiz-adv-x="607" 
d="M426 231l-36 223q-4 23 -7.5 45.5t-5.5 39.5q-3 20 -5 39h-2q-8 -20 -19 -40q-9 -18 -20.5 -39.5t-23.5 -44.5l-123 -223h242zM352 666h75l115 -666h-78l-27 165h-289l-91 -165h-78zM401 880h50l92 -153h-61l-65 89l-94 -89h-69z" />
    <glyph glyph-name="Atilde" unicode="&#xc3;" horiz-adv-x="607" 
d="M426 231l-36 223q-4 23 -7.5 45.5t-5.5 39.5q-3 20 -5 39h-2q-8 -20 -19 -40q-9 -18 -20.5 -39.5t-23.5 -44.5l-123 -223h242zM352 666h75l115 -666h-78l-27 165h-289l-91 -165h-78zM447 729q-18 0 -30.5 6t-23.5 13.5t-22 13.5t-25 6q-17 0 -30.5 -10.5t-22.5 -18.5
l-30 35q16 21 39.5 39.5t55.5 18.5q18 0 30.5 -6t23.5 -13.5t22 -13.5t25 -6q20 0 33.5 10t21.5 19l31 -34q-17 -21 -41 -40t-57 -19z" />
    <glyph glyph-name="Adieresis" unicode="&#xc4;" horiz-adv-x="607" 
d="M426 231l-36 223q-4 23 -7.5 45.5t-5.5 39.5q-3 20 -5 39h-2q-8 -20 -19 -40q-9 -18 -20.5 -39.5t-23.5 -44.5l-123 -223h242zM352 666h75l115 -666h-78l-27 165h-289l-91 -165h-78zM311 727q-21 0 -35.5 14.5t-14.5 36.5q0 21 14.5 35.5t35.5 14.5q23 0 37 -14.5
t14 -35.5q0 -22 -14.5 -36.5t-36.5 -14.5zM494 727q-21 0 -35.5 14.5t-14.5 36.5q0 21 14.5 35.5t35.5 14.5q23 0 37 -14.5t14 -35.5q0 -22 -14.5 -36.5t-36.5 -14.5z" />
    <glyph glyph-name="Aring" unicode="&#xc5;" horiz-adv-x="607" 
d="M426 231l-36 223q-4 23 -7.5 45.5t-5.5 39.5q-3 20 -5 39h-2q-8 -20 -19 -40q-9 -18 -20.5 -39.5t-23.5 -44.5l-123 -223h242zM352 666h75l115 -666h-78l-27 165h-289l-91 -165h-78zM403 731q-19 0 -36 7t-30 19t-20.5 29.5t-7.5 38.5t7.5 38.5t20.5 30.5t30 20t36 7
t36 -7t30 -19.5t20.5 -30t7.5 -38.5t-7.5 -38.5t-20.5 -30t-30 -19.5t-36 -7zM403 771q23 0 36 16t13 39q0 24 -13 39.5t-36 15.5q-24 0 -36.5 -15.5t-12.5 -39.5q0 -23 12.5 -39t36.5 -16z" />
    <glyph glyph-name="AE" unicode="&#xc6;" horiz-adv-x="810" 
d="M443 666h376l-12 -66h-258l-39 -214h228l-12 -66h-227l-45 -254h265l-12 -66h-342l30 165h-250l-125 -165h-83zM406 231q5 27 10 57q5 26 11 58.5t12 67.5q14 81 33 184l-277 -367h211z" />
    <glyph glyph-name="Ccedilla" unicode="&#xc7;" horiz-adv-x="607" 
d="M269 -219q-27 0 -42.5 4t-23.5 7l15 41q5 -2 17.5 -5.5t32.5 -3.5q23 0 36.5 9.5t13.5 29.5q0 14 -6 22.5t-16 13t-23 5.5t-26 0l32 87q-56 7 -97.5 31.5t-69 61t-41 83.5t-13.5 100q0 85 29.5 159.5t80.5 130.5t120.5 88.5t150.5 32.5q36 0 64 -3.5t49.5 -9.5
t38.5 -14.5t32 -18.5l-45 -58q-26 18 -60 28.5t-85 10.5q-65 0 -119 -27t-93 -74t-60.5 -109.5t-21.5 -132.5q0 -45 11 -84.5t34.5 -69t60.5 -46t89 -16.5q55 0 94.5 17t73.5 43l34 -54q-16 -14 -38.5 -27t-50 -23t-57.5 -16t-61 -6l-20 -54q30 -5 50 -23.5t20 -49.5
q0 -38 -32 -59t-78 -21z" />
    <glyph glyph-name="Egrave" unicode="&#xc8;" horiz-adv-x="494" 
d="M168 666h335l-12 -66h-258l-39 -214h228l-12 -66h-227l-45 -254h265l-12 -66h-342zM191 852h97l71 -126h-62z" />
    <glyph glyph-name="Eacute" unicode="&#xc9;" horiz-adv-x="494" 
d="M168 666h335l-12 -66h-258l-39 -214h228l-12 -66h-227l-45 -254h265l-12 -66h-342zM411 852h111l-152 -126h-70z" />
    <glyph glyph-name="Ecircumflex" unicode="&#xca;" horiz-adv-x="494" 
d="M168 666h335l-12 -66h-258l-39 -214h228l-12 -66h-227l-45 -254h265l-12 -66h-342zM338 880h50l92 -153h-61l-65 89l-94 -89h-69z" />
    <glyph glyph-name="Edieresis" unicode="&#xcb;" horiz-adv-x="494" 
d="M168 666h335l-12 -66h-258l-39 -214h228l-12 -66h-227l-45 -254h265l-12 -66h-342zM248 727q-21 0 -35.5 14.5t-14.5 36.5q0 21 14.5 35.5t35.5 14.5q23 0 37 -14.5t14 -35.5q0 -22 -14.5 -36.5t-36.5 -14.5zM431 727q-21 0 -35.5 14.5t-14.5 36.5q0 21 14.5 35.5
t35.5 14.5q23 0 37 -14.5t14 -35.5q0 -22 -14.5 -36.5t-36.5 -14.5z" />
    <glyph glyph-name="Igrave" unicode="&#xcc;" horiz-adv-x="275" 
d="M174 666h77l-119 -666h-77zM77 852h97l71 -126h-62z" />
    <glyph glyph-name="Iacute" unicode="&#xcd;" horiz-adv-x="275" 
d="M174 666h77l-119 -666h-77zM297 852h111l-152 -126h-70z" />
    <glyph glyph-name="Icircumflex" unicode="&#xce;" horiz-adv-x="275" 
d="M174 666h77l-119 -666h-77zM224 880h50l92 -153h-61l-65 89l-94 -89h-69z" />
    <glyph glyph-name="Idieresis" unicode="&#xcf;" horiz-adv-x="275" 
d="M174 666h77l-119 -666h-77zM134 727q-21 0 -35.5 14.5t-14.5 36.5q0 21 14.5 35.5t35.5 14.5q23 0 37 -14.5t14 -35.5q0 -22 -14.5 -36.5t-36.5 -14.5zM317 727q-21 0 -35.5 14.5t-14.5 36.5q0 21 14.5 35.5t35.5 14.5q23 0 37 -14.5t14 -35.5q0 -22 -14.5 -36.5
t-36.5 -14.5z" />
    <glyph glyph-name="Eth" unicode="&#xd0;" horiz-adv-x="668" 
d="M113 314h-70l11 58h69l53 294h147q83 0 143 -18.5t99 -52t58 -81t19 -105.5q0 -79 -25 -153t-76 -131t-127.5 -91t-179.5 -34h-177zM246 64q77 0 136 26.5t98.5 72.5t60 108t20.5 133q0 103 -59 150.5t-188 47.5h-73l-41 -230h113l-11 -58h-112l-44 -250h100z" />
    <glyph glyph-name="Ntilde" unicode="&#xd1;" horiz-adv-x="687" 
d="M165 666h75l225 -464q26 -56 39 -97h2q2 20 6 47.5t9 56.5l81 457h70l-118 -666h-71l-231 477q-11 23 -19.5 43t-16.5 45h-2q-2 -20 -5.5 -42.5t-8.5 -52.5l-84 -470h-70zM478 729q-18 0 -30.5 6t-23.5 13.5t-22 13.5t-25 6q-17 0 -30.5 -10.5t-22.5 -18.5l-30 35
q16 21 39.5 39.5t55.5 18.5q18 0 30.5 -6t23.5 -13.5t22 -13.5t25 -6q20 0 33.5 10t21.5 19l31 -34q-17 -21 -41 -40t-57 -19z" />
    <glyph glyph-name="Ograve" unicode="&#xd2;" horiz-adv-x="734" 
d="M340 -12q-67 0 -119 23.5t-88 63.5t-54.5 92t-18.5 108q0 74 26 146.5t73.5 129.5t114.5 92t150 35q71 0 124 -23.5t87.5 -63.5t51.5 -92.5t17 -110.5q0 -74 -25 -145.5t-72.5 -128t-115 -91.5t-151.5 -35zM344 53q66 0 118 28.5t88 76t55 108t19 123.5q0 45 -13 85.5
t-38.5 71t-64 49t-89.5 18.5q-66 0 -117.5 -28.5t-87.5 -75.5t-55 -108t-19 -125q0 -46 14 -86.5t40 -71t64 -48t86 -17.5zM295 852h97l71 -126h-62z" />
    <glyph glyph-name="Oacute" unicode="&#xd3;" horiz-adv-x="734" 
d="M340 -12q-67 0 -119 23.5t-88 63.5t-54.5 92t-18.5 108q0 74 26 146.5t73.5 129.5t114.5 92t150 35q71 0 124 -23.5t87.5 -63.5t51.5 -92.5t17 -110.5q0 -74 -25 -145.5t-72.5 -128t-115 -91.5t-151.5 -35zM344 53q66 0 118 28.5t88 76t55 108t19 123.5q0 45 -13 85.5
t-38.5 71t-64 49t-89.5 18.5q-66 0 -117.5 -28.5t-87.5 -75.5t-55 -108t-19 -125q0 -46 14 -86.5t40 -71t64 -48t86 -17.5zM515 852h111l-152 -126h-70z" />
    <glyph glyph-name="Ocircumflex" unicode="&#xd4;" horiz-adv-x="734" 
d="M340 -12q-67 0 -119 23.5t-88 63.5t-54.5 92t-18.5 108q0 74 26 146.5t73.5 129.5t114.5 92t150 35q71 0 124 -23.5t87.5 -63.5t51.5 -92.5t17 -110.5q0 -74 -25 -145.5t-72.5 -128t-115 -91.5t-151.5 -35zM344 53q66 0 118 28.5t88 76t55 108t19 123.5q0 45 -13 85.5
t-38.5 71t-64 49t-89.5 18.5q-66 0 -117.5 -28.5t-87.5 -75.5t-55 -108t-19 -125q0 -46 14 -86.5t40 -71t64 -48t86 -17.5zM442 880h50l92 -153h-61l-65 89l-94 -89h-69z" />
    <glyph glyph-name="Otilde" unicode="&#xd5;" horiz-adv-x="734" 
d="M340 -12q-67 0 -119 23.5t-88 63.5t-54.5 92t-18.5 108q0 74 26 146.5t73.5 129.5t114.5 92t150 35q71 0 124 -23.5t87.5 -63.5t51.5 -92.5t17 -110.5q0 -74 -25 -145.5t-72.5 -128t-115 -91.5t-151.5 -35zM344 53q66 0 118 28.5t88 76t55 108t19 123.5q0 45 -13 85.5
t-38.5 71t-64 49t-89.5 18.5q-66 0 -117.5 -28.5t-87.5 -75.5t-55 -108t-19 -125q0 -46 14 -86.5t40 -71t64 -48t86 -17.5zM488 729q-18 0 -30.5 6t-23.5 13.5t-22 13.5t-25 6q-17 0 -30.5 -10.5t-22.5 -18.5l-30 35q16 21 39.5 39.5t55.5 18.5q18 0 30.5 -6t23.5 -13.5
t22 -13.5t25 -6q20 0 33.5 10t21.5 19l31 -34q-17 -21 -41 -40t-57 -19z" />
    <glyph glyph-name="Odieresis" unicode="&#xd6;" horiz-adv-x="734" 
d="M340 -12q-67 0 -119 23.5t-88 63.5t-54.5 92t-18.5 108q0 74 26 146.5t73.5 129.5t114.5 92t150 35q71 0 124 -23.5t87.5 -63.5t51.5 -92.5t17 -110.5q0 -74 -25 -145.5t-72.5 -128t-115 -91.5t-151.5 -35zM344 53q66 0 118 28.5t88 76t55 108t19 123.5q0 45 -13 85.5
t-38.5 71t-64 49t-89.5 18.5q-66 0 -117.5 -28.5t-87.5 -75.5t-55 -108t-19 -125q0 -46 14 -86.5t40 -71t64 -48t86 -17.5zM352 727q-21 0 -35.5 14.5t-14.5 36.5q0 21 14.5 35.5t35.5 14.5q23 0 37 -14.5t14 -35.5q0 -22 -14.5 -36.5t-36.5 -14.5zM535 727
q-21 0 -35.5 14.5t-14.5 36.5q0 21 14.5 35.5t35.5 14.5q23 0 37 -14.5t14 -35.5q0 -22 -14.5 -36.5t-36.5 -14.5z" />
    <glyph glyph-name="multiply" unicode="&#xd7;" horiz-adv-x="405" 
d="M188 217l-151 -129l-37 45l151 129l-106 130l57 48l107 -129l152 129l37 -45l-152 -129l113 -137l-58 -48z" />
    <glyph glyph-name="Oslash" unicode="&#xd8;" horiz-adv-x="734" 
d="M34 -34l96 113q-35 39 -52.5 89.5t-17.5 106.5q0 74 26 146.5t73.5 129.5t114.5 92t150 35q54 0 97 -14t76 -38l82 96l41 -34l-84 -98q35 -40 51.5 -92.5t16.5 -109.5q0 -74 -25 -145.5t-72.5 -128t-115 -91.5t-151.5 -35q-52 0 -95 14t-76 40l-94 -110zM344 53
q66 0 118 28.5t88 76t55 108t19 123.5q0 39 -10 75.5t-30 65.5l-370 -432q26 -21 58 -33t72 -12zM140 276q0 -80 40 -140l369 433q-24 20 -56.5 32t-73.5 12q-66 0 -117.5 -28.5t-87.5 -75.5t-55 -108t-19 -125z" />
    <glyph glyph-name="Ugrave" unicode="&#xd9;" horiz-adv-x="675" 
d="M304 -12q-112 0 -167 55t-55 145q0 29 6 61l74 417h76l-72 -407q-3 -19 -5 -35.5t-2 -31.5q0 -71 37 -104t115 -33q92 0 140 49.5t66 149.5l73 412h72l-76 -425q-11 -58 -31.5 -104.5t-54.5 -79.5t-82 -51t-114 -18zM271 852h97l71 -126h-62z" />
    <glyph glyph-name="Uacute" unicode="&#xda;" horiz-adv-x="675" 
d="M304 -12q-112 0 -167 55t-55 145q0 29 6 61l74 417h76l-72 -407q-3 -19 -5 -35.5t-2 -31.5q0 -71 37 -104t115 -33q92 0 140 49.5t66 149.5l73 412h72l-76 -425q-11 -58 -31.5 -104.5t-54.5 -79.5t-82 -51t-114 -18zM491 852h111l-152 -126h-70z" />
    <glyph glyph-name="Ucircumflex" unicode="&#xdb;" horiz-adv-x="675" 
d="M304 -12q-112 0 -167 55t-55 145q0 29 6 61l74 417h76l-72 -407q-3 -19 -5 -35.5t-2 -31.5q0 -71 37 -104t115 -33q92 0 140 49.5t66 149.5l73 412h72l-76 -425q-11 -58 -31.5 -104.5t-54.5 -79.5t-82 -51t-114 -18zM418 880h50l92 -153h-61l-65 89l-94 -89h-69z" />
    <glyph glyph-name="Udieresis" unicode="&#xdc;" horiz-adv-x="675" 
d="M304 -12q-112 0 -167 55t-55 145q0 29 6 61l74 417h76l-72 -407q-3 -19 -5 -35.5t-2 -31.5q0 -71 37 -104t115 -33q92 0 140 49.5t66 149.5l73 412h72l-76 -425q-11 -58 -31.5 -104.5t-54.5 -79.5t-82 -51t-114 -18zM328 727q-21 0 -35.5 14.5t-14.5 36.5q0 21 14.5 35.5
t35.5 14.5q23 0 37 -14.5t14 -35.5q0 -22 -14.5 -36.5t-36.5 -14.5zM511 727q-21 0 -35.5 14.5t-14.5 36.5q0 21 14.5 35.5t35.5 14.5q23 0 37 -14.5t14 -35.5q0 -22 -14.5 -36.5t-36.5 -14.5z" />
    <glyph glyph-name="Yacute" unicode="&#xdd;" horiz-adv-x="544" 
d="M240 251l-150 415h80l120 -342h1l227 342h81l-282 -416l-45 -250h-77zM426 852h111l-152 -126h-70z" />
    <glyph glyph-name="Thorn" unicode="&#xde;" horiz-adv-x="528" 
d="M168 666h76l-20 -115h85q93 0 149.5 -42.5t56.5 -123.5q0 -55 -20.5 -98t-57.5 -72.5t-87.5 -45t-110.5 -15.5h-85l-28 -154h-77zM246 220q96 0 142 42.5t46 113.5q0 25 -7 45t-23.5 34t-43 22t-64.5 8h-83l-47 -265h80z" />
    <glyph glyph-name="germandbls" unicode="&#xdf;" 
d="M-88 -230q-29 0 -49 5.5t-37 13.5l24 60q14 -6 30.5 -10.5t36.5 -4.5q23 0 39.5 10t27.5 27t18 39t11 45l104 567q10 57 32 97t52.5 65t69.5 36.5t83 11.5q36 0 63.5 -10.5t46 -29t28 -43t9.5 -52.5q0 -42 -15 -72.5t-37 -53t-48 -39.5t-48 -32.5t-37 -31.5t-15 -36
t24.5 -37.5t54 -38.5t54 -49.5t24.5 -70.5q0 -63 -43 -105.5t-131 -42.5q-44 0 -75 11t-48 22l33 55q13 -9 37.5 -18.5t56.5 -9.5q48 0 74 23t26 63q0 19 -11.5 34.5t-29 29.5t-37.5 27t-37.5 28t-29 33t-11.5 41q0 28 14.5 50t36.5 40t47.5 35t47.5 36t36.5 42.5t14.5 55.5
q0 39 -20.5 62.5t-65.5 23.5q-58 0 -98.5 -34.5t-55.5 -115.5l-105 -569q-8 -45 -21.5 -79t-33.5 -57.5t-49 -35t-68 -11.5z" />
    <glyph glyph-name="agrave" unicode="&#xe0;" horiz-adv-x="481" 
d="M148 -12q-60 0 -89 41t-29 106q0 66 18.5 130.5t54.5 114.5t89 81t122 31q52 0 86.5 -7t49.5 -12l-48 -264q-9 -51 -15 -90t-9 -65q-4 -32 -6 -54h-70q5 40 11 74t16 74h-2q-15 -30 -32.5 -59t-39 -51.5t-48 -36t-59.5 -13.5zM164 53q33 0 65 30t58.5 77t45.5 103t27 109
l7 48q-8 3 -27 6t-40 3q-47 0 -83.5 -24t-62 -64t-38.5 -90.5t-13 -104.5q0 -49 15.5 -71t45.5 -22zM177 666h97l71 -126h-62z" />
    <glyph glyph-name="aacute" unicode="&#xe1;" horiz-adv-x="481" 
d="M148 -12q-60 0 -89 41t-29 106q0 66 18.5 130.5t54.5 114.5t89 81t122 31q52 0 86.5 -7t49.5 -12l-48 -264q-9 -51 -15 -90t-9 -65q-4 -32 -6 -54h-70q5 40 11 74t16 74h-2q-15 -30 -32.5 -59t-39 -51.5t-48 -36t-59.5 -13.5zM164 53q33 0 65 30t58.5 77t45.5 103t27 109
l7 48q-8 3 -27 6t-40 3q-47 0 -83.5 -24t-62 -64t-38.5 -90.5t-13 -104.5q0 -49 15.5 -71t45.5 -22zM397 666h111l-152 -126h-70z" />
    <glyph glyph-name="acircumflex" unicode="&#xe2;" horiz-adv-x="481" 
d="M148 -12q-60 0 -89 41t-29 106q0 66 18.5 130.5t54.5 114.5t89 81t122 31q52 0 86.5 -7t49.5 -12l-48 -264q-9 -51 -15 -90t-9 -65q-4 -32 -6 -54h-70q5 40 11 74t16 74h-2q-15 -30 -32.5 -59t-39 -51.5t-48 -36t-59.5 -13.5zM164 53q33 0 65 30t58.5 77t45.5 103t27 109
l7 48q-8 3 -27 6t-40 3q-47 0 -83.5 -24t-62 -64t-38.5 -90.5t-13 -104.5q0 -49 15.5 -71t45.5 -22zM324 694h50l92 -153h-61l-65 89l-94 -89h-69z" />
    <glyph glyph-name="atilde" unicode="&#xe3;" horiz-adv-x="481" 
d="M148 -12q-60 0 -89 41t-29 106q0 66 18.5 130.5t54.5 114.5t89 81t122 31q52 0 86.5 -7t49.5 -12l-48 -264q-9 -51 -15 -90t-9 -65q-4 -32 -6 -54h-70q5 40 11 74t16 74h-2q-15 -30 -32.5 -59t-39 -51.5t-48 -36t-59.5 -13.5zM164 53q33 0 65 30t58.5 77t45.5 103t27 109
l7 48q-8 3 -27 6t-40 3q-47 0 -83.5 -24t-62 -64t-38.5 -90.5t-13 -104.5q0 -49 15.5 -71t45.5 -22zM370 543q-18 0 -30.5 6t-23.5 13.5t-22 13.5t-25 6q-17 0 -30.5 -10.5t-22.5 -18.5l-30 35q16 21 39.5 39.5t55.5 18.5q18 0 30.5 -6t23.5 -13.5t22 -13.5t25 -6
q20 0 33.5 10t21.5 19l31 -34q-17 -21 -41 -40t-57 -19z" />
    <glyph glyph-name="adieresis" unicode="&#xe4;" horiz-adv-x="481" 
d="M148 -12q-60 0 -89 41t-29 106q0 66 18.5 130.5t54.5 114.5t89 81t122 31q52 0 86.5 -7t49.5 -12l-48 -264q-9 -51 -15 -90t-9 -65q-4 -32 -6 -54h-70q5 40 11 74t16 74h-2q-15 -30 -32.5 -59t-39 -51.5t-48 -36t-59.5 -13.5zM164 53q33 0 65 30t58.5 77t45.5 103t27 109
l7 48q-8 3 -27 6t-40 3q-47 0 -83.5 -24t-62 -64t-38.5 -90.5t-13 -104.5q0 -49 15.5 -71t45.5 -22zM234 541q-21 0 -35.5 14.5t-14.5 36.5q0 21 14.5 35.5t35.5 14.5q23 0 37 -14.5t14 -35.5q0 -22 -14.5 -36.5t-36.5 -14.5zM417 541q-21 0 -35.5 14.5t-14.5 36.5
q0 21 14.5 35.5t35.5 14.5q23 0 37 -14.5t14 -35.5q0 -22 -14.5 -36.5t-36.5 -14.5z" />
    <glyph glyph-name="aring" unicode="&#xe5;" horiz-adv-x="481" 
d="M148 -12q-60 0 -89 41t-29 106q0 66 18.5 130.5t54.5 114.5t89 81t122 31q52 0 86.5 -7t49.5 -12l-48 -264q-9 -51 -15 -90t-9 -65q-4 -32 -6 -54h-70q5 40 11 74t16 74h-2q-15 -30 -32.5 -59t-39 -51.5t-48 -36t-59.5 -13.5zM164 53q33 0 65 30t58.5 77t45.5 103t27 109
l7 48q-8 3 -27 6t-40 3q-47 0 -83.5 -24t-62 -64t-38.5 -90.5t-13 -104.5q0 -49 15.5 -71t45.5 -22zM326 545q-19 0 -36 7t-30 19t-20.5 29.5t-7.5 38.5t7.5 38.5t20.5 30.5t30 20t36 7t36 -7t30 -19.5t20.5 -30t7.5 -38.5t-7.5 -38.5t-20.5 -30t-30 -19.5t-36 -7zM326 585
q23 0 36 16t13 39q0 24 -13 39.5t-36 15.5q-24 0 -36.5 -15.5t-12.5 -39.5q0 -23 12.5 -39t36.5 -16z" />
    <glyph glyph-name="ae" unicode="&#xe6;" horiz-adv-x="696" 
d="M140 -12q-30 0 -54.5 9t-41.5 25t-26.5 37.5t-9.5 46.5q0 30 10 53.5t27 41t38.5 30t45.5 19.5q38 11 80 15.5t83 4.5h18q8 24 13.5 44.5t5.5 49.5t-17 46t-62 17q-26 0 -47.5 -6t-38.5 -14t-30 -16.5t-20 -14.5l-36 50q11 9 27.5 20.5t39 21.5t51 17t63.5 7
q102 0 133 -74q34 35 74.5 54.5t86.5 19.5q54 0 90.5 -27t36.5 -82q0 -45 -24.5 -76.5t-66.5 -51.5t-98 -29.5t-120 -10.5q-3 -21 -3 -45q0 -57 23.5 -87.5t70.5 -30.5q40 0 72.5 19t52.5 40l42 -49q-11 -11 -27.5 -24t-38.5 -24t-49.5 -18.5t-60.5 -7.5q-54 0 -88.5 23
t-51.5 61q-32 -37 -74 -60.5t-99 -23.5zM152 51q49 0 85.5 21.5t60.5 51.5q-3 18 -3 37q0 14 1 27.5t3 27.5h-12q-41 0 -75.5 -4t-61.5 -15q-30 -12 -46.5 -33.5t-16.5 -53.5q0 -31 18 -45t47 -14zM382 269q49 0 90.5 6.5t70.5 20t45.5 33.5t16.5 47q0 52 -63 52
q-25 0 -49 -11.5t-45 -32t-38.5 -50t-27.5 -65.5z" />
    <glyph glyph-name="ccedilla" unicode="&#xe7;" horiz-adv-x="404" 
d="M144 -219q-27 0 -42.5 4t-23.5 7l15 41q5 -2 17.5 -5.5t32.5 -3.5q23 0 36.5 9.5t13.5 29.5q0 14 -6 22.5t-16 13t-23 5.5t-26 0l32 87q-59 10 -93 57t-34 126q0 68 22 126.5t59 101t84 66.5t97 24q47 0 73.5 -11t41.5 -22l-37 -57q-11 8 -31 16.5t-55 8.5
q-33 0 -65.5 -17t-58.5 -49t-42 -77.5t-16 -101.5q0 -68 25.5 -99t67.5 -31q22 0 41 6t33.5 14.5t25.5 18t18 16.5l43 -47q-9 -9 -23.5 -20.5t-33 -22t-42 -18.5t-50.5 -10l-20 -55q30 -5 50 -23.5t20 -49.5q0 -38 -32 -59t-78 -21z" />
    <glyph glyph-name="egrave" unicode="&#xe8;" horiz-adv-x="426" 
d="M185 -12q-41 0 -70.5 14t-49 38t-29 55t-9.5 66q0 68 20.5 128t55.5 105t82 71.5t100 26.5q54 0 90.5 -27t36.5 -82q0 -45 -26.5 -77.5t-70 -55t-100 -36.5t-115.5 -21v-23q0 -57 23.5 -87.5t70.5 -30.5q40 0 72.5 19t52.5 40l42 -49q-11 -11 -27.5 -24t-38.5 -24
t-49.5 -18.5t-60.5 -7.5zM274 428q-27 0 -53 -13.5t-48 -37.5t-39 -57t-26 -72q47 6 89 17t73 26.5t49 36.5t18 48q0 52 -63 52zM146 666h97l71 -126h-62z" />
    <glyph glyph-name="eacute" unicode="&#xe9;" horiz-adv-x="426" 
d="M185 -12q-41 0 -70.5 14t-49 38t-29 55t-9.5 66q0 68 20.5 128t55.5 105t82 71.5t100 26.5q54 0 90.5 -27t36.5 -82q0 -45 -26.5 -77.5t-70 -55t-100 -36.5t-115.5 -21v-23q0 -57 23.5 -87.5t70.5 -30.5q40 0 72.5 19t52.5 40l42 -49q-11 -11 -27.5 -24t-38.5 -24
t-49.5 -18.5t-60.5 -7.5zM274 428q-27 0 -53 -13.5t-48 -37.5t-39 -57t-26 -72q47 6 89 17t73 26.5t49 36.5t18 48q0 52 -63 52zM366 666h111l-152 -126h-70z" />
    <glyph glyph-name="ecircumflex" unicode="&#xea;" horiz-adv-x="426" 
d="M185 -12q-41 0 -70.5 14t-49 38t-29 55t-9.5 66q0 68 20.5 128t55.5 105t82 71.5t100 26.5q54 0 90.5 -27t36.5 -82q0 -45 -26.5 -77.5t-70 -55t-100 -36.5t-115.5 -21v-23q0 -57 23.5 -87.5t70.5 -30.5q40 0 72.5 19t52.5 40l42 -49q-11 -11 -27.5 -24t-38.5 -24
t-49.5 -18.5t-60.5 -7.5zM274 428q-27 0 -53 -13.5t-48 -37.5t-39 -57t-26 -72q47 6 89 17t73 26.5t49 36.5t18 48q0 52 -63 52zM293 694h50l92 -153h-61l-65 89l-94 -89h-69z" />
    <glyph glyph-name="edieresis" unicode="&#xeb;" horiz-adv-x="426" 
d="M185 -12q-41 0 -70.5 14t-49 38t-29 55t-9.5 66q0 68 20.5 128t55.5 105t82 71.5t100 26.5q54 0 90.5 -27t36.5 -82q0 -45 -26.5 -77.5t-70 -55t-100 -36.5t-115.5 -21v-23q0 -57 23.5 -87.5t70.5 -30.5q40 0 72.5 19t52.5 40l42 -49q-11 -11 -27.5 -24t-38.5 -24
t-49.5 -18.5t-60.5 -7.5zM274 428q-27 0 -53 -13.5t-48 -37.5t-39 -57t-26 -72q47 6 89 17t73 26.5t49 36.5t18 48q0 52 -63 52zM203 541q-21 0 -35.5 14.5t-14.5 36.5q0 21 14.5 35.5t35.5 14.5q23 0 37 -14.5t14 -35.5q0 -22 -14.5 -36.5t-36.5 -14.5zM386 541
q-21 0 -35.5 14.5t-14.5 36.5q0 21 14.5 35.5t35.5 14.5q23 0 37 -14.5t14 -35.5q0 -22 -14.5 -36.5t-36.5 -14.5z" />
    <glyph glyph-name="igrave" unicode="&#xec;" horiz-adv-x="254" 
d="M134 480h72l-87 -480h-72zM34 666h97l71 -126h-62z" />
    <glyph glyph-name="iacute" unicode="&#xed;" horiz-adv-x="254" 
d="M134 480h72l-87 -480h-72zM254 666h111l-152 -126h-70z" />
    <glyph glyph-name="icircumflex" unicode="&#xee;" horiz-adv-x="254" 
d="M134 480h72l-87 -480h-72zM181 694h50l92 -153h-61l-65 89l-94 -89h-69z" />
    <glyph glyph-name="idieresis" unicode="&#xef;" horiz-adv-x="254" 
d="M134 480h72l-87 -480h-72zM91 541q-21 0 -35.5 14.5t-14.5 36.5q0 21 14.5 35.5t35.5 14.5q23 0 37 -14.5t14 -35.5q0 -22 -14.5 -36.5t-36.5 -14.5zM274 541q-21 0 -35.5 14.5t-14.5 36.5q0 21 14.5 35.5t35.5 14.5q23 0 37 -14.5t14 -35.5q0 -22 -14.5 -36.5
t-36.5 -14.5z" />
    <glyph glyph-name="eth" unicode="&#xf0;" horiz-adv-x="467" 
d="M200 -12q-36 0 -67 13.5t-54 39t-36.5 61.5t-13.5 82q0 66 20 121.5t54 95t77.5 62t91.5 22.5q41 0 65 -13.5t38 -27.5q-12 107 -67 162l-83 -66l-34 42l72 57q-58 32 -149 32l23 61q109 0 181 -49l87 69l34 -42l-78 -62q88 -90 88 -267q0 -69 -14 -139.5t-44.5 -126.5
t-77.5 -91.5t-113 -35.5zM208 48q42 0 73.5 27.5t52.5 73.5t32 104.5t12 120.5q-14 20 -39.5 36t-70.5 16q-33 0 -63 -16.5t-53.5 -47.5t-37 -75.5t-13.5 -99.5q0 -66 24 -102.5t83 -36.5z" />
    <glyph glyph-name="ntilde" unicode="&#xf1;" horiz-adv-x="511" 
d="M119 480h69q-2 -12 -5.5 -31t-7.5 -41t-9 -44t-10 -40h2q12 24 30.5 53t43 54.5t56.5 43t72 17.5q51 0 76 -31t25 -84q0 -21 -5 -49l-60 -328h-72l57 321q2 13 3.5 23.5t1.5 20.5q0 62 -49 62q-30 0 -62 -22.5t-62 -68t-56 -115.5t-43 -166l-10 -55h-72zM362 543
q-18 0 -30.5 6t-23.5 13.5t-22 13.5t-25 6q-17 0 -30.5 -10.5t-22.5 -18.5l-30 35q16 21 39.5 39.5t55.5 18.5q18 0 30.5 -6t23.5 -13.5t22 -13.5t25 -6q20 0 33.5 10t21.5 19l31 -34q-17 -21 -41 -40t-57 -19z" />
    <glyph glyph-name="ograve" unicode="&#xf2;" horiz-adv-x="477" 
d="M199 -12q-46 0 -78.5 18t-52.5 46.5t-29.5 64t-9.5 70.5q0 56 18.5 110.5t51.5 98t78 70t99 26.5q44 0 76.5 -16.5t53.5 -43.5t31 -62.5t10 -73.5q0 -60 -19 -115.5t-52 -98.5t-78.5 -68.5t-98.5 -25.5zM204 48q38 0 69 21.5t53.5 56t35 76t12.5 82.5q0 72 -26 110
t-77 38q-38 0 -69.5 -22t-54 -57t-35 -78.5t-12.5 -85.5q0 -64 26 -102.5t78 -38.5zM139 666h97l71 -126h-62z" />
    <glyph glyph-name="oacute" unicode="&#xf3;" horiz-adv-x="477" 
d="M199 -12q-46 0 -78.5 18t-52.5 46.5t-29.5 64t-9.5 70.5q0 56 18.5 110.5t51.5 98t78 70t99 26.5q44 0 76.5 -16.5t53.5 -43.5t31 -62.5t10 -73.5q0 -60 -19 -115.5t-52 -98.5t-78.5 -68.5t-98.5 -25.5zM204 48q38 0 69 21.5t53.5 56t35 76t12.5 82.5q0 72 -26 110
t-77 38q-38 0 -69.5 -22t-54 -57t-35 -78.5t-12.5 -85.5q0 -64 26 -102.5t78 -38.5zM359 666h111l-152 -126h-70z" />
    <glyph glyph-name="ocircumflex" unicode="&#xf4;" horiz-adv-x="477" 
d="M199 -12q-46 0 -78.5 18t-52.5 46.5t-29.5 64t-9.5 70.5q0 56 18.5 110.5t51.5 98t78 70t99 26.5q44 0 76.5 -16.5t53.5 -43.5t31 -62.5t10 -73.5q0 -60 -19 -115.5t-52 -98.5t-78.5 -68.5t-98.5 -25.5zM204 48q38 0 69 21.5t53.5 56t35 76t12.5 82.5q0 72 -26 110
t-77 38q-38 0 -69.5 -22t-54 -57t-35 -78.5t-12.5 -85.5q0 -64 26 -102.5t78 -38.5zM286 694h50l92 -153h-61l-65 89l-94 -89h-69z" />
    <glyph glyph-name="otilde" unicode="&#xf5;" horiz-adv-x="477" 
d="M199 -12q-46 0 -78.5 18t-52.5 46.5t-29.5 64t-9.5 70.5q0 56 18.5 110.5t51.5 98t78 70t99 26.5q44 0 76.5 -16.5t53.5 -43.5t31 -62.5t10 -73.5q0 -60 -19 -115.5t-52 -98.5t-78.5 -68.5t-98.5 -25.5zM204 48q38 0 69 21.5t53.5 56t35 76t12.5 82.5q0 72 -26 110
t-77 38q-38 0 -69.5 -22t-54 -57t-35 -78.5t-12.5 -85.5q0 -64 26 -102.5t78 -38.5zM332 543q-18 0 -30.5 6t-23.5 13.5t-22 13.5t-25 6q-17 0 -30.5 -10.5t-22.5 -18.5l-30 35q16 21 39.5 39.5t55.5 18.5q18 0 30.5 -6t23.5 -13.5t22 -13.5t25 -6q20 0 33.5 10t21.5 19
l31 -34q-17 -21 -41 -40t-57 -19z" />
    <glyph glyph-name="odieresis" unicode="&#xf6;" horiz-adv-x="477" 
d="M199 -12q-46 0 -78.5 18t-52.5 46.5t-29.5 64t-9.5 70.5q0 56 18.5 110.5t51.5 98t78 70t99 26.5q44 0 76.5 -16.5t53.5 -43.5t31 -62.5t10 -73.5q0 -60 -19 -115.5t-52 -98.5t-78.5 -68.5t-98.5 -25.5zM204 48q38 0 69 21.5t53.5 56t35 76t12.5 82.5q0 72 -26 110
t-77 38q-38 0 -69.5 -22t-54 -57t-35 -78.5t-12.5 -85.5q0 -64 26 -102.5t78 -38.5zM196 541q-21 0 -35.5 14.5t-14.5 36.5q0 21 14.5 35.5t35.5 14.5q23 0 37 -14.5t14 -35.5q0 -22 -14.5 -36.5t-36.5 -14.5zM379 541q-21 0 -35.5 14.5t-14.5 36.5q0 21 14.5 35.5
t35.5 14.5q23 0 37 -14.5t14 -35.5q0 -22 -14.5 -36.5t-36.5 -14.5z" />
    <glyph glyph-name="divide" unicode="&#xf7;" horiz-adv-x="572" 
d="M248 16q-23 0 -39.5 16t-16.5 39q0 22 16.5 38t39.5 16t39 -16t16 -38q0 -23 -16 -39t-39 -16zM309 354q-23 0 -39.5 16t-16.5 39q0 22 16.5 38t39.5 16t39 -16t16 -38q0 -23 -16 -39t-39 -16zM45 270h500l-10 -60h-500z" />
    <glyph glyph-name="oslash" unicode="&#xf8;" horiz-adv-x="477" 
d="M-16 -27l76 91q-17 27 -24 59t-7 64q0 56 18.5 110.5t51.5 98t78 70t99 26.5q35 0 63 -10.5t48 -29.5l86 100l38 -32l-92 -109q14 -25 21 -54t7 -61q0 -60 -19 -115.5t-52 -98.5t-78.5 -68.5t-98.5 -25.5q-34 0 -60 10t-46 27l-71 -84zM100 189q0 -41 9 -69l236 278
q-26 34 -74 34q-38 0 -69.5 -22t-54 -57t-35 -78.5t-12.5 -85.5zM204 48q38 0 69 21.5t53.5 56t35 76t12.5 82.5q0 37 -8 67l-232 -275q26 -28 70 -28z" />
    <glyph glyph-name="ugrave" unicode="&#xf9;" horiz-adv-x="511" 
d="M150 -12q-51 0 -76 30.5t-25 84.5q0 11 1.5 23t3.5 26l60 328h72l-57 -321q-2 -13 -3.5 -23.5t-1.5 -20.5q0 -62 49 -62q28 0 59.5 21t61.5 64.5t56 109.5t42 155l14 77h72l-49 -271q-9 -51 -15 -90t-9 -65q-4 -32 -6 -54h-70q5 39 12.5 82.5t15.5 79.5h-2
q-14 -26 -32.5 -56.5t-43.5 -56.5t-57 -43.5t-72 -17.5zM157 666h97l71 -126h-62z" />
    <glyph glyph-name="uacute" unicode="&#xfa;" horiz-adv-x="511" 
d="M150 -12q-51 0 -76 30.5t-25 84.5q0 11 1.5 23t3.5 26l60 328h72l-57 -321q-2 -13 -3.5 -23.5t-1.5 -20.5q0 -62 49 -62q28 0 59.5 21t61.5 64.5t56 109.5t42 155l14 77h72l-49 -271q-9 -51 -15 -90t-9 -65q-4 -32 -6 -54h-70q5 39 12.5 82.5t15.5 79.5h-2
q-14 -26 -32.5 -56.5t-43.5 -56.5t-57 -43.5t-72 -17.5zM377 666h111l-152 -126h-70z" />
    <glyph glyph-name="ucircumflex" unicode="&#xfb;" horiz-adv-x="511" 
d="M150 -12q-51 0 -76 30.5t-25 84.5q0 11 1.5 23t3.5 26l60 328h72l-57 -321q-2 -13 -3.5 -23.5t-1.5 -20.5q0 -62 49 -62q28 0 59.5 21t61.5 64.5t56 109.5t42 155l14 77h72l-49 -271q-9 -51 -15 -90t-9 -65q-4 -32 -6 -54h-70q5 39 12.5 82.5t15.5 79.5h-2
q-14 -26 -32.5 -56.5t-43.5 -56.5t-57 -43.5t-72 -17.5zM304 694h50l92 -153h-61l-65 89l-94 -89h-69z" />
    <glyph glyph-name="udieresis" unicode="&#xfc;" horiz-adv-x="511" 
d="M150 -12q-51 0 -76 30.5t-25 84.5q0 11 1.5 23t3.5 26l60 328h72l-57 -321q-2 -13 -3.5 -23.5t-1.5 -20.5q0 -62 49 -62q28 0 59.5 21t61.5 64.5t56 109.5t42 155l14 77h72l-49 -271q-9 -51 -15 -90t-9 -65q-4 -32 -6 -54h-70q5 39 12.5 82.5t15.5 79.5h-2
q-14 -26 -32.5 -56.5t-43.5 -56.5t-57 -43.5t-72 -17.5zM214 541q-21 0 -35.5 14.5t-14.5 36.5q0 21 14.5 35.5t35.5 14.5q23 0 37 -14.5t14 -35.5q0 -22 -14.5 -36.5t-36.5 -14.5zM397 541q-21 0 -35.5 14.5t-14.5 36.5q0 21 14.5 35.5t35.5 14.5q23 0 37 -14.5t14 -35.5
q0 -22 -14.5 -36.5t-36.5 -14.5z" />
    <glyph glyph-name="yacute" unicode="&#xfd;" horiz-adv-x="438" 
d="M-12 -220q-39 0 -57 6.5t-25 10.5l30 59q8 -4 21.5 -7.5t37.5 -3.5q19 0 36.5 6t36 21.5t38 41.5t43.5 67l-97 499h75l63 -352q3 -18 5.5 -35t4.5 -32h2q5 15 11 32.5t14 34.5l161 352h76l-176 -368q-42 -87 -76 -150t-67.5 -103.5t-71 -59.5t-85.5 -19zM336 666h111
l-152 -126h-70z" />
    <glyph glyph-name="thorn" unicode="&#xfe;" horiz-adv-x="484" 
d="M158 720h72l-45 -242q-3 -16 -7.5 -37.5t-9.5 -42.5t-9.5 -38.5t-6.5 -25.5h2q16 30 34.5 58t41 50.5t50 36t60.5 13.5q31 0 53 -12.5t36 -33.5t20.5 -49t6.5 -59q0 -67 -19.5 -130t-55.5 -112t-88.5 -78.5t-118.5 -29.5q-30 0 -49.5 3t-25.5 5l-39 -214h-72zM180 48
q48 0 86 24t63.5 63.5t39 90.5t13.5 105q0 42 -13 69t-44 27q-37 0 -70 -31t-60 -78.5t-46.5 -104t-28.5 -106.5l-9 -51q7 -2 22 -5t47 -3z" />
    <glyph glyph-name="ydieresis" unicode="&#xff;" horiz-adv-x="438" 
d="M-12 -220q-39 0 -57 6.5t-25 10.5l30 59q8 -4 21.5 -7.5t37.5 -3.5q19 0 36.5 6t36 21.5t38 41.5t43.5 67l-97 499h75l63 -352q3 -18 5.5 -35t4.5 -32h2q5 15 11 32.5t14 34.5l161 352h76l-176 -368q-42 -87 -76 -150t-67.5 -103.5t-71 -59.5t-85.5 -19zM173 541
q-21 0 -35.5 14.5t-14.5 36.5q0 21 14.5 35.5t35.5 14.5q23 0 37 -14.5t14 -35.5q0 -22 -14.5 -36.5t-36.5 -14.5zM356 541q-21 0 -35.5 14.5t-14.5 36.5q0 21 14.5 35.5t35.5 14.5q23 0 37 -14.5t14 -35.5q0 -22 -14.5 -36.5t-36.5 -14.5z" />
    <glyph glyph-name="dotlessi" unicode="&#x131;" horiz-adv-x="254" 
d="M134 480h72l-87 -480h-72z" />
    <glyph glyph-name="IJ" unicode="&#x132;" horiz-adv-x="545" 
d="M228 -190q-22 0 -38.5 4t-21.5 7l27 66q5 -2 13.5 -4.5t22.5 -2.5q78 0 99 118l119 668h76l-121 -680q-15 -86 -58.5 -131t-117.5 -45zM174 666h77l-119 -666h-77z" />
    <glyph glyph-name="ij" unicode="&#x133;" horiz-adv-x="511" 
d="M153 -229q-26 0 -48 5t-41 12.5t-33 16t-23 15.5l39 57q19 -14 45.5 -28t68.5 -14q72 0 109 44.5t51 121.5l8 43q5 27 13 61t15 57h-2q-14 -26 -32.5 -56.5t-43.5 -56.5t-57 -43.5t-72 -17.5q-51 0 -76 30.5t-25 84.5q0 11 1.5 23t3.5 26l60 328h72l-57 -321
q-2 -13 -3.5 -23.5t-1.5 -20.5q0 -62 49 -62q28 0 59.5 21t61.5 64.5t56 109.5t42 155l14 77h72l-88 -481q-11 -61 -30.5 -104t-48.5 -70.5t-68 -40.5t-90 -13zM173 572q-21 0 -37 15.5t-16 37.5t16 37.5t37 15.5q22 0 37.5 -15.5t15.5 -37.5t-15.5 -37.5t-37.5 -15.5z
M465 572q-21 0 -37 15.5t-16 37.5t16 37.5t37 15.5q22 0 37.5 -15.5t15.5 -37.5t-15.5 -37.5t-37.5 -15.5z" />
    <glyph glyph-name="Lslash" unicode="&#x141;" horiz-adv-x="478" 
d="M119 281l-84 -58l-24 42l120 84l57 317h76l-45 -256l121 84l27 -43l-160 -110l-49 -275h256l-11 -66h-334z" />
    <glyph glyph-name="lslash" unicode="&#x142;" horiz-adv-x="250" 
d="M140 279l-77 -55l12 68l77 55l66 373h73q-16 -88 -28 -157q-5 -29 -10 -57.5t-9 -50.5q-4 -26 -8 -49l92 66l-12 -69l-92 -65l-60 -338h-73z" />
    <glyph glyph-name="OE" unicode="&#x152;" horiz-adv-x="863" 
d="M338 -12q-68 0 -119.5 23t-87 62.5t-53.5 91.5t-18 110q0 74 26 146.5t74 129.5t115.5 92t151.5 35q32 0 60 -2t54 -10h331l-12 -66h-258l-39 -214h228l-12 -66h-227l-45 -254h265l-12 -66h-330q-44 -12 -92 -12zM342 53q47 0 88 15l94 528q-22 10 -47.5 13.5t-54.5 3.5
q-67 0 -119.5 -28.5t-88.5 -75.5t-55 -108t-19 -125q0 -47 13 -87.5t38.5 -70.5t63 -47.5t87.5 -17.5z" />
    <glyph glyph-name="oe" unicode="&#x153;" horiz-adv-x="752" 
d="M199 -12q-46 0 -78.5 18t-52.5 46.5t-29.5 64t-9.5 70.5q0 56 18.5 110.5t51.5 98t78 70t99 26.5q60 0 98 -30t55 -76q38 51 85.5 78.5t101.5 27.5t90.5 -27t36.5 -82q0 -45 -26.5 -77.5t-70 -55t-100 -36.5t-115.5 -21v-23q0 -57 23.5 -87.5t70.5 -30.5q40 0 72.5 19
t52.5 40l42 -49q-11 -11 -27.5 -24t-38.5 -24t-49.5 -18.5t-60.5 -7.5q-56 0 -91 26.5t-52 68.5q-32 -44 -76.5 -69.5t-97.5 -25.5zM204 48q38 0 69 21.5t53.5 56t35 76t12.5 82.5q0 72 -26 110t-77 38q-38 0 -69.5 -22t-54 -57t-35 -78.5t-12.5 -85.5q0 -64 26 -102.5
t78 -38.5zM605 428q-27 0 -53 -13.5t-48 -37.5t-39 -57t-26 -72q47 6 89 17t73 26.5t49 36.5t18 48q0 52 -63 52z" />
    <glyph glyph-name="Scaron" unicode="&#x160;" horiz-adv-x="453" 
d="M193 -12q-42 0 -75 8.5t-57.5 21t-41 26t-26.5 23.5l48 53q11 -10 24.5 -21.5t32 -21.5t43 -16.5t57.5 -6.5t56 9t37.5 25t21 36t6.5 43q0 24 -7.5 43.5t-21 37t-33 35.5t-43.5 39t-46 42.5t-39.5 44.5t-27.5 49t-10 57q0 40 14.5 70.5t40 51t60 31t74.5 10.5
q31 0 56.5 -5.5t45 -13t34 -17t24.5 -16.5l-40 -59q-10 8 -21.5 16t-26 15t-33.5 11t-44 4q-55 0 -81.5 -26t-26.5 -72q0 -21 7 -38t20.5 -33.5t32 -33.5t41.5 -37q25 -22 48.5 -43.5t41 -45.5t28 -52t10.5 -63q0 -32 -11.5 -64.5t-36 -58.5t-63 -42t-92.5 -16zM172 878h61
l69 -89l99 89h69l-152 -153h-50z" />
    <glyph glyph-name="scaron" unicode="&#x161;" horiz-adv-x="354" 
d="M135 -12q-54 0 -89.5 17.5t-52.5 32.5l39 52q19 -15 44.5 -28.5t65.5 -13.5q38 0 59.5 19t21.5 49t-20.5 54.5t-57.5 62.5q-17 18 -31 34t-24 32t-15 33t-5 37q0 57 41 90t110 33q40 0 67 -10t46 -24l-37 -54q-11 8 -31 17.5t-55 9.5q-33 0 -52.5 -15t-19.5 -43
q0 -13 4 -24t12 -22.5t20 -24.5t29 -31q21 -23 38 -41t28 -35.5t17 -36t6 -42.5q0 -26 -10 -49t-30 -40.5t-49.5 -28t-68.5 -10.5zM107 692h61l69 -89l99 89h69l-152 -153h-50z" />
    <glyph glyph-name="Ydieresis" unicode="&#x178;" horiz-adv-x="544" 
d="M240 251l-150 415h80l120 -342h1l227 342h81l-282 -416l-45 -250h-77zM263 727q-21 0 -35.5 14.5t-14.5 36.5q0 21 14.5 35.5t35.5 14.5q23 0 37 -14.5t14 -35.5q0 -22 -14.5 -36.5t-36.5 -14.5zM446 727q-21 0 -35.5 14.5t-14.5 36.5q0 21 14.5 35.5t35.5 14.5
q23 0 37 -14.5t14 -35.5q0 -22 -14.5 -36.5t-36.5 -14.5z" />
    <glyph glyph-name="Zcaron" unicode="&#x17d;" horiz-adv-x="515" 
d="M-6 55l447 547h-333l12 64h430l-10 -51l-452 -551h367l-12 -64h-459zM216 878h61l69 -89l99 89h69l-152 -153h-50z" />
    <glyph glyph-name="zcaron" unicode="&#x17e;" horiz-adv-x="412" 
d="M-1 46l307 375h-232l10 59h324l-8 -49l-308 -372h256l-10 -59h-347zM136 692h61l69 -89l99 89h69l-152 -153h-50z" />
    <glyph glyph-name="florin" unicode="&#x192;" horiz-adv-x="435" 
d="M-10 -188q-35 0 -54 6t-31 14l34 59q7 -4 19.5 -9.5t35.5 -5.5q30 0 53 11t40 29.5t28.5 42.5t19.5 50l103 359h-103l18 58h102l37 129q24 85 79.5 131t140.5 46q39 0 63 -9t40 -20l-39 -59q-10 8 -32 16t-52 8q-58 0 -88 -36t-48 -97l-31 -109h112l-20 -58h-108
l-106 -368q-12 -40 -30.5 -74.5t-44.5 -59.5t-60.5 -39.5t-77.5 -14.5z" />
    <glyph glyph-name="circumflex" unicode="&#x2c6;" 
d="M304 694h50l92 -153h-61l-65 89l-94 -89h-69z" />
    <glyph glyph-name="caron" unicode="&#x2c7;" 
d="M180 692h61l69 -89l99 89h69l-152 -153h-50z" />
    <glyph glyph-name="breve" unicode="&#x2d8;" 
d="M310 536q-54 0 -89 31.5t-35 94.5q0 4 0.5 8t0.5 8h61q0 -3 -0.5 -6t-0.5 -6q0 -32 15.5 -52t50.5 -20q32 0 56.5 22.5t32.5 61.5h64q-8 -38 -25 -64.5t-38.5 -44t-46 -25.5t-46.5 -8z" />
    <glyph glyph-name="dotaccent" unicode="&#x2d9;" 
d="M315 563q-23 0 -39 17t-16 40q0 24 16 41t39 17t39.5 -16.5t16.5 -40.5t-16.5 -41t-39.5 -17z" />
    <glyph glyph-name="ring" unicode="&#x2da;" 
d="M320 545q-19 0 -36 7t-30 19t-20.5 29.5t-7.5 38.5t7.5 38.5t20.5 30.5t30 20t36 7t36 -7t30 -19.5t20.5 -30t7.5 -38.5t-7.5 -38.5t-20.5 -30t-30 -19.5t-36 -7zM320 585q23 0 36 16t13 39q0 24 -13 39.5t-36 15.5q-24 0 -36.5 -15.5t-12.5 -39.5q0 -23 12.5 -39
t36.5 -16z" />
    <glyph glyph-name="ogonek" unicode="&#x2db;" 
d="M191 -219q-47 0 -68.5 22t-21.5 54q0 22 8.5 43t21 39t28 33.5t30.5 27.5h50q-11 -12 -24 -26t-24 -30.5t-18.5 -35.5t-7.5 -39q0 -38 43 -38q24 0 44 7l7 -40q-11 -6 -30 -11.5t-38 -5.5z" />
    <glyph glyph-name="tilde" unicode="&#x2dc;" 
d="M355 543q-18 0 -30.5 6t-23.5 13.5t-22 13.5t-25 6q-17 0 -30.5 -10.5t-22.5 -18.5l-30 35q16 21 39.5 39.5t55.5 18.5q18 0 30.5 -6t23.5 -13.5t22 -13.5t25 -6q20 0 33.5 10t21.5 19l31 -34q-17 -21 -41 -40t-57 -19z" />
    <glyph glyph-name="hungarumlaut" unicode="&#x2dd;" 
d="M185 666h107l-151 -126h-65zM343 666h107l-151 -126h-65z" />
    <glyph glyph-name="uni0394" unicode="&#x394;" horiz-adv-x="605" 
d="M453 66l-83 393q-7 33 -12 66.5t-7 52.5h-2q-9 -20 -23.5 -53.5t-31.5 -65.5l-207 -393h366zM1 52l328 614h73l131 -614l-9 -52h-532z" />
    <glyph glyph-name="uni03A9" unicode="&#x3a9;" horiz-adv-x="736" 
d="M30 66h136q-45 39 -72.5 94.5t-27.5 123.5q0 86 29.5 158.5t79 125t114 81.5t134.5 29q56 0 106.5 -19.5t88 -55.5t59.5 -86.5t22 -112.5q0 -110 -52.5 -197t-141.5 -141h144l-12 -66h-236l11 64q42 23 79.5 55.5t66 74t45 92.5t16.5 110q0 44 -14.5 83.5t-41 69
t-63.5 47t-83 17.5q-61 0 -111 -26.5t-85.5 -71.5t-55 -104t-19.5 -123q0 -72 26 -127t77 -97l-11 -64h-220z" />
    <glyph glyph-name="uni03BC" unicode="&#x3bc;" horiz-adv-x="531" 
d="M139 480h72l-59 -328q-3 -18 -3 -33q0 -30 16 -47.5t54 -17.5q41 0 76.5 26.5t66.5 61.5l61 338h72l-69 -382q-5 -25 -6.5 -52t0.5 -46h-72q-2 14 -1 33t4 37q-12 -15 -26 -29q-15 -15 -33 -27t-41 -19t-51 -7q-26 0 -46 7.5t-31 19.5h-1q-2 -19 -6 -49.5t-8 -54.5
l-23 -129h-73z" />
    <glyph glyph-name="pi" unicode="&#x3c0;" horiz-adv-x="587" 
d="M414 -12q-48 0 -68.5 22t-20.5 60q0 8 1 16.5t3 18.5l57 317h-158q-21 -120 -46 -228t-51 -194h-71q30 97 55 203.5t45 218.5h-106l10 58h521l-10 -58h-117l-56 -310q-3 -18 -3 -31q0 -15 6 -22.5t21 -7.5q11 0 20 4t16 9l25 -49q-11 -10 -30.5 -18.5t-42.5 -8.5z" />
    <glyph glyph-name="uni2007" unicode="&#x2007;" horiz-adv-x="525" 
 />
    <glyph glyph-name="uni2008" unicode="&#x2008;" horiz-adv-x="216" 
 />
    <glyph glyph-name="uni200B" unicode="&#x200b;" horiz-adv-x="0" 
 />
    <glyph glyph-name="endash" unicode="&#x2013;" horiz-adv-x="561" 
d="M63 305h457l-11 -61h-457z" />
    <glyph glyph-name="emdash" unicode="&#x2014;" horiz-adv-x="868" 
d="M63 305h764l-11 -61h-764z" />
    <glyph glyph-name="quoteleft" unicode="&#x2018;" horiz-adv-x="190" 
d="M143 434q-23 0 -42 17t-19 49q0 28 12 56t29 52t37 44t36 32l29 -26q-19 -18 -37 -42t-18 -50q0 -12 4 -20.5t9.5 -17t9.5 -17.5t4 -23q0 -23 -15.5 -38.5t-38.5 -15.5z" />
    <glyph glyph-name="quoteright" unicode="&#x2019;" horiz-adv-x="190" 
d="M76 454q19 18 37 42t18 50q0 12 -4 20.5t-9.5 17t-9.5 17.5t-4 23q0 23 15.5 38.5t38.5 15.5t42 -17t19 -49q0 -29 -12 -56.5t-29 -51.5t-37 -44t-36 -32z" />
    <glyph glyph-name="quotesinglbase" unicode="&#x201a;" horiz-adv-x="190" 
d="M-26 -115q19 18 37 42t18 50q0 12 -4 20.5t-9.5 17t-9.5 17.5t-4 23q0 23 15.5 38.5t38.5 15.5t42 -17t19 -49q0 -29 -12 -56.5t-29 -51.5t-37 -44t-36 -32z" />
    <glyph glyph-name="quotedblleft" unicode="&#x201c;" horiz-adv-x="358" 
d="M143 434q-23 0 -42 17t-19 49q0 28 12 56t29 52t37 44t36 32l29 -26q-19 -18 -37 -42t-18 -50q0 -12 4 -20.5t9.5 -17t9.5 -17.5t4 -23q0 -23 -15.5 -38.5t-38.5 -15.5zM311 434q-23 0 -42 17t-19 49q0 28 12 56t29 52t37 44t36 32l29 -26q-19 -18 -37 -42t-18 -50
q0 -12 4 -20.5t9.5 -17t9.5 -17.5t4 -23q0 -23 -15.5 -38.5t-38.5 -15.5z" />
    <glyph glyph-name="quotedblright" unicode="&#x201d;" horiz-adv-x="358" 
d="M76 454q19 18 37 42t18 50q0 12 -4 20.5t-9.5 17t-9.5 17.5t-4 23q0 23 15.5 38.5t38.5 15.5t42 -17t19 -49q0 -29 -12 -56.5t-29 -51.5t-37 -44t-36 -32zM244 454q19 18 37 42t18 50q0 12 -4 20.5t-9.5 17t-9.5 17.5t-4 23q0 23 15.5 38.5t38.5 15.5t42 -17t19 -49
q0 -29 -12 -56.5t-29 -51.5t-37 -44t-36 -32z" />
    <glyph glyph-name="quotedblbase" unicode="&#x201e;" horiz-adv-x="358" 
d="M-26 -115q19 18 37 42t18 50q0 12 -4 20.5t-9.5 17t-9.5 17.5t-4 23q0 23 15.5 38.5t38.5 15.5t42 -17t19 -49q0 -29 -12 -56.5t-29 -51.5t-37 -44t-36 -32zM142 -115q19 18 37 42t18 50q0 12 -4 20.5t-9.5 17t-9.5 17.5t-4 23q0 23 15.5 38.5t38.5 15.5t42 -17t19 -49
q0 -29 -12 -56.5t-29 -51.5t-37 -44t-36 -32z" />
    <glyph glyph-name="dagger" unicode="&#x2020;" horiz-adv-x="528" 
d="M227 276l41 142l-81 -8h-109l12 70h109l78 -8l7 111l24 137h79l-24 -137l-33 -111l84 8h107l-12 -70h-107l-81 8l-10 -142l-98 -446h-48z" />
    <glyph glyph-name="daggerdbl" unicode="&#x2021;" horiz-adv-x="539" 
d="M178 -31l34 111l-84 -8h-110l13 70h110l81 -8l10 142l42 142l-83 -8h-110l13 70h110l80 -8l8 111l25 137h81l-25 -137l-34 -111l84 8h110l-13 -70h-110l-81 8l-11 -142l-42 -142l84 8h110l-13 -70h-110l-80 8l-8 -111l-26 -137h-80z" />
    <glyph glyph-name="bullet" unicode="&#x2022;" horiz-adv-x="355" 
d="M177 162q-26 0 -48 9.5t-38.5 26.5t-26 39.5t-9.5 48.5t9.5 48.5t26 39.5t38.5 27t48 10t48.5 -10t39 -27t26 -39.5t9.5 -48.5t-9.5 -48.5t-26 -39.5t-39 -26.5t-48.5 -9.5z" />
    <glyph glyph-name="ellipsis" unicode="&#x2026;" horiz-adv-x="615" 
d="M78 -9q-26 0 -42.5 17.5t-16.5 41.5t16.5 41t42.5 17q24 0 41.5 -17t17.5 -41t-17.5 -41.5t-41.5 -17.5zM278 -9q-25 0 -41.5 17.5t-16.5 41.5t16.5 41t41.5 17t42 -17t17 -41t-17 -41.5t-42 -17.5zM479 -9q-25 0 -42 17.5t-17 41.5t17 41t42 17q24 0 41.5 -17t17.5 -41
t-17.5 -41.5t-41.5 -17.5z" />
    <glyph glyph-name="perthousand" unicode="&#x2030;" horiz-adv-x="1029" 
d="M163 213q-28 0 -49.5 9.5t-36.5 26t-23 38.5t-8 46q0 30 11.5 59t31.5 51t48.5 35.5t61.5 13.5q60 0 89 -33t29 -85q0 -32 -11.5 -61t-32 -51.5t-49 -35.5t-61.5 -13zM168 261q39 0 63.5 31t24.5 79q0 35 -15.5 54t-45.5 19q-39 0 -63.5 -29t-24.5 -77q0 -77 61 -77z
M508 -12q-28 0 -49.5 9.5t-36.5 26t-23 38.5t-8 46q0 30 11.5 59t31.5 51t48.5 35.5t61.5 13.5q60 0 89 -33t29 -85q0 -32 -11.5 -61t-32 -51.5t-49 -35.5t-61.5 -13zM513 36q39 0 63.5 31t24.5 79q0 35 -15.5 54t-45.5 19q-39 0 -63.5 -29t-24.5 -77q0 -77 61 -77zM828 -12
q-28 0 -49.5 9.5t-36.5 26t-23 38.5t-8 46q0 30 11.5 59t31.5 51t48.5 35.5t61.5 13.5q60 0 89 -33t29 -85q0 -32 -11.5 -61t-32 -51.5t-49 -35.5t-61.5 -13zM833 36q39 0 63.5 31t24.5 79q0 35 -15.5 54t-45.5 19q-39 0 -63.5 -29t-24.5 -77q0 -77 61 -77zM510 480h61
l-369 -480h-61z" />
    <glyph glyph-name="guilsinglleft" unicode="&#x2039;" horiz-adv-x="272" 
d="M30 245l167 190h80l-171 -196l96 -183h-72z" />
    <glyph glyph-name="guilsinglright" unicode="&#x203a;" horiz-adv-x="272" 
d="M166 251l-96 184h72l100 -191l-163 -188h-80z" />
    <glyph glyph-name="fraction" unicode="&#x2044;" horiz-adv-x="106" 
d="M302 666h68l-528 -666h-68z" />
    <glyph glyph-name="uni2070" unicode="&#x2070;" horiz-adv-x="386" 
d="M214 336q-33 0 -56 10.5t-37.5 27.5t-21 40t-6.5 49q0 36 10.5 73t32.5 67t55.5 49.5t79.5 19.5q33 0 56 -10t38 -27.5t21.5 -40t6.5 -47.5q0 -39 -11 -76.5t-33 -67.5t-55.5 -48.5t-79.5 -18.5zM220 386q27 0 47 13.5t33.5 36t20 51.5t6.5 61q0 34 -15.5 54t-46.5 20
q-28 0 -48.5 -14t-33.5 -36.5t-19 -51t-6 -58.5q0 -35 16 -55.5t46 -20.5z" />
    <glyph glyph-name="uni2074" unicode="&#x2074;" horiz-adv-x="306" 
d="M209 410h-174l8 42l221 214h57l-41 -207h54l-10 -49h-53l-14 -68h-61zM115 457q6 1 16.5 1.5t24.5 0.5h63l24 123h-1z" />
    <glyph glyph-name="uni2075" unicode="&#x2075;" horiz-adv-x="286" 
d="M108 336q-20 0 -34 2t-23 5l16 51q17 -7 47 -7q46 0 75.5 16.5t29.5 49.5q0 26 -27.5 37.5t-64.5 11.5q-25 0 -37 -3l37 167h182l-9 -51h-129l-14 -64q27 -2 50 -8.5t40.5 -18t27.5 -28t10 -37.5q0 -60 -46 -91.5t-131 -31.5z" />
    <glyph glyph-name="uni2076" unicode="&#x2076;" horiz-adv-x="324" 
d="M193 336q-33 0 -55.5 9.5t-36.5 25.5t-20 36.5t-6 42.5q0 49 20 90t55 70t83.5 45.5t104.5 16.5l8 -49q-68 -1 -117 -25t-78 -78q14 11 37 17t46 6q45 0 70.5 -22.5t25.5 -62.5q0 -27 -10 -49t-28.5 -38.5t-43.5 -25.5t-55 -9zM195 384q32 0 52 20t20 48q0 21 -15.5 32
t-37.5 11q-46 0 -74 -22q-1 -8 -1 -13v-14q0 -29 15.5 -45.5t40.5 -16.5z" />
    <glyph glyph-name="uni2077" unicode="&#x2077;" horiz-adv-x="282" 
d="M81 351l162 262h-158l10 53h230l-7 -35l-188 -303z" />
    <glyph glyph-name="uni2078" unicode="&#x2078;" horiz-adv-x="320" 
d="M181 336q-56 0 -86 22t-30 54q0 35 24.5 58.5t64.5 40.5q-20 13 -32.5 29.5t-12.5 38.5q0 21 10.5 38.5t28 29.5t40.5 18.5t49 6.5q51 0 79.5 -19t28.5 -53q0 -30 -23.5 -51.5t-58.5 -36.5q25 -14 41.5 -31.5t16.5 -43.5q0 -43 -36 -72t-104 -29zM186 383q28 0 49 13
t21 33q0 17 -16 29t-40 25q-29 -12 -50 -26t-21 -37q0 -15 15.5 -26t41.5 -11zM215 539q26 11 46.5 23.5t20.5 30.5q0 14 -13.5 23t-36.5 9q-24 0 -42.5 -11t-18.5 -30q0 -14 13.5 -24.5t30.5 -20.5z" />
    <glyph glyph-name="uni2079" unicode="&#x2079;" horiz-adv-x="328" 
d="M74 383q30 0 60 6t55.5 18.5t45.5 32t32 47.5q-16 -11 -38.5 -16.5t-42.5 -5.5q-45 0 -71 23t-26 63q0 27 11.5 49.5t30.5 38.5t44.5 24.5t52.5 8.5q33 0 55 -9.5t35.5 -25.5t19.5 -36t6 -42q0 -48 -16.5 -89t-49.5 -71.5t-81.5 -48t-112.5 -17.5zM208 513q20 0 39 5.5
t33 16.5q2 6 2 13v14q0 29 -16.5 45.5t-41.5 16.5q-31 0 -51.5 -21t-20.5 -47q0 -22 16.5 -32.5t39.5 -10.5z" />
    <glyph glyph-name="uni207A" unicode="&#x207a;" horiz-adv-x="330" 
d="M186 483h-100l10 47h99l17 85h50l-17 -85h99l-10 -47h-99l-18 -87h-49z" />
    <glyph glyph-name="uni207B" unicode="&#x207b;" horiz-adv-x="308" 
d="M103 531h207l-11 -48h-207z" />
    <glyph glyph-name="uni207D" unicode="&#x207d;" horiz-adv-x="200" 
d="M143 288q-9 10 -20 26t-20.5 37t-16.5 46t-7 54q0 55 17 99t40.5 77.5t48.5 56.5t42 36h63q-16 -13 -41 -36t-48.5 -57t-40.5 -78t-17 -98q0 -29 6 -54t15 -46t19 -37t18 -26h-58z" />
    <glyph glyph-name="uni207E" unicode="&#x207e;" horiz-adv-x="200" 
d="M11 288q16 13 41 36t48.5 57t40.5 78t17 98q0 28 -6 53.5t-15 46.5t-19 37t-18 26h58q9 -10 20 -26t20.5 -37t16.5 -46.5t7 -53.5q0 -55 -17 -99t-40.5 -77.5t-49 -56.5t-41.5 -36h-63z" />
    <glyph glyph-name="uni2080" unicode="&#x2080;" horiz-adv-x="386" 
d="M152 -206q-33 0 -56 10.5t-37.5 27.5t-21 40t-6.5 49q0 36 10.5 73t32.5 67t55.5 49.5t79.5 19.5q33 0 56 -10t38 -27.5t21.5 -40t6.5 -47.5q0 -39 -11 -76.5t-33 -67.5t-55.5 -48.5t-79.5 -18.5zM158 -156q27 0 47 13.5t33.5 36t20 51.5t6.5 61q0 34 -15.5 54t-46.5 20
q-28 0 -48.5 -14t-33.5 -36.5t-19 -51t-6 -58.5q0 -35 16 -55.5t46 -20.5z" />
    <glyph glyph-name="uni2081" unicode="&#x2081;" horiz-adv-x="244" 
d="M118 72l-87 -24l-14 48l118 28h55l-64 -324h-62z" />
    <glyph glyph-name="uni2082" unicode="&#x2082;" horiz-adv-x="322" 
d="M-9 -166q42 30 80.5 57t67.5 52.5t46 49.5t17 48q0 20 -15.5 29t-35.5 9q-24 0 -45.5 -9.5t-38.5 -22.5l-30 40q20 16 51 29.5t72 13.5q56 0 83.5 -22t27.5 -57q0 -28 -15 -54t-40 -51t-57.5 -49t-66.5 -48q7 0 14 1q6 0 13.5 0.5t15.5 0.5h116l-11 -51h-255z" />
    <glyph glyph-name="uni2083" unicode="&#x2083;" horiz-adv-x="292" 
d="M51 -206q-20 0 -37.5 3t-25.5 6l19 50q8 -3 20.5 -5.5t28.5 -2.5q44 0 73.5 14.5t29.5 44.5q0 24 -28.5 35t-73.5 9l8 43q50 3 82 18t32 40q0 14 -13.5 22t-34.5 8q-22 0 -39.5 -6t-31.5 -14l-25 40q17 11 45.5 21t63.5 10q52 0 76 -19t24 -47q0 -36 -27 -57t-63 -30v-1
q28 -5 50 -22t22 -46q0 -54 -45 -84t-130 -30z" />
    <glyph glyph-name="uni2084" unicode="&#x2084;" horiz-adv-x="306" 
d="M147 -132h-174l8 42l221 214h57l-41 -207h54l-10 -49h-53l-14 -68h-61zM53 -85q6 1 16.5 1.5t24.5 0.5h63l24 123h-1z" />
    <glyph glyph-name="uni2085" unicode="&#x2085;" horiz-adv-x="286" 
d="M46 -206q-20 0 -34 2t-23 5l16 51q17 -7 47 -7q46 0 75.5 16.5t29.5 49.5q0 26 -27.5 37.5t-64.5 11.5q-25 0 -37 -3l37 167h182l-9 -51h-129l-14 -64q27 -2 50 -8.5t40.5 -18t27.5 -28t10 -37.5q0 -60 -46 -91.5t-131 -31.5z" />
    <glyph glyph-name="uni2086" unicode="&#x2086;" horiz-adv-x="324" 
d="M131 -206q-33 0 -55.5 9.5t-36.5 25.5t-20 36.5t-6 42.5q0 49 20 90t55 70t83.5 45.5t104.5 16.5l8 -49q-68 -1 -117 -25t-78 -78q14 11 37 17t46 6q45 0 70.5 -22.5t25.5 -62.5q0 -27 -10 -49t-28.5 -38.5t-43.5 -25.5t-55 -9zM133 -158q32 0 52 20t20 48q0 21 -15.5 32
t-37.5 11q-46 0 -74 -22q-1 -8 -1 -13v-14q0 -29 15.5 -45.5t40.5 -16.5z" />
    <glyph glyph-name="uni2087" unicode="&#x2087;" horiz-adv-x="282" 
d="M19 -191l162 262h-158l10 53h230l-7 -35l-188 -303z" />
    <glyph glyph-name="uni2088" unicode="&#x2088;" horiz-adv-x="320" 
d="M119 -206q-56 0 -86 22t-30 54q0 35 24.5 58.5t64.5 40.5q-20 13 -32.5 29.5t-12.5 38.5q0 21 10.5 38.5t28 29.5t40.5 18.5t49 6.5q51 0 79.5 -19t28.5 -53q0 -30 -23.5 -51.5t-58.5 -36.5q25 -14 41.5 -31.5t16.5 -43.5q0 -43 -36 -72t-104 -29zM124 -159q28 0 49 13
t21 33q0 17 -16 29t-40 25q-29 -12 -50 -26t-21 -37q0 -15 15.5 -26t41.5 -11zM153 -3q26 11 46.5 23.5t20.5 30.5q0 14 -13.5 23t-36.5 9q-24 0 -42.5 -11t-18.5 -30q0 -14 13.5 -24.5t30.5 -20.5z" />
    <glyph glyph-name="uni2089" unicode="&#x2089;" horiz-adv-x="328" 
d="M12 -159q30 0 60 6t55.5 18.5t45.5 32t32 47.5q-16 -11 -38.5 -16.5t-42.5 -5.5q-45 0 -71 23t-26 63q0 27 11.5 49.5t30.5 38.5t44.5 24.5t52.5 8.5q33 0 55 -9.5t35.5 -25.5t19.5 -36t6 -42q0 -48 -16.5 -89t-49.5 -71.5t-81.5 -48t-112.5 -17.5zM146 -29q20 0 39 5.5
t33 16.5q2 6 2 13v14q0 29 -16.5 45.5t-41.5 16.5q-31 0 -51.5 -21t-20.5 -47q0 -22 16.5 -32.5t39.5 -10.5z" />
    <glyph glyph-name="colonmonetary" unicode="&#x20a1;" horiz-adv-x="524" 
d="M481 784l-22 -111q32 -5 54.5 -15t39.5 -21l-39 -58q-13 8 -29.5 15.5t-38.5 12.5l-107 -549q30 5 53.5 16t41.5 22l25 -58q-23 -16 -55 -29t-78 -18l-21 -110h-50l21 109q-28 2 -48 7l-22 -116h-51l26 134q-57 31 -87.5 93t-30.5 149q0 66 16 130.5t47 119t76.5 95.5
t105.5 60l24 122h50l-22 -110q21 3 44 3h6l21 107h50zM141 261q0 -54 14 -96t42 -70l95 488q-37 -22 -65 -58t-47 -79t-29 -91t-10 -94zM242 66q11 -5 22.5 -7t24.5 -4l108 557q-26 0 -50 -6z" />
    <glyph glyph-name="Euro" unicode="&#x20ac;" horiz-adv-x="545" 
d="M327 -12q-56 0 -97.5 19t-69 52t-43 76t-18.5 91h-79l10 58h69q1 21 3.5 41.5t6.5 40.5h-64l10 58h69q18 56 48 103t70.5 80.5t89 52t104.5 18.5q33 0 56.5 -3.5t41 -9t30 -12.5t23.5 -15l-40 -59q-17 11 -43 22.5t-76 11.5q-41 0 -75.5 -14t-63 -38.5t-50 -59.5
t-35.5 -77h179l-10 -58h-185q-4 -20 -6.5 -40.5t-3.5 -41.5h180l-10 -58h-170q3 -38 13 -69.5t29 -54.5t47.5 -35.5t67.5 -12.5q44 0 77 14t53 26l27 -60q-23 -14 -62.5 -30t-102.5 -16z" />
    <glyph glyph-name="uni2117" unicode="&#x2117;" horiz-adv-x="825" 
d="M432 -14q-77 0 -144.5 29.5t-118 80t-80 118.5t-29.5 145t29.5 145t80 118.5t118 80t144.5 29.5t145 -29.5t118.5 -80t80 -118.5t29.5 -145t-29.5 -145t-80 -118.5t-118.5 -80t-145 -29.5zM432 38q68 0 126 24t100.5 66.5t66.5 101.5t24 129t-24 128.5t-66.5 101.5
t-100.5 67t-126 24t-126 -24t-100 -67t-66 -101.5t-24 -128.5t24 -129t66 -101.5t100 -66.5t126 -24zM310 588h147q34 0 60 -11.5t43.5 -30.5t26.5 -43.5t9 -49.5q0 -26 -9.5 -50t-29.5 -43t-52 -30t-77 -11h-53v-183h-65v452zM424 370q50 0 76 19.5t26 61.5
q0 40 -19.5 60.5t-64.5 20.5h-67v-162h49z" />
    <glyph glyph-name="trademark" unicode="&#x2122;" horiz-adv-x="657" 
d="M373 666h55l36 -171q2 -11 3.5 -22t2.5 -20q1 -11 2 -21h2q4 9 9 20q5 9 10 20.5t12 23.5l94 170h63l-20 -291h-52l14 165l2 22q1 11 3 21q2 11 3 22h-2l-10 -22q-5 -10 -11 -23t-14 -27l-91 -158h-43l-31 150q-3 14 -5 27.5t-4 25.5q-2 13 -3 27h-2q-1 -8 -3 -19
q-3 -17 -11 -48l-43 -163h-48zM166 621h-83l7 45h217l-8 -45h-80l-43 -246h-53z" />
    <glyph glyph-name="Omega" unicode="&#x2126;" horiz-adv-x="686" 
d="M-1 61h143q-48 35 -75 96t-27 136q0 82 32 152.5t84.5 122t119 81t135.5 29.5q52 0 98.5 -17.5t81.5 -51t56 -81.5t21 -108q0 -53 -16.5 -106.5t-44.5 -101t-65.5 -87t-79.5 -64.5h144l-11 -61h-220l11 64q51 31 89 71.5t63.5 85.5t38.5 92.5t13 94.5q0 44 -14 81.5
t-39.5 65t-60.5 43t-77 15.5q-59 0 -110.5 -27t-89.5 -72.5t-60.5 -105t-22.5 -125.5q0 -137 103 -219l-11 -64h-220z" />
    <glyph glyph-name="partialdiff" unicode="&#x2202;" horiz-adv-x="600" 
d="M247 -12q-39 0 -73.5 13.5t-60 37.5t-40 57t-14.5 72q0 50 20.5 95.5t55 80t80 55t94.5 20.5q27 0 55 -3.5t54 -9.5t47 -15t34 -19q6 31 6 58q0 56 -19.5 96t-53 65.5t-78.5 37.5t-95 12l32 61h7q64 0 116 -16.5t89 -50t57 -83.5t20 -117q0 -45 -10.5 -95.5t-30 -100
t-48.5 -95t-66 -80.5t-81.5 -55.5t-96.5 -20.5zM256 51q43 0 79 23t65.5 60.5t51 83.5t34.5 93q-12 10 -32.5 18.5t-44.5 14.5t-50 9.5t-50 3.5q-36 0 -67.5 -14.5t-55 -39t-37 -57t-13.5 -68.5q0 -57 32 -92t88 -35z" />
    <glyph glyph-name="Delta" unicode="&#x2206;" horiz-adv-x="657" 
d="M370 700h64l162 -700h-634zM508 66l-123 536l-311 -536h434z" />
    <glyph glyph-name="product" unicode="&#x220f;" horiz-adv-x="673" 
d="M169 639h-109l10 61h698l-10 -61h-109l-152 -863h-75l152 863h-330l-152 -863h-75z" />
    <glyph glyph-name="summation" unicode="&#x2211;" horiz-adv-x="480" 
d="M-91 -91l354 431l-194 381l9 56h482l-11 -66h-399l191 -368l-347 -424h430l-11 -66h-513z" />
    <glyph glyph-name="minus" unicode="&#x2212;" horiz-adv-x="550" 
d="M140 308h369l-11 -63h-369z" />
    <glyph glyph-name="uni2219" unicode="&#x2219;" horiz-adv-x="235" 
d="M118 234q-24 0 -41 17t-17 40t17 40t41 17q23 0 40 -17t17 -40t-17 -40t-40 -17z" />
    <glyph glyph-name="radical" unicode="&#x221a;" horiz-adv-x="516" 
d="M63 480h72l74 -392h1l304 632h77l-359 -720h-69z" />
    <glyph glyph-name="infinity" unicode="&#x221e;" horiz-adv-x="820" 
d="M154 109q-66 0 -106.5 33.5t-40.5 89.5q0 37 17.5 70t46 57.5t65.5 39t76 14.5q25 0 48.5 -6.5t48.5 -20.5t52.5 -35t59.5 -50q86 59 144.5 85.5t103.5 26.5q31 0 58 -9t46.5 -25t30.5 -38.5t11 -49.5q0 -37 -17 -70t-45.5 -58t-65.5 -39.5t-78 -14.5q-42 0 -91 24.5
t-116 86.5q-49 -33 -85 -54t-64.5 -34t-51.5 -18t-47 -5zM171 168q27 0 71.5 20.5t118.5 70.5q-29 26 -52 44t-42 29t-35.5 16t-32.5 5q-23 0 -45.5 -8.5t-39.5 -23t-27.5 -34t-10.5 -40.5q0 -37 27.5 -58t67.5 -21zM624 168q24 0 46 8.5t39 23t27.5 34t10.5 41.5
q0 35 -26 56.5t-70 21.5q-30 0 -74 -21.5t-115 -69.5q31 -27 55 -45t43 -29t34.5 -15.5t29.5 -4.5z" />
    <glyph glyph-name="integral" unicode="&#x222b;" horiz-adv-x="275" 
d="M-139 -235q-15 0 -38 6.5t-37 11.5l33 61q11 -5 29.5 -9t32.5 -4q30 0 52 11.5t38 31.5t26 46.5t15 55.5l101 575q7 39 24.5 73.5t45 60t64.5 40.5t84 15q20 0 40 -6t34 -13l-37 -60q-10 5 -26 9t-31 4q-28 0 -50 -12t-38 -31.5t-26.5 -45.5t-15.5 -54l-102 -577
q-7 -39 -24 -73.5t-44.5 -60t-65 -40.5t-84.5 -15z" />
    <glyph glyph-name="approxequal" unicode="&#x2248;" horiz-adv-x="551" 
d="M31 188q30 23 67 39t74 16q34 0 56.5 -9t42 -20t40 -20t49.5 -9q25 0 55 11.5t55 29.5l18 -52q-32 -26 -71 -40t-75 -14q-34 0 -57 9t-43 20t-40 20t-48 9q-27 0 -53 -11t-50 -29zM58 341q26 21 63.5 38t77.5 17q34 0 56.5 -9t42 -20t40 -20t49.5 -9q25 0 55 11.5
t55 29.5l18 -52q-32 -26 -71 -40t-75 -14q-34 0 -57 9t-43 20t-40 20t-48 9q-26 0 -51.5 -10.5t-51.5 -29.5z" />
    <glyph glyph-name="notequal" unicode="&#x2260;" horiz-adv-x="539" 
d="M59 15l98 126h-156l10 57h191l84 107h-256l10 57h291l103 131l46 -29l-83 -102h144l-10 -57h-179l-84 -107h244l-10 -57h-279l-119 -153z" />
    <glyph glyph-name="lessequal" unicode="&#x2264;" horiz-adv-x="492" 
d="M15 224l9 51l470 205l-12 -67l-385 -164l327 -164l-12 -66zM-33 -50h433l-11 -64h-433z" />
    <glyph glyph-name="greaterequal" unicode="&#x2265;" horiz-adv-x="492" 
d="M9 85l385 164l-327 164l12 67l396 -205l-9 -51l-469 -205zM-15 -50h433l-11 -64h-433z" />
    <glyph glyph-name="dotmath" unicode="&#x22c5;" horiz-adv-x="235" 
d="M118 234q-24 0 -41 17t-17 40t17 40t41 17q23 0 40 -17t17 -40t-17 -40t-40 -17z" />
    <glyph glyph-name="lozenge" unicode="&#x25ca;" horiz-adv-x="521" 
d="M1 323l313 349h40l198 -330l-311 -347h-42zM468 338l-150 251l-233 -264l151 -252z" />
    <glyph glyph-name="parenleft.subs" horiz-adv-x="200" 
d="M81 -54q-9 10 -20 26t-20.5 37t-16.5 46t-7 54q0 55 17 99t40.5 77.5t48.5 56.5t42 36h63q-16 -13 -41 -36t-48.5 -57t-40.5 -78t-17 -98q0 -29 6 -54t15 -46t19 -37t18 -26h-58z" />
    <glyph glyph-name="parenright.subs" horiz-adv-x="200" 
d="M-51 -54q16 13 41 36t48.5 57t40.5 78t17 98q0 28 -6 53.5t-15 46.5t-19 37t-18 26h58q9 -10 20 -26t20.5 -37t16.5 -46.5t7 -53.5q0 -55 -17 -99t-40.5 -77.5t-49 -56.5t-41.5 -36h-63z" />
    <glyph glyph-name="plus.subs" horiz-adv-x="330" 
d="M124 141h-100l10 47h99l17 85h50l-17 -85h99l-10 -47h-99l-18 -87h-49z" />
    <glyph glyph-name="minus.subs" horiz-adv-x="308" 
d="M41 189h207l-11 -48h-207z" />
    <glyph glyph-name="zero.dnom" horiz-adv-x="386" 
d="M152 -6q-33 0 -56 10.5t-37.5 27.5t-21 40t-6.5 49q0 36 10.5 73t32.5 67t55.5 49.5t79.5 19.5q33 0 56 -10t38 -27.5t21.5 -40t6.5 -47.5q0 -39 -11 -76.5t-33 -67.5t-55.5 -48.5t-79.5 -18.5zM158 44q27 0 47 13.5t33.5 36t20 51.5t6.5 61q0 34 -15.5 54t-46.5 20
q-28 0 -48.5 -14t-33.5 -36.5t-19 -51t-6 -58.5q0 -35 16 -55.5t46 -20.5z" />
    <glyph glyph-name="one.dnom" horiz-adv-x="244" 
d="M118 272l-87 -24l-14 48l118 28h55l-64 -324h-62z" />
    <glyph glyph-name="two.dnom" horiz-adv-x="322" 
d="M-9 34q42 30 80.5 57t67.5 52.5t46 49.5t17 48q0 20 -15.5 29t-35.5 9q-24 0 -45.5 -9.5t-38.5 -22.5l-30 40q20 16 51 29.5t72 13.5q56 0 83.5 -22t27.5 -57q0 -28 -15 -54t-40 -51t-57.5 -49t-66.5 -48q7 0 14 1q6 0 13.5 0.5t15.5 0.5h116l-11 -51h-255z" />
    <glyph glyph-name="three.dnom" horiz-adv-x="292" 
d="M51 -6q-20 0 -37.5 3t-25.5 6l19 50q8 -3 20.5 -5.5t28.5 -2.5q44 0 73.5 14.5t29.5 44.5q0 24 -28.5 35t-73.5 9l8 43q50 3 82 18t32 40q0 14 -13.5 22t-34.5 8q-22 0 -39.5 -6t-31.5 -14l-25 40q17 11 45.5 21t63.5 10q52 0 76 -19t24 -47q0 -36 -27 -57t-63 -30v-1
q28 -5 50 -22t22 -46q0 -54 -45 -84t-130 -30z" />
    <glyph glyph-name="four.dnom" horiz-adv-x="306" 
d="M147 68h-174l8 42l221 214h57l-41 -207h54l-10 -49h-53l-14 -68h-61zM53 115q6 1 16.5 1.5t24.5 0.5h63l24 123h-1z" />
    <glyph glyph-name="five.dnom" horiz-adv-x="286" 
d="M46 -6q-20 0 -34 2t-23 5l16 51q17 -7 47 -7q46 0 75.5 16.5t29.5 49.5q0 26 -27.5 37.5t-64.5 11.5q-25 0 -37 -3l37 167h182l-9 -51h-129l-14 -64q27 -2 50 -8.5t40.5 -18t27.5 -28t10 -37.5q0 -60 -46 -91.5t-131 -31.5z" />
    <glyph glyph-name="six.dnom" horiz-adv-x="324" 
d="M131 -6q-33 0 -55.5 9.5t-36.5 25.5t-20 36.5t-6 42.5q0 49 20 90t55 70t83.5 45.5t104.5 16.5l8 -49q-68 -1 -117 -25t-78 -78q14 11 37 17t46 6q45 0 70.5 -22.5t25.5 -62.5q0 -27 -10 -49t-28.5 -38.5t-43.5 -25.5t-55 -9zM133 42q32 0 52 20t20 48q0 21 -15.5 32
t-37.5 11q-46 0 -74 -22q-1 -8 -1 -13v-14q0 -29 15.5 -45.5t40.5 -16.5z" />
    <glyph glyph-name="seven.dnom" horiz-adv-x="282" 
d="M19 9l162 262h-158l10 53h230l-7 -35l-188 -303z" />
    <glyph glyph-name="eight.dnom" horiz-adv-x="320" 
d="M119 -6q-56 0 -86 22t-30 54q0 35 24.5 58.5t64.5 40.5q-20 13 -32.5 29.5t-12.5 38.5q0 21 10.5 38.5t28 29.5t40.5 18.5t49 6.5q51 0 79.5 -19t28.5 -53q0 -30 -23.5 -51.5t-58.5 -36.5q25 -14 41.5 -31.5t16.5 -43.5q0 -43 -36 -72t-104 -29zM124 41q28 0 49 13t21 33
q0 17 -16 29t-40 25q-29 -12 -50 -26t-21 -37q0 -15 15.5 -26t41.5 -11zM153 197q26 11 46.5 23.5t20.5 30.5q0 14 -13.5 23t-36.5 9q-24 0 -42.5 -11t-18.5 -30q0 -14 13.5 -24.5t30.5 -20.5z" />
    <glyph glyph-name="nine.dnom" horiz-adv-x="328" 
d="M12 41q30 0 60 6t55.5 18.5t45.5 32t32 47.5q-16 -11 -38.5 -16.5t-42.5 -5.5q-45 0 -71 23t-26 63q0 27 11.5 49.5t30.5 38.5t44.5 24.5t52.5 8.5q33 0 55 -9.5t35.5 -25.5t19.5 -36t6 -42q0 -48 -16.5 -89t-49.5 -71.5t-81.5 -48t-112.5 -17.5zM146 171q20 0 39 5.5
t33 16.5q2 6 2 13v14q0 29 -16.5 45.5t-41.5 16.5q-31 0 -51.5 -21t-20.5 -47q0 -22 16.5 -32.5t39.5 -10.5z" />
    <glyph glyph-name="dollar.osf" horiz-adv-x="436" 
d="M140 -11q-45 6 -77 22t-50 32l41 56q5 -5 15.5 -13t26.5 -16t36.5 -14t46.5 -6q52 0 84.5 18.5t32.5 56.5q0 16 -7 28t-20 22.5t-31.5 21t-42.5 23.5q-28 15 -50 29.5t-37 31t-22.5 36t-7.5 45.5q0 27 11.5 49t32 38.5t47.5 27.5t59 14l19 102h71l-19 -104
q45 -5 71.5 -18t34.5 -19l-37 -56q-13 8 -42.5 20.5t-77.5 12.5q-43 0 -70.5 -17t-27.5 -48q0 -29 23 -48t61 -38q28 -14 53.5 -28t44.5 -31t30.5 -39t11.5 -51q0 -30 -12.5 -54t-34 -42t-51.5 -29t-65 -15l-20 -112h-71z" />
    <glyph glyph-name="zero.osf" horiz-adv-x="530" 
d="M231 -12q-48 0 -83 19t-57.5 49t-33.5 67.5t-11 74.5q0 57 19.5 110.5t54.5 94t83 65t104 24.5q51 0 86.5 -18.5t57.5 -47.5t31.5 -65.5t9.5 -73.5q0 -59 -19 -113t-53.5 -95.5t-82.5 -66t-106 -24.5zM238 49q41 0 74.5 19t57 51t36.5 75t13 90q0 28 -6 54.5t-19.5 47.5
t-36.5 33.5t-57 12.5q-39 0 -72 -18.5t-57 -50t-38 -73.5t-14 -88q0 -72 30.5 -112.5t88.5 -40.5z" />
    <glyph glyph-name="one.osf" horiz-adv-x="321" 
d="M186 410l-121 -36l-15 60l164 46h58l-88 -480h-73z" />
    <glyph glyph-name="two.osf" horiz-adv-x="449" 
d="M-2 33q75 51 135 94.5t102 82.5t64 76t22 76q0 32 -22 49t-60 17q-41 0 -73 -15.5t-55 -32.5l-35 47q29 23 72 44t97 21q69 0 110 -32.5t41 -91.5q0 -50 -29 -96t-70.5 -86t-88 -72.5t-80.5 -54.5q11 0 22 1q10 1 22 1.5t23 0.5h187l-10 -62h-378z" />
    <glyph glyph-name="three.osf" horiz-adv-x="439" 
d="M75 -188q-35 0 -56.5 4.5t-32.5 7.5l17 58q8 -2 27 -5.5t50 -3.5q42 0 78 11t62.5 31.5t41.5 50.5t15 68q0 34 -14 57t-37 36.5t-53.5 19.5t-64.5 6l8 55q34 0 69 9.5t64 28.5t47.5 46.5t18.5 62.5q0 31 -21.5 52t-64.5 21q-41 0 -68.5 -14t-52.5 -30l-35 48
q29 23 69 41.5t97 18.5q38 0 67 -10.5t48.5 -28.5t29 -41.5t9.5 -49.5q0 -34 -15 -63t-39 -51.5t-53.5 -39t-58.5 -24.5v-1q25 -5 48.5 -17t41.5 -30.5t29 -42.5t11 -53q0 -53 -23.5 -95t-62.5 -71.5t-90 -45.5t-106 -16z" />
    <glyph glyph-name="four.osf" horiz-adv-x="521" 
d="M286 0h-299l6 47l382 433h73l-78 -419h105l-10 -61h-106l-33 -177h-73zM298 61l59 311h-2l-272 -311h215z" />
    <glyph glyph-name="five.osf" horiz-adv-x="417" 
d="M73 -188q-36 0 -57 4.5t-32 7.5l17 58q8 -2 26.5 -5.5t50.5 -3.5q43 0 79.5 11.5t63 33.5t41 53.5t14.5 70.5q0 44 -14.5 72t-45.5 46q-27 17 -63.5 23t-81.5 4l56 293h288l-10 -59h-216l-36 -178q44 -4 81 -19t64 -40t42 -58.5t15 -75.5q0 -56 -21.5 -100t-59.5 -74.5
t-89.5 -47t-111.5 -16.5z" />
    <glyph glyph-name="six.osf" horiz-adv-x="521" 
d="M247 -12q-43 0 -78 16.5t-59.5 48t-37.5 76t-13 100.5q0 81 29.5 161t87.5 144t144 104t199 40l7 -61q-81 0 -147 -23.5t-117 -65.5q-88 -73 -117 -192q30 27 68 42.5t84 15.5q82 0 130.5 -44.5t48.5 -120.5q0 -50 -17 -94t-47.5 -76.5t-72.5 -51.5t-92 -19zM252 49
q36 0 64 14.5t47.5 38.5t30 56t10.5 67q0 49 -28.5 78.5t-88.5 29.5q-48 0 -84 -15t-69 -45q-1 -11 -1.5 -22.5t-0.5 -23.5q0 -83 30 -130.5t90 -47.5z" />
    <glyph glyph-name="seven.osf" horiz-adv-x="449" 
d="M-8 -167l365 583h-308l12 64h388l-8 -52l-390 -628z" />
    <glyph glyph-name="eight.osf" horiz-adv-x="487" 
d="M206 -12q-45 0 -78 13.5t-54.5 35.5t-32 49.5t-10.5 55.5q0 36 13 66.5t36 56t54.5 46t68.5 37.5q-46 35 -71.5 74.5t-25.5 77.5q0 40 16.5 73t43.5 56t62.5 36t74.5 13q43 0 74.5 -12t52.5 -31.5t31.5 -45t10.5 -51.5q0 -60 -39.5 -104.5t-115.5 -82.5q47 -33 79 -73
t32 -92q0 -43 -18.5 -79t-49.5 -62.5t-71 -41.5t-83 -15zM211 54q27 0 53 9t45.5 26t31.5 41t12 53q0 38 -25.5 68.5t-77.5 65.5q-31 -15 -57.5 -32.5t-46 -37.5t-30.5 -44.5t-11 -53.5q0 -44 29 -69.5t77 -25.5zM269 383q26 13 49 28.5t40.5 33.5t28 39t10.5 45
q0 34 -24 60t-75 26q-23 0 -44 -7t-37.5 -21t-26 -34t-9.5 -46q0 -38 25 -67.5t63 -56.5z" />
    <glyph glyph-name="nine.osf" horiz-adv-x="505" 
d="M-8 -126q74 0 136.5 20.5t112.5 58.5q43 34 74.5 79.5t48.5 102.5q-24 -18 -60 -33.5t-78 -15.5q-43 0 -75.5 13.5t-54.5 36.5t-33 54.5t-11 67.5q0 49 18 92t49 74.5t72 49.5t87 18q47 0 81 -16t56 -44t32.5 -66.5t10.5 -82.5q0 -106 -33.5 -192.5t-94.5 -148t-145 -95
t-186 -33.5zM236 144q42 0 77.5 14.5t64.5 36.5q7 38 7 84q0 69 -26.5 111t-85.5 42q-29 0 -56 -12t-47.5 -34t-32.5 -53.5t-12 -70.5q0 -51 27 -84.5t84 -33.5z" />
    <glyph glyph-name="zero.lf" horiz-adv-x="586" 
d="M257 -12q-56 0 -94.5 21.5t-62 58t-34 84t-10.5 100.5q0 47 8.5 97t25 97t41.5 89.5t59 74t76.5 50t93.5 18.5q55 0 93.5 -21.5t63 -56.5t35.5 -81t11 -95q0 -77 -19 -155t-57.5 -140.5t-96 -101.5t-133.5 -39zM264 51q51 0 92 31.5t69.5 83.5t43.5 119t15 138
q0 42 -7 77.5t-22.5 61t-41 39.5t-61.5 14q-51 0 -92 -32.5t-69.5 -84.5t-43.5 -116t-15 -128q0 -93 30.5 -148t101.5 -55z" />
    <glyph glyph-name="one.lf" horiz-adv-x="333" 
d="M215 597l-132 -43l-16 60l172 52h61l-115 -666h-73z" />
    <glyph glyph-name="two.lf" horiz-adv-x="486" 
d="M17 43q85 71 155.5 134t121.5 121t79.5 112.5t28.5 108.5q0 46 -27.5 70t-72.5 24q-52 0 -86.5 -18.5t-63.5 -41.5l-40 48q38 33 88 55t110 22q81 0 127.5 -40t46.5 -111q0 -63 -33 -124.5t-85 -119.5t-117 -113t-128 -106q13 0 26 1q11 0 24.5 0.5t26.5 0.5h222l-12 -66
h-399z" />
    <glyph glyph-name="three.lf" horiz-adv-x="455" 
d="M103 -12q-45 0 -64.5 3.5t-27.5 5.5l15 64q7 -2 27 -5t54 -3q99 0 155 41t56 118q0 32 -14 54.5t-38.5 37t-59 20t-75.5 4.5l8 53q46 6 85.5 18t68.5 31.5t45.5 46.5t16.5 62q0 33 -23.5 52.5t-68.5 19.5q-47 0 -78 -10.5t-62 -30.5l-32 49q32 24 80 41.5t103 17.5
q42 0 72 -10.5t49.5 -28.5t29 -42t9.5 -51q0 -36 -14.5 -65.5t-38.5 -52.5t-55.5 -39t-64.5 -26v-1q28 -5 53 -17.5t43.5 -31.5t29 -44t10.5 -55q0 -57 -24 -99t-64.5 -70.5t-93.5 -42.5t-112 -14z" />
    <glyph glyph-name="four.lf" horiz-adv-x="516" 
d="M320 151h-304l10 61l376 454h76l-78 -448h94l-11 -67h-94l-26 -151h-70zM104 214q13 2 36 3t46 1h143l58 338h-2z" />
    <glyph glyph-name="five.lf" horiz-adv-x="434" 
d="M85 -12q-28 0 -47.5 2.5t-28.5 4.5l15 65q9 -2 26.5 -4.5t43.5 -2.5q106 0 165 47.5t59 135.5q0 65 -47 93t-127 28q-16 0 -31.5 -0.5t-23.5 -1.5l60 311h294l-11 -66h-225l-34 -179q106 -4 164.5 -51t58.5 -127q0 -63 -22.5 -110.5t-64 -79.5t-98.5 -48.5t-126 -16.5z
" />
    <glyph glyph-name="six.lf" horiz-adv-x="507" 
d="M238 -12q-52 0 -88.5 19.5t-60 51.5t-34 73t-10.5 83q0 98 34.5 182.5t95 147t143 98t177.5 35.5l9 -59q-88 0 -162 -33.5t-126 -94.5q-26 -32 -46 -69t-32 -81q26 28 66.5 45.5t84.5 17.5q86 0 131.5 -47.5t45.5 -123.5q0 -48 -16 -92.5t-46 -78.5t-72 -54t-94 -20z
M243 51q39 0 66.5 16t45 41.5t26 58t8.5 64.5q0 54 -28.5 82.5t-82.5 28.5q-49 0 -83.5 -15.5t-68.5 -45.5q-2 -17 -3.5 -34.5t-1.5 -36.5q0 -75 29.5 -117t92.5 -42z" />
    <glyph glyph-name="seven.lf" horiz-adv-x="437" 
d="M56 0l318 600h-292l11 66h374l-9 -54l-341 -641z" />
    <glyph glyph-name="eight.lf" horiz-adv-x="478" 
d="M202 -12q-45 0 -78 12.5t-55 33.5t-33 48.5t-11 57.5q0 37 13.5 67.5t36.5 56t53.5 46.5t65.5 39q-36 28 -62.5 66t-26.5 86q0 39 16 71.5t44 56t64.5 36.5t77.5 13q82 0 123.5 -38.5t41.5 -98.5q0 -33 -13 -60.5t-35 -51t-50.5 -42.5t-59.5 -35q48 -31 79.5 -72
t31.5 -95q0 -40 -15 -75.5t-43.5 -62.5t-70 -43t-94.5 -16zM210 53q31 0 56.5 9.5t43.5 26.5t28 40t10 50q0 42 -28.5 73.5t-79.5 63.5q-32 -17 -57.5 -34.5t-43.5 -38t-27.5 -44.5t-9.5 -54q0 -40 27 -66t81 -26zM266 386q62 31 96 65.5t34 80.5q0 35 -22 58.5t-73 23.5
q-25 0 -47 -8t-38 -22.5t-25.5 -35t-9.5 -44.5q0 -37 22 -64t63 -54z" />
    <glyph glyph-name="nine.lf" horiz-adv-x="507" 
d="M35 41q131 0 223 63q54 37 90.5 93t53.5 130q-32 -33 -75 -49t-82 -16q-83 0 -129.5 47.5t-46.5 123.5q0 49 18.5 93.5t50 78t74 53.5t90.5 20q53 0 89 -19.5t58 -51t31.5 -71t9.5 -79.5q0 -102 -30 -189t-87.5 -150.5t-141 -99.5t-189.5 -36zM256 324q48 0 85 15.5
t71 45.5q2 18 3 36.5t1 38.5q0 70 -29.5 112.5t-91.5 42.5q-35 0 -62.5 -16.5t-47 -42t-29.5 -57.5t-10 -63q0 -112 110 -112z" />
    <glyph glyph-name="zero.tosf" horiz-adv-x="525" 
d="M224 -12q-48 0 -83 19t-57.5 49t-33.5 67.5t-11 74.5q0 57 19.5 110.5t54.5 94t83 65t104 24.5q51 0 86.5 -18.5t57.5 -47.5t31.5 -65.5t9.5 -73.5q0 -59 -19 -113t-53.5 -95.5t-82.5 -66t-106 -24.5zM231 49q41 0 74.5 19t57 51t36.5 75t13 90q0 28 -6 54.5t-19.5 47.5
t-36.5 33.5t-57 12.5q-39 0 -72 -18.5t-57 -50t-38 -73.5t-14 -88q0 -72 30.5 -112.5t88.5 -40.5z" />
    <glyph glyph-name="one.tosf" horiz-adv-x="525" 
d="M56 60h156l64 350l-154 -46l-15 60l197 56h58l-77 -420h156l-10 -60h-385z" />
    <glyph glyph-name="two.tosf" horiz-adv-x="525" 
d="M18 33q75 51 138.5 94.5t109.5 82.5t72 76t26 76q0 32 -22 49t-60 17q-47 0 -87 -17t-63 -34l-34 46q14 12 34.5 24t45 22t52.5 16.5t58 6.5q71 0 111 -32.5t40 -91.5q0 -33 -15 -65t-40 -61.5t-56 -56t-63.5 -49.5t-63 -42.5t-53.5 -34.5q11 0 22 1q10 1 22 1.5t23 0.5
h210l-10 -62h-401z" />
    <glyph glyph-name="three.tosf" horiz-adv-x="525" 
d="M96 -188q-35 0 -61 5t-38 9l17 57q9 -3 32.5 -6.5t54.5 -3.5q43 0 83.5 10t71.5 29.5t49.5 49.5t18.5 70q0 34 -17.5 57t-45.5 37.5t-62.5 20.5t-68.5 6l8 55q36 0 75.5 9.5t72.5 28.5t54.5 46.5t21.5 62.5q0 31 -24.5 52t-67.5 21q-47 0 -87.5 -18t-66.5 -37l-35 47
q15 12 35.5 24.5t46 23t55.5 17.5t62 7q38 0 68 -10.5t50.5 -28t31 -41t10.5 -50.5q0 -36 -18 -65.5t-45 -52.5t-59.5 -38t-61.5 -22v-1q25 -3 51 -15t47.5 -31.5t35.5 -44.5t14 -54q0 -55 -26.5 -97.5t-70 -71t-98.5 -43t-113 -14.5z" />
    <glyph glyph-name="four.tosf" horiz-adv-x="525" 
d="M274 0h-296l6 47l379 433h73l-78 -419h95l-10 -61h-96l-33 -177h-73zM286 61l59 311h-2l-269 -311h212z" />
    <glyph glyph-name="five.tosf" horiz-adv-x="525" 
d="M102 -188q-35 0 -55.5 4t-31.5 9l17 58q9 -3 27.5 -6.5t47.5 -3.5q43 0 82.5 11.5t69.5 33.5t47.5 53.5t17.5 70.5q0 42 -18 70t-47 45t-66 24t-74 7q-8 0 -14 -0.5t-7 -0.5l56 293h297l-10 -59h-225l-36 -178q43 -2 83 -16t71 -39t50 -60t19 -78q0 -57 -25 -101.5
t-66.5 -74.5t-96 -46t-113.5 -16z" />
    <glyph glyph-name="six.tosf" horiz-adv-x="525" 
d="M245 -12q-87 0 -136.5 64.5t-49.5 176.5q0 81 29 161t86.5 144t143.5 104t199 40l7 -61q-81 0 -147 -23.5t-117 -65.5q-44 -36 -72.5 -84.5t-42.5 -107.5q30 27 67 42.5t83 15.5q81 0 129 -44.5t48 -120.5q0 -50 -16.5 -94t-46.5 -76.5t-72 -51.5t-92 -19zM250 49
q36 0 63.5 14.5t47 38.5t29.5 56t10 67q0 49 -28 78.5t-87 29.5q-48 0 -83 -15t-68 -45q-1 -11 -1.5 -22.5t-0.5 -23.5q0 -83 29 -130.5t89 -47.5z" />
    <glyph glyph-name="seven.tosf" horiz-adv-x="525" 
d="M14 -167l400 583h-337l12 64h418l-8 -52l-425 -628z" />
    <glyph glyph-name="eight.tosf" horiz-adv-x="525" 
d="M230 -12q-45 0 -79 12.5t-57 33.5t-35 48.5t-12 57.5q0 37 14.5 67.5t39.5 56t56.5 46.5t66.5 39q-18 14 -35.5 30.5t-31 35.5t-22 40.5t-8.5 45.5q0 39 17 71.5t46 56t66.5 36.5t78.5 13q82 0 126.5 -38.5t44.5 -98.5q0 -33 -14.5 -60.5t-37.5 -51t-53 -42.5t-61 -35
q24 -15 45.5 -33t38 -39t26 -44.5t9.5 -50.5q0 -40 -16 -75.5t-45.5 -62.5t-72 -43t-95.5 -16zM238 53q31 0 57 9.5t45.5 26.5t30.5 40t11 50q0 41 -32 73t-82 64q-32 -17 -58 -34.5t-45.5 -38t-30 -44.5t-10.5 -54q0 -40 30 -66t84 -26zM294 386q62 31 99 65.5t37 80.5
q0 35 -25 58.5t-76 23.5q-25 0 -48 -8t-40 -22.5t-27.5 -35t-10.5 -44.5q0 -37 25 -64t66 -54z" />
    <glyph glyph-name="nine.tosf" horiz-adv-x="525" 
d="M-10 -126q74 0 136.5 20.5t112.5 58.5q87 68 121 182q-24 -18 -59 -33.5t-77 -15.5q-43 0 -75 13.5t-53.5 36.5t-32.5 54.5t-11 67.5q0 49 18 92t48.5 74.5t71 49.5t86.5 18q47 0 80.5 -16t55.5 -44t32 -66.5t10 -82.5q0 -106 -33.5 -192.5t-93.5 -148t-144 -95
t-186 -33.5zM234 144q42 0 76.5 14.5t63.5 36.5q7 38 7 84q0 69 -25.5 111t-84.5 42q-29 0 -55.5 -12t-46.5 -34t-32 -53.5t-12 -70.5q0 -51 26 -84.5t83 -33.5z" />
    <glyph glyph-name="uni2007.tosf" horiz-adv-x="525" 
 />
    <glyph glyph-name="exclam.sc" horiz-adv-x="218" 
d="M76 -7q-22 0 -37 15t-15 35t15 34.5t37 14.5t36.5 -14.5t14.5 -34.5t-14.5 -35t-36.5 -15zM114 512h84l-81 -353h-54z" />
    <glyph glyph-name="ampersand.sc" horiz-adv-x="507" 
d="M178 -9q-40 0 -70 10t-50.5 27.5t-30.5 40t-10 48.5q0 30 10 54t28.5 43.5t44 35.5t56.5 30q-20 26 -30.5 51.5t-10.5 53.5q0 31 12.5 56.5t34 43.5t50 27.5t60.5 9.5q56 0 89 -28.5t33 -72.5q0 -48 -36 -83.5t-105 -68.5l99 -123q40 53 60 115l62 -13q-31 -85 -85 -148
l80 -100h-84l-44 53q-35 -29 -76.5 -45.5t-86.5 -16.5zM222 306q57 27 80 53t23 55q0 23 -15 38.5t-44 15.5q-35 0 -57.5 -20.5t-22.5 -54.5q0 -23 9 -43.5t27 -43.5zM186 50q33 0 63 12.5t56 34.5l-117 143q-48 -23 -72.5 -50t-24.5 -65q0 -32 23.5 -53.5t71.5 -21.5z" />
    <glyph glyph-name="question.sc" horiz-adv-x="333" 
d="M79 202q7 36 23 57t52 41q40 21 64 41t24 59q0 28 -19.5 45t-59.5 17q-22 0 -40 -5.5t-28 -10.5l-24 53q22 11 46.5 17t57.5 6q34 0 61 -9.5t45 -25t27.5 -36t9.5 -42.5q0 -30 -11 -53t-29 -41t-40.5 -31.5t-44.5 -25.5q-23 -13 -35 -26.5t-17 -37.5l-7 -38h-64zM83 -7
q-22 0 -37 15t-15 35t15 34.5t37 14.5q21 0 36 -14.5t15 -34.5t-15 -35t-36 -15z" />
    <glyph glyph-name="a.sc" horiz-adv-x="510" 
d="M340 180l-28 160q-3 18 -5.5 34.5t-4.5 30.5q-2 15 -3 29h-2q-6 -14 -14 -29q-7 -14 -16 -30.5t-19 -34.5l-92 -160h184zM279 512h72l94 -512h-73l-21 117h-231l-67 -117h-75z" />
    <glyph glyph-name="b.sc" horiz-adv-x="476" 
d="M139 512h143q34 0 62 -7t48.5 -21.5t32 -35.5t11.5 -49q0 -54 -30.5 -87.5t-83.5 -46.5v-1q39 -8 67 -33.5t28 -68.5q0 -41 -16 -71.5t-45.5 -50.5t-71 -30t-91.5 -10h-151zM198 60q78 0 111 25.5t33 75.5q0 36 -25.5 56.5t-80.5 20.5h-76l-33 -178h71zM243 295
q60 0 89 25t29 67q0 33 -21 49.5t-71 16.5h-69l-30 -158h73z" />
    <glyph glyph-name="c.sc" horiz-adv-x="498" 
d="M261 -9q-56 0 -97.5 17t-68.5 46t-40.5 68t-13.5 84q0 64 23.5 121.5t65 101t98 68.5t123.5 25q59 0 92.5 -10.5t56.5 -26.5l-39 -55q-20 13 -47 21t-69 8q-50 0 -91.5 -19.5t-71.5 -53.5t-46.5 -79.5t-16.5 -96.5q0 -33 8.5 -61.5t26.5 -49.5t46 -33t67 -12
q44 0 75.5 13t57.5 32l31 -52q-25 -21 -70.5 -38.5t-99.5 -17.5z" />
    <glyph glyph-name="d.sc" horiz-adv-x="560" 
d="M138 512h128q131 0 194.5 -54.5t63.5 -144.5q0 -62 -20.5 -118.5t-61.5 -99.5t-104 -69t-147 -26h-149zM204 61q59 0 104.5 19t76 52.5t46 78.5t15.5 98q0 74 -44 108.5t-143 34.5h-58l-73 -391h76z" />
    <glyph glyph-name="e.sc" horiz-adv-x="458" 
d="M138 512h300l-12 -62h-226l-28 -150h202l-11 -61h-202l-34 -177h236l-12 -62h-309z" />
    <glyph glyph-name="f.sc" horiz-adv-x="442" 
d="M139 512h299l-11 -62h-226l-29 -153h201l-11 -61h-201l-44 -236h-75z" />
    <glyph glyph-name="g.sc" horiz-adv-x="559" 
d="M275 -9q-58 0 -101.5 16.5t-73 46t-44 69t-14.5 85.5q0 64 24 121t66 100t100 68t126 25q65 0 105.5 -14t60.5 -29l-39 -57q-20 14 -55 25.5t-78 11.5q-53 0 -96 -19t-73 -53t-46.5 -79.5t-16.5 -97.5q0 -71 38.5 -114.5t120.5 -43.5q53 0 83 10.5t40 16.5l24 133h-112
l10 61h186l-44 -232q-6 -5 -21 -13t-39 -16.5t-57 -14.5t-74 -6z" />
    <glyph glyph-name="h.sc" horiz-adv-x="607" 
d="M137 512h74l-39 -212h283l40 212h74l-96 -512h-74l45 237h-283l-45 -237h-74z" />
    <glyph glyph-name="i.sc" horiz-adv-x="260" 
d="M143 512h74l-96 -512h-74z" />
    <glyph glyph-name="j.sc" horiz-adv-x="249" 
d="M-38 -149q-19 0 -33 3t-20 6l24 62q4 -2 11 -4t20 -2q62 0 78 87l95 509h74l-97 -520q-14 -72 -50.5 -106.5t-101.5 -34.5z" />
    <glyph glyph-name="k.sc" horiz-adv-x="493" 
d="M178 268l249 244h89l-255 -245l175 -267h-81zM139 512h72l-95 -512h-74z" />
    <glyph glyph-name="l.sc" horiz-adv-x="407" 
d="M138 512h74l-84 -450h209l-9 -62h-286z" />
    <glyph glyph-name="m.sc" horiz-adv-x="692" 
d="M185 512h69l57 -356q5 -26 6.5 -44.5t3.5 -36.5h2q8 18 17 36.5t23 44.5l195 356h69l-27 -512h-72l19 315q2 27 4 47t4 33h-2q-5 -12 -13 -31t-21 -42l-179 -322h-69l-51 318q-5 26 -7.5 45.5t-3.5 31.5h-2q-2 -12 -7 -31.5t-14 -48.5l-100 -315h-68z" />
    <glyph glyph-name="n.sc" horiz-adv-x="592" 
d="M136 512h73l170 -335q12 -24 21 -45.5t13 -33.5h1q2 12 4.5 34.5t7.5 47.5l63 332h67l-95 -512h-67l-178 347q-11 23 -18.5 40.5t-12.5 31.5h-1q-2 -14 -4 -32t-7 -43l-66 -344h-67z" />
    <glyph glyph-name="o.sc" horiz-adv-x="606" 
d="M270 -9q-55 0 -97.5 18.5t-71.5 49t-44 70.5t-15 83q0 58 21.5 113.5t61 99t94 70.5t120.5 27q57 0 100 -18t71.5 -49t43 -71t14.5 -85q0 -57 -21 -112.5t-60 -99t-94 -70t-123 -26.5zM275 53q51 0 91 21t68 55.5t42.5 78.5t14.5 91q0 33 -10 62t-29.5 51t-49 35
t-68.5 13q-51 0 -90.5 -21t-67.5 -55.5t-42.5 -79t-14.5 -91.5q0 -33 10.5 -62.5t30 -51t48.5 -34t67 -12.5z" />
    <glyph glyph-name="p.sc" horiz-adv-x="462" 
d="M138 512h137q75 0 122 -34t47 -97q0 -44 -17 -78t-47.5 -57t-72 -35t-90.5 -12h-63l-38 -199h-74zM224 260q75 0 109.5 31t34.5 83q0 35 -24 56.5t-81 21.5h-62l-36 -192h59z" />
    <glyph glyph-name="q.sc" horiz-adv-x="606" 
d="M398 -128q-63 0 -113 30t-94 100q-36 12 -64 33t-46.5 49t-28.5 60.5t-10 67.5q0 58 21.5 113.5t61 99t94 70.5t120.5 27q57 0 100 -18t71.5 -49t43 -71t14.5 -85q0 -56 -19.5 -109.5t-56.5 -96.5t-89 -70.5t-116 -31.5q23 -32 51 -46t67 -14q32 0 56.5 9.5t35.5 15.5
l23 -53q-17 -10 -47 -20.5t-75 -10.5zM275 52q51 0 91 21t68 56t42.5 79t14.5 91q0 33 -10 62t-29.5 51t-49 35t-68.5 13q-51 0 -90.5 -21t-67.5 -55.5t-42.5 -79t-14.5 -91.5q0 -33 10.5 -62.5t30 -51.5t48.5 -34.5t67 -12.5z" />
    <glyph glyph-name="r.sc" horiz-adv-x="486" 
d="M139 512h148q74 0 115 -31.5t41 -88.5q0 -69 -46 -108t-125 -47v-2q11 -7 24 -22.5t30 -45.5l95 -167h-81l-81 148q-14 26 -24.5 41.5t-20.5 24t-20.5 11.5t-25.5 3h-8l-43 -228h-75zM246 286q63 0 92 27.5t29 72.5q0 66 -93 66h-73l-32 -166h77z" />
    <glyph glyph-name="s.sc" horiz-adv-x="389" 
d="M156 -9q-35 0 -61.5 6.5t-46.5 15.5t-33.5 19.5t-21.5 18.5l44 50q8 -7 18.5 -15.5t25 -15.5t34 -12t45.5 -5q51 0 73 23t22 55q0 16 -5 29t-15.5 25.5t-26.5 26t-38 31.5q-20 16 -38 32t-31.5 33.5t-21.5 37.5t-8 45q0 31 12 55.5t33.5 41t50.5 25.5t63 9q53 0 84.5 -14
t48.5 -27l-37 -53q-16 12 -38 22.5t-62 10.5q-42 0 -63 -18t-21 -49q0 -15 4.5 -27t14.5 -24t25.5 -25t36.5 -30q20 -16 39 -32.5t33.5 -35t23.5 -40t9 -46.5q0 -27 -10 -53t-31 -46t-53.5 -32t-77.5 -12z" />
    <glyph glyph-name="t.sc" horiz-adv-x="422" 
d="M212 450h-156l11 62h380l-10 -62h-151l-85 -450h-74z" />
    <glyph glyph-name="u.sc" horiz-adv-x="560" 
d="M243 -9q-47 0 -81.5 12t-57.5 33.5t-34 51.5t-11 65q0 11 1.5 23.5t3.5 24.5l58 311h73l-57 -304q-2 -14 -3.5 -26t-1.5 -23q0 -51 28 -78t88 -27q73 0 108.5 39t49.5 111l58 308h69l-60 -317q-19 -99 -74 -151.5t-157 -52.5z" />
    <glyph glyph-name="v.sc" 
d="M66 512h74l70 -339q5 -24 9 -50.5t5 -39.5h2q7 14 18.5 40.5t24.5 49.5l183 339h76l-283 -512h-70z" />
    <glyph glyph-name="w.sc" horiz-adv-x="708" 
d="M67 512h74l26 -300q3 -33 5 -63t3 -48h2q5 17 18 47.5t28 63.5l140 300h74l35 -310q4 -32 5 -58t3 -43h2q7 18 17.5 43.5t24.5 57.5l136 310h75l-236 -512h-69l-35 311q-4 36 -5.5 66t-3.5 54h-2q-9 -24 -21 -53t-30 -67l-148 -311h-66z" />
    <glyph glyph-name="x.sc" horiz-adv-x="468" 
d="M199 267l-112 245h77l85 -195l149 195h80l-200 -249l121 -263h-78l-92 212l-165 -212h-82z" />
    <glyph glyph-name="y.sc" horiz-adv-x="459" 
d="M186 193l-120 319h77l92 -251l175 251h77l-226 -320l-38 -192h-73z" />
    <glyph glyph-name="z.sc" horiz-adv-x="445" 
d="M1 51l346 400h-258l11 61h352l-9 -49l-351 -402h284l-11 -61h-374z" />
    <glyph glyph-name="exclamdown.sc" horiz-adv-x="218" 
d="M144 420q-22 0 -36.5 14.5t-14.5 34.5t14.5 35t36.5 15t37 -15t15 -35t-15 -34.5t-37 -14.5zM103 353h54l-51 -353h-84z" />
    <glyph glyph-name="mu.sc" horiz-adv-x="692" 
d="M185 512h69l57 -356q5 -26 6.5 -44.5t3.5 -36.5h2q8 18 17 36.5t23 44.5l195 356h69l-27 -512h-72l19 315q2 27 4 47t4 33h-2q-5 -12 -13 -31t-21 -42l-179 -322h-69l-51 318q-5 26 -7.5 45.5t-3.5 31.5h-2q-2 -12 -7 -31.5t-14 -48.5l-100 -315h-68z" />
    <glyph glyph-name="questiondown.sc" horiz-adv-x="333" 
d="M158 -7q-35 0 -61.5 9.5t-44.5 25t-27.5 36t-9.5 42.5q0 30 11 53t29 41t40.5 31.5t44.5 25.5q23 13 35 26.5t17 37.5l7 38h64l-9 -46q-7 -36 -23 -57t-52 -41q-40 -21 -64 -41t-24 -59q0 -28 19.5 -45t59.5 -17q22 0 40 5.5t28 10.5l24 -53q-22 -11 -46.5 -17t-57.5 -6z
M250 423q-21 0 -36 14.5t-15 34.5t15 35t36 15q22 0 37 -15t15 -35t-15 -34.5t-37 -14.5z" />
    <glyph glyph-name="germandbls.sc" horiz-adv-x="768" 
d="M156 -9q-35 0 -61.5 6.5t-46.5 15.5t-33.5 19.5t-21.5 18.5l44 50q8 -7 18.5 -15.5t25 -15.5t34 -12t45.5 -5q51 0 73 23t22 55q0 16 -5 29t-15.5 25.5t-26.5 26t-38 31.5q-20 16 -38 32t-31.5 33.5t-21.5 37.5t-8 45q0 31 12 55.5t33.5 41t50.5 25.5t63 9q53 0 84.5 -14
t48.5 -27l-37 -53q-16 12 -38 22.5t-62 10.5q-42 0 -63 -18t-21 -49q0 -15 4.5 -27t14.5 -24t25.5 -25t36.5 -30q20 -16 39 -32.5t33.5 -35t23.5 -40t9 -46.5q0 -27 -10 -53t-31 -46t-53.5 -32t-77.5 -12zM540 -9q-35 0 -61.5 6.5t-46.5 15.5t-33.5 19.5t-21.5 18.5l44 50
q8 -7 18.5 -15.5t25 -15.5t34 -12t45.5 -5q51 0 73 23t22 55q0 16 -5 29t-15.5 25.5t-26.5 26t-38 31.5q-20 16 -38 32t-31.5 33.5t-21.5 37.5t-8 45q0 31 12 55.5t33.5 41t50.5 25.5t63 9q53 0 84.5 -14t48.5 -27l-37 -53q-16 12 -38 22.5t-62 10.5q-42 0 -63 -18t-21 -49
q0 -15 4.5 -27t14.5 -24t25.5 -25t36.5 -30q20 -16 39 -32.5t33.5 -35t23.5 -40t9 -46.5q0 -27 -10 -53t-31 -46t-53.5 -32t-77.5 -12z" />
    <glyph glyph-name="agrave.sc" horiz-adv-x="510" 
d="M177 696h97l71 -126h-62zM340 180l-28 160q-3 18 -5.5 34.5t-4.5 30.5q-2 15 -3 29h-2q-6 -14 -14 -29q-7 -14 -16 -30.5t-19 -34.5l-92 -160h184zM279 512h72l94 -512h-73l-21 117h-231l-67 -117h-75z" />
    <glyph glyph-name="aacute.sc" horiz-adv-x="510" 
d="M397 696h111l-152 -126h-70zM340 180l-28 160q-3 18 -5.5 34.5t-4.5 30.5q-2 15 -3 29h-2q-6 -14 -14 -29q-7 -14 -16 -30.5t-19 -34.5l-92 -160h184zM279 512h72l94 -512h-73l-21 117h-231l-67 -117h-75z" />
    <glyph glyph-name="acircumflex.sc" horiz-adv-x="510" 
d="M324 724h50l92 -153h-61l-65 89l-94 -89h-69zM340 180l-28 160q-3 18 -5.5 34.5t-4.5 30.5q-2 15 -3 29h-2q-6 -14 -14 -29q-7 -14 -16 -30.5t-19 -34.5l-92 -160h184zM279 512h72l94 -512h-73l-21 117h-231l-67 -117h-75z" />
    <glyph glyph-name="atilde.sc" horiz-adv-x="510" 
d="M370 573q-18 0 -30.5 6t-23.5 13.5t-22 13.5t-25 6q-17 0 -30.5 -10.5t-22.5 -18.5l-30 35q16 21 39.5 39.5t55.5 18.5q18 0 30.5 -6t23.5 -13.5t22 -13.5t25 -6q20 0 33.5 10t21.5 19l31 -34q-17 -21 -41 -40t-57 -19zM340 180l-28 160q-3 18 -5.5 34.5t-4.5 30.5
q-2 15 -3 29h-2q-6 -14 -14 -29q-7 -14 -16 -30.5t-19 -34.5l-92 -160h184zM279 512h72l94 -512h-73l-21 117h-231l-67 -117h-75z" />
    <glyph glyph-name="adieresis.sc" horiz-adv-x="510" 
d="M234 571q-21 0 -35.5 14.5t-14.5 36.5q0 21 14.5 35.5t35.5 14.5q23 0 37 -14.5t14 -35.5q0 -22 -14.5 -36.5t-36.5 -14.5zM417 571q-21 0 -35.5 14.5t-14.5 36.5q0 21 14.5 35.5t35.5 14.5q23 0 37 -14.5t14 -35.5q0 -22 -14.5 -36.5t-36.5 -14.5zM340 180l-28 160
q-3 18 -5.5 34.5t-4.5 30.5q-2 15 -3 29h-2q-6 -14 -14 -29q-7 -14 -16 -30.5t-19 -34.5l-92 -160h184zM279 512h72l94 -512h-73l-21 117h-231l-67 -117h-75z" />
    <glyph glyph-name="aring.sc" horiz-adv-x="510" 
d="M326 575q-19 0 -36 7t-30 19t-20.5 29.5t-7.5 38.5t7.5 38.5t20.5 30.5t30 20t36 7t36 -7t30 -19.5t20.5 -30t7.5 -38.5t-7.5 -38.5t-20.5 -30t-30 -19.5t-36 -7zM326 615q23 0 36 16t13 39q0 24 -13 39.5t-36 15.5q-24 0 -36.5 -15.5t-12.5 -39.5q0 -23 12.5 -39
t36.5 -16zM340 180l-28 160q-3 18 -5.5 34.5t-4.5 30.5q-2 15 -3 29h-2q-6 -14 -14 -29q-7 -14 -16 -30.5t-19 -34.5l-92 -160h184zM279 512h72l94 -512h-73l-21 117h-231l-67 -117h-75z" />
    <glyph glyph-name="ae.sc" horiz-adv-x="708" 
d="M363 512h336l-12 -62h-226l-28 -150h202l-11 -61h-202l-34 -177h236l-12 -62h-309l23 119h-194l-94 -119h-81zM338 181l51 267l-209 -267h158z" />
    <glyph glyph-name="ccedilla.sc" horiz-adv-x="498" 
d="M202 -219q-27 0 -42.5 4t-23.5 7l15 41q5 -2 17.5 -5.5t32.5 -3.5q23 0 36.5 9.5t13.5 29.5q0 14 -6 22.5t-16 13t-23 5.5t-26 0l34 91q-44 6 -76.5 25t-54 47t-32 63.5t-10.5 75.5q0 64 23.5 121.5t65 101t98 68.5t123.5 25q59 0 92.5 -10.5t56.5 -26.5l-39 -55
q-20 13 -47 21t-69 8q-50 0 -91.5 -19.5t-71.5 -53.5t-46.5 -79.5t-16.5 -96.5q0 -33 8.5 -61.5t26.5 -49.5t46 -33t67 -12q44 0 75.5 13t57.5 32l31 -52q-25 -21 -69.5 -38t-98.5 -18l-21 -57q30 -5 50 -23.5t20 -49.5q0 -38 -32 -59t-78 -21z" />
    <glyph glyph-name="egrave.sc" horiz-adv-x="458" 
d="M150 696h97l71 -126h-62zM138 512h300l-12 -62h-226l-28 -150h202l-11 -61h-202l-34 -177h236l-12 -62h-309z" />
    <glyph glyph-name="eacute.sc" horiz-adv-x="458" 
d="M370 696h111l-152 -126h-70zM138 512h300l-12 -62h-226l-28 -150h202l-11 -61h-202l-34 -177h236l-12 -62h-309z" />
    <glyph glyph-name="ecircumflex.sc" horiz-adv-x="458" 
d="M297 724h50l92 -153h-61l-65 89l-94 -89h-69zM138 512h300l-12 -62h-226l-28 -150h202l-11 -61h-202l-34 -177h236l-12 -62h-309z" />
    <glyph glyph-name="edieresis.sc" horiz-adv-x="458" 
d="M207 571q-21 0 -35.5 14.5t-14.5 36.5q0 21 14.5 35.5t35.5 14.5q23 0 37 -14.5t14 -35.5q0 -22 -14.5 -36.5t-36.5 -14.5zM390 571q-21 0 -35.5 14.5t-14.5 36.5q0 21 14.5 35.5t35.5 14.5q23 0 37 -14.5t14 -35.5q0 -22 -14.5 -36.5t-36.5 -14.5zM138 512h300l-12 -62
h-226l-28 -150h202l-11 -61h-202l-34 -177h236l-12 -62h-309z" />
    <glyph glyph-name="igrave.sc" horiz-adv-x="260" 
d="M143 512h74l-96 -512h-74zM47 696h97l71 -126h-62z" />
    <glyph glyph-name="iacute.sc" horiz-adv-x="260" 
d="M143 512h74l-96 -512h-74zM267 696h111l-152 -126h-70z" />
    <glyph glyph-name="icircumflex.sc" horiz-adv-x="260" 
d="M143 512h74l-96 -512h-74zM194 724h50l92 -153h-61l-65 89l-94 -89h-69z" />
    <glyph glyph-name="idieresis.sc" horiz-adv-x="260" 
d="M143 512h74l-96 -512h-74zM104 571q-21 0 -35.5 14.5t-14.5 36.5q0 21 14.5 35.5t35.5 14.5q23 0 37 -14.5t14 -35.5q0 -22 -14.5 -36.5t-36.5 -14.5zM287 571q-21 0 -35.5 14.5t-14.5 36.5q0 21 14.5 35.5t35.5 14.5q23 0 37 -14.5t14 -35.5q0 -22 -14.5 -36.5
t-36.5 -14.5z" />
    <glyph glyph-name="eth.sc" horiz-adv-x="565" 
d="M89 225h-62l10 58h63l43 229h128q131 0 194.5 -54.5t63.5 -144.5q0 -62 -20.5 -118.5t-61.5 -99.5t-104 -69t-147 -26h-149zM209 61q59 0 104.5 19t76 52.5t46 78.5t15.5 98q0 74 -44 108.5t-143 34.5h-58l-32 -169h112l-10 -58h-113l-30 -164h76z" />
    <glyph glyph-name="ntilde.sc" horiz-adv-x="592" 
d="M400 573q-18 0 -30.5 6t-23.5 13.5t-22 13.5t-25 6q-17 0 -30.5 -10.5t-22.5 -18.5l-30 35q16 21 39.5 39.5t55.5 18.5q18 0 30.5 -6t23.5 -13.5t22 -13.5t25 -6q20 0 33.5 10t21.5 19l31 -34q-17 -21 -41 -40t-57 -19zM136 512h73l170 -335q12 -24 21 -45.5t13 -33.5h1
q2 12 4.5 34.5t7.5 47.5l63 332h67l-95 -512h-67l-178 347q-11 23 -18.5 40.5t-12.5 31.5h-1q-2 -14 -4 -32t-7 -43l-66 -344h-67z" />
    <glyph glyph-name="ograve.sc" horiz-adv-x="606" 
d="M208 696h97l71 -126h-62zM270 -9q-55 0 -97.5 18.5t-71.5 49t-44 70.5t-15 83q0 58 21.5 113.5t61 99t94 70.5t120.5 27q57 0 100 -18t71.5 -49t43 -71t14.5 -85q0 -57 -21 -112.5t-60 -99t-94 -70t-123 -26.5zM275 53q51 0 91 21t68 55.5t42.5 78.5t14.5 91q0 33 -10 62
t-29.5 51t-49 35t-68.5 13q-51 0 -90.5 -21t-67.5 -55.5t-42.5 -79t-14.5 -91.5q0 -33 10.5 -62.5t30 -51t48.5 -34t67 -12.5z" />
    <glyph glyph-name="oacute.sc" horiz-adv-x="606" 
d="M428 696h111l-152 -126h-70zM270 -9q-55 0 -97.5 18.5t-71.5 49t-44 70.5t-15 83q0 58 21.5 113.5t61 99t94 70.5t120.5 27q57 0 100 -18t71.5 -49t43 -71t14.5 -85q0 -57 -21 -112.5t-60 -99t-94 -70t-123 -26.5zM275 53q51 0 91 21t68 55.5t42.5 78.5t14.5 91
q0 33 -10 62t-29.5 51t-49 35t-68.5 13q-51 0 -90.5 -21t-67.5 -55.5t-42.5 -79t-14.5 -91.5q0 -33 10.5 -62.5t30 -51t48.5 -34t67 -12.5z" />
    <glyph glyph-name="ocircumflex.sc" horiz-adv-x="606" 
d="M355 724h50l92 -153h-61l-65 89l-94 -89h-69zM270 -9q-55 0 -97.5 18.5t-71.5 49t-44 70.5t-15 83q0 58 21.5 113.5t61 99t94 70.5t120.5 27q57 0 100 -18t71.5 -49t43 -71t14.5 -85q0 -57 -21 -112.5t-60 -99t-94 -70t-123 -26.5zM275 53q51 0 91 21t68 55.5t42.5 78.5
t14.5 91q0 33 -10 62t-29.5 51t-49 35t-68.5 13q-51 0 -90.5 -21t-67.5 -55.5t-42.5 -79t-14.5 -91.5q0 -33 10.5 -62.5t30 -51t48.5 -34t67 -12.5z" />
    <glyph glyph-name="otilde.sc" horiz-adv-x="606" 
d="M401 573q-18 0 -30.5 6t-23.5 13.5t-22 13.5t-25 6q-17 0 -30.5 -10.5t-22.5 -18.5l-30 35q16 21 39.5 39.5t55.5 18.5q18 0 30.5 -6t23.5 -13.5t22 -13.5t25 -6q20 0 33.5 10t21.5 19l31 -34q-17 -21 -41 -40t-57 -19zM270 -9q-55 0 -97.5 18.5t-71.5 49t-44 70.5
t-15 83q0 58 21.5 113.5t61 99t94 70.5t120.5 27q57 0 100 -18t71.5 -49t43 -71t14.5 -85q0 -57 -21 -112.5t-60 -99t-94 -70t-123 -26.5zM275 53q51 0 91 21t68 55.5t42.5 78.5t14.5 91q0 33 -10 62t-29.5 51t-49 35t-68.5 13q-51 0 -90.5 -21t-67.5 -55.5t-42.5 -79
t-14.5 -91.5q0 -33 10.5 -62.5t30 -51t48.5 -34t67 -12.5z" />
    <glyph glyph-name="odieresis.sc" horiz-adv-x="606" 
d="M265 571q-21 0 -35.5 14.5t-14.5 36.5q0 21 14.5 35.5t35.5 14.5q23 0 37 -14.5t14 -35.5q0 -22 -14.5 -36.5t-36.5 -14.5zM448 571q-21 0 -35.5 14.5t-14.5 36.5q0 21 14.5 35.5t35.5 14.5q23 0 37 -14.5t14 -35.5q0 -22 -14.5 -36.5t-36.5 -14.5zM270 -9
q-55 0 -97.5 18.5t-71.5 49t-44 70.5t-15 83q0 58 21.5 113.5t61 99t94 70.5t120.5 27q57 0 100 -18t71.5 -49t43 -71t14.5 -85q0 -57 -21 -112.5t-60 -99t-94 -70t-123 -26.5zM275 53q51 0 91 21t68 55.5t42.5 78.5t14.5 91q0 33 -10 62t-29.5 51t-49 35t-68.5 13
q-51 0 -90.5 -21t-67.5 -55.5t-42.5 -79t-14.5 -91.5q0 -33 10.5 -62.5t30 -51t48.5 -34t67 -12.5z" />
    <glyph glyph-name="oslash.sc" horiz-adv-x="606" 
d="M42 -22l76 85q-26 31 -40 69t-14 80q0 58 21.5 113.5t61 99t94 70.5t120.5 27q42 0 76.5 -10t61.5 -28l66 74l39 -33l-67 -74q26 -31 39.5 -70t13.5 -82q0 -57 -21 -112.5t-60 -99t-94 -70t-123 -26.5q-80 0 -136 39l-75 -85zM141 213q0 -27 6.5 -51.5t20.5 -44.5
l285 314q-19 14 -43 21.5t-54 7.5q-51 0 -90.5 -21t-67.5 -55.5t-42.5 -79t-14.5 -91.5zM297 53q51 0 91 21t68 55.5t42.5 78.5t14.5 91q0 56 -27 97l-285 -315q39 -28 96 -28z" />
    <glyph glyph-name="ugrave.sc" horiz-adv-x="560" 
d="M188 696h97l71 -126h-62zM243 -9q-47 0 -81.5 12t-57.5 33.5t-34 51.5t-11 65q0 11 1.5 23.5t3.5 24.5l58 311h73l-57 -304q-2 -14 -3.5 -26t-1.5 -23q0 -51 28 -78t88 -27q73 0 108.5 39t49.5 111l58 308h69l-60 -317q-19 -99 -74 -151.5t-157 -52.5z" />
    <glyph glyph-name="uacute.sc" horiz-adv-x="560" 
d="M408 696h111l-152 -126h-70zM243 -9q-47 0 -81.5 12t-57.5 33.5t-34 51.5t-11 65q0 11 1.5 23.5t3.5 24.5l58 311h73l-57 -304q-2 -14 -3.5 -26t-1.5 -23q0 -51 28 -78t88 -27q73 0 108.5 39t49.5 111l58 308h69l-60 -317q-19 -99 -74 -151.5t-157 -52.5z" />
    <glyph glyph-name="ucircumflex.sc" horiz-adv-x="560" 
d="M335 724h50l92 -153h-61l-65 89l-94 -89h-69zM243 -9q-47 0 -81.5 12t-57.5 33.5t-34 51.5t-11 65q0 11 1.5 23.5t3.5 24.5l58 311h73l-57 -304q-2 -14 -3.5 -26t-1.5 -23q0 -51 28 -78t88 -27q73 0 108.5 39t49.5 111l58 308h69l-60 -317q-19 -99 -74 -151.5t-157 -52.5
z" />
    <glyph glyph-name="udieresis.sc" horiz-adv-x="560" 
d="M245 571q-21 0 -35.5 14.5t-14.5 36.5q0 21 14.5 35.5t35.5 14.5q23 0 37 -14.5t14 -35.5q0 -22 -14.5 -36.5t-36.5 -14.5zM428 571q-21 0 -35.5 14.5t-14.5 36.5q0 21 14.5 35.5t35.5 14.5q23 0 37 -14.5t14 -35.5q0 -22 -14.5 -36.5t-36.5 -14.5zM243 -9
q-47 0 -81.5 12t-57.5 33.5t-34 51.5t-11 65q0 11 1.5 23.5t3.5 24.5l58 311h73l-57 -304q-2 -14 -3.5 -26t-1.5 -23q0 -51 28 -78t88 -27q73 0 108.5 39t49.5 111l58 308h69l-60 -317q-19 -99 -74 -151.5t-157 -52.5z" />
    <glyph glyph-name="yacute.sc" horiz-adv-x="459" 
d="M354 696h111l-152 -126h-70zM186 193l-120 319h77l92 -251l175 251h77l-226 -320l-38 -192h-73z" />
    <glyph glyph-name="thorn.sc" horiz-adv-x="458" 
d="M138 512h74l-17 -90h63q75 0 122 -34t47 -97q0 -44 -17 -78t-47.5 -57t-72 -35t-90.5 -12h-63l-21 -109h-74zM207 170q75 0 109.5 31t34.5 83q0 35 -24 56.5t-81 21.5h-62l-36 -192h59z" />
    <glyph glyph-name="ydieresis.sc" horiz-adv-x="459" 
d="M191 571q-21 0 -35.5 14.5t-14.5 36.5q0 21 14.5 35.5t35.5 14.5q23 0 37 -14.5t14 -35.5q0 -22 -14.5 -36.5t-36.5 -14.5zM374 571q-21 0 -35.5 14.5t-14.5 36.5q0 21 14.5 35.5t35.5 14.5q23 0 37 -14.5t14 -35.5q0 -22 -14.5 -36.5t-36.5 -14.5zM186 193l-120 319h77
l92 -251l175 251h77l-226 -320l-38 -192h-73z" />
    <glyph glyph-name="dotlessi.sc" horiz-adv-x="260" 
d="M143 512h74l-96 -512h-74z" />
    <glyph glyph-name="ij.sc" horiz-adv-x="509" 
d="M143 512h74l-96 -512h-74zM222 -149q-19 0 -33 3t-20 6l24 62q4 -2 11 -4t20 -2q61 0 78 87l95 509h74l-97 -520q-14 -72 -50.5 -106.5t-101.5 -34.5z" />
    <glyph glyph-name="lslash.sc" horiz-adv-x="415" 
d="M94 198l-66 -45l-23 41l101 70l47 248h74l-35 -189l80 56l26 -42l-119 -81l-36 -194h209l-9 -62h-286z" />
    <glyph glyph-name="oe.sc" horiz-adv-x="718" 
d="M270 -9q-55 0 -97.5 18.5t-71.5 49t-44 70.5t-15 83q0 58 21.5 113.5t61 99t94 70.5t120.5 27q22 0 42 -2.5t38 -7.5h312l-12 -62h-226l-28 -150h202l-11 -61h-202l-34 -177h236l-12 -62h-298q-35 -9 -76 -9zM275 53q22 0 39.5 3.5t33.5 10.5q19 105 35 188q6 35 12.5 69
t11.5 60q6 31 11 58q-33 18 -84 18t-90.5 -21t-67.5 -55.5t-42.5 -79t-14.5 -91.5q0 -33 10.5 -62.5t30 -51t48.5 -34t67 -12.5z" />
    <glyph glyph-name="scaron.sc" horiz-adv-x="389" 
d="M113 722h61l69 -89l99 89h69l-152 -153h-50zM156 -9q-35 0 -61.5 6.5t-46.5 15.5t-33.5 19.5t-21.5 18.5l44 50q8 -7 18.5 -15.5t25 -15.5t34 -12t45.5 -5q51 0 73 23t22 55q0 16 -5 29t-15.5 25.5t-26.5 26t-38 31.5q-20 16 -38 32t-31.5 33.5t-21.5 37.5t-8 45
q0 31 12 55.5t33.5 41t50.5 25.5t63 9q53 0 84.5 -14t48.5 -27l-37 -53q-16 12 -38 22.5t-62 10.5q-42 0 -63 -18t-21 -49q0 -15 4.5 -27t14.5 -24t25.5 -25t36.5 -30q20 -16 39 -32.5t33.5 -35t23.5 -40t9 -46.5q0 -27 -10 -53t-31 -46t-53.5 -32t-77.5 -12z" />
    <glyph glyph-name="zcaron.sc" horiz-adv-x="445" 
d="M156 722h61l69 -89l99 89h69l-152 -153h-50zM1 51l346 400h-258l11 61h352l-9 -49l-351 -402h284l-11 -61h-374z" />
    <glyph glyph-name="pi.sc" horiz-adv-x="602" 
d="M143 512h416l-96 -512h-74l84 449h-268l-84 -449h-74z" />
    <glyph glyph-name="fi.sc" horiz-adv-x="694" 
d="M139 512h299l-11 -62h-226l-29 -153h201l-11 -61h-201l-44 -236h-75zM577 512h74l-96 -512h-74z" />
    <glyph glyph-name="fl.sc" horiz-adv-x="834" 
d="M139 512h299l-11 -62h-226l-29 -153h201l-11 -61h-201l-44 -236h-75zM572 512h74l-84 -450h209l-9 -62h-286z" />
    <glyph glyph-name="numbersign.case" horiz-adv-x="555" 
d="M150 218h-126l15 56h126l36 135h-127l15 56h127l54 201h55l-54 -201h119l54 201h55l-54 -201h120l-15 -56h-120l-36 -135h122l-16 -56h-121l-59 -218h-55l59 218h-119l-58 -218h-55zM339 274l36 135h-119l-36 -135h119z" />
    <glyph glyph-name="percent.case" horiz-adv-x="807" 
d="M224 342q-37 0 -65 13t-47 33t-28.5 45.5t-9.5 49.5q0 36 13 70.5t37.5 61.5t60.5 44t81 17q37 0 65 -13t47 -33t28.5 -45t9.5 -50q0 -36 -13 -70.5t-37.5 -61.5t-60.5 -44t-81 -17zM229 396q26 0 49 10.5t39.5 28.5t26 42t9.5 52q0 42 -23 67.5t-68 25.5
q-27 0 -50 -10.5t-39.5 -28.5t-25.5 -42t-9 -52q0 -41 23 -67t68 -26zM573 -7q-37 0 -65 13t-47 33t-28.5 45.5t-9.5 49.5q0 36 13 70.5t37.5 61.5t60.5 44t81 17q37 0 65 -13t47 -33t28.5 -45t9.5 -50q0 -36 -13 -70.5t-37.5 -61.5t-60.5 -44t-81 -17zM578 47q26 0 49 10.5
t39.5 28.5t26 42t9.5 52q0 42 -23 67.5t-68 25.5q-27 0 -50 -10.5t-39.5 -28.5t-25.5 -42t-9 -52q0 -41 23 -67t68 -26zM649 666h70l-530 -666h-70z" />
    <glyph glyph-name="parenleft.case" horiz-adv-x="296" 
d="M164 -120q-15 19 -34.5 50t-37 73.5t-29.5 97.5t-12 123q0 109 29 198.5t70 158.5t86 118t77 78h71q-34 -31 -78.5 -81.5t-84.5 -119.5t-67.5 -157t-27.5 -193q0 -63 9 -114.5t24 -93.5t33.5 -76t36.5 -62h-65z" />
    <glyph glyph-name="parenright.case" horiz-adv-x="301" 
d="M-61 -120q42 40 89 96t86.5 127t65.5 156.5t26 183.5q0 61 -11 114t-27 95t-34.5 73.5t-33.5 51.5h68q15 -18 34.5 -49t37 -73t29.5 -95t12 -116q0 -111 -31 -203t-74.5 -163t-89 -121t-74.5 -77h-73z" />
    <glyph glyph-name="hyphen.case" horiz-adv-x="305" 
d="M87 383h201l-11 -64h-201z" />
    <glyph glyph-name="slash.case" horiz-adv-x="402" 
d="M405 720h67l-462 -881h-67z" />
    <glyph glyph-name="less.case" horiz-adv-x="398" 
d="M46 246l279 218l37 -48l-227 -175l163 -174l-43 -41z" />
    <glyph glyph-name="equal.case" horiz-adv-x="531" 
d="M66 216h389l-11 -63h-389zM95 379h389l-11 -63h-389z" />
    <glyph glyph-name="greater.case" horiz-adv-x="398" 
d="M36 74l227 175l-163 174l43 41l209 -220l-279 -218z" />
    <glyph glyph-name="bracketleft.case" horiz-adv-x="301" 
d="M172 772h197l-10 -56h-128l-133 -769h128l-10 -56h-197z" />
    <glyph glyph-name="bracketright.case" horiz-adv-x="300" 
d="M-26 -53h127l134 769h-128l10 56h197l-153 -881h-197z" />
    <glyph glyph-name="braceleft.case" horiz-adv-x="349" 
d="M186 -109q-37 0 -65.5 24t-28.5 69q0 5 0.5 11t1.5 12l35 193q3 15 3 28q0 38 -23 59.5t-70 22.5l10 56q54 0 86 27.5t41 80.5l33 191q10 57 44.5 82t82.5 25h81l-10 -57h-65q-33 0 -47.5 -20.5t-21.5 -58.5l-30 -175q-11 -60 -41.5 -88t-77.5 -38v-2q36 -11 57 -32.5
t21 -61.5q0 -14 -3 -29l-32 -187q0 -1 -0.5 -2t-0.5 -2q-3 -18 -3 -30q0 -21 10 -31t36 -10h66l-10 -57h-79z" />
    <glyph glyph-name="braceright.case" horiz-adv-x="349" 
d="M-25 -52h65q35 0 49 21.5t20 57.5l31 183q9 55 40 84.5t80 43.5v2q-35 10 -56.5 33t-21.5 63q0 13 3 28l30 176q2 10 3 18t1 16q0 22 -10 31.5t-36 9.5h-66l10 57h84q35 0 62 -21.5t27 -66.5q0 -14 -3 -27l-32 -183q-1 -6 -1.5 -12t-0.5 -11q0 -39 23.5 -62t68.5 -25
l-10 -56q-49 0 -83 -26.5t-44 -81.5l-35 -202q-10 -57 -45 -82t-78 -25h-85z" />
    <glyph glyph-name="exclamdown.case" horiz-adv-x="248" 
d="M184 561q-23 0 -40 16.5t-17 39.5q0 24 17 41t40 17q25 0 42 -17t17 -41q0 -23 -17 -39.5t-42 -16.5zM139 467h56l-66 -467h-88z" />
    <glyph glyph-name="guillemotleft.case" horiz-adv-x="450" 
d="M49 350l167 190h80l-171 -196l96 -183h-72zM227 350l167 190h80l-171 -196l96 -183h-72z" />
    <glyph glyph-name="uni00AD.case" horiz-adv-x="305" 
d="M87 383h201l-11 -64h-201z" />
    <glyph glyph-name="guillemotright.case" horiz-adv-x="450" 
d="M185 356l-96 184h72l100 -191l-163 -188h-80zM363 356l-96 184h72l100 -191l-163 -188h-80z" />
    <glyph glyph-name="questiondown.case" horiz-adv-x="441" 
d="M221 -12q-42 0 -74 12t-53.5 32t-32.5 46t-11 55q0 40 14 70t36.5 53.5t51 41t56.5 33.5q29 16 43 35t20 52l10 55h69l-11 -63q-4 -24 -10 -42t-16.5 -32t-27 -27t-41.5 -27q-26 -15 -47.5 -28.5t-36.5 -29.5t-23.5 -36t-8.5 -48q0 -40 26 -64t78 -24q28 0 50.5 7.5
t34.5 12.5l21 -58q-18 -9 -48.5 -17.5t-68.5 -8.5zM337 561q-23 0 -40 16.5t-17 39.5q0 24 17 41t40 17q25 0 42 -17t17 -41q0 -23 -17 -39.5t-42 -16.5z" />
    <glyph glyph-name="endash.case" horiz-adv-x="561" 
d="M77 381h457l-11 -61h-457z" />
    <glyph glyph-name="emdash.case" horiz-adv-x="868" 
d="M77 381h764l-11 -61h-764z" />
    <glyph glyph-name="perthousand.case" horiz-adv-x="1200" 
d="M224 342q-37 0 -65 13t-47 33t-28.5 45.5t-9.5 49.5q0 36 13 70.5t37.5 61.5t60.5 44t81 17q37 0 65 -13t47 -33t28.5 -45t9.5 -50q0 -36 -13 -70.5t-37.5 -61.5t-60.5 -44t-81 -17zM229 396q26 0 49 10.5t39.5 28.5t26 42t9.5 52q0 42 -23 67.5t-68 25.5
q-27 0 -50 -10.5t-39.5 -28.5t-25.5 -42t-9 -52q0 -41 23 -67t68 -26zM573 -7q-37 0 -65 13t-47 33t-28.5 45.5t-9.5 49.5q0 36 13 70.5t37.5 61.5t60.5 44t81 17q37 0 65 -13t47 -33t28.5 -45t9.5 -50q0 -36 -13 -70.5t-37.5 -61.5t-60.5 -44t-81 -17zM578 47q26 0 49 10.5
t39.5 28.5t26 42t9.5 52q0 42 -23 67.5t-68 25.5q-27 0 -50 -10.5t-39.5 -28.5t-25.5 -42t-9 -52q0 -41 23 -67t68 -26zM966 -7q-37 0 -65 13t-47 33t-28.5 45.5t-9.5 49.5q0 36 13 70.5t37.5 61.5t60.5 44t81 17q37 0 65 -13t47 -33t28.5 -45t9.5 -50q0 -36 -13 -70.5
t-37.5 -61.5t-60.5 -44t-81 -17zM971 47q26 0 49 10.5t39.5 28.5t26 42t9.5 52q0 42 -23 67.5t-68 25.5q-27 0 -50 -10.5t-39.5 -28.5t-25.5 -42t-9 -52q0 -41 23 -67t68 -26zM649 666h70l-530 -666h-70z" />
    <glyph glyph-name="guilsinglleft.case" horiz-adv-x="272" 
d="M49 350l167 190h80l-171 -196l96 -183h-72z" />
    <glyph glyph-name="guilsinglright.case" horiz-adv-x="272" 
d="M185 356l-96 184h72l100 -191l-163 -188h-80z" />
    <glyph glyph-name="f_f_k.ss01" horiz-adv-x="1072" 
d="M-42 -233q-29 0 -49 5.5t-37 13.5l24 60q14 -6 30.5 -10.5t36.5 -4.5q23 0 39.5 10.5t27.5 27.5t18 38.5t11 44.5l86 470h-96l10 58h97l10 56q17 97 67 142.5t138 45.5q54 0 87 -14t54 -31q27 28 64 40.5t85 12.5q65 0 104 -9t63 -19l-34 -187q-3 -14 -7 -32t-8.5 -37
t-9 -37t-7.5 -31h3q14 21 31 41t37.5 36t44.5 25.5t52 9.5q53 0 83.5 -31.5t30.5 -76.5q0 -43 -16.5 -74t-43 -53t-59 -36t-63.5 -23l147 -198h-81l-166 224q37 5 75 16t68 29t49 44t19 61q0 26 -14.5 42t-46.5 16q-26 0 -53.5 -17.5t-52 -47.5t-43.5 -70.5t-27 -87.5
l-36 -209h-72l119 655q-17 5 -39.5 8t-52.5 3q-59 0 -88.5 -27t-40.5 -89l-13 -70h118l-10 -58h-119l-85 -469q-16 -87 -54 -132.5t-114 -45.5q-29 0 -49 5.5t-36 13.5l24 60q14 -6 30 -10.5t36 -4.5q22 0 37.5 10t26 26.5t17 37t10.5 42.5l86 467h-214l-86 -472
q-17 -91 -55.5 -137t-117.5 -46zM441 480l15 80q3 18 8 33.5t11 29.5q-17 14 -42.5 24.5t-67.5 10.5q-60 0 -88 -30.5t-41 -101.5l-8 -46h213z" />
    <glyph glyph-name="f_k.ss01" horiz-adv-x="785" 
d="M-43 -230q-29 0 -49 5.5t-37 13.5l24 60q14 -6 30.5 -10.5t36.5 -4.5q23 0 39.5 10.5t27.5 27.5t18 38.5t11 44.5l86 467h-95l10 58h95l8 40q4 18 7 40q17 91 69 131.5t136 40.5q65 0 104 -9t63 -19l-34 -187q-2 -14 -6 -32t-8.5 -37t-9.5 -37t-8 -31h3q14 21 31 41
t37.5 36t44.5 25.5t52 9.5q53 0 83.5 -31.5t30.5 -76.5q0 -43 -16.5 -74t-43 -53t-59 -36t-63.5 -23l147 -198h-81l-166 224q37 5 75 16t68 29t49 44t19 61q0 26 -14.5 42t-46.5 16q-26 0 -53.5 -17.5t-52 -47.5t-43.5 -70.5t-27 -87.5l-36 -209h-72l119 655q-17 5 -39.5 8
t-52.5 3q-59 0 -88.5 -27t-40.5 -89l-13 -70h118l-10 -58h-119l-85 -469q-17 -91 -55.5 -137t-117.5 -46z" />
    <glyph glyph-name="ampersand.ss01" horiz-adv-x="678" 
d="M551 -90q-27 0 -49.5 8t-43.5 24t-43 38t-47 51q-40 -20 -81 -31.5t-83 -11.5q-41 0 -72.5 13.5t-52.5 36.5t-32 53.5t-11 65.5q0 68 22 129t58.5 106.5t84 72.5t97.5 27q49 0 80.5 -24.5t31.5 -75.5q0 -29 -13.5 -53t-34.5 -43.5t-46 -33.5t-49 -22l115 -133
q45 30 87 72q30 30 54 65t41 71.5t26 72.5t9 68q0 85 -49.5 132.5t-158.5 64.5l13 61q134 -18 200 -83t66 -171q0 -36 -11.5 -77.5t-32 -83.5t-49.5 -83t-65 -77q-43 -43 -92 -77q24 -28 42 -46t33 -29t28.5 -15.5t29.5 -4.5q23 0 40.5 7.5t25.5 12.5l24 -50
q-11 -8 -35.5 -17.5t-56.5 -9.5zM217 52q29 0 57.5 7t56.5 20l-134 152l13 40q60 14 95.5 46.5t35.5 67.5q0 21 -14 33t-43 12q-35 0 -67 -22.5t-56.5 -59.5t-39 -85t-14.5 -98q0 -58 28.5 -85.5t81.5 -27.5z" />
    <glyph glyph-name="slash.ss01" horiz-adv-x="399" 
d="M445 720h72l-489 -833h-73z" />
    <glyph glyph-name="g.ss01" horiz-adv-x="452" 
d="M148 -237q-88 0 -136 36t-48 93q0 24 11 45t28 38.5t38.5 31.5t41.5 24q-36 22 -36 65q0 28 16.5 47.5t33.5 32.5q-23 20 -36 49t-13 66q0 44 16.5 81t44.5 63.5t65.5 41.5t78.5 15q38 0 67 -12h160l-10 -58h-82q19 -35 19 -78q0 -44 -15.5 -81.5t-42.5 -64.5t-64 -42.5
t-80 -15.5q-39 0 -67 12q-8 -7 -14.5 -16t-6.5 -23q0 -17 13.5 -26.5t40.5 -15.5q47 -10 87.5 -19t70 -23t46.5 -36.5t17 -58.5q0 -39 -19.5 -71t-53 -54t-78 -34t-93.5 -12zM153 -181q34 0 64.5 7.5t52.5 20.5t35 31.5t13 41.5q0 18 -8 30t-22.5 19.5t-34.5 12t-44 9.5
q-23 5 -43.5 9.5t-37.5 9.5q-38 -20 -65 -46.5t-27 -65.5q0 -15 6.5 -29t20.5 -25.5t36 -18t54 -6.5zM210 199q27 0 50 10t40.5 28.5t27 44t9.5 56.5q0 48 -23.5 71.5t-66.5 23.5q-26 0 -49 -10t-40.5 -28t-28 -43.5t-10.5 -57.5q0 -48 24.5 -71.5t66.5 -23.5z" />
    <glyph glyph-name="k.ss01" horiz-adv-x="476" 
d="M162 720h72l-36 -203q-2 -14 -6 -32t-8.5 -37t-9.5 -37t-8 -31h3q14 21 31 41t37.5 36t44.5 25.5t52 9.5q53 0 83.5 -31.5t30.5 -76.5q0 -43 -16.5 -74t-43 -53t-59 -36t-63.5 -23l147 -198h-81l-166 224q37 5 75 16t68 29t49 44t19 61q0 26 -14.5 42t-46.5 16
q-26 0 -53.5 -17.5t-52 -47.5t-43.5 -70.5t-27 -87.5l-36 -209h-72z" />
    <glyph glyph-name="pi.ss01" horiz-adv-x="598" 
d="M151 419h-109l11 61h570l-11 -61h-126l-52 -297q-2 -7 -2 -13v-10q0 -46 35 -46q17 0 35 5t29 12l16 -56q-17 -11 -43 -18.5t-56 -7.5q-49 0 -71 22.5t-22 64.5q0 9 1 19t3 21l54 304h-186l-96 -546h-76z" />
    <glyph glyph-name="commaaccent" 
d="M165 -219q12 13 26.5 31.5t14.5 36.5q0 8 -3 14t-6.5 12t-6.5 12t-3 15q0 20 14 34t35 14q18 0 30 -11.5t12 -32.5q0 -18 -7 -36t-17.5 -34t-23 -30t-22.5 -25h-43z" />
    <glyph glyph-name="f_b" horiz-adv-x="801" 
d="M-43 -230q-29 0 -49 5.5t-37 13.5l24 60q14 -6 30.5 -10.5t36.5 -4.5q23 0 39.5 10.5t27.5 27.5t18 38.5t11 44.5l86 467h-95l10 58h95l8 40q4 18 7 40q17 91 69 131.5t136 40.5q65 0 104 -9t63 -19l-42 -226q-6 -32 -14 -67t-19 -77h2q16 30 34.5 58t41 50.5t50 36
t60.5 13.5q31 0 53 -12.5t36 -33.5t20.5 -49t6.5 -59q0 -67 -19.5 -130t-55.5 -112t-88.5 -78.5t-118.5 -29.5q-25 0 -49 2.5t-43.5 5.5t-33 6t-19.5 5l117 648q-17 5 -39.5 8t-52.5 3q-59 0 -88.5 -27t-40.5 -89l-13 -70h118l-10 -58h-119l-85 -469q-17 -91 -55.5 -137
t-117.5 -46zM495 50q48 0 85.5 23.5t63 62.5t39 90t13.5 105q0 42 -13 69t-44 27q-37 0 -70 -31.5t-60 -79t-46.5 -104t-28.5 -106.5l-9 -48q7 -2 22.5 -5t47.5 -3z" />
    <glyph glyph-name="f_f_b" horiz-adv-x="1089" 
d="M-42 -233q-29 0 -49 5.5t-37 13.5l24 60q14 -6 30.5 -10.5t36.5 -4.5q23 0 39.5 10.5t27.5 27.5t18 38.5t11 44.5l86 470h-96l10 58h97l10 56q17 97 67 142.5t138 45.5q54 0 87 -14t54 -31q27 28 64 40.5t85 12.5q65 0 104 -9t63 -19l-41 -226q-6 -32 -14 -67t-19 -77h2
q16 30 34.5 58t41 50.5t50 36t60.5 13.5q31 0 53 -12.5t36 -33.5t20.5 -49t6.5 -59q0 -67 -19.5 -130t-55.5 -112t-88.5 -78.5t-118.5 -29.5q-25 0 -49 2.5t-43.5 5.5t-33 6t-19.5 5l116 648q-17 5 -39.5 8t-52.5 3q-59 0 -88.5 -27t-40.5 -89l-13 -70h118l-10 -58h-119
l-85 -469q-16 -87 -54 -132.5t-114 -45.5q-29 0 -49 5.5t-36 13.5l24 60q14 -6 30 -10.5t36 -4.5q22 0 37.5 10t26 26.5t17 37t10.5 42.5l86 467h-214l-86 -472q-17 -91 -55.5 -137t-117.5 -46zM783 50q48 0 85.5 23.5t63 62.5t39 90t13.5 105q0 42 -13 69t-44 27
q-37 0 -70 -31.5t-60 -79t-46.5 -104t-28.5 -106.5l-9 -48q7 -2 22.5 -5t47.5 -3zM441 480l15 80q3 18 8 33.5t11 29.5q-17 14 -42.5 24.5t-67.5 10.5q-60 0 -88 -30.5t-41 -101.5l-8 -46h213z" />
    <glyph glyph-name="f_f_h" horiz-adv-x="1107" 
d="M-42 -233q-29 0 -49 5.5t-37 13.5l24 60q14 -6 30.5 -10.5t36.5 -4.5q23 0 39.5 10.5t27.5 27.5t18 38.5t11 44.5l86 470h-96l10 58h97l10 56q17 97 67 142.5t138 45.5q54 0 87 -14t54 -31q27 28 64 40.5t85 12.5q65 0 104 -9t63 -19l-41 -224q-5 -29 -9 -49t-7.5 -36.5
t-6.5 -31t-7 -30.5h2q11 21 28.5 48.5t42 52t56 41.5t70.5 17q51 0 76 -31t25 -84q0 -21 -5 -49l-60 -328h-72l57 321q2 13 3.5 23.5t1.5 20.5q0 62 -49 62q-30 0 -62 -22.5t-62 -68t-56 -115.5t-43 -166l-10 -55h-72l119 655q-17 5 -39.5 8t-52.5 3q-59 0 -88.5 -27
t-40.5 -89l-13 -70h118l-10 -58h-119l-85 -469q-16 -87 -54 -132.5t-114 -45.5q-29 0 -49 5.5t-36 13.5l24 60q14 -6 30 -10.5t36 -4.5q22 0 37.5 10t26 26.5t17 37t10.5 42.5l86 467h-214l-86 -472q-17 -91 -55.5 -137t-117.5 -46zM441 480l15 80q3 18 8 33.5t11 29.5
q-17 14 -42.5 24.5t-67.5 10.5q-60 0 -88 -30.5t-41 -101.5l-8 -46h213z" />
    <glyph glyph-name="f_f_j" horiz-adv-x="822" 
d="M-42 -233q-29 0 -49 5.5t-37 13.5l24 60q14 -6 30.5 -10.5t36.5 -4.5q23 0 39.5 10.5t27.5 27.5t18 38.5t11 44.5l86 470h-96l10 58h97l10 56q17 97 67 142.5t138 45.5q54 0 87 -14t54 -31q27 28 64 40.5t85 12.5q56 0 89 -13.5t50 -24.5l-33 -60q-14 8 -40.5 20
t-71.5 12q-59 0 -88.5 -27t-40.5 -89l-13 -70h275l-94 -524q-7 -39 -19 -73t-32.5 -59t-52.5 -39.5t-80 -14.5q-27 0 -43.5 4.5t-26.5 8.5l27 61q5 -3 18 -6.5t31 -3.5q25 0 43 9t30 26t20 41t13 54l83 458h-203l-85 -469q-17 -91 -55.5 -137t-117.5 -46q-29 0 -49 5.5
t-37 13.5l24 60q14 -6 30.5 -10.5t36.5 -4.5q23 0 39.5 10.5t27.5 27.5t18 38.5t11 44.5l86 467h-214l-86 -472q-17 -91 -55.5 -137t-117.5 -46zM442 480l14 80q3 18 8 33.5t11 29.5q-17 14 -42.5 24.5t-67.5 10.5q-60 0 -88 -30.5t-41 -101.5l-8 -46h214z" />
    <glyph glyph-name="f_f_k" horiz-adv-x="1041" 
d="M-42 -233q-29 0 -49 5.5t-37 13.5l24 60q14 -6 30.5 -10.5t36.5 -4.5q23 0 39.5 10.5t27.5 27.5t18 38.5t11 44.5l86 470h-96l10 58h97l10 56q17 97 67 142.5t138 45.5q54 0 87 -14t54 -31q27 28 64 40.5t85 12.5q65 0 104 -9t63 -19l-127 -704h-72l118 655
q-17 5 -39.5 8t-52.5 3q-59 0 -88.5 -27t-40.5 -89l-13 -70h118l-10 -58h-119l-85 -469q-16 -87 -54 -132.5t-114 -45.5q-29 0 -49 5.5t-36 13.5l24 60q14 -6 30 -10.5t36 -4.5q22 0 37.5 10t26 26.5t17 37t10.5 42.5l86 467h-214l-86 -472q-17 -91 -55.5 -137t-117.5 -46z
M441 480l15 80q3 18 8 33.5t11 29.5q-17 14 -42.5 24.5t-67.5 10.5q-60 0 -88 -30.5t-41 -101.5l-8 -46h213zM756 268l220 212h89l-231 -216l153 -264h-77z" />
    <glyph glyph-name="f_h" horiz-adv-x="820" 
d="M-43 -230q-29 0 -49 5.5t-37 13.5l24 60q14 -6 30.5 -10.5t36.5 -4.5q23 0 39.5 10.5t27.5 27.5t18 38.5t11 44.5l86 467h-95l10 58h95l8 40q4 18 7 40q17 91 69 131.5t136 40.5q65 0 104 -9t63 -19l-41 -224q-5 -29 -9 -49t-7.5 -36.5t-6.5 -31t-7 -30.5h2
q11 21 28.5 48.5t42 52t56 41.5t70.5 17q51 0 76 -31t25 -84q0 -21 -5 -49l-60 -328h-72l57 321q2 13 3.5 23.5t1.5 20.5q0 62 -49 62q-30 0 -62 -22.5t-62 -68t-56 -115.5t-43 -166l-10 -55h-72l120 655q-17 5 -40 8t-53 3q-59 0 -88.5 -27t-40.5 -89l-13 -70h118l-10 -58
h-119l-85 -469q-17 -91 -55.5 -137t-117.5 -46z" />
    <glyph glyph-name="f_j" horiz-adv-x="537" 
d="M-41 -230q-29 0 -49 5.5t-37 13.5l24 60q14 -6 30.5 -10.5t36.5 -4.5q23 0 39.5 10.5t27.5 27.5t18 38.5t11 44.5l86 467h-95l10 58h95l15 80q17 91 69 131.5t136 40.5q56 0 89 -13.5t50 -24.5l-33 -60q-14 8 -40.5 20t-71.5 12q-59 0 -88.5 -27t-40.5 -89l-13 -70h275
l-93 -524q-7 -39 -18.5 -73t-32.5 -59t-53 -39.5t-80 -14.5q-27 0 -43.5 4.5t-26.5 8.5l27 61q5 -3 18 -6.5t31 -3.5q25 0 43 9t30 26t20 41t13 54l82 458h-203l-85 -469q-17 -91 -55.5 -137t-117.5 -46z" />
    <glyph glyph-name="f_k" horiz-adv-x="754" 
d="M-43 -230q-29 0 -49 5.5t-37 13.5l24 60q14 -6 30.5 -10.5t36.5 -4.5q23 0 39.5 10.5t27.5 27.5t18 38.5t11 44.5l86 467h-95l10 58h95l8 40q4 18 7 40q17 91 69 131.5t136 40.5q65 0 104 -9t63 -19l-127 -704h-72l118 655q-17 5 -39.5 8t-52.5 3q-59 0 -88.5 -27
t-40.5 -89l-13 -70h118l-10 -58h-119l-85 -469q-17 -91 -55.5 -137t-117.5 -46zM469 268l220 212h89l-231 -216l153 -264h-77z" />
    </font>
</defs>
</svg>
