<?xml version="1.0" standalone="no"?>
<!DOCTYPE svg PUBLIC "-//W3C//DTD SVG 1.1//EN" "http://www.w3.org/Graphics/SVG/1.1/DTD/svg11.dtd" >
<svg xmlns="http://www.w3.org/2000/svg" width="100%" height="100%">
<metadata>
Created by FontXChange 20110222 at Tue Sep 13 13:18:19 2011
 By Kirk Austin
2005 Mike Abbink published by FSI FontShop International GmbH
</metadata>
<defs>
<font id="KievitOTLight" horiz-adv-x="608" >
  <font-face 
    font-family="KievitOT Light"
    font-weight="300"
    font-stretch="normal"
    units-per-em="1000"
    panose-1="2 0 5 3 4 0 0 2 0 4"
    ascent="760"
    descent="-240"
    x-height="477"
    cap-height="666"
    bbox="-181 -250 1167 886"
    underline-thickness="20"
    underline-position="-113"
    unicode-range="U+0020-FB04"
  />
<missing-glyph horiz-adv-x="520" 
d="M88 666h344v-666h-344v666zM388 44v578h-256v-578h256z" />
    <glyph glyph-name="uniFB00" unicode="ff" horiz-adv-x="573" 
d="M106 435h-85v42h85v69q0 82 47 131.5t130 49.5q50 0 82.5 -14t51.5 -30q21 23 50.5 35.5t70.5 12.5q28 0 46 -4t28 -9l-14 -46q-8 5 -24 9t-38 4q-107 0 -107 -132v-76h124v-42h-124v-435h-52v435h-219v-435h-52v435zM377 477v80q0 49 15 85q-17 15 -44 27t-67 12
q-56 0 -89.5 -35.5t-33.5 -112.5v-56h219z" />
    <glyph glyph-name="fi" unicode="fi" horiz-adv-x="518" 
d="M104 435h-83v42h83v79q0 81 46 128t129 47q51 0 84.5 -14t56.5 -31l-26 -41q-20 15 -48.5 27.5t-69.5 12.5q-57 0 -89 -34t-32 -101v-73h267v-477h-51v435h-216v-435h-51v435z" />
    <glyph glyph-name="fl" unicode="fl" horiz-adv-x="522" 
d="M104 435h-83v42h83v81q0 85 46.5 129t125.5 44q50 0 89 -7t67 -16v-708h-52v671q-16 5 -44 9.5t-63 4.5q-60 0 -89 -34t-29 -100v-74h119v-42h-119v-435h-51v435z" />
    <glyph glyph-name="uniFB03" unicode="ffi" horiz-adv-x="788" 
d="M106 435h-85v42h85v69q0 82 47 131.5t130 49.5q51 0 84.5 -14.5t53.5 -31.5q47 50 132 50q51 0 84 -14t56 -31l-26 -41q-19 15 -48 27.5t-69 12.5q-59 0 -90 -34t-31 -101v-73h263v-477h-52v435h-211v-435h-52v435h-219v-435h-52v435zM377 477v79q0 47 17 84
q-17 15 -44.5 28t-68.5 13q-56 0 -89.5 -35.5t-33.5 -112.5v-56h219z" />
    <glyph glyph-name="uniFB04" unicode="ffl" horiz-adv-x="795" 
d="M106 435h-85v42h85v69q0 82 47 131.5t130 49.5q51 0 84 -14.5t52 -31.5q47 50 131 50q50 0 89 -7t66 -16v-708h-51v671q-16 5 -44 9.5t-63 4.5q-60 0 -89 -34t-29 -100v-74h124v-42h-124v-435h-52v435h-219v-435h-52v435zM377 477v81q0 24 4 44.5t12 38.5
q-17 15 -44 27.5t-68 12.5q-56 0 -89.5 -35.5t-33.5 -112.5v-56h219z" />
    <glyph glyph-name=".notdef" horiz-adv-x="520" 
d="M88 666h344v-666h-344v666zM388 44v578h-256v-578h256z" />
    <glyph glyph-name=".null" horiz-adv-x="0" 
 />
    <glyph glyph-name="nonmarkingreturn" horiz-adv-x="232" 
 />
    <glyph glyph-name="space" unicode=" " horiz-adv-x="232" 
 />
    <glyph glyph-name="exclam" unicode="!" horiz-adv-x="260" 
d="M130 -8q-17 0 -30 13t-13 31t13 30.5t30 12.5t29.5 -12.5t12.5 -30.5t-12.5 -31t-29.5 -13zM98 666h63l-11 -485h-40z" />
    <glyph glyph-name="quotedbl" unicode="&#x22;" horiz-adv-x="289" 
d="M49 666h67l-9 -214h-40zM173 666h67l-18 -214h-40z" />
    <glyph glyph-name="numbersign" unicode="#" horiz-adv-x="485" 
d="M126 264h-102l7 44h102l19 123h-102l6 44h101l21 135h44l-21 -135h112l20 135h44l-20 -135h103l-7 -44h-102l-18 -123h103l-7 -44h-103l-22 -152h-44l22 152h-111l-23 -152h-44zM289 308l18 123h-112l-18 -123h112z" />
    <glyph glyph-name="dollar" unicode="$" horiz-adv-x="499" 
d="M237 -11q-35 0 -63.5 6.5t-51.5 16t-40.5 21t-29.5 23.5l30 38q20 -18 58.5 -37.5t97.5 -21.5v292q-33 16 -62.5 33t-52 39t-35.5 50t-13 67q0 36 12.5 64t34 48t51 32.5t64.5 15.5v108h43v-107q54 -4 91.5 -20t57.5 -32l-27 -40q-20 15 -51 28t-73 17v-264
q30 -15 60.5 -33t54.5 -41t39 -54t15 -73q0 -35 -12 -64t-34 -51.5t-53 -37.5t-69 -20v-112h-42v109zM278 39q53 9 84 43t31 81q0 27 -9.5 47.5t-25 37.5t-36.5 31t-44 27v-267zM238 628q-48 -5 -78.5 -33t-30.5 -76q0 -26 8 -45.5t22.5 -34.5t34.5 -28t44 -25v242z" />
    <glyph glyph-name="percent" unicode="%" horiz-adv-x="746" 
d="M189 222q-33 0 -57.5 11.5t-41 30.5t-24.5 43t-8 48q0 25 8.5 49t25 43t41.5 30.5t58 11.5t58 -11.5t41 -30t24 -42.5t8 -48q0 -25 -8.5 -49t-25 -43t-41.5 -31t-58 -12zM191 258q43 0 64.5 28t21.5 69t-22 69.5t-65 28.5q-44 0 -65.5 -28t-21.5 -69t22.5 -69.5
t65.5 -28.5zM554 -11q-33 0 -58 11.5t-41.5 30.5t-24.5 43t-8 48q0 25 8.5 49t25 43t42 31t58.5 12t57.5 -11.5t41 -30.5t24.5 -43t8 -48q0 -25 -8.5 -49t-25 -43t-41.5 -31t-58 -12zM555 26q43 0 65 27.5t22 69.5q0 41 -22.5 69t-65.5 28t-65 -27.5t-22 -68.5
q0 -42 22.5 -70t65.5 -28zM495 477h46l-285 -477h-46z" />
    <glyph glyph-name="ampersand" unicode="&#x26;" horiz-adv-x="611" 
d="M257 -11q-50 0 -90 14.5t-68 39t-43 57t-15 68.5q0 34 10 61t29 49.5t45 41.5t59 38q-44 47 -68.5 86t-24.5 84q0 34 13 61.5t35.5 47t53.5 30t66 10.5q33 0 61.5 -10t49.5 -28t33 -43t12 -55q0 -31 -11.5 -57t-32 -48.5t-49 -43t-62.5 -39.5l197 -204q23 35 37.5 77.5
t21.5 84.5l49 -9q-8 -48 -26.5 -97t-48.5 -90l111 -115h-70l-75 77q-39 -41 -89 -64.5t-110 -23.5zM231 384q28 16 52 32.5t42 35.5t28 40t10 47q0 38 -29 66t-76 28q-50 0 -81 -29t-31 -73q0 -36 20.5 -68.5t64.5 -78.5zM259 36q51 0 93.5 21.5t72.5 52.5l-211 217
q-25 -14 -47 -29.5t-38 -34.5t-25 -41.5t-9 -50.5q0 -27 11 -51.5t32 -43t51.5 -29.5t69.5 -11z" />
    <glyph glyph-name="quotesingle" unicode="'" horiz-adv-x="169" 
d="M51 666h68l-14 -214h-41z" />
    <glyph glyph-name="parenleft" unicode="(" horiz-adv-x="296" 
d="M242 -181q-91 97 -136.5 212t-45.5 245q0 129 47 241t135 203h50q-38 -41 -71 -89t-57 -103.5t-37.5 -118t-13.5 -132.5q0 -136 45.5 -248t133.5 -210h-50z" />
    <glyph glyph-name="parenright" unicode=")" horiz-adv-x="296" 
d="M4 -181q38 41 71 89t57 103.5t37.5 118t13.5 132.5q0 136 -45.5 248t-133.5 210h50q91 -97 136.5 -212t45.5 -245t-47 -241.5t-135 -202.5h-50z" />
    <glyph glyph-name="asterisk" unicode="*" horiz-adv-x="440" 
d="M101 369l87 116l-139 43l14 40l136 -47l-3 145h47l-3 -146l137 49l14 -41l-140 -43l87 -116l-34 -25l-84 119l-84 -119z" />
    <glyph glyph-name="plus" unicode="+" horiz-adv-x="583" 
d="M268 244h-223v44h223v216h50v-215h220v-45h-220v-228h-50v228z" />
    <glyph glyph-name="comma" unicode="," horiz-adv-x="220" 
d="M62 -120q38 52 38 93q0 10 -5 17.5t-10.5 14.5t-10.5 15.5t-5 20.5q0 18 12 30t30 12q20 0 33.5 -15t13.5 -41q0 -38 -18 -78.5t-41 -68.5h-37z" />
    <glyph glyph-name="hyphen" unicode="-" horiz-adv-x="301" 
d="M55 312h191v-46h-191v46z" />
    <glyph glyph-name="period" unicode="." horiz-adv-x="220" 
d="M110 -9q-18 0 -31.5 13.5t-13.5 33.5q0 19 13.5 32t31.5 13q19 0 32 -13t13 -32q0 -20 -13 -33.5t-32 -13.5z" />
    <glyph glyph-name="slash" unicode="/" horiz-adv-x="385" 
d="M304 666h50l-240 -666h-51z" />
    <glyph glyph-name="zero" unicode="0" horiz-adv-x="556" 
d="M277 -11q-60 0 -100.5 31t-64.5 80.5t-34.5 111t-10.5 121.5q0 61 10 122.5t34 110.5t64.5 80t101.5 31q60 0 100.5 -31t65.5 -80.5t35.5 -111t10.5 -121.5q0 -61 -10.5 -122t-35.5 -110.5t-65.5 -80.5t-100.5 -31zM277 34q43 0 73 26t48.5 68t26.5 95.5t8 109.5
q0 55 -8 108.5t-26.5 96t-48.5 68.5t-73 26q-44 0 -73.5 -26t-47.5 -68t-26 -96t-8 -109t8 -108.5t26.5 -96t48 -68.5t72.5 -26z" />
    <glyph glyph-name="one" unicode="1" horiz-adv-x="556" 
d="M104 47h170v569l-162 -55l-11 44l179 61h47v-619h168v-47h-391v47z" />
    <glyph glyph-name="two" unicode="2" horiz-adv-x="556" 
d="M81 30q50 53 106.5 113t104 121.5t79 122t31.5 113.5q0 63 -35 97t-92 34q-54 0 -90.5 -20.5t-62.5 -46.5l-27 33q29 31 74 55.5t109 24.5q40 0 73.5 -11.5t57.5 -33.5t37 -53.5t13 -71.5q0 -56 -28 -114.5t-72 -117t-97.5 -116.5t-104.5 -112h317v-47h-393v30z" />
    <glyph glyph-name="three" unicode="3" horiz-adv-x="556" 
d="M218 -11q-38 0 -70 5t-50 10l10 45q15 -5 46 -9.5t66 -4.5q40 0 75 11.5t60.5 32t40 49.5t14.5 65q0 41 -19 69.5t-51.5 46t-75 25.5t-90.5 8v40q39 0 78 10.5t69.5 30t49.5 47t19 61.5q0 48 -34.5 73t-91.5 25q-49 0 -86 -18t-63 -41l-25 34q13 13 31 26t40 23.5
t48.5 17t56.5 6.5q85 0 132 -38.5t47 -104.5q0 -31 -13.5 -57.5t-35.5 -48t-50 -36.5t-57 -23v-1q33 -4 65 -17.5t57 -35.5t40 -52.5t15 -67.5q0 -49 -20.5 -87t-55 -64.5t-79 -40.5t-93.5 -14z" />
    <glyph glyph-name="four" unicode="4" horiz-adv-x="556" 
d="M352 159h-307v43l306 464h53v-459h90v-48h-90v-159h-52v159zM352 207v379l-249 -379h249z" />
    <glyph glyph-name="five" unicode="5" horiz-adv-x="556" 
d="M192 -11q-32 0 -58.5 3t-41.5 8l10 45q12 -3 38.5 -6.5t53.5 -3.5q43 0 81.5 11t67.5 33t46.5 54.5t17.5 75.5q0 44 -17 74.5t-46.5 50t-68 28t-81.5 8.5q-23 0 -45.5 -1t-29.5 -2l19 299h308v-47h-260l-13 -203h22q56 0 105 -12t85 -36.5t57 -63t21 -91.5q0 -55 -21 -97
t-57.5 -70t-86 -42.5t-106.5 -14.5z" />
    <glyph glyph-name="six" unicode="6" horiz-adv-x="556" 
d="M283 -11q-56 0 -96 25t-65.5 64.5t-37 89t-11.5 98.5q0 92 24.5 168t72.5 130t118 84t160 30l9 -43q-143 0 -225.5 -75t-99.5 -221q26 26 66.5 43t86.5 17t82.5 -15.5t62 -42.5t39.5 -64.5t14 -81.5q0 -42 -13.5 -79t-39 -65.5t-63 -45t-84.5 -16.5zM286 34
q36 0 62.5 13.5t44.5 36t26.5 51t8.5 57.5q0 75 -37.5 118.5t-109.5 43.5q-48 0 -86 -16t-67 -44q-1 -5 -1 -14v-14q0 -47 9 -89t28.5 -74t49.5 -50.5t72 -18.5z" />
    <glyph glyph-name="seven" unicode="7" horiz-adv-x="556" 
d="M150 -5l264 624h-336v47h392v-40l-271 -649z" />
    <glyph glyph-name="eight" unicode="8" horiz-adv-x="556" 
d="M276 -11q-46 0 -82.5 13.5t-61.5 36.5t-38.5 54t-13.5 66q0 33 13.5 61t35.5 51.5t49.5 43t55.5 35.5q-27 16 -52 33.5t-43.5 37.5t-30 44.5t-11.5 55.5q0 34 14.5 63t39.5 49.5t58 32t71 11.5q39 0 72 -11t57 -31.5t37.5 -48.5t13.5 -62q0 -31 -12.5 -56t-33 -45
t-46.5 -37t-52 -32q28 -17 56.5 -36t51.5 -42.5t37 -51.5t14 -62q0 -38 -15 -70t-41.5 -55t-63 -35.5t-79.5 -12.5zM278 35q31 0 57.5 9.5t45 27t29 40.5t10.5 50q0 28 -13 51t-34.5 43.5t-48 38t-53.5 33.5q-25 -16 -49 -33.5t-43.5 -37.5t-31.5 -43.5t-12 -51.5
q0 -55 39 -91t104 -36zM279 377q24 15 47 30t40.5 32t28.5 37t11 44t-9 44t-25.5 35t-40 23.5t-51.5 8.5q-29 0 -52.5 -8t-40.5 -22.5t-26.5 -34.5t-9.5 -44q0 -26 11 -46t29 -37.5t41 -32t47 -29.5z" />
    <glyph glyph-name="nine" unicode="9" horiz-adv-x="556" 
d="M108 24q139 0 218.5 78.5t96.5 223.5q-26 -26 -65.5 -42t-85.5 -16q-45 0 -81.5 15.5t-62 42.5t-39.5 64t-14 81q0 42 13.5 79t39 65.5t62 45t83.5 16.5q56 0 95.5 -24.5t64.5 -63.5t36.5 -88.5t11.5 -99.5q0 -92 -22.5 -169.5t-67.5 -133t-113.5 -86.5t-160.5 -31z
M276 313q49 0 85 15t65 43q1 5 1 14v15q0 47 -9 89t-27.5 74t-48 50.5t-71.5 18.5q-36 0 -63 -13.5t-44 -36t-25.5 -51t-8.5 -57.5q0 -75 37 -118t109 -43z" />
    <glyph glyph-name="colon" unicode=":" horiz-adv-x="193" 
d="M96 -9q-18 0 -31.5 14t-13.5 33q0 20 13.5 33t31.5 13q19 0 32 -13t13 -33q0 -19 -13 -33t-32 -14zM96 393q-18 0 -31.5 13.5t-13.5 32.5q0 20 13.5 33t31.5 13q19 0 32 -13t13 -33q0 -19 -13 -32.5t-32 -13.5z" />
    <glyph glyph-name="semicolon" unicode=";" horiz-adv-x="200" 
d="M49 -120q39 51 39 93q0 10 -5 17.5t-11 14.5t-11 15.5t-5 20.5q0 18 12.5 30t29.5 12q20 0 34 -15t14 -41q0 -19 -5 -39.5t-13.5 -40t-19 -37t-21.5 -30.5h-38zM99 393q-19 0 -32 13.5t-13 32.5q0 20 13 33t32 13t32 -13t13 -33q0 -19 -13 -32.5t-32 -13.5z" />
    <glyph glyph-name="less" unicode="&#x3c;" horiz-adv-x="350" 
d="M27 246l247 218l31 -32l-210 -184l210 -184l-31 -34z" />
    <glyph glyph-name="equal" unicode="=" horiz-adv-x="456" 
d="M35 212h385v-45h-385v45zM35 367h385v-46h-385v46z" />
    <glyph glyph-name="greater" unicode="&#x3e;" horiz-adv-x="350" 
d="M45 62l210 184l-210 184l30 34l247 -216l-247 -218z" />
    <glyph glyph-name="question" unicode="?" horiz-adv-x="390" 
d="M113 243q0 45 17 75t62 58q18 11 34.5 23.5t29 28t20 36t7.5 47.5q0 64 -36.5 92t-98.5 28q-20 0 -42 -5.5t-39 -14.5l-20 41q21 11 50 18t55 7q90 0 137.5 -42.5t47.5 -120.5q0 -36 -11 -63.5t-27.5 -48t-36 -35.5t-37.5 -26q-36 -23 -49.5 -46t-13.5 -58v-60h-49v66z
M139 -8q-17 0 -30 13t-13 31t13 30.5t30 12.5t29.5 -12.5t12.5 -30.5t-12.5 -31t-29.5 -13z" />
    <glyph glyph-name="at" unicode="@" horiz-adv-x="751" 
d="M363 -86q-75 0 -135 26t-101 70.5t-63 103.5t-22 126q0 76 27.5 143.5t76 118.5t113.5 81t140 30q74 0 132 -25.5t98 -66.5t61 -94.5t21 -108.5q0 -44 -12.5 -86t-34.5 -75t-53 -53t-67 -20q-47 0 -72 33t-25 82q0 5 0.5 12.5t1.5 12.5h-2q-11 -28 -26 -53.5t-33.5 -44.5
t-40.5 -30.5t-47 -11.5q-22 0 -38.5 10t-27.5 26t-16.5 36.5t-5.5 41.5q0 47 14 94.5t41 85t65.5 61t87.5 23.5q27 0 56.5 -7.5t49.5 -15.5l-26 -125q-6 -31 -9.5 -58.5t-3.5 -46.5q0 -35 16.5 -59t43.5 -24t49 16.5t38 43t25 60t9 67.5q0 57 -20 104.5t-55.5 82t-85 53.5
t-109.5 19t-116 -26t-98.5 -70.5t-68 -104.5t-25.5 -129q0 -60 19 -112t55 -91t88 -61t118 -22q22 0 44 2.5t42 7t37 9.5t29 11l17 -37q-26 -13 -74 -24t-102 -11zM311 129q32 0 58 27.5t46.5 68t34.5 86.5t22 82l4 18q-4 2 -11.5 4t-16.5 4t-17.5 3.5t-15.5 1.5
q-33 0 -60.5 -19t-47.5 -49.5t-31.5 -70t-11.5 -80.5q0 -12 2.5 -25.5t8 -25t14.5 -18.5t22 -7z" />
    <glyph glyph-name="A" unicode="A" 
d="M276 666h56l254 -666h-58l-68 180h-316l-67 -180h-55zM442 227l-140 374l-140 -374h280z" />
    <glyph glyph-name="B" unicode="B" horiz-adv-x="557" 
d="M100 666h152q100 0 158.5 -38t58.5 -126q0 -60 -33.5 -97.5t-88.5 -50.5v-2q31 -6 59 -19.5t48.5 -34.5t32.5 -49t12 -64q0 -50 -17.5 -85t-49.5 -57t-77.5 -32.5t-102.5 -10.5h-152v666zM251 47q98 0 145 32.5t47 104.5q0 68 -46 106t-143 38h-100v-281h97zM247 374
q86 0 126.5 31t40.5 94t-40.5 91.5t-125.5 28.5h-94v-245h93z" />
    <glyph glyph-name="C" unicode="C" horiz-adv-x="610" 
d="M373 -11q-75 0 -134 28t-100.5 75.5t-63 110t-21.5 131.5q0 68 22 130t63.5 109.5t101 75.5t134.5 28q57 0 100 -13t78 -36l-28 -42q-30 21 -67.5 33t-84.5 12q-63 0 -111.5 -24t-82 -65t-51 -94.5t-17.5 -111.5q0 -59 17.5 -113.5t51 -96t82.5 -66t113 -24.5q54 0 95 16
t72 42l27 -39q-30 -27 -80 -46.5t-116 -19.5z" />
    <glyph glyph-name="D" unicode="D" horiz-adv-x="667" 
d="M100 666h144q91 0 160.5 -22.5t116 -65t70.5 -103t24 -136.5t-23.5 -138.5t-70.5 -107t-117 -69t-162 -24.5h-142v666zM246 46q149 0 230.5 74t81.5 217t-81 213t-235 70h-87v-574h91z" />
    <glyph glyph-name="E" unicode="E" horiz-adv-x="493" 
d="M100 666h327v-47h-272v-240h239v-47h-239v-285h279v-47h-334v666z" />
    <glyph glyph-name="F" unicode="F" horiz-adv-x="482" 
d="M100 666h337v-47h-282v-240h245v-47h-245v-332h-55v666z" />
    <glyph glyph-name="G" unicode="G" horiz-adv-x="701" 
d="M376 -11q-76 0 -135.5 28.5t-101 76t-63.5 110t-22 130.5t22 130t64 109.5t102 75.5t137 28q61 0 112 -16t87 -43l-30 -41q-69 54 -171 54q-65 0 -115 -24.5t-83.5 -65t-50.5 -94t-17 -111.5q0 -59 17 -113t51 -95.5t84 -66.5t115 -25q59 0 107 12.5t80 37.5v205h-154v47
h208v-279q-39 -33 -102 -51.5t-141 -18.5z" />
    <glyph glyph-name="H" unicode="H" horiz-adv-x="716" 
d="M100 666h55v-290h406v290h55v-666h-55v329h-406v-329h-55v666z" />
    <glyph glyph-name="I" unicode="I" horiz-adv-x="261" 
d="M103 666h55v-666h-55v666z" />
    <glyph glyph-name="J" unicode="J" horiz-adv-x="262" 
d="M32 -185q-16 0 -28.5 2.5t-17.5 5.5l9 47q5 -2 14 -4t21 -2q80 0 80 127v675h55v-685q0 -80 -33.5 -123t-99.5 -43z" />
    <glyph glyph-name="K" unicode="K" horiz-adv-x="545" 
d="M164 347l276 319h66l-276 -316l296 -350h-70zM100 666h54v-666h-54v666z" />
    <glyph glyph-name="L" unicode="L" horiz-adv-x="458" 
d="M100 666h55v-619h267v-47h-322v666z" />
    <glyph glyph-name="M" unicode="M" horiz-adv-x="844" 
d="M150 666h52l219 -600l221 600h53l89 -666h-55l-74 567l-207 -567h-55l-210 566l-71 -566h-52z" />
    <glyph glyph-name="N" unicode="N" horiz-adv-x="701" 
d="M99 666h54l397 -575v575h52v-666h-51l-401 579v-579h-51v666z" />
    <glyph glyph-name="O" unicode="O" horiz-adv-x="750" 
d="M375 -11q-75 0 -134.5 27.5t-101 75t-63.5 109.5t-22 131t22 131.5t63.5 110t101 75.5t134.5 28q74 0 133.5 -27.5t101 -75t64 -109.5t22.5 -131t-22 -131.5t-63.5 -110t-101 -75.5t-134.5 -28zM375 35q62 0 111 24t83 65t52 94.5t18 113.5t-18 114t-52 95t-83 65.5
t-111 24.5t-111 -24t-83 -65t-52 -94.5t-18 -113.5t18 -114t51.5 -95t82.5 -65.5t112 -24.5z" />
    <glyph glyph-name="P" unicode="P" horiz-adv-x="521" 
d="M100 666h145q106 0 167 -49t61 -139q0 -91 -60 -143t-174 -52h-84v-283h-55v666zM238 330q95 0 137 40t42 106q0 31 -10 57.5t-31 45.5t-54.5 29.5t-81.5 10.5h-85v-289h83z" />
    <glyph glyph-name="Q" unicode="Q" horiz-adv-x="750" 
d="M614 -157q-35 0 -66 8.5t-60.5 26.5t-58.5 45.5t-60 65.5q-73 1 -131.5 29t-99 75t-62.5 108.5t-22 130.5t22 131.5t63.5 110t101 75.5t134.5 28q74 0 133.5 -27.5t101 -75t64 -109.5t22.5 -131q0 -63 -18 -120t-52 -103t-83.5 -76.5t-111.5 -40.5q20 -25 40 -45
t42 -33.5t47 -20.5t55 -7q29 0 49 8.5t31 17.5l22 -39q-14 -14 -41 -23t-62 -9zM375 35q62 0 111 24t83 65t52 94.5t18 113.5t-18 114t-52 95t-83 65.5t-111 24.5t-111 -24t-83 -65t-52 -94.5t-18 -113.5t18 -114t51.5 -95t82.5 -65.5t112 -24.5z" />
    <glyph glyph-name="R" unicode="R" horiz-adv-x="550" 
d="M100 666h157q102 0 159.5 -43t57.5 -128q0 -41 -14.5 -72t-40.5 -52t-62.5 -32.5t-79.5 -12.5h-8v-1q10 -5 23.5 -20.5t41.5 -52.5l185 -252h-66l-163 224q-25 34 -41 53.5t-28 29.5t-22.5 12.5t-25.5 2.5h-18v-322h-55v666zM255 368q163 0 163 126q0 125 -167 125h-96
v-251h100z" />
    <glyph glyph-name="S" unicode="S" horiz-adv-x="490" 
d="M231 -11q-35 0 -63.5 6t-52 16t-41 21.5t-30.5 23.5l30 38q10 -9 25 -19.5t35 -19t45 -14.5t55 -6q34 0 61.5 10t47 27.5t30.5 41t11 49.5q0 32 -13.5 56.5t-36 43.5t-51 35t-58.5 31q-31 16 -59.5 32.5t-50.5 38t-35 49.5t-13 67t14.5 69t40 50.5t59 31t71.5 10.5
q63 0 105 -17.5t64 -34.5l-27 -40q-23 17 -59 31.5t-84 14.5q-57 0 -93.5 -30t-36.5 -82q0 -29 10 -49.5t28 -37t42 -30t51 -27.5q32 -16 65.5 -34t60.5 -42t44 -56.5t17 -77.5q0 -39 -15 -71t-42 -55.5t-65.5 -36.5t-85.5 -13z" />
    <glyph glyph-name="T" unicode="T" horiz-adv-x="480" 
d="M213 619h-192v47h438v-47h-191v-619h-55v619z" />
    <glyph glyph-name="U" unicode="U" horiz-adv-x="681" 
d="M342 -11q-66 0 -113 18.5t-77 53t-44 82.5t-14 107v416h55v-410q0 -107 46.5 -163t148.5 -56q98 0 144.5 58t46.5 154v417h52v-414q0 -122 -59 -192.5t-186 -70.5z" />
    <glyph glyph-name="V" unicode="V" horiz-adv-x="600" 
d="M21 666h59l223 -599l221 599h55l-249 -666h-56z" />
    <glyph glyph-name="W" unicode="W" horiz-adv-x="862" 
d="M25 666h59l150 -579l172 579h56l169 -575l152 575h54l-181 -666h-51l-173 587l-176 -587h-50z" />
    <glyph glyph-name="X" unicode="X" horiz-adv-x="548" 
d="M241 345l-201 321h63l172 -275l166 275h60l-198 -321l217 -345h-63l-188 299l-181 -299h-60z" />
    <glyph glyph-name="Y" unicode="Y" horiz-adv-x="537" 
d="M243 251l-223 415h62l189 -360h2l189 360h56l-221 -415v-251h-54v251z" />
    <glyph glyph-name="Z" unicode="Z" horiz-adv-x="557" 
d="M46 42l384 578h-365v46h430v-37l-390 -583h403v-46h-462v42z" />
    <glyph glyph-name="bracketleft" unicode="[" horiz-adv-x="295" 
d="M85 720h184v-42h-133v-797h133v-42h-184v881z" />
    <glyph glyph-name="backslash" unicode="\" horiz-adv-x="385" 
d="M9 720h50l318 -881h-51z" />
    <glyph glyph-name="bracketright" unicode="]" horiz-adv-x="295" 
d="M26 -119h133v797h-133v42h184v-881h-184v42z" />
    <glyph glyph-name="asciicircum" unicode="^" horiz-adv-x="577" 
d="M268 666h40l205 -378h-49l-176 322l-175 -322h-50z" />
    <glyph glyph-name="underscore" unicode="_" horiz-adv-x="381" 
d="M-1 -106h383v-44h-383v44z" />
    <glyph glyph-name="grave" unicode="`" horiz-adv-x="500" 
d="M162 662h78l97 -122h-46z" />
    <glyph glyph-name="a" unicode="a" horiz-adv-x="458" 
d="M181 -11q-60 0 -96.5 33.5t-36.5 89.5q0 48 24 79.5t60.5 50t81 26t86.5 7.5h22v54q0 59 -25.5 86t-79.5 27q-34 0 -64 -11.5t-60 -39.5l-28 36q64 61 156 61q74 0 113.5 -37t39.5 -115v-240q0 -31 2.5 -56t7.5 -40h-52q-2 11 -4 29t-3 31q-25 -32 -63 -51.5t-81 -19.5z
M188 34q41 0 74.5 19t59.5 53v128h-22q-40 0 -76 -6t-63 -20.5t-43 -37.5t-16 -56q0 -20 7.5 -34.5t19.5 -25t27.5 -15.5t31.5 -5z" />
    <glyph glyph-name="b" unicode="b" horiz-adv-x="508" 
d="M229 -11q-43 0 -80.5 9.5t-62.5 26.5v695h52v-287q22 25 55 40t70 15q51 0 89 -19t63 -52.5t37.5 -79t12.5 -97.5q0 -50 -16.5 -95.5t-47 -80t-74 -55t-98.5 -20.5zM231 34q45 0 79 18t56 47t33 65.5t11 73.5q0 39 -8 75.5t-26.5 65t-48.5 45.5t-73 17q-31 0 -63.5 -15.5
t-52.5 -38.5v-334q17 -8 40.5 -13.5t52.5 -5.5z" />
    <glyph glyph-name="c" unicode="c" horiz-adv-x="433" 
d="M248 -11q-51 0 -89.5 21t-64 56t-38.5 80t-13 93q0 57 15.5 103t43.5 78.5t66.5 50t84.5 17.5q54 0 88 -16.5t54 -33.5l-27 -38q-20 17 -48 30t-68 13t-69 -16t-48 -43.5t-28 -64.5t-9 -78q0 -40 9 -77t27.5 -66t47.5 -46.5t69 -17.5q42 0 74 14.5t48 28.5l23 -39
q-20 -17 -57 -33t-91 -16z" />
    <glyph glyph-name="d" unicode="d" horiz-adv-x="510" 
d="M240 -11q-48 0 -85 18.5t-61.5 51.5t-37.5 79t-13 100q0 51 14.5 96.5t42.5 79.5t67 54t89 20q35 0 65.5 -10.5t52.5 -30.5v273h52v-630q0 -25 3 -49.5t8 -40.5h-53q-2 9 -4.5 25t-2.5 30q-24 -31 -60 -48.5t-77 -17.5zM249 36q32 0 67 17t58 48v298q-22 21 -51.5 32.5
t-63.5 11.5q-41 0 -71 -17t-50 -45t-30 -65t-10 -76q0 -41 8 -77.5t26 -65t46.5 -45t70.5 -16.5z" />
    <glyph glyph-name="e" unicode="e" horiz-adv-x="477" 
d="M257 -11q-55 0 -95 20.5t-66.5 55t-39.5 81t-13 97.5t14 95.5t40.5 77.5t64.5 52.5t86 19.5q46 0 81 -17.5t58 -48.5t33.5 -74t6.5 -94h-329v-11q0 -41 9.5 -78.5t29 -66.5t49.5 -46.5t73 -17.5q46 0 82 15t56 30l22 -41q-23 -17 -63.5 -33t-98.5 -16zM375 297
q0 27 -7.5 53t-23 47t-40 33.5t-58.5 12.5q-31 0 -55.5 -11.5t-42.5 -31t-30 -46t-17 -57.5h274z" />
    <glyph glyph-name="f" unicode="f" horiz-adv-x="300" 
d="M104 435h-83v42h83v80q0 82 41 128t120 46q27 0 45 -4t28 -9l-14 -46q-8 5 -24 9t-37 4q-54 0 -81 -33.5t-27 -98.5v-76h124v-42h-124v-435h-51v435z" />
    <glyph glyph-name="g" unicode="g" horiz-adv-x="490" 
d="M231 -233q-40 0 -73 8.5t-57 25t-37 41t-13 56.5q0 44 24.5 77.5t59.5 50.5q-21 9 -33 25t-12 42q0 24 14.5 43.5t34.5 28.5q-40 22 -62.5 60.5t-22.5 89.5q0 37 13 68.5t37 55t57.5 36.5t74.5 13q36 0 69 -11h150v-42h-85q23 -23 35.5 -53.5t12.5 -65.5q0 -38 -13 -69.5
t-37 -55t-57.5 -36.5t-75.5 -13q-31 0 -55 7q-20 -7 -30 -19.5t-10 -27.5q0 -14 8 -22.5t22 -13t32 -6t38 -2.5q37 -2 76 -5t70.5 -16t52 -39.5t20.5 -75.5q0 -36 -18.5 -64.5t-50 -49t-72.5 -31t-87 -10.5zM233 -190q37 0 69 7.5t55 22t36 34.5t13 45q0 31 -12 49
t-31.5 26.5t-44.5 11t-50 3.5q-23 1 -48 2.5t-43 3.5q-39 -20 -57 -48.5t-18 -63.5q0 -40 32 -66.5t99 -26.5zM236 186q30 0 54 10t40.5 27.5t25.5 41t9 50.5t-9 50.5t-25.5 41.5t-41 28t-54.5 10t-54 -10t-40.5 -27.5t-25 -41t-8.5 -50.5t9 -50.5t25.5 -41.5t40.5 -28
t54 -10z" />
    <glyph glyph-name="h" unicode="h" horiz-adv-x="518" 
d="M86 720h52v-319q9 12 23.5 27.5t34.5 28.5t45 22t55 9q37 0 63.5 -11.5t43 -31.5t24.5 -47.5t8 -59.5v-338h-52v327q0 53 -22 83.5t-76 30.5q-27 0 -50.5 -11t-43 -26t-33.5 -31t-20 -26v-347h-52v720z" />
    <glyph glyph-name="i" unicode="i" horiz-adv-x="235" 
d="M117 577q-16 0 -27.5 12t-11.5 29t11.5 28.5t27.5 11.5q17 0 28.5 -11.5t11.5 -28.5t-11.5 -29t-28.5 -12zM91 477h53v-477h-53v477z" />
    <glyph glyph-name="j" unicode="j" horiz-adv-x="229" 
d="M17 -229q-17 0 -28 2.5t-15 4.5l9 44q5 -2 12 -4t20 -2q43 0 58.5 33t15.5 89v539h52v-550q0 -34 -7 -62.5t-22 -49.5t-38.5 -32.5t-56.5 -11.5zM114 577q-16 0 -28 12t-12 29t12 28.5t28 11.5q17 0 28.5 -11.5t11.5 -28.5t-11.5 -29t-28.5 -12z" />
    <glyph glyph-name="k" unicode="k" horiz-adv-x="450" 
d="M143 268l209 209h65l-211 -209l222 -268h-65zM86 720h52v-720h-52v720z" />
    <glyph glyph-name="l" unicode="l" horiz-adv-x="230" 
d="M89 720h52v-720h-52v720z" />
    <glyph glyph-name="m" unicode="m" horiz-adv-x="782" 
d="M88 477h52v-75q9 12 22 27t31.5 28t42 22t53.5 9q54 0 83.5 -25.5t38.5 -63.5q12 16 27.5 32t35 28.5t43 20.5t50.5 8q36 0 60.5 -11t40.5 -31t23 -47.5t7 -60.5v-338h-52v327q0 51 -19 82.5t-71 31.5q-24 0 -45 -8.5t-38.5 -21.5t-31 -28.5t-22.5 -28.5v-354h-52v327
q0 53 -19.5 83.5t-69.5 30.5q-26 0 -48.5 -11t-40.5 -26t-30.5 -31t-18.5 -26v-347h-52v477z" />
    <glyph glyph-name="n" unicode="n" horiz-adv-x="520" 
d="M88 477h52v-76q26 36 66.5 61.5t91.5 25.5q37 0 63.5 -11.5t43 -31.5t24 -47.5t7.5 -59.5v-338h-52v327q0 53 -21.5 83.5t-75.5 30.5q-23 0 -44.5 -8.5t-40.5 -22t-35 -30t-27 -33.5v-347h-52v477z" />
    <glyph glyph-name="o" unicode="o" horiz-adv-x="517" 
d="M257 -11q-56 0 -97 22t-67 57.5t-38.5 80t-12.5 89.5t12.5 89.5t38.5 80.5t66.5 58t96.5 22t97.5 -22t68.5 -57.5t40 -79.5t13 -89t-13 -90t-40 -80.5t-68 -58t-97 -22.5zM258 34q41 0 71.5 16.5t50.5 45t30 65t10 77.5q0 40 -10.5 77t-31.5 65.5t-52 45.5t-72 17
t-70.5 -16.5t-48.5 -44.5t-28.5 -65t-9.5 -77q0 -41 10 -78t30 -65.5t50 -45.5t71 -17z" />
    <glyph glyph-name="p" unicode="p" horiz-adv-x="514" 
d="M88 477h52v-52q20 26 54.5 44.5t80.5 18.5q48 0 84.5 -18.5t61.5 -51.5t37.5 -78.5t12.5 -99.5q0 -51 -14.5 -97t-42 -80t-67 -54t-89.5 -20q-43 0 -72 13t-46 28v-249h-52v696zM255 34q40 0 70.5 17t50.5 45.5t30 65t10 76.5t-8.5 77t-26.5 65t-46.5 44.5t-68.5 16.5
q-21 0 -40.5 -6.5t-36 -16t-29 -21t-20.5 -21.5v-298q18 -18 47.5 -31t67.5 -13z" />
    <glyph glyph-name="q" unicode="q" horiz-adv-x="510" 
d="M370 44q-19 -22 -52 -38.5t-72 -16.5q-51 0 -89 19.5t-63.5 53t-38 78.5t-12.5 97q0 50 16.5 95.5t47.5 80t74.5 55t97.5 20.5q55 0 91.5 -12.5t51.5 -22.5v-670h-52v261zM254 36q18 0 36 5.5t33.5 13.5t27.5 17.5t19 18.5v332q-12 6 -35 13t-58 7q-45 0 -79 -18t-56 -47
t-33 -65.5t-11 -73.5q0 -39 8 -75.5t26.5 -65t48.5 -45.5t73 -17z" />
    <glyph glyph-name="r" unicode="r" horiz-adv-x="327" 
d="M88 477h52v-83q7 13 18.5 29.5t27.5 30.5t36.5 24t45.5 10q17 0 28.5 -3t17.5 -5l-13 -49q-6 2 -15 4.5t-24 2.5q-25 0 -45 -12.5t-35.5 -30t-26 -35.5t-15.5 -28v-332h-52v477z" />
    <glyph glyph-name="s" unicode="s" horiz-adv-x="393" 
d="M186 -12q-47 0 -85 14.5t-60 31.5l23 40q17 -14 50.5 -27t72.5 -13q48 0 77.5 21.5t29.5 60.5q0 20 -8 34.5t-23 26.5t-35 22t-44 21q-27 12 -51 24.5t-42 29t-28.5 38t-10.5 51.5q0 54 37 89.5t104 35.5q50 0 84 -15t51 -29l-26 -38q-17 14 -45 25.5t-65 11.5
q-43 0 -66 -21t-23 -56q0 -21 8.5 -35.5t22.5 -26t32.5 -20.5t39.5 -18q28 -12 53 -25t44.5 -29.5t31 -38.5t11.5 -51q0 -62 -43.5 -98t-116.5 -36z" />
    <glyph glyph-name="t" unicode="t" horiz-adv-x="330" 
d="M211 -11q-53 0 -78.5 30.5t-25.5 87.5v328h-80v42h80v136h52v-136h123v-42h-123v-325q0 -38 13 -57t45 -19q21 0 40 8.5t26 13.5l20 -39q-11 -8 -34.5 -18t-57.5 -10z" />
    <glyph glyph-name="u" unicode="u" horiz-adv-x="519" 
d="M222 -11q-38 0 -64 11.5t-43 31.5t-24.5 48t-7.5 60v337h52v-326q0 -53 21.5 -84t76.5 -31q27 0 50.5 11t43 26t33 31t19.5 27v346h52v-385q0 -29 2.5 -53.5t6.5 -38.5h-53q-2 12 -4.5 35t-2.5 43q-9 -14 -23 -29.5t-34 -28.5t-45.5 -22t-55.5 -9z" />
    <glyph glyph-name="v" unicode="v" horiz-adv-x="442" 
d="M17 477h56l149 -411l148 411h54l-178 -477h-48z" />
    <glyph glyph-name="w" unicode="w" horiz-adv-x="683" 
d="M19 477h56l116 -397l125 397h51l125 -398l117 398h52l-144 -477h-48l-129 402l-129 -402h-48z" />
    <glyph glyph-name="x" unicode="x" horiz-adv-x="442" 
d="M191 248l-158 229h60q34 -52 62 -92q12 -17 23.5 -34t20.5 -30.5t15 -22t7 -9.5l124 188h56l-154 -226l172 -251h-59l-144 210l-137 -210h-56z" />
    <glyph glyph-name="y" unicode="y" horiz-adv-x="450" 
d="M53 -230q-15 0 -24 1t-15 3l7 44q5 -1 12 -2t21 -1q25 0 44 8t33 23.5t25.5 37.5t22.5 51l24 68l-179 474h57l150 -409l147 409h55l-205 -546q-13 -34 -27 -63.5t-34 -51t-47.5 -34t-66.5 -12.5z" />
    <glyph glyph-name="z" unicode="z" horiz-adv-x="410" 
d="M43 37l255 397h-240v43h303v-39l-257 -395h262v-43h-323v37z" />
    <glyph glyph-name="braceleft" unicode="{" horiz-adv-x="343" 
d="M239 -161q-43 0 -71.5 27.5t-28.5 80.5v206q0 51 -32.5 80.5t-77.5 30.5v42q22 0 42 8t35 22t24 34.5t9 46.5v196q0 52 28.5 79.5t71.5 27.5h77v-42h-67q-35 0 -47 -22.5t-12 -57.5v-189q0 -27 -8.5 -48t-22.5 -36t-32.5 -24.5t-39.5 -13.5v-1q42 -10 72.5 -40.5
t30.5 -85.5v-202q0 -35 12 -56t46 -21h68v-42h-77z" />
    <glyph glyph-name="bar" unicode="|" horiz-adv-x="282" 
d="M121 750h40v-1000h-40v1000z" />
    <glyph glyph-name="braceright" unicode="}" horiz-adv-x="343" 
d="M26 -119h68q35 0 47 22.5t12 57.5v201q0 54 30.5 83.5t72.5 37.5v2q-42 9 -72.5 40t-30.5 85v191q0 35 -12 56t-47 21h-68v42h77q43 0 72 -27.5t29 -80.5v-195q0 -51 32 -80.5t78 -30.5v-42q-45 -1 -77.5 -30t-32.5 -81v-207q0 -52 -28.5 -79.5t-71.5 -27.5h-78v42z" />
    <glyph glyph-name="asciitilde" unicode="~" horiz-adv-x="587" 
d="M403 183q-40 0 -68.5 11.5t-53.5 25.5t-49 25.5t-54 11.5t-53 -13t-41 -30l-26 33q20 20 53 38t71 18q36 0 62.5 -11.5t51.5 -25t50.5 -25t60.5 -11.5q26 0 51 12t46 31l25 -33q-23 -23 -56.5 -40t-69.5 -17z" />
    <glyph glyph-name="uni00A0" unicode="&#xa0;" horiz-adv-x="232" 
 />
    <glyph glyph-name="exclamdown" unicode="&#xa1;" horiz-adv-x="260" 
d="M130 401q-17 0 -29.5 13t-12.5 30q0 19 12.5 31.5t29.5 12.5t30 -12.5t13 -31.5q0 -17 -13 -30t-30 -13zM110 300h40l12 -486h-63z" />
    <glyph glyph-name="cent" unicode="&#xa2;" horiz-adv-x="432" 
d="M221 -9q-45 6 -78.5 28.5t-55 56.5t-32.5 76t-11 87q0 51 12.5 93.5t36 74.5t56 52t72.5 26v106h50v-103q46 -3 76 -18.5t48 -31.5l-26 -38q-20 17 -48 30t-68 13t-69 -16t-48 -43.5t-28 -64.5t-9 -78q0 -40 9 -77t27.5 -66t47.5 -46.5t69 -17.5q42 0 74 14.5t48 28.5
l23 -39q-18 -15 -49.5 -29.5t-76.5 -18.5v-113h-50v114z" />
    <glyph glyph-name="sterling" unicode="&#xa3;" horiz-adv-x="454" 
d="M56 36q57 35 83.5 91.5t26.5 114.5q0 17 -1 33t-3 33h-96v44h90q-4 35 -8 71.5t-4 77.5q0 38 9.5 70t29.5 55.5t50.5 37t72.5 13.5q40 0 69.5 -11.5t44.5 -22.5l-24 -40q-14 10 -38 19t-59 9q-54 0 -78 -36.5t-24 -93.5q0 -38 4 -74.5t8 -74.5h152v-44h-147
q1 -16 2 -31.5t1 -32.5q0 -38 -8.5 -70t-21.5 -57.5t-28 -44t-28 -27.5h272v-45h-347v36z" />
    <glyph glyph-name="currency" unicode="&#xa4;" horiz-adv-x="529" 
d="M57 13l78 100q-24 25 -36.5 57.5t-12.5 67.5t13.5 69t39.5 60l-80 103l35 27l79 -105q20 11 43.5 17.5t50.5 6.5q49 0 86 -20l78 101l35 -27l-77 -98q29 -26 45 -61.5t16 -72.5t-14.5 -71t-42.5 -60l73 -94l-35 -27l-73 96q-41 -22 -91 -22q-29 0 -53.5 7t-44.5 20
l-77 -101zM267 102q29 0 53.5 10.5t42.5 29t28 43t10 53.5q0 28 -10 53t-28 44t-42.5 29.5t-53.5 10.5t-53.5 -10.5t-42 -29.5t-27.5 -44t-10 -53q0 -29 10 -53.5t27.5 -43t42 -29t53.5 -10.5z" />
    <glyph glyph-name="yen" unicode="&#xa5;" horiz-adv-x="502" 
d="M226 100h-159v43h159v82h-159v44h150l-214 397h62l189 -360h2l190 360h55l-212 -397h151v-44h-160v-82h160v-43h-160v-100h-54v100z" />
    <glyph glyph-name="brokenbar" unicode="&#xa6;" horiz-adv-x="168" 
d="M63 128h40v-378h-40v378zM63 750h40v-368h-40v368z" />
    <glyph glyph-name="section" unicode="&#xa7;" horiz-adv-x="459" 
d="M208 -152q-38 0 -65.5 11t-42.5 23l24 39q13 -10 34.5 -18.5t50.5 -8.5q45 0 67.5 28.5t22.5 66.5q0 29 -16.5 58.5t-42 60t-54.5 62.5t-54.5 65t-42 67.5t-16.5 70.5q0 22 6 41t15.5 34t21 26.5t21.5 19.5q-13 20 -21.5 43t-8.5 49q0 34 11.5 60.5t31 45.5t45 29
t53.5 10q39 0 66 -11t43 -24l-26 -40q-12 11 -31.5 20.5t-52.5 9.5q-23 0 -39.5 -8.5t-28 -22t-17 -30.5t-5.5 -35q0 -29 17 -58.5t42 -60.5t54.5 -62.5t54.5 -64.5t42 -67.5t17 -70.5q0 -22 -6.5 -41t-16.5 -34.5t-21 -27.5t-20 -20q13 -21 21.5 -44t8.5 -46
q0 -35 -11.5 -62t-31 -45.5t-45.5 -28t-54 -9.5zM294 120q15 14 27 35.5t12 49.5q0 29 -19 62t-46 66.5t-56 65.5t-49 59q-16 -12 -27 -33t-11 -51q0 -29 19 -62t45.5 -66.5t55.5 -65.5t49 -60z" />
    <glyph glyph-name="dieresis" unicode="&#xa8;" horiz-adv-x="500" 
d="M165 543q-16 0 -27.5 12t-11.5 29t11.5 28.5t27.5 11.5q17 0 28.5 -11.5t11.5 -28.5t-11.5 -29t-28.5 -12zM334 543q-16 0 -27.5 12t-11.5 29t11.5 28.5t27.5 11.5q17 0 29 -11.5t12 -28.5t-12 -29t-29 -12z" />
    <glyph glyph-name="copyright" unicode="&#xa9;" horiz-adv-x="859" 
d="M436 124q-50 0 -91.5 18.5t-71.5 51t-47 75t-17 90.5q0 49 17 92t47.5 75t72 50.5t90.5 18.5t81.5 -14.5t55.5 -34.5l-28 -34q-17 15 -44 27.5t-65 12.5q-42 0 -74.5 -16.5t-55 -43t-34 -61t-11.5 -70.5q0 -40 13.5 -75t37 -61.5t56 -42t71.5 -15.5q43 0 75.5 15.5
t49.5 29.5l23 -37q-23 -19 -60.5 -35t-90.5 -16zM429 -12q-77 0 -144 29t-117 79t-79 118t-29 145t29 145t79 118.5t117 79.5t144 29t144.5 -29t117.5 -79.5t79 -118.5t29 -145t-29 -145t-79 -118t-117.5 -79t-144.5 -29zM429 27q70 0 130 25t104 69.5t69 105.5t25 132
t-25 132t-69 105.5t-104 70t-130 25.5q-69 0 -129 -25.5t-103.5 -70t-68.5 -105.5t-25 -132t25 -132t68.5 -105.5t103.5 -69.5t129 -25z" />
    <glyph glyph-name="ordfeminine" unicode="&#xaa;" horiz-adv-x="355" 
d="M142 315q-43 0 -73 26.5t-30 67.5q0 25 9 42.5t23 31.5q27 25 69.5 34t95.5 9v33q0 36 -16 57t-54 21q-32 0 -53 -11t-34 -23l-24 31q14 13 41.5 28t70.5 15q54 0 84 -27.5t30 -84.5v-167q0 -22 2.5 -41.5t5.5 -33.5h-46q-3 18 -5 37q-14 -16 -38.5 -30.5t-57.5 -14.5z
M146 355q34 0 56.5 16t33.5 30v89q-48 0 -81.5 -6.5t-53.5 -28.5q-15 -18 -15 -45q0 -25 17 -40t43 -15z" />
    <glyph glyph-name="guillemotleft" unicode="&#xab;" horiz-adv-x="453" 
d="M49 245l138 189h55l-137 -189l137 -188h-55zM212 245l137 189h56l-137 -189l137 -188h-56z" />
    <glyph glyph-name="logicalnot" unicode="&#xac;" horiz-adv-x="575" 
d="M473 246h-431v46h480v-250h-49v204z" />
    <glyph glyph-name="uni00AD" unicode="&#xad;" horiz-adv-x="301" 
d="M55 312h191v-46h-191v46z" />
    <glyph glyph-name="registered" unicode="&#xae;" horiz-adv-x="859" 
d="M305 593h130q34 0 60 -10.5t43.5 -27.5t26.5 -39.5t9 -46.5q0 -48 -34 -81.5t-94 -37.5h-8q14 -10 25 -23t24 -32l122 -166h-59l-120 168q-20 28 -34 39t-43 11v-218h-48v464zM429 -12q-77 0 -144 29t-117 79t-79 118t-29 145t29 145t79 118.5t117 79.5t144 29t144.5 -29
t117.5 -79.5t79 -118.5t29 -145t-29 -145t-79 -118t-117.5 -79t-144.5 -29zM429 27q70 0 130 25t104 69.5t69 105.5t25 132t-25 132t-69 105.5t-104 70t-130 25.5q-69 0 -129 -25.5t-103.5 -70t-68.5 -105.5t-25 -132t25 -132t68.5 -105.5t103.5 -69.5t129 -25zM414 386
q47 0 78.5 19t31.5 63q0 35 -23.5 59t-74.5 24h-73v-165h61z" />
    <glyph glyph-name="macron" unicode="&#xaf;" horiz-adv-x="500" 
d="M116 625h267v-44h-267v44z" />
    <glyph glyph-name="degree" unicode="&#xb0;" horiz-adv-x="345" 
d="M172 424q-27 0 -49.5 10.5t-39 27.5t-26 40t-9.5 48q0 26 9.5 49t26 40.5t39.5 27.5t50 10t49.5 -10t39 -27.5t26 -40.5t9.5 -48q0 -26 -9.5 -49t-26 -40t-39.5 -27.5t-50 -10.5zM173 463q37 0 59.5 25.5t22.5 62.5q0 36 -22.5 62t-59.5 26q-38 0 -60.5 -26t-22.5 -62
q0 -37 22.5 -62.5t60.5 -25.5z" />
    <glyph glyph-name="plusminus" unicode="&#xb1;" horiz-adv-x="583" 
d="M268 244h-223v44h223v216h50v-215h220v-45h-220v-228h-50v228zM81 -53h424v-46h-424v46z" />
    <glyph glyph-name="twosuperior" unicode="&#xb2;" horiz-adv-x="306" 
d="M31 367q27 24 56.5 50.5t54 54t41 54.5t16.5 53q0 29 -17.5 42t-43.5 13t-46.5 -10.5t-34.5 -22.5l-24 29q17 15 44.5 28.5t66.5 13.5q51 0 77 -23.5t26 -64.5q0 -27 -13.5 -53.5t-34.5 -52.5t-47 -50.5t-52 -47.5h163v-38h-232v25z" />
    <glyph glyph-name="threesuperior" unicode="&#xb3;" horiz-adv-x="278" 
d="M91 337q-19 0 -37 3t-26 5l9 37q8 -3 23 -5.5t29 -2.5q43 0 70 15.5t27 47.5q0 34 -34 48t-82 14v33q19 0 38 4t34 12t24.5 19t9.5 26q0 20 -16 30.5t-42 10.5q-22 0 -42.5 -9t-31.5 -18l-20 28q14 12 42 24.5t61 12.5q48 0 72 -20t24 -52q0 -33 -23.5 -52t-51.5 -26v-1
q15 -2 30.5 -7.5t28 -16t20 -25.5t7.5 -34q0 -51 -40 -76t-103 -25z" />
    <glyph glyph-name="acute" unicode="&#xb4;" horiz-adv-x="500" 
d="M249 662h78l-130 -122h-45z" />
    <glyph glyph-name="uni00B5" unicode="&#xb5;" horiz-adv-x="531" 
d="M86 477h52v-336q0 -46 20.5 -75.5t70.5 -29.5q25 0 48.5 9.5t43.5 23.5t35.5 30.5t25.5 30.5v347h52v-388q0 -25 2.5 -50.5t5.5 -38.5h-53q-2 11 -4 34t-3 43q-9 -13 -23.5 -28t-34.5 -28.5t-45.5 -22.5t-55.5 -9t-53 11t-34 27h-2q2 -22 3 -55.5t1 -64.5v-113h-52v683z
" />
    <glyph glyph-name="paragraph" unicode="&#xb6;" horiz-adv-x="622" 
d="M260 282q-39 0 -74 13.5t-61 38t-41 60t-15 79.5t15 79.5t41 61t60.5 39t74.5 13.5h293v-45h-82v-798h-48v798h-114v-798h-49v459z" />
    <glyph glyph-name="periodcentered" unicode="&#xb7;" horiz-adv-x="190" 
d="M95 244q-18 0 -31.5 13.5t-13.5 33.5q0 19 13.5 32t31.5 13q19 0 32 -13t13 -32q0 -20 -13 -33.5t-32 -13.5z" />
    <glyph glyph-name="cedilla" unicode="&#xb8;" horiz-adv-x="500" 
d="M212 -215q-24 0 -39 4t-23 8l10 33q8 -4 20.5 -7.5t30.5 -3.5q26 0 41 11t15 32q0 13 -6.5 21.5t-17 13t-23.5 6t-26 1.5l37 99h38l-27 -74q31 -4 50.5 -22t19.5 -44q0 -38 -29 -58t-71 -20z" />
    <glyph glyph-name="onesuperior" unicode="&#xb9;" horiz-adv-x="227" 
d="M103 626l-74 -23l-11 36l95 27h36v-324h-46v284z" />
    <glyph glyph-name="ordmasculine" unicode="&#xba;" horiz-adv-x="381" 
d="M189 315q-41 0 -69.5 16t-47 42t-27 58t-8.5 65t8.5 65.5t26.5 58.5t47 42t70 16q40 0 69.5 -16t48.5 -41.5t28 -58t9 -64.5q0 -33 -9 -66t-27.5 -59t-48 -42t-70.5 -16zM191 355q28 0 47.5 11.5t32 31t18.5 45t6 53.5q0 27 -6.5 53t-19.5 45.5t-33 31.5t-48 12
t-47.5 -11.5t-31.5 -31t-17.5 -45t-5.5 -52.5q0 -28 6 -53.5t18.5 -45.5t32.5 -32t48 -12z" />
    <glyph glyph-name="guillemotright" unicode="&#xbb;" horiz-adv-x="453" 
d="M184 245l-136 190h55l138 -190l-138 -188h-55zM347 245l-137 190h56l138 -190l-138 -188h-56z" />
    <glyph glyph-name="onequarter" unicode="&#xbc;" horiz-adv-x="586" 
d="M471 72h-172v32l173 220h43v-215h51v-37h-51v-72h-44v72zM103 626l-74 -23l-11 36l95 27h36v-324h-46v284zM454 666h45l-408 -666h-45zM471 109v154l-120 -154h120z" />
    <glyph glyph-name="onehalf" unicode="&#xbd;" horiz-adv-x="624" 
d="M349 25q27 24 56.5 50.5t54 53.5t41 54.5t16.5 52.5q0 29 -17.5 42.5t-43.5 13.5t-46 -10.5t-34 -22.5l-24 29q17 15 44.5 28t66.5 13q50 0 76 -23t26 -65q0 -26 -13.5 -52.5t-34.5 -52.5t-47 -51t-51 -48h162v-37h-232v25zM103 626l-74 -23l-11 36l95 27h36v-324h-46
v284zM454 666h45l-408 -666h-45z" />
    <glyph glyph-name="threequarters" unicode="&#xbe;" horiz-adv-x="636" 
d="M91 337q-19 0 -37 3t-26 5l9 37q8 -3 23 -5.5t29 -2.5q43 0 70 15.5t27 47.5q0 34 -34 48t-82 14v33q19 0 38 4t34 12t24.5 19t9.5 26q0 20 -16 30.5t-42 10.5q-22 0 -42.5 -9t-31.5 -18l-20 28q14 12 42 24.5t61 12.5q48 0 72 -20t24 -52q0 -33 -23.5 -52t-51.5 -26v-1
q15 -2 30.5 -7.5t28 -16t20 -25.5t7.5 -34q0 -51 -40 -76t-103 -25zM521 72h-171v32l173 220h43v-215h50v-37h-50v-72h-45v72zM504 666h46l-408 -666h-45zM522 109v154l-121 -154h121z" />
    <glyph glyph-name="questiondown" unicode="&#xbf;" horiz-adv-x="387" 
d="M238 -197q-90 0 -138 42.5t-48 120.5q0 36 11 63.5t27.5 48.5t36.5 36t38 26q36 23 49 45.5t13 57.5v60h50v-65q0 -44 -18 -75t-62 -59q-18 -11 -34 -23.5t-28.5 -28t-20 -36t-7.5 -47.5q0 -64 36.5 -92t98.5 -28q22 0 44.5 6.5t36.5 14.5l19 -42q-16 -9 -45 -17t-59 -8z
M251 401q-17 0 -30 13t-13 30q0 19 13 31.5t30 12.5t30 -12.5t13 -31.5q0 -17 -13 -30t-30 -13z" />
    <glyph glyph-name="Agrave" unicode="&#xc0;" 
d="M276 666h56l254 -666h-58l-68 180h-316l-67 -180h-55zM442 227l-140 374l-140 -374h280zM154 835h78l97 -122h-46z" />
    <glyph glyph-name="Aacute" unicode="&#xc1;" 
d="M276 666h56l254 -666h-58l-68 180h-316l-67 -180h-55zM442 227l-140 374l-140 -374h280zM375 835h78l-130 -122h-45z" />
    <glyph glyph-name="Acircumflex" unicode="&#xc2;" 
d="M276 666h56l254 -666h-58l-68 180h-316l-67 -180h-55zM442 227l-140 374l-140 -374h280zM285 861h34l119 -147h-49l-88 94l-86 -94h-49z" />
    <glyph glyph-name="Atilde" unicode="&#xc3;" 
d="M276 666h56l254 -666h-58l-68 180h-316l-67 -180h-55zM442 227l-140 374l-140 -374h280zM349 718q-17 0 -29.5 6.5t-23 14t-21.5 14t-25 6.5q-17 0 -31 -12t-23 -21l-27 27q6 8 14.5 17.5t19 17.5t23.5 13t28 5q17 0 29.5 -6.5t23.5 -14.5t21.5 -14.5t24.5 -6.5
q19 0 33 11.5t22 22.5l28 -29q-14 -17 -35.5 -34t-51.5 -17z" />
    <glyph glyph-name="Adieresis" unicode="&#xc4;" 
d="M276 666h56l254 -666h-58l-68 180h-316l-67 -180h-55zM442 227l-140 374l-140 -374h280zM217 716q-16 0 -27.5 12t-11.5 29t11.5 28.5t27.5 11.5q17 0 28.5 -11.5t11.5 -28.5t-11.5 -29t-28.5 -12zM386 716q-16 0 -27.5 12t-11.5 29t11.5 28.5t27.5 11.5q17 0 29 -11.5
t12 -28.5t-12 -29t-29 -12z" />
    <glyph glyph-name="Aring" unicode="&#xc5;" 
d="M276 666h56l254 -666h-58l-68 180h-316l-67 -180h-55zM442 227l-140 374l-140 -374h280zM302 703q-38 0 -64 27t-26 64q0 38 26 65t64 27t64 -27t26 -64q0 -38 -26 -65t-64 -27zM302 734q26 0 40.5 18.5t14.5 41.5t-14.5 41.5t-40.5 18.5t-40.5 -18t-14.5 -41t14.5 -42
t40.5 -19z" />
    <glyph glyph-name="AE" unicode="&#xc6;" horiz-adv-x="796" 
d="M373 666h357v-47h-272v-240h239v-47h-239v-285h279v-47h-333v192h-247l-110 -192h-59zM404 239v386l-221 -386h221z" />
    <glyph glyph-name="Ccedilla" unicode="&#xc7;" horiz-adv-x="610" 
d="M322 -215q-24 0 -39 4t-23 8l10 33q8 -4 20.5 -7.5t30.5 -3.5q26 0 41 11t15 32q0 13 -6.5 21.5t-17 13t-23.5 6t-26 1.5l32 87q-67 7 -119.5 37t-88.5 76.5t-55 105.5t-19 124q0 68 22 130t63.5 109.5t101 75.5t134.5 28q57 0 100 -13t78 -36l-28 -42q-30 21 -67.5 33
t-84.5 12q-63 0 -111.5 -24t-82 -65t-51 -94.5t-17.5 -111.5q0 -59 17.5 -113.5t51 -96t82.5 -66t113 -24.5q54 0 95 16t72 42l27 -39q-30 -27 -80 -46.5t-115 -19.5l-22 -60q31 -4 50.5 -22t19.5 -44q0 -38 -29 -58t-71 -20z" />
    <glyph glyph-name="Egrave" unicode="&#xc8;" horiz-adv-x="493" 
d="M100 666h327v-47h-272v-240h239v-47h-239v-285h279v-47h-334v666zM119 835h78l97 -122h-46z" />
    <glyph glyph-name="Eacute" unicode="&#xc9;" horiz-adv-x="493" 
d="M340 835h78l-130 -122h-45zM100 666h327v-47h-272v-240h239v-47h-239v-285h279v-47h-334v666z" />
    <glyph glyph-name="Ecircumflex" unicode="&#xca;" horiz-adv-x="493" 
d="M251 861h34l119 -147h-49l-88 94l-86 -94h-49zM100 666h327v-47h-272v-240h239v-47h-239v-285h279v-47h-334v666z" />
    <glyph glyph-name="Edieresis" unicode="&#xcb;" horiz-adv-x="493" 
d="M182 716q-16 0 -27.5 12t-11.5 29t11.5 28.5t27.5 11.5q17 0 28.5 -11.5t11.5 -28.5t-11.5 -29t-28.5 -12zM351 716q-16 0 -27.5 12t-11.5 29t11.5 28.5t27.5 11.5q17 0 29 -11.5t12 -28.5t-12 -29t-29 -12zM100 666h327v-47h-272v-240h239v-47h-239v-285h279v-47h-334
v666z" />
    <glyph glyph-name="Igrave" unicode="&#xcc;" horiz-adv-x="261" 
d="M103 666h55v-666h-55v666zM-18 835h78l97 -122h-46z" />
    <glyph glyph-name="Iacute" unicode="&#xcd;" horiz-adv-x="261" 
d="M103 666h55v-666h-55v666zM204 835h78l-130 -122h-45z" />
    <glyph glyph-name="Icircumflex" unicode="&#xce;" horiz-adv-x="261" 
d="M103 666h55v-666h-55v666zM115 861h34l119 -147h-49l-88 94l-86 -94h-49z" />
    <glyph glyph-name="Idieresis" unicode="&#xcf;" horiz-adv-x="261" 
d="M103 666h55v-666h-55v666zM46 716q-16 0 -27.5 12t-11.5 29t11.5 28.5t27.5 11.5q17 0 28.5 -11.5t11.5 -28.5t-11.5 -29t-28.5 -12zM215 716q-16 0 -27.5 12t-11.5 29t11.5 28.5t27.5 11.5q17 0 29 -11.5t12 -28.5t-12 -29t-29 -12z" />
    <glyph glyph-name="Eth" unicode="&#xd0;" horiz-adv-x="660" 
d="M105 323h-72v43h72v300h145q91 0 160 -22.5t115.5 -65t70.5 -103t24 -136.5t-23.5 -138.5t-70.5 -107t-116.5 -69t-162.5 -24.5h-142v323zM251 46q149 0 231 74t82 217t-81 213t-235 70h-88v-254h114v-43h-114v-277h91z" />
    <glyph glyph-name="Ntilde" unicode="&#xd1;" horiz-adv-x="701" 
d="M99 666h54l397 -575v575h52v-666h-51l-401 579v-579h-51v666zM397 718q-17 0 -29.5 6.5t-23 14t-21.5 14t-25 6.5q-17 0 -31 -12t-23 -21l-27 27q6 8 14.5 17.5t19 17.5t23.5 13t28 5q17 0 29.5 -6.5t23.5 -14.5t21.5 -14.5t24.5 -6.5q19 0 33 11.5t22 22.5l28 -29
q-14 -17 -35.5 -34t-51.5 -17z" />
    <glyph glyph-name="Ograve" unicode="&#xd2;" horiz-adv-x="750" 
d="M375 -11q-75 0 -134.5 27.5t-101 75t-63.5 109.5t-22 131t22 131.5t63.5 110t101 75.5t134.5 28q74 0 133.5 -27.5t101 -75t64 -109.5t22.5 -131t-22 -131.5t-63.5 -110t-101 -75.5t-134.5 -28zM375 35q62 0 111 24t83 65t52 94.5t18 113.5t-18 114t-52 95t-83 65.5
t-111 24.5t-111 -24t-83 -65t-52 -94.5t-18 -113.5t18 -114t51.5 -95t82.5 -65.5t112 -24.5zM225 835h78l97 -122h-46z" />
    <glyph glyph-name="Oacute" unicode="&#xd3;" horiz-adv-x="750" 
d="M447 835h78l-130 -122h-45zM375 -11q-75 0 -134.5 27.5t-101 75t-63.5 109.5t-22 131t22 131.5t63.5 110t101 75.5t134.5 28q74 0 133.5 -27.5t101 -75t64 -109.5t22.5 -131t-22 -131.5t-63.5 -110t-101 -75.5t-134.5 -28zM375 35q62 0 111 24t83 65t52 94.5t18 113.5
t-18 114t-52 95t-83 65.5t-111 24.5t-111 -24t-83 -65t-52 -94.5t-18 -113.5t18 -114t51.5 -95t82.5 -65.5t112 -24.5z" />
    <glyph glyph-name="Ocircumflex" unicode="&#xd4;" horiz-adv-x="750" 
d="M358 861h34l119 -147h-49l-88 94l-86 -94h-49zM375 -11q-75 0 -134.5 27.5t-101 75t-63.5 109.5t-22 131t22 131.5t63.5 110t101 75.5t134.5 28q74 0 133.5 -27.5t101 -75t64 -109.5t22.5 -131t-22 -131.5t-63.5 -110t-101 -75.5t-134.5 -28zM375 35q62 0 111 24t83 65
t52 94.5t18 113.5t-18 114t-52 95t-83 65.5t-111 24.5t-111 -24t-83 -65t-52 -94.5t-18 -113.5t18 -114t51.5 -95t82.5 -65.5t112 -24.5z" />
    <glyph glyph-name="Otilde" unicode="&#xd5;" horiz-adv-x="750" 
d="M375 -11q-75 0 -134.5 27.5t-101 75t-63.5 109.5t-22 131t22 131.5t63.5 110t101 75.5t134.5 28q74 0 133.5 -27.5t101 -75t64 -109.5t22.5 -131t-22 -131.5t-63.5 -110t-101 -75.5t-134.5 -28zM375 35q62 0 111 24t83 65t52 94.5t18 113.5t-18 114t-52 95t-83 65.5
t-111 24.5t-111 -24t-83 -65t-52 -94.5t-18 -113.5t18 -114t51.5 -95t82.5 -65.5t112 -24.5zM421 718q-17 0 -29.5 6.5t-23 14t-21.5 14t-25 6.5q-17 0 -31 -12t-23 -21l-27 27q6 8 14.5 17.5t19 17.5t23.5 13t28 5q17 0 29.5 -6.5t23.5 -14.5t21.5 -14.5t24.5 -6.5
q19 0 33 11.5t22 22.5l28 -29q-14 -17 -35.5 -34t-51.5 -17z" />
    <glyph glyph-name="Odieresis" unicode="&#xd6;" horiz-adv-x="750" 
d="M289 716q-16 0 -27.5 12t-11.5 29t11.5 28.5t27.5 11.5q17 0 28.5 -11.5t11.5 -28.5t-11.5 -29t-28.5 -12zM458 716q-16 0 -27.5 12t-11.5 29t11.5 28.5t27.5 11.5q17 0 29 -11.5t12 -28.5t-12 -29t-29 -12zM375 -11q-75 0 -134.5 27.5t-101 75t-63.5 109.5t-22 131
t22 131.5t63.5 110t101 75.5t134.5 28q74 0 133.5 -27.5t101 -75t64 -109.5t22.5 -131t-22 -131.5t-63.5 -110t-101 -75.5t-134.5 -28zM375 35q62 0 111 24t83 65t52 94.5t18 113.5t-18 114t-52 95t-83 65.5t-111 24.5t-111 -24t-83 -65t-52 -94.5t-18 -113.5t18 -114
t51.5 -95t82.5 -65.5t112 -24.5z" />
    <glyph glyph-name="multiply" unicode="&#xd7;" horiz-adv-x="503" 
d="M82 132l134 133l-134 135l34 34l135 -133l134 134l32 -32l-134 -135l139 -138l-35 -34l-139 137l-134 -134z" />
    <glyph glyph-name="Oslash" unicode="&#xd8;" horiz-adv-x="750" 
d="M124 -39l59 90q-62 48 -95.5 121.5t-33.5 159.5q0 69 22 131.5t63.5 110t101 75.5t134.5 28q54 0 100 -15t84 -42l64 97l33 -24l-66 -99q51 -48 78.5 -115.5t27.5 -144.5q0 -69 -22 -131.5t-63.5 -110t-101 -75.5t-134.5 -28q-90 0 -158 40l-61 -91zM531 577
q-31 25 -70 39.5t-86 14.5q-62 0 -111 -24t-83 -65t-52 -94.5t-18 -113.5q0 -73 26 -136t75 -105zM375 35q62 0 111 24t83 65t52 94.5t18 113.5q0 64 -20.5 120.5t-58.5 97.5l-317 -479q28 -17 61 -26.5t71 -9.5z" />
    <glyph glyph-name="Ugrave" unicode="&#xd9;" horiz-adv-x="681" 
d="M342 -11q-66 0 -113 18.5t-77 53t-44 82.5t-14 107v416h55v-410q0 -107 46.5 -163t148.5 -56q98 0 144.5 58t46.5 154v417h52v-414q0 -122 -59 -192.5t-186 -70.5zM191 835h78l97 -122h-46z" />
    <glyph glyph-name="Uacute" unicode="&#xda;" horiz-adv-x="681" 
d="M413 835h78l-130 -122h-45zM342 -11q-66 0 -113 18.5t-77 53t-44 82.5t-14 107v416h55v-410q0 -107 46.5 -163t148.5 -56q98 0 144.5 58t46.5 154v417h52v-414q0 -122 -59 -192.5t-186 -70.5z" />
    <glyph glyph-name="Ucircumflex" unicode="&#xdb;" horiz-adv-x="681" 
d="M323 861h34l119 -147h-49l-88 94l-86 -94h-49zM342 -11q-66 0 -113 18.5t-77 53t-44 82.5t-14 107v416h55v-410q0 -107 46.5 -163t148.5 -56q98 0 144.5 58t46.5 154v417h52v-414q0 -122 -59 -192.5t-186 -70.5z" />
    <glyph glyph-name="Udieresis" unicode="&#xdc;" horiz-adv-x="681" 
d="M255 716q-16 0 -27.5 12t-11.5 29t11.5 28.5t27.5 11.5q17 0 28.5 -11.5t11.5 -28.5t-11.5 -29t-28.5 -12zM424 716q-16 0 -27.5 12t-11.5 29t11.5 28.5t27.5 11.5q17 0 29 -11.5t12 -28.5t-12 -29t-29 -12zM342 -11q-66 0 -113 18.5t-77 53t-44 82.5t-14 107v416h55
v-410q0 -107 46.5 -163t148.5 -56q98 0 144.5 58t46.5 154v417h52v-414q0 -122 -59 -192.5t-186 -70.5z" />
    <glyph glyph-name="Yacute" unicode="&#xdd;" horiz-adv-x="537" 
d="M243 251l-223 415h62l189 -360h2l189 360h56l-221 -415v-251h-54v251zM341 835h78l-130 -122h-45z" />
    <glyph glyph-name="Thorn" unicode="&#xde;" horiz-adv-x="514" 
d="M100 666h55v-119h90q106 0 167 -49t61 -139q0 -91 -60 -143t-174 -52h-84v-164h-55v666zM238 211q95 0 137 40t42 107q0 31 -10 57t-31 45t-54.5 29.5t-81.5 10.5h-85v-289h83z" />
    <glyph glyph-name="germandbls" unicode="&#xdf;" horiz-adv-x="532" 
d="M325 -12q-46 0 -74.5 12t-43.5 24l24 41q14 -11 37 -21t59 -10q43 0 74 21t31 62q0 19 -7.5 34t-21.5 27t-33.5 23.5t-42.5 23.5q-20 10 -39 21.5t-33.5 26t-23.5 32.5t-9 42q0 25 8.5 44t22.5 34t31.5 27.5t36.5 24.5q35 22 52 44.5t17 60.5q0 45 -27.5 74t-84.5 29
q-28 0 -53 -11.5t-43.5 -34.5t-29 -59t-10.5 -85v-495h-52v495q0 59 15 103.5t40.5 74t60 44t74.5 14.5q39 0 69.5 -11.5t51 -31.5t31 -46.5t10.5 -55.5q0 -28 -7.5 -49.5t-20 -38.5t-29.5 -30.5t-35 -24.5q-39 -23 -58.5 -41.5t-19.5 -49.5q0 -15 6 -26.5t17.5 -22
t29 -20.5t41.5 -23q22 -12 43 -24.5t38 -28.5t27.5 -37t10.5 -48q0 -63 -44.5 -98.5t-115.5 -35.5z" />
    <glyph glyph-name="agrave" unicode="&#xe0;" horiz-adv-x="458" 
d="M181 -11q-60 0 -96.5 33.5t-36.5 89.5q0 48 24 79.5t60.5 50t81 26t86.5 7.5h22v54q0 59 -25.5 86t-79.5 27q-34 0 -64 -11.5t-60 -39.5l-28 36q64 61 156 61q74 0 113.5 -37t39.5 -115v-240q0 -31 2.5 -56t7.5 -40h-52q-2 11 -4 29t-3 31q-25 -32 -63 -51.5t-81 -19.5z
M188 34q41 0 74.5 19t59.5 53v128h-22q-40 0 -76 -6t-63 -20.5t-43 -37.5t-16 -56q0 -20 7.5 -34.5t19.5 -25t27.5 -15.5t31.5 -5zM72 662h78l97 -122h-46z" />
    <glyph glyph-name="aacute" unicode="&#xe1;" horiz-adv-x="458" 
d="M181 -11q-60 0 -96.5 33.5t-36.5 89.5q0 48 24 79.5t60.5 50t81 26t86.5 7.5h22v54q0 59 -25.5 86t-79.5 27q-34 0 -64 -11.5t-60 -39.5l-28 36q64 61 156 61q74 0 113.5 -37t39.5 -115v-240q0 -31 2.5 -56t7.5 -40h-52q-2 11 -4 29t-3 31q-25 -32 -63 -51.5t-81 -19.5z
M188 34q41 0 74.5 19t59.5 53v128h-22q-40 0 -76 -6t-63 -20.5t-43 -37.5t-16 -56q0 -20 7.5 -34.5t19.5 -25t27.5 -15.5t31.5 -5zM293 662h78l-130 -122h-45z" />
    <glyph glyph-name="acircumflex" unicode="&#xe2;" horiz-adv-x="458" 
d="M181 -11q-60 0 -96.5 33.5t-36.5 89.5q0 48 24 79.5t60.5 50t81 26t86.5 7.5h22v54q0 59 -25.5 86t-79.5 27q-34 0 -64 -11.5t-60 -39.5l-28 36q64 61 156 61q74 0 113.5 -37t39.5 -115v-240q0 -31 2.5 -56t7.5 -40h-52q-2 11 -4 29t-3 31q-25 -32 -63 -51.5t-81 -19.5z
M188 34q41 0 74.5 19t59.5 53v128h-22q-40 0 -76 -6t-63 -20.5t-43 -37.5t-16 -56q0 -20 7.5 -34.5t19.5 -25t27.5 -15.5t31.5 -5zM204 688h34l119 -147h-49l-88 94l-86 -94h-49z" />
    <glyph glyph-name="atilde" unicode="&#xe3;" horiz-adv-x="458" 
d="M181 -11q-60 0 -96.5 33.5t-36.5 89.5q0 48 24 79.5t60.5 50t81 26t86.5 7.5h22v54q0 59 -25.5 86t-79.5 27q-34 0 -64 -11.5t-60 -39.5l-28 36q64 61 156 61q74 0 113.5 -37t39.5 -115v-240q0 -31 2.5 -56t7.5 -40h-52q-2 11 -4 29t-3 31q-25 -32 -63 -51.5t-81 -19.5z
M188 34q41 0 74.5 19t59.5 53v128h-22q-40 0 -76 -6t-63 -20.5t-43 -37.5t-16 -56q0 -20 7.5 -34.5t19.5 -25t27.5 -15.5t31.5 -5zM268 545q-17 0 -29.5 6.5t-23 14t-21.5 14t-25 6.5q-17 0 -31 -12t-23 -21l-27 27q6 8 14.5 17.5t19 17.5t23.5 13t28 5q17 0 29.5 -6.5
t23.5 -14.5t21.5 -14.5t24.5 -6.5q19 0 33 11.5t22 22.5l28 -29q-14 -17 -35.5 -34t-51.5 -17z" />
    <glyph glyph-name="adieresis" unicode="&#xe4;" horiz-adv-x="458" 
d="M181 -11q-60 0 -96.5 33.5t-36.5 89.5q0 48 24 79.5t60.5 50t81 26t86.5 7.5h22v54q0 59 -25.5 86t-79.5 27q-34 0 -64 -11.5t-60 -39.5l-28 36q64 61 156 61q74 0 113.5 -37t39.5 -115v-240q0 -31 2.5 -56t7.5 -40h-52q-2 11 -4 29t-3 31q-25 -32 -63 -51.5t-81 -19.5z
M188 34q41 0 74.5 19t59.5 53v128h-22q-40 0 -76 -6t-63 -20.5t-43 -37.5t-16 -56q0 -20 7.5 -34.5t19.5 -25t27.5 -15.5t31.5 -5zM136 543q-16 0 -27.5 12t-11.5 29t11.5 28.5t27.5 11.5q17 0 28.5 -11.5t11.5 -28.5t-11.5 -29t-28.5 -12zM305 543q-16 0 -27.5 12t-11.5 29
t11.5 28.5t27.5 11.5q17 0 29 -11.5t12 -28.5t-12 -29t-29 -12z" />
    <glyph glyph-name="aring" unicode="&#xe5;" horiz-adv-x="458" 
d="M181 -11q-60 0 -96.5 33.5t-36.5 89.5q0 48 24 79.5t60.5 50t81 26t86.5 7.5h22v54q0 59 -25.5 86t-79.5 27q-34 0 -64 -11.5t-60 -39.5l-28 36q64 61 156 61q74 0 113.5 -37t39.5 -115v-240q0 -31 2.5 -56t7.5 -40h-52q-2 11 -4 29t-3 31q-25 -32 -63 -51.5t-81 -19.5z
M188 34q41 0 74.5 19t59.5 53v128h-22q-40 0 -76 -6t-63 -20.5t-43 -37.5t-16 -56q0 -20 7.5 -34.5t19.5 -25t27.5 -15.5t31.5 -5zM221 542q-38 0 -64 27t-26 64q0 38 26 65t64 27t64 -27t26 -64q0 -38 -26 -65t-64 -27zM221 573q26 0 40.5 18.5t14.5 41.5t-14.5 41.5
t-40.5 18.5t-40.5 -18t-14.5 -41t14.5 -42t40.5 -19z" />
    <glyph glyph-name="ae" unicode="&#xe6;" horiz-adv-x="754" 
d="M181 -11q-60 0 -96.5 33.5t-36.5 89.5q0 48 24 79.5t60.5 50t81 26t86.5 7.5h23v54q0 55 -24 84t-82 29q-44 0 -74 -16.5t-50 -34.5l-28 36q22 21 60 41t96 20q57 0 93.5 -23.5t48.5 -74.5q24 45 66 71.5t97 26.5q45 0 80 -17.5t58.5 -49t34 -74t6.5 -93.5h-329v-11
q0 -41 9.5 -78.5t28.5 -66.5t49.5 -46.5t72.5 -17.5q47 0 83 15t56 30l22 -41q-23 -17 -63.5 -33t-99.5 -16q-62 0 -105.5 27t-69.5 72q-29 -41 -74 -70t-104 -29zM188 34q48 0 87.5 25.5t65.5 65.5q-10 26 -14.5 53t-5.5 56h-21q-40 0 -76 -6t-63 -20.5t-43 -37.5t-16 -56
q0 -20 7.5 -34.5t19.5 -25t27.5 -15.5t31.5 -5zM653 297q0 27 -7.5 53t-23 47t-40 33.5t-58.5 12.5q-61 0 -97.5 -41.5t-47.5 -104.5h274z" />
    <glyph glyph-name="ccedilla" unicode="&#xe7;" horiz-adv-x="433" 
d="M202 -215q-24 0 -39 4t-23 8l10 33q8 -4 20.5 -7.5t30.5 -3.5q26 0 41 11t15 32q0 13 -6.5 21.5t-17 13t-23.5 6t-26 1.5l32 88q-44 6 -76 29t-54 56.5t-32.5 75.5t-10.5 86q0 57 15.5 103t43.5 78.5t66.5 50t84.5 17.5q54 0 88 -16.5t54 -33.5l-27 -38q-20 17 -48 30
t-68 13t-69 -16t-48 -43.5t-28 -64.5t-9 -78q0 -40 9 -77t27.5 -66t47.5 -46.5t69 -17.5q42 0 74 14.5t48 28.5l23 -39q-20 -17 -55.5 -32t-86.5 -17l-22 -60q31 -4 50.5 -22t19.5 -44q0 -38 -29 -58t-71 -20z" />
    <glyph glyph-name="egrave" unicode="&#xe8;" horiz-adv-x="477" 
d="M257 -11q-55 0 -95 20.5t-66.5 55t-39.5 81t-13 97.5t14 95.5t40.5 77.5t64.5 52.5t86 19.5q46 0 81 -17.5t58 -48.5t33.5 -74t6.5 -94h-329v-11q0 -41 9.5 -78.5t29 -66.5t49.5 -46.5t73 -17.5q46 0 82 15t56 30l22 -41q-23 -17 -63.5 -33t-98.5 -16zM375 297
q0 27 -7.5 53t-23 47t-40 33.5t-58.5 12.5q-31 0 -55.5 -11.5t-42.5 -31t-30 -46t-17 -57.5h274zM97 662h78l97 -122h-46z" />
    <glyph glyph-name="eacute" unicode="&#xe9;" horiz-adv-x="477" 
d="M257 -11q-55 0 -95 20.5t-66.5 55t-39.5 81t-13 97.5t14 95.5t40.5 77.5t64.5 52.5t86 19.5q46 0 81 -17.5t58 -48.5t33.5 -74t6.5 -94h-329v-11q0 -41 9.5 -78.5t29 -66.5t49.5 -46.5t73 -17.5q46 0 82 15t56 30l22 -41q-23 -17 -63.5 -33t-98.5 -16zM375 297
q0 27 -7.5 53t-23 47t-40 33.5t-58.5 12.5q-31 0 -55.5 -11.5t-42.5 -31t-30 -46t-17 -57.5h274zM318 662h78l-130 -122h-45z" />
    <glyph glyph-name="ecircumflex" unicode="&#xea;" horiz-adv-x="477" 
d="M257 -11q-55 0 -95 20.5t-66.5 55t-39.5 81t-13 97.5t14 95.5t40.5 77.5t64.5 52.5t86 19.5q46 0 81 -17.5t58 -48.5t33.5 -74t6.5 -94h-329v-11q0 -41 9.5 -78.5t29 -66.5t49.5 -46.5t73 -17.5q46 0 82 15t56 30l22 -41q-23 -17 -63.5 -33t-98.5 -16zM375 297
q0 27 -7.5 53t-23 47t-40 33.5t-58.5 12.5q-31 0 -55.5 -11.5t-42.5 -31t-30 -46t-17 -57.5h274zM229 688h34l119 -147h-49l-88 94l-86 -94h-49z" />
    <glyph glyph-name="edieresis" unicode="&#xeb;" horiz-adv-x="477" 
d="M257 -11q-55 0 -95 20.5t-66.5 55t-39.5 81t-13 97.5t14 95.5t40.5 77.5t64.5 52.5t86 19.5q46 0 81 -17.5t58 -48.5t33.5 -74t6.5 -94h-329v-11q0 -41 9.5 -78.5t29 -66.5t49.5 -46.5t73 -17.5q46 0 82 15t56 30l22 -41q-23 -17 -63.5 -33t-98.5 -16zM375 297
q0 27 -7.5 53t-23 47t-40 33.5t-58.5 12.5q-31 0 -55.5 -11.5t-42.5 -31t-30 -46t-17 -57.5h274zM330 543q-16 0 -27.5 12t-11.5 29t11.5 28.5t27.5 11.5q17 0 29 -11.5t12 -28.5t-12 -29t-29 -12zM161 543q-16 0 -27.5 12t-11.5 29t11.5 28.5t27.5 11.5q17 0 28.5 -11.5
t11.5 -28.5t-11.5 -29t-28.5 -12z" />
    <glyph glyph-name="igrave" unicode="&#xec;" horiz-adv-x="235" 
d="M91 477h53v-477h-53v477zM-31 662h78l97 -122h-46z" />
    <glyph glyph-name="iacute" unicode="&#xed;" horiz-adv-x="235" 
d="M191 662h78l-130 -122h-45zM91 477h53v-477h-53v477z" />
    <glyph glyph-name="icircumflex" unicode="&#xee;" horiz-adv-x="235" 
d="M101 688h34l119 -147h-49l-88 94l-86 -94h-49zM91 477h53v-477h-53v477z" />
    <glyph glyph-name="idieresis" unicode="&#xef;" horiz-adv-x="235" 
d="M33 543q-16 0 -27.5 12t-11.5 29t11.5 28.5t27.5 11.5q17 0 28.5 -11.5t11.5 -28.5t-11.5 -29t-28.5 -12zM202 543q-16 0 -27.5 12t-11.5 29t11.5 28.5t27.5 11.5q17 0 29 -11.5t12 -28.5t-12 -29t-29 -12zM91 477h53v-477h-53v477z" />
    <glyph glyph-name="eth" unicode="&#xf0;" horiz-adv-x="533" 
d="M259 -11q-49 0 -89 20t-68 53.5t-43 78.5t-15 96q0 54 15 99.5t42.5 78.5t67 51.5t89.5 18.5q58 0 101.5 -25t67.5 -57q-11 75 -42 131.5t-82 92.5l-86 -71l-28 32l75 62q-70 37 -171 37l10 44q59 0 109.5 -12t92.5 -35l71 59l27 -33l-61 -50q71 -54 108.5 -141.5
t37.5 -204.5q0 -61 -13 -119.5t-40.5 -104t-71 -73.5t-104.5 -28zM262 34q44 0 76.5 21.5t53.5 59.5t31.5 89.5t10.5 111.5v22q-28 43 -73 72t-107 29q-38 0 -67.5 -15.5t-49 -42.5t-29.5 -63.5t-10 -78.5q0 -41 10.5 -78t31.5 -65.5t51.5 -45t70.5 -16.5z" />
    <glyph glyph-name="ntilde" unicode="&#xf1;" horiz-adv-x="520" 
d="M88 477h52v-76q26 36 66.5 61.5t91.5 25.5q37 0 63.5 -11.5t43 -31.5t24 -47.5t7.5 -59.5v-338h-52v327q0 53 -21.5 83.5t-75.5 30.5q-23 0 -44.5 -8.5t-40.5 -22t-35 -30t-27 -33.5v-347h-52v477zM303 545q-17 0 -29.5 6.5t-23 14t-21.5 14t-25 6.5q-17 0 -31 -12
t-23 -21l-27 27q6 8 14.5 17.5t19 17.5t23.5 13t28 5q17 0 29.5 -6.5t23.5 -14.5t21.5 -14.5t24.5 -6.5q19 0 33 11.5t22 22.5l28 -29q-14 -17 -35.5 -34t-51.5 -17z" />
    <glyph glyph-name="ograve" unicode="&#xf2;" horiz-adv-x="517" 
d="M257 -11q-56 0 -97 22t-67 57.5t-38.5 80t-12.5 89.5t12.5 89.5t38.5 80.5t66.5 58t96.5 22t97.5 -22t68.5 -57.5t40 -79.5t13 -89t-13 -90t-40 -80.5t-68 -58t-97 -22.5zM258 34q41 0 71.5 16.5t50.5 45t30 65t10 77.5q0 40 -10.5 77t-31.5 65.5t-52 45.5t-72 17
t-70.5 -16.5t-48.5 -44.5t-28.5 -65t-9.5 -77q0 -41 10 -78t30 -65.5t50 -45.5t71 -17zM109 662h78l97 -122h-46z" />
    <glyph glyph-name="oacute" unicode="&#xf3;" horiz-adv-x="517" 
d="M330 662h78l-130 -122h-45zM257 -11q-56 0 -97 22t-67 57.5t-38.5 80t-12.5 89.5t12.5 89.5t38.5 80.5t66.5 58t96.5 22t97.5 -22t68.5 -57.5t40 -79.5t13 -89t-13 -90t-40 -80.5t-68 -58t-97 -22.5zM258 34q41 0 71.5 16.5t50.5 45t30 65t10 77.5q0 40 -10.5 77
t-31.5 65.5t-52 45.5t-72 17t-70.5 -16.5t-48.5 -44.5t-28.5 -65t-9.5 -77q0 -41 10 -78t30 -65.5t50 -45.5t71 -17z" />
    <glyph glyph-name="ocircumflex" unicode="&#xf4;" horiz-adv-x="517" 
d="M241 688h34l119 -147h-49l-88 94l-86 -94h-49zM257 -11q-56 0 -97 22t-67 57.5t-38.5 80t-12.5 89.5t12.5 89.5t38.5 80.5t66.5 58t96.5 22t97.5 -22t68.5 -57.5t40 -79.5t13 -89t-13 -90t-40 -80.5t-68 -58t-97 -22.5zM258 34q41 0 71.5 16.5t50.5 45t30 65t10 77.5
q0 40 -10.5 77t-31.5 65.5t-52 45.5t-72 17t-70.5 -16.5t-48.5 -44.5t-28.5 -65t-9.5 -77q0 -41 10 -78t30 -65.5t50 -45.5t71 -17z" />
    <glyph glyph-name="otilde" unicode="&#xf5;" horiz-adv-x="517" 
d="M257 -11q-56 0 -97 22t-67 57.5t-38.5 80t-12.5 89.5t12.5 89.5t38.5 80.5t66.5 58t96.5 22t97.5 -22t68.5 -57.5t40 -79.5t13 -89t-13 -90t-40 -80.5t-68 -58t-97 -22.5zM258 34q41 0 71.5 16.5t50.5 45t30 65t10 77.5q0 40 -10.5 77t-31.5 65.5t-52 45.5t-72 17
t-70.5 -16.5t-48.5 -44.5t-28.5 -65t-9.5 -77q0 -41 10 -78t30 -65.5t50 -45.5t71 -17zM305 545q-17 0 -29.5 6.5t-23 14t-21.5 14t-25 6.5q-17 0 -31 -12t-23 -21l-27 27q6 8 14.5 17.5t19 17.5t23.5 13t28 5q17 0 29.5 -6.5t23.5 -14.5t21.5 -14.5t24.5 -6.5q19 0 33 11.5
t22 22.5l28 -29q-14 -17 -35.5 -34t-51.5 -17z" />
    <glyph glyph-name="odieresis" unicode="&#xf6;" horiz-adv-x="517" 
d="M173 543q-16 0 -27.5 12t-11.5 29t11.5 28.5t27.5 11.5q17 0 28.5 -11.5t11.5 -28.5t-11.5 -29t-28.5 -12zM342 543q-16 0 -27.5 12t-11.5 29t11.5 28.5t27.5 11.5q17 0 29 -11.5t12 -28.5t-12 -29t-29 -12zM257 -11q-56 0 -97 22t-67 57.5t-38.5 80t-12.5 89.5
t12.5 89.5t38.5 80.5t66.5 58t96.5 22t97.5 -22t68.5 -57.5t40 -79.5t13 -89t-13 -90t-40 -80.5t-68 -58t-97 -22.5zM258 34q41 0 71.5 16.5t50.5 45t30 65t10 77.5q0 40 -10.5 77t-31.5 65.5t-52 45.5t-72 17t-70.5 -16.5t-48.5 -44.5t-28.5 -65t-9.5 -77q0 -41 10 -78
t30 -65.5t50 -45.5t71 -17z" />
    <glyph glyph-name="divide" unicode="&#xf7;" horiz-adv-x="568" 
d="M282 31q-17 0 -29.5 12.5t-12.5 29.5t12.5 29.5t29.5 12.5t29.5 -12.5t12.5 -29.5t-12.5 -29.5t-29.5 -12.5zM282 361q-17 0 -29.5 12.5t-12.5 30.5q0 17 12.5 29.5t29.5 12.5t29.5 -12.5t12.5 -29.5q0 -18 -12.5 -30.5t-29.5 -12.5zM41 261h486v-45h-486v45z" />
    <glyph glyph-name="oslash" unicode="&#xf8;" horiz-adv-x="517" 
d="M51 -30l55 83q-33 36 -48.5 85t-15.5 100q0 45 12.5 89.5t38.5 80.5t66.5 58t96.5 22q34 0 63 -8.5t52 -23.5l59 89l32 -21l-61 -92q38 -37 56 -88t18 -104q0 -45 -13 -90t-40 -80.5t-68 -58t-97 -22.5q-38 0 -68.5 10t-54.5 29l-52 -79zM258 33q41 0 71.5 17t51 45
t30.5 65t10 78q0 44 -12 83.5t-36 68.5l-213 -322q38 -35 98 -35zM345 416q-37 28 -91 28q-41 0 -70.5 -16.5t-49 -45t-29 -65.5t-9.5 -77q0 -42 9.5 -78.5t29.5 -65.5z" />
    <glyph glyph-name="ugrave" unicode="&#xf9;" horiz-adv-x="519" 
d="M222 -11q-38 0 -64 11.5t-43 31.5t-24.5 48t-7.5 60v337h52v-326q0 -53 21.5 -84t76.5 -31q27 0 50.5 11t43 26t33 31t19.5 27v346h52v-385q0 -29 2.5 -53.5t6.5 -38.5h-53q-2 12 -4.5 35t-2.5 43q-9 -14 -23 -29.5t-34 -28.5t-45.5 -22t-55.5 -9zM111 662h78l97 -122
h-46z" />
    <glyph glyph-name="uacute" unicode="&#xfa;" horiz-adv-x="519" 
d="M332 662h78l-130 -122h-45zM222 -11q-38 0 -64 11.5t-43 31.5t-24.5 48t-7.5 60v337h52v-326q0 -53 21.5 -84t76.5 -31q27 0 50.5 11t43 26t33 31t19.5 27v346h52v-385q0 -29 2.5 -53.5t6.5 -38.5h-53q-2 12 -4.5 35t-2.5 43q-9 -14 -23 -29.5t-34 -28.5t-45.5 -22
t-55.5 -9z" />
    <glyph glyph-name="ucircumflex" unicode="&#xfb;" horiz-adv-x="519" 
d="M243 688h34l119 -147h-49l-88 94l-86 -94h-49zM222 -11q-38 0 -64 11.5t-43 31.5t-24.5 48t-7.5 60v337h52v-326q0 -53 21.5 -84t76.5 -31q27 0 50.5 11t43 26t33 31t19.5 27v346h52v-385q0 -29 2.5 -53.5t6.5 -38.5h-53q-2 12 -4.5 35t-2.5 43q-9 -14 -23 -29.5
t-34 -28.5t-45.5 -22t-55.5 -9z" />
    <glyph glyph-name="udieresis" unicode="&#xfc;" horiz-adv-x="519" 
d="M174 543q-16 0 -27.5 12t-11.5 29t11.5 28.5t27.5 11.5q17 0 28.5 -11.5t11.5 -28.5t-11.5 -29t-28.5 -12zM343 543q-16 0 -27.5 12t-11.5 29t11.5 28.5t27.5 11.5q17 0 29 -11.5t12 -28.5t-12 -29t-29 -12zM222 -11q-38 0 -64 11.5t-43 31.5t-24.5 48t-7.5 60v337h52
v-326q0 -53 21.5 -84t76.5 -31q27 0 50.5 11t43 26t33 31t19.5 27v346h52v-385q0 -29 2.5 -53.5t6.5 -38.5h-53q-2 12 -4.5 35t-2.5 43q-9 -14 -23 -29.5t-34 -28.5t-45.5 -22t-55.5 -9z" />
    <glyph glyph-name="yacute" unicode="&#xfd;" horiz-adv-x="450" 
d="M53 -230q-15 0 -24 1t-15 3l7 44q5 -1 12 -2t21 -1q25 0 44 8t33 23.5t25.5 37.5t22.5 51l24 68l-179 474h57l150 -409l147 409h55l-205 -546q-13 -34 -27 -63.5t-34 -51t-47.5 -34t-66.5 -12.5zM301 662h78l-130 -122h-45z" />
    <glyph glyph-name="thorn" unicode="&#xfe;" horiz-adv-x="514" 
d="M88 720h52v-295q23 29 57 46t78 17q48 0 84.5 -18.5t61.5 -51.5t37.5 -78.5t12.5 -99.5q0 -51 -14.5 -97t-42 -80t-67 -54t-89.5 -20q-37 0 -67.5 11t-50.5 30v-249h-52v939zM255 34q40 0 70.5 17t50.5 45.5t30 65t10 76.5t-8.5 77t-26.5 65t-46.5 44.5t-68.5 16.5
q-33 0 -68 -17.5t-58 -47.5v-298q44 -44 115 -44z" />
    <glyph glyph-name="ydieresis" unicode="&#xff;" horiz-adv-x="450" 
d="M53 -230q-15 0 -24 1t-15 3l7 44q5 -1 12 -2t21 -1q25 0 44 8t33 23.5t25.5 37.5t22.5 51l24 68l-179 474h57l150 -409l147 409h55l-205 -546q-13 -34 -27 -63.5t-34 -51t-47.5 -34t-66.5 -12.5zM144 543q-16 0 -27.5 12t-11.5 29t11.5 28.5t27.5 11.5q17 0 28.5 -11.5
t11.5 -28.5t-11.5 -29t-28.5 -12zM313 543q-16 0 -27.5 12t-11.5 29t11.5 28.5t27.5 11.5q17 0 29 -11.5t12 -28.5t-12 -29t-29 -12z" />
    <glyph glyph-name="dotlessi" unicode="&#x131;" horiz-adv-x="235" 
d="M91 477h53v-477h-53v477z" />
    <glyph glyph-name="IJ" unicode="&#x132;" horiz-adv-x="523" 
d="M103 666h55v-666h-55v666zM293 -185q-16 0 -28.5 2.5t-17.5 5.5l9 47q5 -2 14 -4t21 -2q80 0 80 127v675h55v-685q0 -80 -33.5 -123t-99.5 -43z" />
    <glyph glyph-name="ij" unicode="&#x133;" horiz-adv-x="463" 
d="M117 577q-16 0 -27.5 12t-11.5 29t11.5 28.5t27.5 11.5q17 0 28.5 -11.5t11.5 -28.5t-11.5 -29t-28.5 -12zM91 477h53v-477h-53v477zM251 -229q-17 0 -28 2.5t-15 4.5l9 44q5 -2 12 -4t20 -2q43 0 58.5 33t15.5 89v539h52v-550q0 -34 -7 -62.5t-22 -49.5t-38.5 -32.5
t-56.5 -11.5zM348 577q-16 0 -28 12t-12 29t12 28.5t28 11.5q17 0 28.5 -11.5t11.5 -28.5t-11.5 -29t-28.5 -12z" />
    <glyph glyph-name="Lslash" unicode="&#x141;" horiz-adv-x="471" 
d="M110 302l-83 -68l-25 31l108 89v312h54v-269l108 89l26 -32l-134 -109v-298h267v-47h-321v302z" />
    <glyph glyph-name="lslash" unicode="&#x142;" horiz-adv-x="255" 
d="M97 295l-70 -63v55l70 63v370h52v-326l78 70v-55l-78 -70v-339h-52v295z" />
    <glyph glyph-name="OE" unicode="&#x152;" horiz-adv-x="867" 
d="M376 -11q-75 0 -134.5 27.5t-101.5 75t-64 109.5t-22 131t22 131.5t63.5 110t101 75.5t134.5 28q27 0 53 -3t46 -8h327v-47h-272v-240h239v-47h-239v-285h279v-47h-334q-19 -5 -45 -8t-53 -3zM374 35q57 0 100 16v564q-20 7 -45 11.5t-54 4.5q-62 0 -111 -24t-83 -65
t-52 -94.5t-18 -113.5t17.5 -114t51.5 -95t82.5 -65.5t111.5 -24.5z" />
    <glyph glyph-name="oe" unicode="&#x153;" horiz-adv-x="853" 
d="M257 -11q-56 0 -97 22t-67 57.5t-38.5 80t-12.5 89.5t12.5 89.5t38.5 80.5t66.5 58t96.5 22q72 0 120 -36.5t70 -95.5q21 60 67.5 96t110.5 36q43 0 76.5 -15.5t56.5 -43t35 -66t12 -83.5v-13q0 -6 -1 -13h-329v-11q0 -41 9.5 -78.5t29 -66.5t49.5 -46.5t73 -17.5
q46 0 82 15t56 30l23 -41q-23 -17 -64 -33t-99 -16q-72 0 -119 37.5t-67 95.5q-23 -59 -70.5 -96t-119.5 -37zM258 34q41 0 71.5 16.5t50.5 45t30 65t10 77.5q0 40 -10.5 77t-31.5 65.5t-52 45.5t-72 17t-70.5 -16.5t-48.5 -44.5t-28.5 -65t-9.5 -77q0 -41 10 -78t30 -65.5
t50 -45.5t71 -17zM752 297q0 27 -8 53t-23.5 47t-40 33.5t-58.5 12.5q-31 0 -55.5 -11.5t-42.5 -31t-29.5 -46t-16.5 -57.5h274z" />
    <glyph glyph-name="Scaron" unicode="&#x160;" horiz-adv-x="490" 
d="M108 859h49l88 -95l86 95h49l-120 -147h-33zM231 -11q-35 0 -63.5 6t-52 16t-41 21.5t-30.5 23.5l30 38q10 -9 25 -19.5t35 -19t45 -14.5t55 -6q34 0 61.5 10t47 27.5t30.5 41t11 49.5q0 32 -13.5 56.5t-36 43.5t-51 35t-58.5 31q-31 16 -59.5 32.5t-50.5 38t-35 49.5
t-13 67t14.5 69t40 50.5t59 31t71.5 10.5q63 0 105 -17.5t64 -34.5l-27 -40q-23 17 -59 31.5t-84 14.5q-57 0 -93.5 -30t-36.5 -82q0 -29 10 -49.5t28 -37t42 -30t51 -27.5q32 -16 65.5 -34t60.5 -42t44 -56.5t17 -77.5q0 -39 -15 -71t-42 -55.5t-65.5 -36.5t-85.5 -13z" />
    <glyph glyph-name="scaron" unicode="&#x161;" horiz-adv-x="393" 
d="M57 686h49l88 -95l86 95h49l-120 -147h-33zM186 -12q-47 0 -85 14.5t-60 31.5l23 40q17 -14 50.5 -27t72.5 -13q48 0 77.5 21.5t29.5 60.5q0 20 -8 34.5t-23 26.5t-35 22t-44 21q-27 12 -51 24.5t-42 29t-28.5 38t-10.5 51.5q0 54 37 89.5t104 35.5q50 0 84 -15t51 -29
l-26 -38q-17 14 -45 25.5t-65 11.5q-43 0 -66 -21t-23 -56q0 -21 8.5 -35.5t22.5 -26t32.5 -20.5t39.5 -18q28 -12 53 -25t44.5 -29.5t31 -38.5t11.5 -51q0 -62 -43.5 -98t-116.5 -36z" />
    <glyph glyph-name="Ydieresis" unicode="&#x178;" horiz-adv-x="537" 
d="M243 251l-223 415h62l189 -360h2l189 360h56l-221 -415v-251h-54v251zM183 716q-16 0 -27.5 12t-11.5 29t11.5 28.5t27.5 11.5q17 0 28.5 -11.5t11.5 -28.5t-11.5 -29t-28.5 -12zM352 716q-16 0 -27.5 12t-11.5 29t11.5 28.5t27.5 11.5q17 0 29 -11.5t12 -28.5t-12 -29
t-29 -12z" />
    <glyph glyph-name="Zcaron" unicode="&#x17d;" horiz-adv-x="557" 
d="M145 859h49l88 -95l86 95h49l-120 -147h-33zM46 42l384 578h-365v46h430v-37l-390 -583h403v-46h-462v42z" />
    <glyph glyph-name="zcaron" unicode="&#x17e;" horiz-adv-x="410" 
d="M73 686h49l88 -95l86 95h49l-120 -147h-33zM43 37l255 397h-240v43h303v-39l-257 -395h262v-43h-323v37z" />
    <glyph glyph-name="florin" unicode="&#x192;" horiz-adv-x="432" 
d="M18 -188q-28 0 -47.5 6.5t-31.5 14.5l19 42q8 -6 22.5 -11.5t34.5 -5.5q33 0 55.5 12t37.5 32.5t23 47t11 56.5l42 374h-102l5 42h102l14 128q10 85 53.5 133t125.5 48q34 0 60.5 -10t40.5 -22l-22 -41q-11 10 -34.5 18.5t-50.5 8.5q-32 0 -54 -11t-36.5 -31t-22 -47
t-11.5 -59l-13 -115h110l-6 -42h-108l-44 -380q-5 -41 -17 -75.5t-33 -59.5t-51.5 -39t-71.5 -14z" />
    <glyph glyph-name="circumflex" unicode="&#x2c6;" horiz-adv-x="500" 
d="M233 688h34l119 -147h-49l-88 94l-86 -94h-49z" />
    <glyph glyph-name="caron" unicode="&#x2c7;" horiz-adv-x="500" 
d="M114 686h49l88 -95l86 95h49l-120 -147h-33z" />
    <glyph glyph-name="breve" unicode="&#x2d8;" horiz-adv-x="500" 
d="M250 538q-27 0 -50 10t-41 28.5t-29 44t-14 56.5h46q2 -18 8.5 -35.5t17.5 -31t26.5 -21.5t35.5 -8t35.5 8t26.5 21.5t17 31t8 35.5h46q-6 -63 -42.5 -101t-90.5 -38z" />
    <glyph glyph-name="dotaccent" unicode="&#x2d9;" horiz-adv-x="500" 
d="M250 575q-17 0 -29.5 12.5t-12.5 30.5t12.5 30.5t29.5 12.5t29.5 -12.5t12.5 -30.5t-12.5 -30.5t-29.5 -12.5z" />
    <glyph glyph-name="ring" unicode="&#x2da;" horiz-adv-x="500" 
d="M250 542q-38 0 -64 27t-26 64q0 38 26 65t64 27t64 -27t26 -64q0 -38 -26 -65t-64 -27zM250 573q26 0 40.5 18.5t14.5 41.5t-14.5 41.5t-40.5 18.5t-40.5 -18t-14.5 -41t14.5 -42t40.5 -19z" />
    <glyph glyph-name="ogonek" unicode="&#x2db;" horiz-adv-x="500" 
d="M266 -215q-46 0 -67.5 26.5t-21.5 62.5q0 20 6.5 39t16 35.5t20 30t18.5 21.5h39q-8 -11 -18 -24t-18 -28.5t-13.5 -33t-5.5 -36.5q0 -23 13 -38.5t38 -15.5t47 10l10 -32q-11 -7 -27 -12t-37 -5z" />
    <glyph glyph-name="tilde" unicode="&#x2dc;" horiz-adv-x="500" 
d="M297 545q-17 0 -29.5 6.5t-23 14t-21.5 14t-25 6.5q-17 0 -31 -12t-23 -21l-27 27q6 8 14.5 17.5t19 17.5t23.5 13t28 5q17 0 29.5 -6.5t23.5 -14.5t21.5 -14.5t24.5 -6.5q19 0 33 11.5t22 22.5l28 -29q-14 -17 -35.5 -34t-51.5 -17z" />
    <glyph glyph-name="hungarumlaut" unicode="&#x2dd;" horiz-adv-x="500" 
d="M197 662h76l-128 -122h-46zM348 662h76l-128 -122h-46z" />
    <glyph glyph-name="Delta" unicode="&#x394;" horiz-adv-x="607" 
d="M22 39l252 643h56l255 -643v-39h-563v39zM524 47l-223 574l-222 -574h445z" />
    <glyph glyph-name="Omega" unicode="&#x3a9;" horiz-adv-x="730" 
d="M62 47h149q-31 19 -58.5 50t-48 70.5t-32.5 85.5t-12 97q0 71 24.5 131t66 103.5t97 68t117.5 24.5t117.5 -24.5t97 -68t65.5 -103.5t24 -131q0 -51 -12 -97t-32 -85.5t-48 -70.5t-59 -50h150v-47h-216v46q72 45 116 122.5t44 181.5q0 56 -19 107t-52 89.5t-78 61.5
t-98 23t-98.5 -23t-78.5 -61.5t-52 -89.5t-19 -107q0 -105 44.5 -182t117.5 -122v-46h-217v47z" />
    <glyph glyph-name="mu" unicode="&#x3bc;" horiz-adv-x="531" 
d="M86 477h52v-336q0 -46 20.5 -75.5t70.5 -29.5q25 0 48.5 9.5t43.5 23.5t35.5 30.5t25.5 30.5v347h52v-388q0 -25 2.5 -50.5t5.5 -38.5h-53q-2 11 -4 34t-3 43q-9 -13 -23.5 -28t-34.5 -28.5t-45.5 -22.5t-55.5 -9t-53 11t-34 27h-2q2 -22 3 -55.5t1 -64.5v-124h-52v694z
" />
    <glyph glyph-name="pi" unicode="&#x3c0;" horiz-adv-x="588" 
d="M459 -11q-49 0 -66.5 28.5t-17.5 79.5v338h-196q0 -53 -2 -109.5t-6 -112.5t-9.5 -110.5t-12.5 -102.5h-53q7 51 13.5 106t10.5 111.5t6.5 111.5t2.5 106h-101v42h514v-42h-115v-335q0 -31 7.5 -48.5t30.5 -17.5q12 0 21.5 5t16.5 10l19 -38q-10 -8 -25.5 -15t-37.5 -7z
" />
    <glyph glyph-name="uni2007" unicode="&#x2007;" horiz-adv-x="512" 
 />
    <glyph glyph-name="uni2008" unicode="&#x2008;" horiz-adv-x="190" 
 />
    <glyph glyph-name="uni200B" unicode="&#x200b;" horiz-adv-x="0" 
 />
    <glyph glyph-name="endash" unicode="&#x2013;" horiz-adv-x="513" 
d="M55 300h403v-45h-403v45z" />
    <glyph glyph-name="emdash" unicode="&#x2014;" horiz-adv-x="816" 
d="M55 300h706v-45h-706v45z" />
    <glyph glyph-name="quoteleft" unicode="&#x2018;" horiz-adv-x="179" 
d="M89 475q-19 0 -32.5 14t-13.5 37q0 21 6 42.5t14.5 40.5t17.5 34t16 23h39q-14 -17 -24.5 -41t-10.5 -47q0 -11 4.5 -18t9.5 -14t9.5 -14.5t4.5 -18.5q0 -16 -11.5 -27t-28.5 -11z" />
    <glyph glyph-name="quoteright" unicode="&#x2019;" horiz-adv-x="179" 
d="M43 485q14 18 24.5 41.5t10.5 47.5q0 10 -4.5 17t-9.5 14t-9.5 14.5t-4.5 18.5q0 17 11.5 27.5t28.5 10.5q19 0 32.5 -13.5t13.5 -37.5q0 -21 -6 -42.5t-14.5 -40.5t-18 -34t-15.5 -23h-39z" />
    <glyph glyph-name="quotesinglbase" unicode="&#x201a;" horiz-adv-x="179" 
d="M39 -111q14 17 25 41t11 47q0 10 -4.5 17t-10 14t-10 14.5t-4.5 18.5q0 17 11.5 27.5t28.5 10.5q19 0 33 -13.5t14 -37.5q0 -21 -6 -42.5t-14.5 -40.5t-18 -34t-15.5 -22h-40z" />
    <glyph glyph-name="quotedblleft" unicode="&#x201c;" horiz-adv-x="318" 
d="M83 475q-18 0 -32 14t-14 37q0 21 6 42.5t14.5 40.5t18 34t15.5 23h39q-13 -17 -24 -41t-11 -47q0 -11 4.5 -18t9.5 -14t9.5 -14.5t4.5 -18.5q0 -16 -11.5 -27t-28.5 -11zM228 475q-19 0 -32.5 14t-13.5 37q0 21 6 42.5t14.5 40.5t17.5 34t16 23h39q-14 -17 -25 -41
t-11 -47q0 -11 4.5 -18t10 -14t10 -14.5t4.5 -18.5q0 -16 -11.5 -27t-28.5 -11z" />
    <glyph glyph-name="quotedblright" unicode="&#x201d;" horiz-adv-x="318" 
d="M43 485q14 18 24.5 41.5t10.5 47.5q0 10 -4.5 17t-9.5 14t-9.5 14.5t-4.5 18.5q0 17 11.5 27.5t28.5 10.5q19 0 32.5 -13.5t13.5 -37.5q0 -21 -6 -42.5t-14.5 -40.5t-18 -34t-15.5 -23h-39zM187 485q14 18 25 41.5t11 47.5q0 10 -4.5 17t-10 14t-10 14.5t-4.5 18.5
q0 17 12 27.5t29 10.5q18 0 32 -13.5t14 -37.5q0 -21 -6 -42.5t-14.5 -40.5t-18 -34t-15.5 -23h-40z" />
    <glyph glyph-name="quotedblbase" unicode="&#x201e;" horiz-adv-x="323" 
d="M39 -111q14 17 25 41t11 47q0 10 -4.5 17t-10 14t-10 14.5t-4.5 18.5q0 17 11.5 27.5t28.5 10.5q19 0 33 -13.5t14 -37.5q0 -21 -6 -42.5t-14.5 -40.5t-18 -34t-15.5 -22h-40zM184 -111q13 17 24 41t11 47q0 10 -4.5 17t-9.5 14t-9.5 14.5t-4.5 18.5q0 17 11.5 27.5
t28.5 10.5q18 0 32 -13.5t14 -37.5q0 -21 -6 -42.5t-14.5 -40.5t-18 -34t-15.5 -22h-39z" />
    <glyph glyph-name="dagger" unicode="&#x2020;" horiz-adv-x="534" 
d="M237 284l11 150l-83 -6h-110v49h110l83 -6l-9 112v137h56v-137l-9 -112l83 6h110v-49h-110l-83 6l10 -150l-10 -454h-38z" />
    <glyph glyph-name="daggerdbl" unicode="&#x2021;" horiz-adv-x="534" 
d="M239 -24l10 112l-84 -6h-110v49h110l84 -6l-12 150v10l11 149l-83 -6h-110v49h110l83 -6l-9 112v137h56v-137l-9 -112l83 6h110v-49h-110l-83 6l10 -149v-10l-10 -150l83 6h110v-49h-110l-83 6l9 -112v-145h-56v145z" />
    <glyph glyph-name="bullet" unicode="&#x2022;" horiz-adv-x="316" 
d="M158 188q-42 0 -70 28t-28 70t28 70t70 28t70.5 -28t28.5 -70t-28.5 -70t-70.5 -28z" />
    <glyph glyph-name="ellipsis" unicode="&#x2026;" horiz-adv-x="565" 
d="M95 -9q-18 0 -31 13.5t-13 32.5t13 32t31 13t31 -13t13 -32t-13 -32.5t-31 -13.5zM282 -9q-18 0 -31 13.5t-13 32.5t13 32t31 13q19 0 31.5 -13t12.5 -32t-12.5 -32.5t-31.5 -13.5zM470 -9q-18 0 -31.5 13.5t-13.5 32.5t13.5 32t31.5 13t31 -13t13 -32t-13 -32.5
t-31 -13.5z" />
    <glyph glyph-name="perthousand" unicode="&#x2030;" horiz-adv-x="1017" 
d="M168 222q-33 0 -57.5 11.5t-41 30.5t-24.5 43t-8 48q0 25 8.5 49t25 43t41.5 30.5t58 11.5t58 -11.5t41 -30t24 -42.5t8 -48q0 -25 -8.5 -49t-25 -43t-41.5 -31t-58 -12zM170 258q43 0 64.5 28t21.5 69t-22 69.5t-65 28.5q-44 0 -65.5 -28t-21.5 -69t22.5 -69.5
t65.5 -28.5zM533 -11q-33 0 -58 11.5t-41.5 30.5t-24.5 43t-8 48q0 25 8.5 49t25 43t42 31t58.5 12t57.5 -11.5t41 -30.5t24.5 -43t8 -48q0 -25 -8.5 -49t-25 -43t-41.5 -31t-58 -12zM534 26q43 0 65 27.5t22 69.5q0 41 -22.5 69t-65.5 28t-65 -27.5t-22 -68.5
q0 -42 22.5 -70t65.5 -28zM847 -11q-33 0 -58 11.5t-41.5 30.5t-24.5 43t-8 48q0 25 8.5 49t25.5 43t42 31t58 12t57.5 -11.5t41 -30.5t24.5 -43t8 -48q0 -25 -8.5 -49t-25 -43t-41.5 -31t-58 -12zM848 26q44 0 65.5 27.5t21.5 69.5q0 41 -22 69t-66 28q-43 0 -65 -27.5
t-22 -68.5q0 -42 22.5 -70t65.5 -28zM474 477h46l-285 -477h-46z" />
    <glyph glyph-name="guilsinglleft" unicode="&#x2039;" horiz-adv-x="290" 
d="M49 245l138 189h55l-137 -189l137 -188h-55z" />
    <glyph glyph-name="guilsinglright" unicode="&#x203a;" horiz-adv-x="290" 
d="M184 245l-136 190h55l138 -190l-138 -188h-55z" />
    <glyph glyph-name="fraction" unicode="&#x2044;" horiz-adv-x="91" 
d="M227 666h45l-408 -666h-45z" />
    <glyph glyph-name="uni2070" unicode="&#x2070;" horiz-adv-x="372" 
d="M186 337q-38 0 -65.5 14.5t-45.5 38t-26.5 53.5t-8.5 62q0 31 8.5 61.5t26.5 53.5t45.5 37.5t65.5 14.5q37 0 64.5 -14.5t45.5 -38t27 -53.5t9 -61q0 -32 -9 -62t-27 -53.5t-45.5 -38t-64.5 -14.5zM186 374q45 0 70 36t25 95q0 57 -25 93.5t-70 36.5t-70 -36.5t-25 -93.5
q0 -58 25 -94.5t70 -36.5z" />
    <glyph glyph-name="uni2074" unicode="&#x2074;" horiz-adv-x="300" 
d="M185 415h-172v32l173 219h43v-215h51v-36h-51v-73h-44v73zM185 451v154l-120 -154h120z" />
    <glyph glyph-name="uni2075" unicode="&#x2075;" horiz-adv-x="272" 
d="M84 337q-14 0 -28 1.5t-22 4.5l7 37q6 -2 19.5 -4t24.5 -2q19 0 38 4t34 12t24.5 21.5t9.5 33.5t-9 33t-24 20.5t-34.5 10.5t-40.5 3q-9 0 -19 -0.5t-16 -1.5l11 156h170v-37h-129l-6 -81h6q29 0 54 -6t43.5 -18.5t29 -31.5t10.5 -44q0 -28 -11.5 -48.5t-32 -34.5
t-48.5 -21t-61 -7z" />
    <glyph glyph-name="uni2076" unicode="&#x2076;" horiz-adv-x="309" 
d="M162 337q-33 0 -56 11.5t-37.5 31t-21.5 44.5t-7 51q0 44 14.5 80.5t41.5 62.5t66 40t89 14l10 -36q-32 -1 -61 -8t-51.5 -21t-37.5 -37t-21 -55q13 11 35 18t45 7q48 0 78 -27t30 -73q0 -45 -32 -74t-84 -29zM164 373q31 0 48.5 18.5t17.5 45.5q0 34 -19 51t-50 17
q-23 0 -42 -7t-32 -18v-8q0 -48 21 -73.5t56 -25.5z" />
    <glyph glyph-name="uni2077" unicode="&#x2077;" horiz-adv-x="272" 
d="M60 346l128 282h-167v38h217v-28l-139 -308z" />
    <glyph glyph-name="uni2078" unicode="&#x2078;" horiz-adv-x="300" 
d="M149 337q-55 0 -84.5 24t-29.5 61q0 31 23.5 52.5t51.5 36.5q-26 14 -46 32.5t-20 47.5q0 18 8.5 32.5t23 25.5t34 17t41.5 6q48 0 77 -21t29 -57q0 -29 -22 -47t-49 -32q15 -8 29 -16.5t25 -20t18 -25t7 -29.5q0 -39 -32.5 -63t-83.5 -24zM149 373q32 0 50 14.5t18 35.5
q0 11 -6.5 21t-17 18.5t-23 16t-25.5 13.5q-21 -12 -42.5 -29t-21.5 -40t19 -36.5t49 -13.5zM151 532q10 6 20.5 13t19.5 14.5t14.5 15.5t5.5 18q0 19 -16 31t-43 12t-44.5 -12t-17.5 -31q0 -21 20 -35t41 -26z" />
    <glyph glyph-name="uni2079" unicode="&#x2079;" horiz-adv-x="311" 
d="M53 372q63 0 110 30t58 92q-14 -11 -35.5 -18t-44.5 -7q-48 0 -79 27t-31 73q0 45 33 74t84 29q33 0 56.5 -11.5t38 -31t21.5 -44.5t7 -51q0 -45 -14 -81.5t-40.5 -62.5t-65.5 -40.5t-89 -14.5zM150 504q47 0 74 25v8q0 45 -21 72t-56 27q-31 0 -49 -19t-18 -45
q0 -34 19.5 -51t50.5 -17z" />
    <glyph glyph-name="uni207A" unicode="&#x207a;" horiz-adv-x="331" 
d="M146 487h-112v37h112v95h40v-95h111v-36h-111v-99h-40v98z" />
    <glyph glyph-name="uni207B" unicode="&#x207b;" horiz-adv-x="291" 
d="M45 524h201v-36h-201v36z" />
    <glyph glyph-name="uni207D" unicode="&#x207d;" horiz-adv-x="191" 
d="M143 286q-40 38 -69.5 92.5t-29.5 125.5q0 69 30 123.5t69 88.5h43q-17 -17 -34 -38t-30 -47.5t-21 -58t-8 -67.5q0 -70 25.5 -123.5t67.5 -95.5h-43z" />
    <glyph glyph-name="uni207E" unicode="&#x207e;" horiz-adv-x="191" 
d="M4 286q39 38 66.5 90.5t27.5 125.5q0 72 -28.5 125.5t-65.5 88.5h44q40 -35 69 -88t29 -125t-29.5 -127t-68.5 -90h-44z" />
    <glyph glyph-name="uni2080" unicode="&#x2080;" horiz-adv-x="372" 
d="M186 -206q-38 0 -65.5 14.5t-45.5 38t-26.5 53.5t-8.5 62q0 31 8.5 61.5t26.5 53.5t45.5 37.5t65.5 14.5q37 0 64.5 -14.5t45.5 -37.5t27 -53.5t9 -61.5q0 -32 -9 -62t-27 -53.5t-45.5 -38t-64.5 -14.5zM186 -169q45 0 70 36.5t25 94.5q0 57 -25 93.5t-70 36.5t-70 -36
t-25 -94q0 -57 25 -94t70 -37z" />
    <glyph glyph-name="uni2081" unicode="&#x2081;" horiz-adv-x="227" 
d="M103 84l-74 -24l-11 37l95 27h36v-324h-46v284z" />
    <glyph glyph-name="uni2082" unicode="&#x2082;" horiz-adv-x="306" 
d="M31 -175q27 24 56.5 50.5t54 53.5t41 54.5t16.5 52.5q0 29 -17.5 42.5t-43.5 13.5t-46.5 -10.5t-34.5 -22.5l-24 29q17 15 44.5 28t66.5 13q51 0 77 -23t26 -65q0 -26 -13.5 -52.5t-34.5 -52.5t-47 -51t-52 -48h163v-37h-232v25z" />
    <glyph glyph-name="uni2083" unicode="&#x2083;" horiz-adv-x="278" 
d="M91 -206q-19 0 -37 3t-26 6l9 37q8 -3 23 -5.5t29 -2.5q43 0 70 15t27 47q0 18 -9 29.5t-25 19t-37 11t-45 3.5v32q19 0 38 4.5t34 12.5t24.5 19t9.5 26q0 20 -16 30.5t-42 10.5q-22 0 -42.5 -9t-31.5 -19l-20 29q14 12 42 24t61 12q48 0 72 -19.5t24 -51.5
q0 -33 -23.5 -52t-51.5 -27v-1q15 -2 30.5 -7.5t28 -16t20 -25t7.5 -33.5q0 -51 -40 -76.5t-103 -25.5z" />
    <glyph glyph-name="uni2084" unicode="&#x2084;" horiz-adv-x="300" 
d="M185 -128h-172v32l173 220h43v-215h51v-37h-51v-72h-44v72zM185 -91v154l-120 -154h120z" />
    <glyph glyph-name="uni2085" unicode="&#x2085;" horiz-adv-x="272" 
d="M84 -206q-14 0 -28 2t-22 4l7 38q6 -2 19.5 -4t24.5 -2q19 0 38 4t34 12t24.5 21.5t9.5 32.5q0 20 -9 33t-24 20.5t-34.5 10.5t-40.5 3q-9 0 -19 -0.5t-16 -1.5l11 157h170v-38h-129l-6 -81h6q59 0 98 -24.5t39 -75.5q0 -28 -11.5 -48.5t-32 -34.5t-48.5 -21t-61 -7z" />
    <glyph glyph-name="uni2086" unicode="&#x2086;" horiz-adv-x="309" 
d="M162 -206q-33 0 -56 12t-37.5 31.5t-21.5 44.5t-7 51q0 44 14.5 80.5t41.5 62.5t66 40t89 14l10 -37q-32 0 -61 -7t-51.5 -21t-37.5 -37t-21 -55q13 11 35 18t45 7q48 0 78 -27t30 -73t-32 -75t-84 -29zM164 -169q31 0 48.5 18t17.5 46q0 34 -19 50.5t-50 16.5
q-47 0 -74 -25v-8q0 -47 21 -72.5t56 -25.5z" />
    <glyph glyph-name="uni2087" unicode="&#x2087;" horiz-adv-x="272" 
d="M60 -196l128 281h-167v39h217v-28l-139 -308z" />
    <glyph glyph-name="uni2088" unicode="&#x2088;" horiz-adv-x="300" 
d="M149 -206q-55 0 -84.5 24.5t-29.5 60.5q0 31 23.5 52.5t51.5 36.5q-26 15 -46 33t-20 48q0 18 8.5 32.5t23 25t34 16.5t41.5 6q48 0 77 -21t29 -57q0 -29 -22 -47t-49 -32q15 -7 29 -16t25 -20t18 -24.5t7 -30.5q0 -39 -32.5 -63t-83.5 -24zM149 -170q32 0 50 14.5
t18 35.5q0 12 -6.5 21.5t-17 18t-23 16t-25.5 14.5q-11 -6 -22 -13.5t-20.5 -16t-15.5 -18.5t-6 -22q0 -22 19 -36t49 -14zM151 -10q20 12 40 26t20 34q0 19 -16 31.5t-43 12.5t-44.5 -12.5t-17.5 -31.5q0 -20 20 -34t41 -26z" />
    <glyph glyph-name="uni2089" unicode="&#x2089;" horiz-adv-x="311" 
d="M53 -171q31 0 59.5 7.5t50.5 22.5t37 38t21 55q-14 -11 -35.5 -18t-44.5 -7q-48 0 -79 27t-31 73q0 45 33 74t84 29q33 0 56.5 -11.5t38 -31t21.5 -44.5t7 -52q0 -90 -54 -144t-155 -54zM150 -38q47 0 74 25v8q0 45 -21 72t-56 27q-31 0 -49 -19.5t-18 -45.5
q0 -34 19.5 -50.5t50.5 -16.5z" />
    <glyph glyph-name="colonmonetary" unicode="&#x20a1;" horiz-adv-x="521" 
d="M403 784l-10 -113q28 -6 48 -15.5t36 -20.5l-24 -42q-13 8 -28.5 15.5t-35.5 12.5l-51 -583q43 1 73 13t50 27l25 -41q-23 -17 -59.5 -32t-92.5 -16l-9 -103h-39l9 105q-15 2 -29 5.5t-28 8.5l-10 -119h-39l12 137q-36 21 -63.5 53.5t-46 73t-28 87t-9.5 96.5
q0 58 13.5 112t39.5 98.5t63.5 76.5t86.5 46l10 118h39l-10 -109q8 1 17 1.5t18 0.5q6 0 12 -0.5t11 -0.5l10 108h39zM111 334q0 -35 5.5 -70t17.5 -68t30 -62t42 -50l46 528q-34 -16 -60 -44t-44 -64.5t-27.5 -80t-9.5 -89.5zM243 58q25 -13 56 -18l51 588q-5 1 -9 1h-9
q-11 0 -20.5 -1t-19.5 -3z" />
    <glyph glyph-name="Euro" unicode="&#x20ac;" horiz-adv-x="583" 
d="M388 -11q-57 0 -102.5 20t-78.5 54.5t-54.5 79.5t-31.5 96h-81v43h74q-3 25 -3 52q0 11 0.5 20.5t1.5 20.5h-73v43h79q9 52 30.5 99t55 82.5t79 56.5t104.5 21q56 0 90 -12.5t57 -27.5l-25 -43q-18 11 -48 24t-76 13t-81.5 -17.5t-61.5 -46.5t-43 -68t-25 -81h185v-43
h-190q-2 -11 -2 -21v-19q0 -14 0.5 -27t1.5 -26h190v-43h-182q9 -41 26 -77.5t43.5 -64.5t61.5 -44.5t80 -16.5t76.5 12.5t51.5 26.5l26 -39q-23 -16 -59 -31.5t-96 -15.5z" />
    <glyph glyph-name="uni2117" unicode="&#x2117;" horiz-adv-x="859" 
d="M429 -12q-77 0 -144 29t-117 79t-79 118t-29 145t29 145t79 118.5t117 79.5t144 29t144.5 -29t117.5 -79.5t79 -118.5t29 -145t-29 -145t-79 -118t-117.5 -79t-144.5 -29zM429 27q70 0 130 25t104 69.5t69 105.5t25 132t-25 132t-69 105.5t-104 70t-130 25.5
q-69 0 -129 -25.5t-103.5 -70t-68.5 -105.5t-25 -132t25 -132t68.5 -105.5t103.5 -69.5t129 -25zM318 593h130q33 0 59 -11t44 -29.5t27 -42.5t9 -49q0 -26 -9.5 -49.5t-29 -42t-48.5 -29.5t-69 -11h-66v-200h-47v464zM429 369q52 0 79.5 24.5t27.5 66.5q0 40 -24 65.5
t-74 25.5h-73v-182h64z" />
    <glyph glyph-name="trademark" unicode="&#x2122;" horiz-adv-x="697" 
d="M321 666h48l71 -177q10 -24 15.5 -42.5t7.5 -24.5h2q1 6 6.5 24t16.5 44l71 176h48l28 -289h-41l-15 177q-2 23 -2.5 42t-0.5 25h-2q-2 -6 -7.5 -26.5t-16.5 -47.5l-70 -170h-36l-67 165q-11 26 -17.5 49.5t-8.5 29.5h-1q0 -6 -1 -24t-3 -45l-14 -175h-38zM126 630h-83
v36h209v-36h-84v-253h-42v253z" />
    <glyph glyph-name="uni2126" unicode="&#x2126;" horiz-adv-x="708" 
d="M60 44h147q-31 19 -58.5 51t-47.5 72t-32 86.5t-12 96.5q0 73 24 133t65 103t94.5 67t113.5 24t113.5 -24t94.5 -67t65 -103t24 -133q0 -50 -12 -96.5t-32 -86.5t-47.5 -72t-58.5 -51h147v-44h-207v46q72 45 114 123t42 181q0 56 -18.5 107t-50.5 89.5t-77 61.5t-97 23
q-53 0 -97.5 -23t-76.5 -61.5t-50.5 -89.5t-18.5 -107q0 -103 42 -181t115 -123v-46h-208v44z" />
    <glyph glyph-name="partialdiff" unicode="&#x2202;" horiz-adv-x="526" 
d="M227 -11q-40 0 -74 15.5t-58.5 41.5t-38.5 61.5t-14 76.5q0 48 15 88.5t43 70t66 46t85 16.5q29 0 57 -5t53 -12.5t45 -17t33 -19.5q-9 295 -288 295l14 44q85 0 147 -26t102 -72.5t59.5 -110.5t19.5 -139q0 -74 -19.5 -138t-55 -112t-84.5 -75.5t-107 -27.5zM229 34
q45 0 82 23.5t64 61.5t43.5 87.5t19.5 100.5q-15 10 -35.5 20t-45.5 17t-52 11.5t-54 4.5q-35 0 -63.5 -12.5t-49 -35t-31.5 -54.5t-11 -71q0 -33 10 -61t28 -48.5t42.5 -32t52.5 -11.5z" />
    <glyph glyph-name="uni2206" unicode="&#x2206;" horiz-adv-x="681" 
d="M309 700h49l279 -700h-607zM566 47l-233 586l-232 -586h465z" />
    <glyph glyph-name="product" unicode="&#x220f;" horiz-adv-x="828" 
d="M181 656h-110v44h677v-44h-110v-880h-53v880h-352v-880h-52v880z" />
    <glyph glyph-name="summation" unicode="&#x2211;" horiz-adv-x="602" 
d="M56 -105l280 445l-265 394v42h465v-47h-406l261 -387l-276 -442h436v-47h-495v42z" />
    <glyph glyph-name="minus" unicode="&#x2212;" horiz-adv-x="512" 
d="M69 295h369v-46h-369v46z" />
    <glyph glyph-name="uni2219" unicode="&#x2219;" horiz-adv-x="190" 
d="M95 244q-18 0 -31.5 13.5t-13.5 33.5q0 19 13.5 32t31.5 13q19 0 32 -13t13 -32q0 -20 -13 -33.5t-32 -13.5z" />
    <glyph glyph-name="radical" unicode="&#x221a;" horiz-adv-x="545" 
d="M47 477h54l154 -412l212 655h53l-240 -720h-50z" />
    <glyph glyph-name="infinity" unicode="&#x221e;" horiz-adv-x="872" 
d="M201 116q-35 0 -64 11.5t-51 31t-34 45t-12 54.5q0 30 13 57t35.5 47t52 32t63.5 12q25 0 49.5 -6.5t51.5 -20t59 -36t72 -53.5q41 32 73.5 54t60 36t51.5 20t48 6q34 0 63.5 -11.5t51 -31t34 -45t12.5 -54.5q0 -30 -13 -57t-35 -47t-52.5 -32t-64.5 -12q-23 0 -46.5 5.5
t-51 19t-60 35.5t-74.5 55q-43 -33 -75.5 -55.5t-59.5 -35.5t-50 -18.5t-47 -5.5zM205 159q18 0 37 5.5t42 17.5t51 31t63 46q-36 28 -64 48t-51 32t-42.5 17.5t-38.5 5.5q-23 0 -43.5 -8t-36.5 -21.5t-25 -32t-9 -38.5q0 -21 9.5 -40t25.5 -33t37.5 -22t44.5 -8zM668 159
q22 0 43 8t36.5 22t25 32.5t9.5 38.5q0 21 -9.5 40t-25.5 32.5t-37.5 21.5t-44.5 8q-19 0 -38.5 -5.5t-42.5 -17.5t-50.5 -31t-61.5 -46q37 -29 65.5 -48.5t51.5 -31.5t42 -17.5t37 -5.5z" />
    <glyph glyph-name="integral" unicode="&#x222b;" horiz-adv-x="320" 
d="M21 -235q-17 0 -36.5 4.5t-32.5 9.5l14 44q11 -4 28.5 -7.5t32.5 -3.5q61 0 88 40t27 105v566q0 42 11 77.5t32.5 62t53.5 41t74 14.5q18 0 35.5 -4.5t31.5 -10.5l-18 -44q-11 5 -26 8.5t-29 3.5q-29 0 -51 -12.5t-36 -34t-21 -51t-7 -62.5v-568q0 -79 -43 -128.5
t-128 -49.5z" />
    <glyph glyph-name="approxequal" unicode="&#x2248;" horiz-adv-x="552" 
d="M55 195q21 21 52.5 38.5t66.5 17.5t60 -11t47 -24t44.5 -24t53.5 -11q27 0 52.5 13t45.5 32l21 -36q-23 -23 -55 -39t-67 -16t-60 11t-47.5 23.5t-45.5 23.5t-53 11q-28 0 -51 -12.5t-43 -30.5zM55 335q20 20 51 38t68 18q35 0 60 -11t47 -24t44.5 -24t53.5 -11
q27 0 52.5 13t45.5 32l21 -36q-23 -23 -55 -39t-67 -16t-60 11t-47.5 23.5t-45.5 23.5t-53 11q-27 0 -50 -12t-44 -32z" />
    <glyph glyph-name="notequal" unicode="&#x2260;" horiz-adv-x="599" 
d="M136 20l85 140h-172v42h198l68 113h-266v43h292l86 140l37 -21l-75 -119h161v-43h-187l-69 -113h256v-42h-282l-96 -159z" />
    <glyph glyph-name="lessequal" unicode="&#x2264;" horiz-adv-x="569" 
d="M67 226v39l425 205v-49l-371 -176l371 -176v-49zM67 -52h425v-46h-425v46z" />
    <glyph glyph-name="greaterequal" unicode="&#x2265;" horiz-adv-x="569" 
d="M75 69l371 176l-371 176v49l426 -205v-39l-426 -206v49zM75 -52h426v-46h-426v46z" />
    <glyph glyph-name="dotmath" unicode="&#x22c5;" horiz-adv-x="190" 
d="M95 244q-18 0 -31.5 13.5t-13.5 33.5q0 19 13.5 32t31.5 13q19 0 32 -13t13 -32q0 -20 -13 -33.5t-32 -13.5z" />
    <glyph glyph-name="lozenge" unicode="&#x25ca;" horiz-adv-x="615" 
d="M37 328l251 341h37l253 -331l-250 -341h-38zM518 336l-213 279l-208 -286l213 -281z" />
    <glyph glyph-name="parenleft.subs" horiz-adv-x="191" 
d="M143 -57q-40 38 -69.5 92.5t-29.5 125.5q0 69 30 123.5t69 89.5h43q-17 -17 -34 -38.5t-30 -47.5t-21 -57.5t-8 -67.5q0 -71 25.5 -124.5t67.5 -95.5h-43z" />
    <glyph glyph-name="parenright.subs" horiz-adv-x="191" 
d="M4 -57q39 38 66.5 91t27.5 125q0 73 -28.5 126t-65.5 89h44q40 -36 69 -89t29 -125t-29.5 -126.5t-68.5 -90.5h-44z" />
    <glyph glyph-name="plus.subs" horiz-adv-x="331" 
d="M146 145h-112v37h112v95h40v-95h111v-36h-111v-100h-40v99z" />
    <glyph glyph-name="minus.subs" horiz-adv-x="291" 
d="M45 182h201v-36h-201v36z" />
    <glyph glyph-name="zero.dnom" horiz-adv-x="372" 
d="M186 -6q-38 0 -65.5 14.5t-45.5 38t-26.5 53.5t-8.5 62q0 31 8.5 61.5t26.5 53.5t45.5 37.5t65.5 14.5q37 0 64.5 -14.5t45.5 -37.5t27 -53.5t9 -61.5q0 -32 -9 -62t-27 -53.5t-45.5 -38t-64.5 -14.5zM186 31q45 0 70 36.5t25 94.5q0 57 -25 93.5t-70 36.5t-70 -36
t-25 -94q0 -57 25 -94t70 -37z" />
    <glyph glyph-name="one.dnom" horiz-adv-x="227" 
d="M103 284l-74 -24l-11 37l95 27h36v-324h-46v284z" />
    <glyph glyph-name="two.dnom" horiz-adv-x="306" 
d="M31 25q27 24 56.5 50.5t54 53.5t41 54.5t16.5 52.5q0 29 -17.5 42.5t-43.5 13.5t-46.5 -10.5t-34.5 -22.5l-24 29q17 15 44.5 28t66.5 13q51 0 77 -23t26 -65q0 -26 -13.5 -52.5t-34.5 -52.5t-47 -51t-52 -48h163v-37h-232v25z" />
    <glyph glyph-name="three.dnom" horiz-adv-x="278" 
d="M91 -6q-19 0 -37 3t-26 6l9 37q8 -3 23 -5.5t29 -2.5q43 0 70 15t27 47q0 18 -9 29.5t-25 19t-37 11t-45 3.5v32q19 0 38 4.5t34 12.5t24.5 19t9.5 26q0 20 -16 30.5t-42 10.5q-22 0 -42.5 -9t-31.5 -19l-20 29q14 12 42 24t61 12q48 0 72 -19.5t24 -51.5
q0 -33 -23.5 -52t-51.5 -27v-1q15 -2 30.5 -7.5t28 -16t20 -25t7.5 -33.5q0 -51 -40 -76.5t-103 -25.5z" />
    <glyph glyph-name="four.dnom" horiz-adv-x="300" 
d="M185 72h-172v32l173 220h43v-215h51v-37h-51v-72h-44v72zM185 109v154l-120 -154h120z" />
    <glyph glyph-name="five.dnom" horiz-adv-x="272" 
d="M84 -6q-14 0 -28 2t-22 4l7 38q6 -2 19.5 -4t24.5 -2q19 0 38 4t34 12t24.5 21.5t9.5 32.5q0 20 -9 33t-24 20.5t-34.5 10.5t-40.5 3q-9 0 -19 -0.5t-16 -1.5l11 157h170v-38h-129l-6 -81h6q59 0 98 -24.5t39 -75.5q0 -28 -11.5 -48.5t-32 -34.5t-48.5 -21t-61 -7z" />
    <glyph glyph-name="six.dnom" horiz-adv-x="309" 
d="M162 -6q-33 0 -56 12t-37.5 31.5t-21.5 44.5t-7 51q0 44 14.5 80.5t41.5 62.5t66 40t89 14l10 -37q-32 0 -61 -7t-51.5 -21t-37.5 -37t-21 -55q13 11 35 18t45 7q48 0 78 -27t30 -73t-32 -75t-84 -29zM164 31q31 0 48.5 18t17.5 46q0 34 -19 50.5t-50 16.5q-47 0 -74 -25
v-8q0 -47 21 -72.5t56 -25.5z" />
    <glyph glyph-name="seven.dnom" horiz-adv-x="272" 
d="M60 4l128 281h-167v39h217v-28l-139 -308z" />
    <glyph glyph-name="eight.dnom" horiz-adv-x="300" 
d="M149 -6q-55 0 -84.5 24.5t-29.5 60.5q0 31 23.5 52.5t51.5 36.5q-26 15 -46 33t-20 48q0 18 8.5 32.5t23 25t34 16.5t41.5 6q48 0 77 -21t29 -57q0 -29 -22 -47t-49 -32q15 -7 29 -16t25 -20t18 -24.5t7 -30.5q0 -39 -32.5 -63t-83.5 -24zM149 30q32 0 50 14.5t18 35.5
q0 12 -6.5 21.5t-17 18t-23 16t-25.5 14.5q-11 -6 -22 -13.5t-20.5 -16t-15.5 -18.5t-6 -22q0 -22 19 -36t49 -14zM151 190q20 12 40 26t20 34q0 19 -16 31.5t-43 12.5t-44.5 -12.5t-17.5 -31.5q0 -20 20 -34t41 -26z" />
    <glyph glyph-name="nine.dnom" horiz-adv-x="311" 
d="M53 29q31 0 59.5 7.5t50.5 22.5t37 38t21 55q-14 -11 -35.5 -18t-44.5 -7q-48 0 -79 27t-31 73q0 45 33 74t84 29q33 0 56.5 -11.5t38 -31t21.5 -44.5t7 -52q0 -90 -54 -144t-155 -54zM150 162q47 0 74 25v8q0 45 -21 72t-56 27q-31 0 -49 -19.5t-18 -45.5
q0 -34 19.5 -50.5t50.5 -16.5z" />
    <glyph glyph-name="dollar.osf" horiz-adv-x="402" 
d="M180 -11q-43 3 -78 15.5t-58 31.5l24 40q23 -18 58.5 -30t73.5 -12q54 0 86.5 21.5t32.5 60.5q0 21 -12 37t-31 28.5t-42.5 22.5t-47.5 21q-24 10 -48 22t-43 28t-30.5 37.5t-11.5 51.5q0 49 34 82.5t93 39.5v105h51v-104q38 -3 69.5 -16t51.5 -31l-26 -39
q-20 18 -52.5 30t-68.5 12q-46 0 -73.5 -20t-27.5 -57q0 -21 11 -36t29 -27t40.5 -21.5t45.5 -19.5q25 -11 50.5 -23.5t46 -29t33 -37.5t12.5 -50q0 -56 -38 -90.5t-103 -41.5v-113h-51v112z" />
    <glyph glyph-name="zero.osf" horiz-adv-x="561" 
d="M279 -11q-60 0 -104.5 22.5t-74 58t-44 80t-14.5 88.5q0 45 15 89.5t44.5 80t74.5 58t105 22.5t104.5 -22t74 -57.5t44 -79.5t14.5 -89t-15 -89.5t-44.5 -80.5t-74.5 -58.5t-105 -22.5zM281 34q45 0 79.5 17t57.5 45t34.5 65t11.5 77t-12 77t-35 65.5t-58 45.5t-80 17
t-79.5 -17t-57 -45t-34 -64.5t-11.5 -76.5t11.5 -77.5t35 -66t58 -45.5t79.5 -17z" />
    <glyph glyph-name="one.osf" horiz-adv-x="305" 
d="M159 428l-110 -40l-10 45l126 44h46v-477h-52v428z" />
    <glyph glyph-name="two.osf" horiz-adv-x="470" 
d="M35 22q21 18 50 43t60.5 53.5t62.5 59.5t55.5 62t39.5 60t15 55q0 39 -25.5 63t-75.5 24q-35 0 -69.5 -15t-58.5 -40l-29 33q28 29 70.5 48.5t90.5 19.5q31 0 59 -8t48.5 -24t32.5 -40t12 -56q0 -41 -27 -85t-65.5 -86t-81 -79.5t-73.5 -64.5h298v-45h-389v22z" />
    <glyph glyph-name="three.osf" horiz-adv-x="417" 
d="M127 -188q-29 0 -45.5 1t-26.5 3l8 45q7 -2 23 -3.5t36 -1.5q39 0 74 10.5t61.5 31t42.5 49t16 64.5q0 39 -14.5 67.5t-41 47t-63.5 27t-82 8.5v41q28 0 60 10.5t58.5 29.5t44 46t17.5 62q0 41 -27 66.5t-75 25.5q-35 0 -65.5 -13.5t-55.5 -38.5l-27 34q26 28 65 46
t85 18q37 0 66 -11t48.5 -29t29.5 -42.5t10 -51.5q0 -30 -12 -57.5t-31.5 -49t-44 -36t-48.5 -20.5v-1q28 -4 56.5 -17t51 -34.5t36.5 -52t14 -69.5q0 -48 -20 -86t-54 -64.5t-78 -40.5t-92 -14z" />
    <glyph glyph-name="four.osf" horiz-adv-x="545" 
d="M344 0h-312v35l324 442h40v-432h113v-45h-113v-177h-52v177zM344 45v343l-252 -343h252z" />
    <glyph glyph-name="five.osf" horiz-adv-x="406" 
d="M108 -188q-19 0 -34.5 1.5t-24.5 3.5l9 44q5 -1 19 -2.5t36 -1.5q38 0 73.5 12.5t62.5 35.5t43.5 55.5t16.5 73.5q0 44 -14 74.5t-39 50t-59.5 28.5t-74.5 9q-11 0 -25.5 -0.5t-25.5 -1.5l20 283h262v-43h-215l-13 -194h9q112 0 170.5 -55.5t58.5 -147.5q0 -47 -18.5 -88
t-52.5 -71.5t-80.5 -48t-103.5 -17.5z" />
    <glyph glyph-name="six.osf" horiz-adv-x="496" 
d="M254 -11q-57 0 -96 24.5t-63.5 64t-35.5 89t-11 98.5q0 91 25 166.5t73 130.5t118.5 85.5t161.5 30.5l10 -44q-72 0 -130 -20.5t-100 -59.5t-67.5 -95t-32.5 -127q25 23 65.5 39.5t88.5 16.5q46 0 81.5 -14t60 -40t37 -62t12.5 -79q0 -41 -13 -77.5t-38.5 -65t-62 -45
t-83.5 -16.5zM256 34q35 0 61.5 13.5t44 35t26.5 49t9 56.5q0 72 -34.5 113.5t-107.5 41.5q-51 0 -88 -15.5t-64 -38.5q0 -4 -0.5 -14.5t-0.5 -14.5q-1 -45 7 -85.5t26.5 -72t48.5 -50t72 -18.5z" />
    <glyph glyph-name="seven.osf" horiz-adv-x="434" 
d="M57 -176l282 607h-324v46h379v-39l-293 -635z" />
    <glyph glyph-name="eight.osf" horiz-adv-x="502" 
d="M250 -11q-46 0 -81 14t-59 37.5t-36.5 54t-12.5 64.5q0 56 38.5 103t107.5 88q-66 41 -97.5 80t-31.5 89q0 34 13.5 63t37 50t54.5 33t67 12q41 0 73.5 -12t55 -33t34.5 -49.5t12 -60.5q0 -51 -35 -90.5t-100 -77.5q73 -43 111.5 -88.5t38.5 -102.5q0 -39 -14 -71
t-39.5 -55t-60 -35.5t-76.5 -12.5zM252 35q32 0 57 10.5t42 28t26 40.5t9 49q0 43 -34 82.5t-108 81.5q-63 -41 -96.5 -79.5t-33.5 -84.5q0 -27 9.5 -50t27.5 -40.5t43.5 -27.5t57.5 -10zM252 378q59 35 89.5 68.5t30.5 72.5q0 23 -8 43.5t-23.5 36t-38 24.5t-50.5 9
q-56 0 -88.5 -32t-32.5 -80q0 -39 29 -72t92 -70z" />
    <glyph glyph-name="nine.osf" horiz-adv-x="497" 
d="M49 -144q69 0 128 18.5t103.5 55t72.5 90.5t36 124q-32 -26 -70.5 -40t-83.5 -14t-80.5 14.5t-60 40.5t-37 62t-12.5 79q0 40 14 77t40 64.5t62.5 44t82.5 16.5q57 0 96 -25t63 -64.5t34 -89t10 -97.5q0 -90 -26 -164t-76 -126t-122 -80.5t-165 -28.5zM240 135
q44 0 83.5 13.5t68.5 39.5q0 4 0.5 14t0.5 14q1 44 -7 85t-26 72.5t-47 50.5t-71 19q-32 0 -58.5 -12t-45.5 -33t-29 -49.5t-10 -60.5q0 -69 34.5 -111t106.5 -42z" />
    <glyph glyph-name="zero.lf" horiz-adv-x="593" 
d="M296 -11q-67 0 -113 31t-75 80.5t-42 111t-13 121.5q0 61 12.5 122.5t41.5 110.5t75 80t114 31q67 0 113.5 -31t75.5 -80.5t42 -111t13 -121.5q0 -61 -13 -122t-42 -110.5t-75.5 -80.5t-113.5 -31zM296 34q50 0 86 25.5t58.5 67t33 95.5t10.5 111t-10.5 111t-33.5 95.5
t-58.5 67t-85.5 25.5t-85.5 -25t-58 -67t-33 -96t-10.5 -111t10.5 -111t33 -95.5t58 -67t85.5 -25.5z" />
    <glyph glyph-name="one.lf" horiz-adv-x="326" 
d="M169 616l-132 -45l-12 45l151 50h46v-666h-53v616z" />
    <glyph glyph-name="two.lf" horiz-adv-x="489" 
d="M38 30q50 53 106.5 113t104 121.5t79 122t31.5 113.5q0 63 -35 97t-92 34q-54 0 -90 -20.5t-62 -46.5l-28 33q29 31 74.5 55.5t108.5 24.5q40 0 73.5 -11.5t57.5 -33.5t37 -53.5t13 -71.5q0 -56 -28 -114.5t-72 -117t-97 -116.5t-104 -112h316v-47h-393v30z" />
    <glyph glyph-name="three.lf" horiz-adv-x="452" 
d="M137 -11q-34 0 -57 2.5t-34 4.5l8 47q11 -2 32.5 -5t50.5 -3q44 0 80.5 10t63 29.5t41.5 48.5t15 67q0 40 -17.5 68.5t-47.5 47t-71 27.5t-88 9v40q34 0 70 10.5t65.5 29.5t48.5 46.5t19 61.5q0 45 -30.5 72t-84.5 27q-52 0 -85.5 -16t-59.5 -39l-25 34q26 26 69 47.5
t104 21.5q41 0 72.5 -11.5t52.5 -31t31.5 -45.5t10.5 -56q0 -33 -14 -60t-35.5 -48t-49 -35t-54.5 -21v-1q28 -3 59 -16t57 -35t42.5 -53.5t16.5 -70.5q0 -51 -20 -89.5t-54.5 -64t-81.5 -38t-100 -12.5z" />
    <glyph glyph-name="four.lf" horiz-adv-x="514" 
d="M338 159h-311v43l309 464h53v-459h95v-48h-95v-159h-51v159zM337 207v379l-251 -379h251z" />
    <glyph glyph-name="five.lf" horiz-adv-x="434" 
d="M101 -11q-19 0 -33.5 1t-22.5 3l7 47q6 -1 21 -3t31 -2q45 0 86.5 10.5t72.5 32.5t49.5 54.5t18.5 76.5t-16.5 75t-45 50t-67 27.5t-81.5 8.5q-15 0 -28.5 -0.5t-21.5 -1.5l19 298h280v-47h-232l-13 -203h9q55 -1 101.5 -14.5t80.5 -39t52.5 -63t18.5 -86.5
q0 -56 -22 -97.5t-61 -70t-91 -42.5t-112 -14z" />
    <glyph glyph-name="six.lf" horiz-adv-x="504" 
d="M263 -11q-57 0 -96.5 25t-65 64.5t-37 89t-11.5 98.5q0 92 25 168t73.5 130t119 84t160.5 30l9 -43q-143 0 -227.5 -75t-101.5 -221q26 26 67 43t87 17t83 -15.5t62.5 -42.5t39 -64.5t13.5 -81.5q0 -42 -13.5 -79t-39 -65.5t-62.5 -45t-85 -16.5zM266 34q37 0 63.5 13.5
t44 36t26 51t8.5 57.5q0 75 -37 118.5t-110 43.5q-49 0 -86.5 -16t-67.5 -44v-28q0 -47 9 -89t28.5 -74t49.5 -50.5t72 -18.5z" />
    <glyph glyph-name="seven.lf" horiz-adv-x="441" 
d="M97 -5l238 624h-310v47h366v-40l-245 -649z" />
    <glyph glyph-name="eight.lf" horiz-adv-x="474" 
d="M235 -11q-46 0 -81 13.5t-59 37t-36 54t-12 65.5q0 33 12.5 60.5t33 51t46.5 43t54 36.5q-27 17 -50.5 34.5t-41 37.5t-27.5 44t-10 54q0 34 13.5 63t36.5 50t55 32.5t70 11.5q39 0 71 -11.5t54.5 -31.5t35 -48.5t12.5 -62.5q0 -30 -11.5 -54.5t-30.5 -44.5t-43.5 -37
t-51.5 -33q28 -17 55.5 -36t49 -42.5t34.5 -51.5t13 -61q0 -38 -14 -70t-39 -55t-60.5 -36t-78.5 -13zM237 35q31 0 56 10t42.5 27.5t26.5 40.5t9 50t-12 50t-31.5 43t-45 38t-52.5 34q-25 -16 -48 -33.5t-41 -38t-28.5 -43.5t-10.5 -51q0 -27 9 -50t26 -40t42.5 -27
t57.5 -10zM238 377q24 15 45.5 30t38 32.5t26.5 37t10 43.5q0 46 -31 78.5t-88 32.5t-89 -31.5t-32 -78.5q0 -24 9.5 -44.5t26 -37.5t38.5 -32t46 -30z" />
    <glyph glyph-name="nine.lf" horiz-adv-x="504" 
d="M74 24q140 0 221 78t98 224q-26 -26 -66 -42t-87 -16q-46 0 -82.5 15.5t-62 42.5t-39.5 64t-14 81q0 42 13.5 79t39 65.5t62.5 45t85 16.5q56 0 96 -24.5t65.5 -63.5t37 -88.5t11.5 -99.5q0 -93 -23 -170t-69 -132.5t-115 -86.5t-161 -31zM244 313q49 0 86.5 15t66.5 43
q0 5 0.5 14.5t0.5 14.5q0 47 -9 89t-28.5 74t-49.5 50.5t-72 18.5q-37 0 -64 -13.5t-44.5 -36t-26 -51t-8.5 -57.5q0 -75 37.5 -118t110.5 -43z" />
    <glyph glyph-name="zero.tosf" horiz-adv-x="512" 
d="M254 -11q-55 0 -94.5 22.5t-65 58t-37.5 80t-12 88.5q0 45 12.5 89.5t38 80t65.5 58t95 22.5t95 -22t65.5 -57.5t37.5 -79.5t12 -89t-12.5 -89.5t-38 -80.5t-66 -58.5t-95.5 -22.5zM256 34q39 0 68 17t48.5 45t29.5 65t10 77t-10 77t-30 65.5t-49.5 45.5t-68.5 17
t-67.5 -17t-48 -45t-29 -64.5t-9.5 -76.5t10 -77.5t29.5 -66t48.5 -45.5t68 -17z" />
    <glyph glyph-name="one.tosf" horiz-adv-x="512" 
d="M93 45h153v383l-142 -52l-11 44l160 57h45v-432h161v-45h-366v45z" />
    <glyph glyph-name="two.tosf" horiz-adv-x="512" 
d="M51 22q48 37 100 78.5t96 84.5t72.5 85.5t28.5 82.5q0 42 -26.5 65.5t-72.5 23.5q-42 0 -81 -18.5t-64 -41.5l-27 32q13 13 31.5 26.5t41 24t48.5 17t54 6.5q31 0 58.5 -8t48 -24t32.5 -40t12 -57q0 -44 -26 -88t-65 -84.5t-83.5 -76.5t-80.5 -65h297v-45h-394v22z" />
    <glyph glyph-name="three.tosf" horiz-adv-x="512" 
d="M163 -188q-26 0 -50.5 3t-36.5 5l9 45q11 -3 34.5 -5.5t47.5 -2.5q37 0 73 11t64.5 31t46 48.5t17.5 63.5q0 39 -18 67.5t-49 47t-71.5 27t-85.5 8.5v41q30 0 65 10.5t66 29.5t51.5 46t20.5 62q0 42 -32 67t-81 25q-45 0 -83 -16.5t-64 -40.5l-27 31q28 27 73.5 49.5
t103.5 22.5q75 0 119.5 -36.5t44.5 -97.5q0 -33 -14.5 -60.5t-36.5 -48.5t-49 -34.5t-52 -19.5v-1q28 -4 59 -16t56 -33.5t41.5 -52.5t16.5 -71q0 -51 -23 -89.5t-60 -64t-83.5 -38.5t-92.5 -13z" />
    <glyph glyph-name="four.tosf" horiz-adv-x="512" 
d="M324 0h-303v35l315 442h40v-432h105v-45h-105v-177h-52v177zM324 45v343l-243 -343h243z" />
    <glyph glyph-name="five.tosf" horiz-adv-x="512" 
d="M156 -188q-25 0 -48.5 3t-34.5 5l9 44q9 -2 32 -4.5t47 -2.5q38 0 74 12t64 35t45 56t17 74q0 44 -16.5 74.5t-44.5 50t-64.5 28.5t-76.5 9q-22 0 -37.5 -0.5t-24.5 -1.5l20 283h288v-45h-241l-13 -192h20q55 0 100.5 -13.5t77.5 -40t49.5 -64t17.5 -85.5t-19.5 -89
t-54 -71.5t-82 -47.5t-104.5 -17z" />
    <glyph glyph-name="six.tosf" horiz-adv-x="512" 
d="M264 -11q-57 0 -96.5 24.5t-64 64t-36 89t-11.5 98.5q0 91 24.5 166.5t72.5 130.5t118 85.5t161 30.5l10 -44q-143 0 -227.5 -78.5t-99.5 -217.5q25 23 65 39.5t88 16.5q46 0 81.5 -15t60.5 -42t38 -64t13 -80q0 -41 -13 -77.5t-38.5 -65t-62 -45t-83.5 -16.5zM266 34
q35 0 61.5 13.5t44 35t26.5 49t9 56.5q0 72 -36 116.5t-108 44.5q-51 0 -88 -16.5t-64 -39.5v-33q0 -45 8.5 -85.5t27 -72t48 -50t71.5 -18.5z" />
    <glyph glyph-name="seven.tosf" horiz-adv-x="512" 
d="M91 -176l307 607h-349v46h405v-39l-319 -635z" />
    <glyph glyph-name="eight.tosf" horiz-adv-x="512" 
d="M255 -11q-45 0 -80.5 14t-60 37.5t-37.5 54t-13 64.5q0 57 39.5 103.5t108.5 87.5q-66 41 -98.5 79.5t-32.5 89.5q0 34 14 63t37.5 50t55 33t67.5 12q41 0 74 -12.5t56 -33.5t35 -49t12 -60q0 -52 -35.5 -91t-101.5 -77q73 -43 112.5 -88t39.5 -103q0 -39 -14.5 -71
t-40 -55t-60.5 -35.5t-77 -12.5zM257 35q32 0 57 10t42.5 27.5t27 41t9.5 49.5q0 45 -35 83.5t-109 80.5q-63 -41 -97.5 -78.5t-34.5 -85.5q0 -27 10 -50t28.5 -40.5t44.5 -27.5t57 -10zM257 378q60 35 91 67.5t31 73.5q0 23 -8.5 43.5t-24 36t-38.5 24.5t-51 9
q-56 0 -89.5 -32t-33.5 -80q0 -41 30 -73t93 -69z" />
    <glyph glyph-name="nine.tosf" horiz-adv-x="512" 
d="M55 -144q69 0 127.5 18.5t102.5 55t71.5 90.5t35.5 124q-32 -26 -70 -40t-83 -14t-80.5 14.5t-59.5 40.5t-36.5 62t-12.5 79q0 40 14 77t40 64.5t62.5 44t82.5 16.5q57 0 95.5 -25t62.5 -64.5t34 -89t10 -97.5q0 -92 -26 -165.5t-76 -125.5t-122 -80t-163 -28zM245 135
q44 0 82.5 13.5t68.5 39.5v28q0 44 -8 85t-26 72.5t-46.5 50.5t-69.5 19q-32 0 -58 -12t-44.5 -33t-28.5 -49.5t-10 -60.5q0 -69 34 -111t106 -42z" />
    <glyph glyph-name="uni2007.tosf" horiz-adv-x="512" 
 />
    <glyph glyph-name="exclam.sc" horiz-adv-x="230" 
d="M115 -7q-17 0 -29.5 12.5t-12.5 29.5q0 18 12.5 30.5t29.5 12.5t29 -12.5t12 -30.5q0 -17 -12 -29.5t-29 -12.5zM85 508h61l-11 -352h-39z" />
    <glyph glyph-name="ampersand.sc" horiz-adv-x="507" 
d="M211 -9q-41 0 -73 11t-54.5 30t-34 44t-11.5 52q0 28 9.5 49.5t25.5 39t37 31.5t44 26q-32 34 -51.5 62.5t-19.5 65.5q0 25 10 46t28 36.5t42.5 24.5t53.5 9q27 0 50.5 -8t41 -22t27 -33.5t9.5 -42.5q0 -24 -9.5 -44.5t-25.5 -38t-38 -32.5t-47 -28l147 -149q19 28 30 59
t17 63l45 -9q-6 -38 -21.5 -75t-39.5 -70l88 -88h-63l-55 56q-32 -30 -72 -47.5t-90 -17.5zM198 296q44 24 71 50.5t27 62.5q0 26 -22.5 47t-57.5 21q-37 0 -59.5 -21.5t-22.5 -51.5q0 -32 16.5 -54.5t47.5 -53.5zM214 34q40 0 72 14t56 38l-160 159q-38 -21 -64.5 -47.5
t-26.5 -66.5q0 -19 8 -36.5t24 -31t39 -21.5t52 -8z" />
    <glyph glyph-name="question.sc" horiz-adv-x="326" 
d="M91 192q0 31 12 52.5t46 41.5q33 20 55.5 45t22.5 60q0 42 -26 63t-74 21q-21 0 -39 -6t-30 -13l-17 39q14 8 37.5 15.5t54.5 7.5q73 0 110 -34t37 -89q0 -27 -9 -48t-22.5 -37.5t-31 -29t-33.5 -22.5q-28 -17 -36.5 -32t-8.5 -39v-31h-48v36zM117 -7q-17 0 -29.5 12.5
t-12.5 29.5q0 18 12.5 30.5t29.5 12.5t29 -12.5t12 -30.5q0 -17 -12 -29.5t-29 -12.5z" />
    <glyph glyph-name="a.sc" horiz-adv-x="502" 
d="M225 508h52l206 -508h-55l-52 129h-253l-51 -129h-52zM359 175l-110 276l-109 -276h219z" />
    <glyph glyph-name="b.sc" horiz-adv-x="470" 
d="M87 508h136q76 0 122 -30t46 -96q0 -45 -25 -73.5t-66 -39.5v-1q48 -8 81 -40.5t33 -85.5q0 -75 -52 -108.5t-140 -33.5h-135v508zM221 44q70 0 104.5 23t34.5 74t-32 77.5t-103 26.5h-86v-201h82zM217 287q63 0 92 22.5t29 69.5q0 86 -119 86h-80v-178h78z" />
    <glyph glyph-name="c.sc" horiz-adv-x="498" 
d="M302 -9q-61 0 -108.5 21t-80.5 57t-50 84t-17 101q0 54 17.5 102t50.5 84t81 57t109 21q49 0 84 -10.5t63 -29.5l-27 -40q-23 17 -53.5 26t-68.5 9q-49 0 -86.5 -17t-63 -46.5t-38.5 -68.5t-13 -84t13 -85.5t38.5 -70.5t63.5 -47.5t88 -17.5q44 0 77.5 12.5t56.5 31.5
l25 -37q-23 -21 -65 -36.5t-96 -15.5z" />
    <glyph glyph-name="d.sc" horiz-adv-x="553" 
d="M87 508h118q76 0 132.5 -18t94 -50.5t56 -78.5t18.5 -102q0 -57 -18.5 -104.5t-56.5 -82t-95 -53.5t-134 -19h-115v508zM206 44q121 0 183.5 55t62.5 157q0 103 -61.5 156t-186.5 53h-64v-421h66z" />
    <glyph glyph-name="e.sc" horiz-adv-x="438" 
d="M87 508h293v-44h-240v-172h214v-44h-214v-203h244v-45h-297v508z" />
    <glyph glyph-name="f.sc" horiz-adv-x="417" 
d="M87 508h289v-44h-236v-171h207v-44h-207v-249h-53v508z" />
    <glyph glyph-name="g.sc" horiz-adv-x="573" 
d="M306 -9q-62 0 -110.5 21.5t-81.5 57.5t-50.5 83.5t-17.5 100.5q0 54 17.5 102t51.5 84t83 57t111 21q64 0 103.5 -15.5t62.5 -34.5l-27 -38q-23 18 -56.5 30.5t-84.5 12.5t-90 -17.5t-64.5 -47t-38.5 -68.5t-13 -83t13 -84.5t39 -71t64.5 -48.5t89.5 -18q54 0 89.5 11.5
t54.5 26.5v145h-122v44h174v-214q-21 -19 -69 -38t-128 -19z" />
    <glyph glyph-name="h.sc" horiz-adv-x="594" 
d="M87 508h53v-217h314v217h53v-508h-53v246h-314v-246h-53v508z" />
    <glyph glyph-name="i.sc" horiz-adv-x="232" 
d="M90 508h52v-508h-52v508z" />
    <glyph glyph-name="j.sc" horiz-adv-x="233" 
d="M33 -141q-15 0 -25.5 2t-15.5 4l8 46q5 -2 12 -4t17 -2q38 0 51 26.5t13 70.5v506h53v-516q0 -59 -26 -96t-87 -37z" />
    <glyph glyph-name="k.sc" horiz-adv-x="465" 
d="M154 264l217 244h64l-217 -242l231 -266h-63zM87 508h52v-508h-52v508z" />
    <glyph glyph-name="l.sc" horiz-adv-x="395" 
d="M87 508h53v-463h223v-45h-276v508z" />
    <glyph glyph-name="m.sc" horiz-adv-x="694" 
d="M123 508h55l168 -449h1l169 449h55l69 -508h-54l-55 418h-1l-158 -418h-53l-160 418h-1l-54 -418h-50z" />
    <glyph glyph-name="n.sc" horiz-adv-x="586" 
d="M86 508h53l312 -425v425h49v-508h-48l-316 429v-429h-50v508z" />
    <glyph glyph-name="o.sc" 
d="M304 -9q-61 0 -109 21t-81 57t-50.5 83.5t-17.5 100.5q0 54 17.5 102t50.5 84t81 57.5t109 21.5t109 -21t81.5 -57t51 -83.5t17.5 -100.5q0 -54 -17.5 -102t-51 -84t-81.5 -57.5t-109 -21.5zM304 35q49 0 87.5 17.5t64 47.5t39 69.5t13.5 83.5t-13.5 84t-39 70.5
t-64 48.5t-87.5 18t-87 -18t-63.5 -48t-39 -69.5t-13.5 -82.5q0 -44 13.5 -84t39 -70.5t63.5 -48.5t87 -18z" />
    <glyph glyph-name="p.sc" horiz-adv-x="444" 
d="M87 508h130q84 0 134 -36t50 -110q0 -76 -50.5 -114.5t-140.5 -38.5h-70v-209h-53v508zM210 254q138 0 138 106q0 52 -32.5 78.5t-103.5 26.5h-72v-211h70z" />
    <glyph glyph-name="q.sc" 
d="M501 -122q-53 0 -100 26t-98 87q-60 0 -108 21.5t-81 57t-50.5 83t-17.5 100.5q0 54 17.5 102t50.5 84t81 57.5t109 21.5t109 -21t81.5 -57t51 -83.5t17.5 -100.5q0 -47 -13.5 -90t-39.5 -77.5t-63 -58.5t-85 -33q31 -37 63 -56.5t78 -19.5q23 0 40.5 7.5t25.5 13.5
l21 -37q-13 -11 -36.5 -19t-52.5 -8zM304 35q49 0 87.5 17.5t64 47.5t39 69.5t13.5 83.5t-13.5 84t-39 70.5t-64 48.5t-87.5 18t-87 -18t-63.5 -48t-39 -69.5t-13.5 -82.5q0 -44 13.5 -84t39 -70.5t63.5 -48.5t87 -18z" />
    <glyph glyph-name="r.sc" horiz-adv-x="464" 
d="M87 508h133q86 0 132.5 -32.5t46.5 -99.5q0 -33 -12 -57t-33 -40t-50.5 -24t-65.5 -9v-2q8 -5 20.5 -18t38.5 -46l140 -180h-64l-123 162q-20 27 -33.5 42.5t-24 23.5t-19.5 10t-21 2h-12v-240h-53v508zM217 282q128 0 128 92q0 48 -32 69.5t-98 21.5h-75v-183h77z" />
    <glyph glyph-name="s.sc" horiz-adv-x="404" 
d="M191 -9q-57 0 -94.5 18t-57.5 36l27 37q8 -6 20 -14.5t28 -15.5t35.5 -12t43.5 -5q50 0 81.5 25t31.5 67q0 23 -10 39.5t-26.5 29.5t-39.5 23.5t-48 22.5q-25 11 -48 24t-41 30t-29 39t-11 52t12 54.5t32.5 41.5t48.5 26t60 9q51 0 83.5 -14t51.5 -29l-25 -38
q-17 14 -45.5 25.5t-63.5 11.5q-45 0 -73.5 -22t-28.5 -62q0 -23 9 -38.5t24.5 -27.5t35 -21.5t40.5 -18.5q27 -12 52.5 -25.5t46 -31t33 -41.5t12.5 -57q0 -63 -46 -100.5t-121 -37.5z" />
    <glyph glyph-name="t.sc" horiz-adv-x="409" 
d="M178 464h-159v44h372v-44h-160v-464h-53v464z" />
    <glyph glyph-name="u.sc" horiz-adv-x="566" 
d="M284 -9q-53 0 -91 15.5t-62.5 43.5t-36.5 68t-12 89v301h53v-295q0 -90 36.5 -133.5t114.5 -43.5q76 0 111.5 45t35.5 126v301h50v-298q0 -101 -48 -160t-151 -59z" />
    <glyph glyph-name="v.sc" horiz-adv-x="497" 
d="M19 508h55l177 -449l175 449h51l-201 -508h-52z" />
    <glyph glyph-name="w.sc" horiz-adv-x="708" 
d="M24 508h54l121 -435h2l129 435h51l130 -435h2l121 435h54l-144 -508h-54l-134 441h-1l-133 -441h-55z" />
    <glyph glyph-name="x.sc" horiz-adv-x="456" 
d="M199 265l-160 243h58l132 -204l130 204h55l-158 -246l173 -262h-58l-146 225l-143 -225h-56z" />
    <glyph glyph-name="y.sc" horiz-adv-x="446" 
d="M198 190l-180 318h59l147 -268h2l147 268h54l-176 -318v-190h-53v190z" />
    <glyph glyph-name="z.sc" horiz-adv-x="454" 
d="M41 39l296 425h-283v44h347v-39l-299 -425h310v-44h-371v39z" />
    <glyph glyph-name="exclamdown.sc" horiz-adv-x="230" 
d="M115 429q-17 0 -29.5 12.5t-12.5 29.5t12.5 30t29.5 13t29 -13t12 -30t-12 -29.5t-29 -12.5zM94 352h40l11 -352h-61z" />
    <glyph glyph-name="questiondown.sc" horiz-adv-x="326" 
d="M193 -9q-73 0 -110 34t-37 89q0 27 9 48t22.5 37.5t30.5 29t34 22.5q28 17 36.5 32t8.5 39v31h47v-36q0 -31 -11.5 -52.5t-45.5 -41.5q-33 -20 -55.5 -45t-22.5 -60q0 -42 26 -63t74 -21q21 0 39 6t30 13l17 -39q-14 -8 -37.5 -15.5t-54.5 -7.5zM209 429q-17 0 -29 13
t-12 30t12 30t29 13t29.5 -13t12.5 -30t-12.5 -30t-29.5 -13z" />
    <glyph glyph-name="germandbls.sc" horiz-adv-x="808" 
d="M191 -9q-57 0 -94.5 18t-57.5 36l27 37q8 -6 20 -14.5t28 -15.5t35.5 -12t43.5 -5q50 0 81.5 25t31.5 67q0 23 -10 39.5t-26.5 29.5t-39.5 23.5t-48 22.5t-48 24.5t-41 29.5t-29 39t-11 52t12 54.5t32.5 41.5t48.5 26t60 9q51 0 83.5 -14t51.5 -29l-25 -38
q-17 14 -45.5 25.5t-63.5 11.5q-45 0 -73.5 -22t-28.5 -62q0 -23 9 -39t24.5 -28t35 -21.5t40.5 -18.5q27 -12 52.5 -25t46 -31t33 -41.5t12.5 -56.5q0 -63 -46 -100.5t-121 -37.5zM595 -9q-57 0 -94.5 18t-57.5 36l27 37q15 -13 47 -30t80 -17q50 0 81.5 25t31.5 67
q0 23 -10 39.5t-26.5 29.5t-39.5 23.5t-48 22.5t-48.5 24.5t-41.5 29.5t-28.5 39t-10.5 52t12 54.5t32.5 41.5t48.5 26t60 9q51 0 83 -14t52 -29l-25 -38q-18 14 -46 25.5t-64 11.5q-44 0 -72.5 -22t-28.5 -62q0 -23 9 -39t24.5 -28t35 -21.5t40.5 -18.5q27 -12 52.5 -25
t46 -31t33 -41.5t12.5 -56.5q0 -63 -46 -100.5t-121 -37.5z" />
    <glyph glyph-name="agrave.sc" horiz-adv-x="502" 
d="M225 508h52l206 -508h-55l-52 129h-253l-51 -129h-52zM359 175l-110 276l-109 -276h219zM102 686h78l97 -122h-46z" />
    <glyph glyph-name="aacute.sc" horiz-adv-x="502" 
d="M323 686h78l-130 -122h-45zM225 508h52l206 -508h-55l-52 129h-253l-51 -129h-52zM359 175l-110 276l-109 -276h219z" />
    <glyph glyph-name="acircumflex.sc" horiz-adv-x="502" 
d="M234 712h34l119 -147h-49l-88 94l-86 -94h-49zM225 508h52l206 -508h-55l-52 129h-253l-51 -129h-52zM359 175l-110 276l-109 -276h219z" />
    <glyph glyph-name="atilde.sc" horiz-adv-x="502" 
d="M225 508h52l206 -508h-55l-52 129h-253l-51 -129h-52zM359 175l-110 276l-109 -276h219zM297 569q-17 0 -29.5 6.5t-23 14t-21.5 14t-25 6.5q-17 0 -31 -12t-23 -21l-27 27q6 8 14.5 17.5t19 17.5t23.5 13t28 5q17 0 29.5 -6.5t23.5 -14.5t21.5 -14.5t24.5 -6.5
q19 0 33 11.5t22 22.5l28 -29q-14 -17 -35.5 -34t-51.5 -17z" />
    <glyph glyph-name="adieresis.sc" horiz-adv-x="502" 
d="M165 567q-16 0 -27.5 12t-11.5 29t11.5 28.5t27.5 11.5q17 0 28.5 -11.5t11.5 -28.5t-11.5 -29t-28.5 -12zM334 567q-16 0 -27.5 12t-11.5 29t11.5 28.5t27.5 11.5q17 0 29 -11.5t12 -28.5t-12 -29t-29 -12zM225 508h52l206 -508h-55l-52 129h-253l-51 -129h-52zM359 175
l-110 276l-109 -276h219z" />
    <glyph glyph-name="aring.sc" horiz-adv-x="502" 
d="M250 566q-38 0 -64 27t-26 64q0 38 26 65t64 27t64 -27t26 -64q0 -38 -26 -65t-64 -27zM250 597q26 0 40.5 18.5t14.5 41.5t-14.5 41.5t-40.5 18.5t-40.5 -18t-14.5 -41t14.5 -42t40.5 -19zM225 508h52l206 -508h-55l-52 129h-253l-51 -129h-52zM359 175l-110 276
l-109 -276h219z" />
    <glyph glyph-name="ae.sc" horiz-adv-x="666" 
d="M303 508h305v-44h-227v-172h201v-44h-201v-203h232v-45h-286v144h-188l-87 -144h-57zM327 189v271l-162 -271h162z" />
    <glyph glyph-name="ccedilla.sc" horiz-adv-x="498" 
d="M264 -215q-24 0 -39 4t-23 8l10 33q8 -4 20.5 -7.5t30.5 -3.5q26 0 41 11t15 32q0 13 -6.5 21.5t-17 13t-23.5 6t-26 1.5l33 88q-56 4 -99.5 26.5t-73 58t-45 81t-15.5 96.5q0 54 17.5 102t50.5 84t81 57t109 21q49 0 84 -10.5t63 -29.5l-27 -40q-23 17 -53.5 26t-68.5 9
q-49 0 -86.5 -17t-63 -46.5t-38.5 -68.5t-13 -84t13 -85.5t38.5 -70.5t63.5 -47.5t88 -17.5q44 0 77.5 12.5t56.5 31.5l25 -37q-22 -20 -60 -35t-87 -17l-22 -62q31 -4 50.5 -22t19.5 -44q0 -38 -29 -58t-71 -20z" />
    <glyph glyph-name="egrave.sc" horiz-adv-x="438" 
d="M83 686h78l97 -122h-46zM87 508h293v-44h-240v-172h214v-44h-214v-203h244v-45h-297v508z" />
    <glyph glyph-name="eacute.sc" horiz-adv-x="438" 
d="M304 686h78l-130 -122h-45zM87 508h293v-44h-240v-172h214v-44h-214v-203h244v-45h-297v508z" />
    <glyph glyph-name="ecircumflex.sc" horiz-adv-x="438" 
d="M216 712h34l119 -147h-49l-88 94l-86 -94h-49zM87 508h293v-44h-240v-172h214v-44h-214v-203h244v-45h-297v508z" />
    <glyph glyph-name="edieresis.sc" horiz-adv-x="438" 
d="M147 567q-16 0 -27.5 12t-11.5 29t11.5 28.5t27.5 11.5q17 0 28.5 -11.5t11.5 -28.5t-11.5 -29t-28.5 -12zM316 567q-16 0 -27.5 12t-11.5 29t11.5 28.5t27.5 11.5q17 0 29 -11.5t12 -28.5t-12 -29t-29 -12zM87 508h293v-44h-240v-172h214v-44h-214v-203h244v-45h-297
v508z" />
    <glyph glyph-name="igrave.sc" horiz-adv-x="232" 
d="M90 508h52v-508h-52v508zM-33 686h78l97 -122h-46z" />
    <glyph glyph-name="iacute.sc" horiz-adv-x="232" 
d="M189 686h78l-130 -122h-45zM90 508h52v-508h-52v508z" />
    <glyph glyph-name="icircumflex.sc" horiz-adv-x="232" 
d="M100 712h34l119 -147h-49l-88 94l-86 -94h-49zM90 508h52v-508h-52v508z" />
    <glyph glyph-name="idieresis.sc" horiz-adv-x="232" 
d="M31 567q-16 0 -27.5 12t-11.5 29t11.5 28.5t27.5 11.5q17 0 28.5 -11.5t11.5 -28.5t-11.5 -29t-28.5 -12zM200 567q-16 0 -27.5 12t-11.5 29t11.5 28.5t27.5 11.5q17 0 29 -11.5t12 -28.5t-12 -29t-29 -12zM90 508h52v-508h-52v508z" />
    <glyph glyph-name="eth.sc" horiz-adv-x="560" 
d="M94 231h-56v43h56v234h119q76 0 132.5 -18t94 -50.5t56 -78.5t18.5 -102q0 -57 -19 -104.5t-56.5 -82t-95 -53.5t-133.5 -19h-116v231zM213 44q121 0 183.5 55t62.5 157q0 103 -61.5 156t-186.5 53h-64v-191h127v-43h-127v-187h66z" />
    <glyph glyph-name="ntilde.sc" horiz-adv-x="586" 
d="M86 508h53l312 -425v425h49v-508h-48l-316 429v-429h-50v508zM339 569q-17 0 -29.5 6.5t-23 14t-21.5 14t-25 6.5q-17 0 -31 -12t-23 -21l-27 27q6 8 14.5 17.5t19 17.5t23.5 13t28 5q17 0 29.5 -6.5t23.5 -14.5t21.5 -14.5t24.5 -6.5q19 0 33 11.5t22 22.5l28 -29
q-14 -17 -35.5 -34t-51.5 -17z" />
    <glyph glyph-name="ograve.sc" 
d="M304 -9q-61 0 -109 21t-81 57t-50.5 83.5t-17.5 100.5q0 54 17.5 102t50.5 84t81 57.5t109 21.5t109 -21t81.5 -57t51 -83.5t17.5 -100.5q0 -54 -17.5 -102t-51 -84t-81.5 -57.5t-109 -21.5zM304 35q49 0 87.5 17.5t64 47.5t39 69.5t13.5 83.5t-13.5 84t-39 70.5
t-64 48.5t-87.5 18t-87 -18t-63.5 -48t-39 -69.5t-13.5 -82.5q0 -44 13.5 -84t39 -70.5t63.5 -48.5t87 -18zM155 686h78l97 -122h-46z" />
    <glyph glyph-name="oacute.sc" 
d="M376 686h78l-130 -122h-45zM304 -9q-61 0 -109 21t-81 57t-50.5 83.5t-17.5 100.5q0 54 17.5 102t50.5 84t81 57.5t109 21.5t109 -21t81.5 -57t51 -83.5t17.5 -100.5q0 -54 -17.5 -102t-51 -84t-81.5 -57.5t-109 -21.5zM304 35q49 0 87.5 17.5t64 47.5t39 69.5t13.5 83.5
t-13.5 84t-39 70.5t-64 48.5t-87.5 18t-87 -18t-63.5 -48t-39 -69.5t-13.5 -82.5q0 -44 13.5 -84t39 -70.5t63.5 -48.5t87 -18z" />
    <glyph glyph-name="ocircumflex.sc" 
d="M287 712h34l119 -147h-49l-88 94l-86 -94h-49zM304 -9q-61 0 -109 21t-81 57t-50.5 83.5t-17.5 100.5q0 54 17.5 102t50.5 84t81 57.5t109 21.5t109 -21t81.5 -57t51 -83.5t17.5 -100.5q0 -54 -17.5 -102t-51 -84t-81.5 -57.5t-109 -21.5zM304 35q49 0 87.5 17.5t64 47.5
t39 69.5t13.5 83.5t-13.5 84t-39 70.5t-64 48.5t-87.5 18t-87 -18t-63.5 -48t-39 -69.5t-13.5 -82.5q0 -44 13.5 -84t39 -70.5t63.5 -48.5t87 -18z" />
    <glyph glyph-name="otilde.sc" 
d="M304 -9q-61 0 -109 21t-81 57t-50.5 83.5t-17.5 100.5q0 54 17.5 102t50.5 84t81 57.5t109 21.5t109 -21t81.5 -57t51 -83.5t17.5 -100.5q0 -54 -17.5 -102t-51 -84t-81.5 -57.5t-109 -21.5zM304 35q49 0 87.5 17.5t64 47.5t39 69.5t13.5 83.5t-13.5 84t-39 70.5
t-64 48.5t-87.5 18t-87 -18t-63.5 -48t-39 -69.5t-13.5 -82.5q0 -44 13.5 -84t39 -70.5t63.5 -48.5t87 -18zM351 569q-17 0 -29.5 6.5t-23 14t-21.5 14t-25 6.5q-17 0 -31 -12t-23 -21l-27 27q6 8 14.5 17.5t19 17.5t23.5 13t28 5q17 0 29.5 -6.5t23.5 -14.5t21.5 -14.5
t24.5 -6.5q19 0 33 11.5t22 22.5l28 -29q-14 -17 -35.5 -34t-51.5 -17z" />
    <glyph glyph-name="odieresis.sc" 
d="M219 567q-16 0 -27.5 12t-11.5 29t11.5 28.5t27.5 11.5q17 0 28.5 -11.5t11.5 -28.5t-11.5 -29t-28.5 -12zM388 567q-16 0 -27.5 12t-11.5 29t11.5 28.5t27.5 11.5q17 0 29 -11.5t12 -28.5t-12 -29t-29 -12zM304 -9q-61 0 -109 21t-81 57t-50.5 83.5t-17.5 100.5
q0 54 17.5 102t50.5 84t81 57.5t109 21.5t109 -21t81.5 -57t51 -83.5t17.5 -100.5q0 -54 -17.5 -102t-51 -84t-81.5 -57.5t-109 -21.5zM304 35q49 0 87.5 17.5t64 47.5t39 69.5t13.5 83.5t-13.5 84t-39 70.5t-64 48.5t-87.5 18t-87 -18t-63.5 -48t-39 -69.5t-13.5 -82.5
q0 -44 13.5 -84t39 -70.5t63.5 -48.5t87 -18z" />
    <glyph glyph-name="oslash.sc" 
d="M92 -27l48 71q-46 37 -70 91.5t-24 117.5q0 54 17.5 102t50.5 84t81 57.5t109 21.5q42 0 77.5 -10t64.5 -28l48 70l32 -24l-50 -69q43 -37 65 -89t22 -112q0 -54 -17.5 -102t-51 -84t-81.5 -57.5t-109 -21.5q-76 0 -131 32l-50 -72zM418 440q-23 16 -51.5 25t-62.5 9
q-49 0 -87 -18t-63.5 -48t-39 -69.5t-13.5 -82.5q0 -51 17 -95.5t52 -75.5zM304 35q49 0 87.5 17.5t64 47.5t39 69.5t13.5 83.5q0 48 -16 89.5t-45 72.5l-247 -352q44 -28 104 -28z" />
    <glyph glyph-name="ugrave.sc" horiz-adv-x="566" 
d="M135 686h78l97 -122h-46zM284 -9q-53 0 -91 15.5t-62.5 43.5t-36.5 68t-12 89v301h53v-295q0 -90 36.5 -133.5t114.5 -43.5q76 0 111.5 45t35.5 126v301h50v-298q0 -101 -48 -160t-151 -59z" />
    <glyph glyph-name="uacute.sc" horiz-adv-x="566" 
d="M356 686h78l-130 -122h-45zM284 -9q-53 0 -91 15.5t-62.5 43.5t-36.5 68t-12 89v301h53v-295q0 -90 36.5 -133.5t114.5 -43.5q76 0 111.5 45t35.5 126v301h50v-298q0 -101 -48 -160t-151 -59z" />
    <glyph glyph-name="ucircumflex.sc" horiz-adv-x="566" 
d="M266 712h34l119 -147h-49l-88 94l-86 -94h-49zM284 -9q-53 0 -91 15.5t-62.5 43.5t-36.5 68t-12 89v301h53v-295q0 -90 36.5 -133.5t114.5 -43.5q76 0 111.5 45t35.5 126v301h50v-298q0 -101 -48 -160t-151 -59z" />
    <glyph glyph-name="udieresis.sc" horiz-adv-x="566" 
d="M198 567q-16 0 -27.5 12t-11.5 29t11.5 28.5t27.5 11.5q17 0 28.5 -11.5t11.5 -28.5t-11.5 -29t-28.5 -12zM367 567q-16 0 -27.5 12t-11.5 29t11.5 28.5t27.5 11.5q17 0 29 -11.5t12 -28.5t-12 -29t-29 -12zM284 -9q-53 0 -91 15.5t-62.5 43.5t-36.5 68t-12 89v301h53
v-295q0 -90 36.5 -133.5t114.5 -43.5q76 0 111.5 45t35.5 126v301h50v-298q0 -101 -48 -160t-151 -59z" />
    <glyph glyph-name="yacute.sc" horiz-adv-x="446" 
d="M295 686h78l-130 -122h-45zM198 190l-180 318h59l147 -268h2l147 268h54l-176 -318v-190h-53v190z" />
    <glyph glyph-name="thorn.sc" horiz-adv-x="444" 
d="M87 508h53v-95h78q84 0 134.5 -36t50.5 -110q0 -76 -51 -114.5t-141 -38.5h-71v-114h-53v508zM212 159q138 0 138 106q0 52 -32.5 78.5t-103.5 26.5h-74v-211h72z" />
    <glyph glyph-name="ydieresis.sc" horiz-adv-x="446" 
d="M138 567q-16 0 -27.5 12t-11.5 29t11.5 28.5t27.5 11.5q17 0 28.5 -11.5t11.5 -28.5t-11.5 -29t-28.5 -12zM307 567q-16 0 -27.5 12t-11.5 29t11.5 28.5t27.5 11.5q17 0 29 -11.5t12 -28.5t-12 -29t-29 -12zM198 190l-180 318h59l147 -268h2l147 268h54l-176 -318v-190
h-53v190z" />
    <glyph glyph-name="dotlessi.sc" horiz-adv-x="232" 
d="M90 508h52v-508h-52v508z" />
    <glyph glyph-name="ij.sc" horiz-adv-x="464" 
d="M90 508h52v-508h-52v508zM264 -141q-15 0 -25.5 2t-15.5 4l8 46q5 -2 12 -4t17 -2q38 0 51 26.5t13 70.5v506h53v-516q0 -59 -26 -96t-87 -37z" />
    <glyph glyph-name="lslash.sc" horiz-adv-x="404" 
d="M96 200l-55 -45l-24 31l79 66v256h53v-213l84 70l25 -32l-109 -90v-198h223v-45h-276v200z" />
    <glyph glyph-name="oe.sc" horiz-adv-x="721" 
d="M304 -9q-61 0 -109 21t-81.5 57t-51 83.5t-17.5 100.5q0 54 17.5 102t50.5 84t81 57.5t109 21.5q46 0 83 -10h277v-44h-227v-172h201v-44h-201v-203h232v-45h-283q-18 -5 -39 -7t-42 -2zM303 35q47 0 80 12v413q-34 14 -79 14q-50 0 -88 -18t-63.5 -48t-39 -69.5
t-13.5 -82.5q0 -44 13.5 -84t39 -70.5t63.5 -48.5t87 -18z" />
    <glyph glyph-name="scaron.sc" horiz-adv-x="404" 
d="M65 710h49l88 -95l86 95h49l-120 -147h-33zM191 -9q-57 0 -94.5 18t-57.5 36l27 37q8 -6 20 -14.5t28 -15.5t35.5 -12t43.5 -5q50 0 81.5 25t31.5 67q0 23 -10 39.5t-26.5 29.5t-39.5 23.5t-48 22.5q-25 11 -48 24t-41 30t-29 39t-11 52t12 54.5t32.5 41.5t48.5 26t60 9
q51 0 83.5 -14t51.5 -29l-25 -38q-17 14 -45.5 25.5t-63.5 11.5q-45 0 -73.5 -22t-28.5 -62q0 -23 9 -38.5t24.5 -27.5t35 -21.5t40.5 -18.5q27 -12 52.5 -25.5t46 -31t33 -41.5t12.5 -57q0 -63 -46 -100.5t-121 -37.5z" />
    <glyph glyph-name="zcaron.sc" horiz-adv-x="454" 
d="M92 710h49l88 -95l86 95h49l-120 -147h-33zM41 39l296 425h-283v44h347v-39l-299 -425h310v-44h-371v39z" />
    <glyph glyph-name="mu.sc" horiz-adv-x="694" 
d="M123 508h55l168 -449h1l169 449h55l69 -508h-54l-55 418h-1l-158 -418h-53l-160 418h-1l-54 -418h-50z" />
    <glyph glyph-name="pi.sc" horiz-adv-x="579" 
d="M87 508h405v-508h-52v463h-300v-463h-53v508z" />
    <glyph glyph-name="fi.sc" horiz-adv-x="649" 
d="M87 508h289v-44h-236v-171h207v-44h-207v-249h-53v508zM506 508h53v-508h-53v508z" />
    <glyph glyph-name="fl.sc" horiz-adv-x="811" 
d="M87 508h289v-44h-236v-171h207v-44h-207v-249h-53v508zM504 508h53v-463h223v-45h-276v508z" />
    <glyph glyph-name="numbersign.case" horiz-adv-x="567" 
d="M161 229h-137l6 42h137l22 146h-137l6 41h137l32 208h43l-32 -208h130l32 208h42l-31 -208h132l-7 -41h-132l-22 -146h133l-6 -42h-133l-35 -229h-42l34 229h-130l-34 -229h-43zM339 271l22 146h-130l-21 -146h129z" />
    <glyph glyph-name="percent.case" horiz-adv-x="806" 
d="M201 345q-42 0 -73 14.5t-51.5 37.5t-30.5 52.5t-10 59.5t10.5 59.5t31 53t51 38t71.5 14.5q42 0 73 -14.5t51.5 -38t30.5 -52.5t10 -59t-10.5 -60t-31 -53t-51.5 -37.5t-71 -14.5zM201 385q26 0 47.5 10t37 26.5t24 39t8.5 48.5q0 53 -32 89t-86 36t-85.5 -36t-31.5 -88
q0 -26 8.5 -48.5t23.5 -39.5t37 -27t49 -10zM605 -7q-41 0 -72 14.5t-51.5 38t-30.5 53t-10 59.5t10.5 59.5t31 53t51 38t71.5 14.5q42 0 73 -14.5t51.5 -38t30.5 -52.5t10 -59t-10.5 -60t-31 -53.5t-51.5 -38t-72 -14.5zM606 34q26 0 47.5 10t37 26.5t24 39t8.5 48.5
t-8.5 48.5t-24 39.5t-37 26.5t-48.5 9.5t-48.5 -9.5t-37 -26.5t-24 -39.5t-8.5 -47.5q0 -26 8.5 -48.5t24 -39.5t37.5 -27t49 -10zM592 666h51l-431 -666h-51z" />
    <glyph glyph-name="parenleft.case" horiz-adv-x="296" 
d="M242 -125q-91 98 -136.5 212.5t-45.5 245.5q0 128 47 240.5t135 203.5h50q-38 -41 -71 -89t-57 -103.5t-37.5 -118.5t-13.5 -133q0 -136 45.5 -247.5t133.5 -210.5h-50z" />
    <glyph glyph-name="parenright.case" horiz-adv-x="296" 
d="M4 -125q38 41 71 89t57 103.5t37.5 118.5t13.5 133q0 136 -45.5 247.5t-133.5 210.5h50q91 -97 136.5 -212t45.5 -245t-47 -242t-135 -203h-50z" />
    <glyph glyph-name="hyphen.case" horiz-adv-x="301" 
d="M55 376h191v-46h-191v46z" />
    <glyph glyph-name="slash.case" horiz-adv-x="385" 
d="M304 666h50l-240 -666h-51z" />
    <glyph glyph-name="less.case" horiz-adv-x="426" 
d="M56 238l258 268l33 -35l-226 -234l226 -233l-33 -35z" />
    <glyph glyph-name="equal.case" horiz-adv-x="516" 
d="M55 203h407v-45h-407v45zM55 359h407v-45h-407v45z" />
    <glyph glyph-name="greater.case" horiz-adv-x="426" 
d="M79 4l226 233l-226 234l33 35l258 -268l-258 -269z" />
    <glyph glyph-name="bracketleft.case" horiz-adv-x="295" 
d="M85 771h184v-42h-133v-797h133v-42h-184v881z" />
    <glyph glyph-name="bracketright.case" horiz-adv-x="295" 
d="M26 -68h133v797h-133v42h184v-881h-184v42z" />
    <glyph glyph-name="braceleft.case" horiz-adv-x="343" 
d="M239 -110q-43 0 -71.5 27.5t-28.5 79.5v207q0 51 -32.5 80.5t-77.5 30.5v42q22 0 42 8t35 22t24 34.5t9 46.5v196q0 52 28.5 79.5t71.5 27.5h77v-42h-67q-35 0 -47 -22.5t-12 -57.5v-190q0 -27 -8.5 -47.5t-22.5 -35.5t-32.5 -24.5t-39.5 -13.5v-2q42 -9 72.5 -40
t30.5 -85v-202q0 -35 12 -56t46 -21h68v-42h-77z" />
    <glyph glyph-name="braceright.case" horiz-adv-x="343" 
d="M26 -68h68q35 0 47 22t12 57v202q0 54 30.5 83.5t72.5 37.5v2q-42 9 -72.5 40t-30.5 85v190q0 35 -12 56.5t-47 21.5h-68v42h77q43 0 72 -28t29 -80v-195q0 -51 32 -80.5t78 -30.5v-42q-45 -1 -77.5 -30t-32.5 -81v-207q0 -53 -28.5 -80t-71.5 -27h-78v42z" />
    <glyph glyph-name="exclamdown.case" horiz-adv-x="260" 
d="M130 587q-17 0 -29.5 12.5t-12.5 30.5t12.5 31t29.5 13t30 -13t13 -31t-13 -30.5t-30 -12.5zM110 485h40l12 -485h-63z" />
    <glyph glyph-name="guillemotleft.case" horiz-adv-x="453" 
d="M49 347l138 189h55l-137 -189l137 -188h-55zM212 347l137 189h56l-137 -189l137 -188h-56z" />
    <glyph glyph-name="uni00AD.case" horiz-adv-x="301" 
d="M55 376h191v-46h-191v46z" />
    <glyph glyph-name="guillemotright.case" horiz-adv-x="453" 
d="M184 347l-136 189h55l138 -189l-138 -188h-55zM347 347l-137 189h56l138 -189l-138 -188h-56z" />
    <glyph glyph-name="questiondown.case" horiz-adv-x="387" 
d="M238 -11q-90 0 -138 42.5t-48 120.5q0 36 11 63.5t27.5 48t36.5 35.5t38 26q36 23 49 46t13 58v60h50v-65q0 -45 -18 -75.5t-62 -58.5q-18 -11 -34 -23.5t-28.5 -28.5t-20 -36t-7.5 -47q0 -64 36.5 -92t98.5 -28q22 0 44.5 6t36.5 14l19 -41q-16 -9 -45 -17t-59 -8z
M251 587q-17 0 -30 12.5t-13 30.5t13 31t30 13t30 -13t13 -31t-13 -30.5t-30 -12.5z" />
    <glyph glyph-name="endash.case" horiz-adv-x="513" 
d="M55 375h403v-45h-403v45z" />
    <glyph glyph-name="emdash.case" horiz-adv-x="816" 
d="M55 375h706v-45h-706v45z" />
    <glyph glyph-name="perthousand.case" horiz-adv-x="1202" 
d="M201 345q-42 0 -73 14.5t-51.5 37.5t-30.5 52.5t-10 59.5t10.5 59.5t31 53t51 38t71.5 14.5q42 0 73 -14.5t51.5 -38t30.5 -52.5t10 -59t-10.5 -60t-31 -53t-51.5 -37.5t-71 -14.5zM201 385q26 0 47.5 10t37 26.5t24 39t8.5 48.5q0 53 -32 89t-86 36t-85.5 -36t-31.5 -88
q0 -26 8.5 -48.5t23.5 -39.5t37 -27t49 -10zM605 -7q-41 0 -72 14.5t-51.5 38t-30.5 53t-10 59.5t10.5 59.5t31 53t51 38t71.5 14.5q42 0 73 -14.5t51.5 -38t30.5 -52.5t10 -59t-10.5 -60t-31 -53.5t-51.5 -38t-72 -14.5zM606 34q26 0 47.5 10t37 26.5t24 39t8.5 48.5
t-8.5 48.5t-24 39.5t-37 26.5t-48.5 9.5t-48.5 -9.5t-37 -26.5t-24 -39.5t-8.5 -47.5q0 -26 8.5 -48.5t24 -39.5t37.5 -27t49 -10zM1002 -7q-41 0 -72 14.5t-51.5 38t-31 53t-10.5 59.5t10.5 59.5t31 53t51.5 38t72 14.5t72 -14.5t51.5 -38t31 -52.5t10.5 -59t-10.5 -60
t-31 -53.5t-51.5 -38t-72 -14.5zM1002 34q27 0 48.5 10t37 26.5t24 39t8.5 48.5t-8.5 48.5t-24 39.5t-37 26.5t-48.5 9.5t-48.5 -9.5t-37 -26.5t-24 -39.5t-8.5 -47.5q0 -26 8.5 -48.5t24 -39.5t37 -27t48.5 -10zM592 666h51l-431 -666h-51z" />
    <glyph glyph-name="guilsinglleft.case" horiz-adv-x="290" 
d="M49 347l138 189h55l-137 -189l137 -188h-55z" />
    <glyph glyph-name="guilsinglright.case" horiz-adv-x="290" 
d="M184 347l-136 189h55l138 -189l-138 -188h-55z" />
    <glyph glyph-name="slash.ss01" horiz-adv-x="393" 
d="M416 720h50l-411 -833h-50z" />
    <glyph glyph-name="pi.ss01" horiz-adv-x="629" 
d="M143 433h-110v44h550v-44h-126v-323q0 -36 13.5 -55.5t39.5 -19.5q17 0 32.5 4.5t25.5 10.5l19 -40q-13 -8 -34.5 -14.5t-47.5 -6.5q-53 0 -76.5 30t-23.5 88v326h-208v-560h-54v560z" />
    <glyph glyph-name="commaaccent" horiz-adv-x="500" 
d="M211 -213q13 16 21.5 33.5t8.5 34.5q0 9 -3.5 15t-7.5 11.5t-7.5 12t-3.5 15.5q0 14 9 23t23 9q15 0 26.5 -11.5t11.5 -31.5q0 -16 -4.5 -32t-11.5 -31t-15 -27.5t-15 -20.5h-32z" />
    <glyph glyph-name="f_b" horiz-adv-x="802" 
d="M523 -11q-43 0 -80.5 9.5t-62.5 26.5v646q-16 5 -44 9.5t-63 4.5q-60 0 -89 -34t-29 -100v-74h119v-42h-119v-435h-51v435h-83v42h83v81q0 85 46.5 129t125.5 44q50 0 89 -7t67 -16v-275q22 25 55 40t69 15q51 0 89 -19t63.5 -52.5t38 -79t12.5 -97.5q0 -50 -16.5 -95.5
t-47 -80t-74 -55t-98.5 -20.5zM525 34q45 0 79 18t56 47t33 65.5t11 73.5q0 39 -8 75.5t-26.5 65t-48.5 45.5t-73 17q-32 0 -64 -15.5t-52 -38.5v-334q17 -8 40.5 -13.5t52.5 -5.5z" />
    <glyph glyph-name="f_f_b" horiz-adv-x="1076" 
d="M797 -11q-43 0 -81 9.5t-62 26.5v646q-16 5 -44 9.5t-63 4.5q-60 0 -89 -34t-29 -100v-74h124v-42h-124v-435h-52v435h-219v-435h-52v435h-85v42h85v69q0 82 47 131.5t130 49.5q51 0 84 -14.5t52 -31.5q47 50 131 50q50 0 89 -7t66 -16v-275q22 25 55.5 40t69.5 15
q51 0 89 -19t63 -52.5t37.5 -79t12.5 -97.5q0 -50 -16 -95.5t-46.5 -80t-74 -55t-98.5 -20.5zM798 34q46 0 79.5 18t56 47t33.5 65.5t11 73.5q0 39 -8 75.5t-27 65t-49 45.5t-73 17q-31 0 -63.5 -15.5t-52.5 -38.5v-334q17 -8 40.5 -13.5t52.5 -5.5zM377 477v81q0 24 4 44.5
t12 38.5q-17 15 -44 27.5t-68 12.5q-56 0 -89.5 -35.5t-33.5 -112.5v-56h219z" />
    <glyph glyph-name="f_f_h" horiz-adv-x="1086" 
d="M106 435h-85v42h85v69q0 82 47 131.5t130 49.5q51 0 84 -14.5t52 -31.5q47 50 131 50q50 0 89 -7t66 -16v-307q9 12 23.5 27.5t34.5 28.5t45.5 22t55.5 9q37 0 63 -11.5t42.5 -31.5t24.5 -47.5t8 -59.5v-338h-52v327q0 53 -21.5 83.5t-75.5 30.5q-27 0 -51 -11t-43.5 -26
t-33.5 -31t-20 -26v-347h-51v671q-16 5 -44 9.5t-63 4.5q-60 0 -89 -34t-29 -100v-74h124v-42h-124v-435h-52v435h-219v-435h-52v435zM377 477v81q0 24 4 44.5t12 38.5q-17 15 -44 27.5t-68 12.5q-56 0 -89.5 -35.5t-33.5 -112.5v-56h219z" />
    <glyph glyph-name="f_f_j" horiz-adv-x="788" 
d="M569 -229q-17 0 -28 2.5t-16 4.5l9 44q5 -2 12.5 -4t20.5 -2q42 0 57.5 33t15.5 89v497h-211v-435h-52v435h-219v-435h-52v435h-85v42h85v69q0 82 47 131.5t130 49.5q51 0 84.5 -14.5t53.5 -31.5q47 50 132 50q51 0 84 -14t56 -31l-26 -41q-19 15 -48 27.5t-69 12.5
q-59 0 -90 -34t-31 -101v-73h263v-550q0 -34 -6.5 -62.5t-21.5 -49.5t-38.5 -32.5t-56.5 -11.5zM377 477v79q0 47 17 84q-17 15 -44.5 28t-68.5 13q-56 0 -89.5 -35.5t-33.5 -112.5v-56h219z" />
    <glyph glyph-name="f_f_k" horiz-adv-x="1018" 
d="M106 435h-85v42h85v69q0 82 47 131.5t130 49.5q51 0 84 -14.5t52 -31.5q47 50 131 50q50 0 89 -7t66 -16v-708h-51v671q-16 5 -44 9.5t-63 4.5q-60 0 -89 -34t-29 -100v-74h124v-42h-124v-435h-52v435h-219v-435h-52v435zM377 477v81q0 24 4 44.5t12 38.5
q-17 15 -44 27.5t-68 12.5q-56 0 -89.5 -35.5t-33.5 -112.5v-56h219zM710 268l209 209h65l-211 -209l222 -268h-65z" />
    <glyph glyph-name="f_h" horiz-adv-x="812" 
d="M104 435h-83v42h83v81q0 85 46.5 129t125.5 44q50 0 89 -7t67 -16v-307q9 12 23.5 27.5t34.5 28.5t45 22t55 9q37 0 63.5 -11.5t43 -31.5t24 -47.5t7.5 -59.5v-338h-51v327q0 53 -22 83.5t-76 30.5q-27 0 -50.5 -11t-43 -26t-33.5 -31t-20 -26v-347h-52v671
q-16 5 -44 9.5t-63 4.5q-60 0 -89 -34t-29 -100v-74h119v-42h-119v-435h-51v435z" />
    <glyph glyph-name="f_j" horiz-adv-x="518" 
d="M299 -229q-17 0 -28 2.5t-15 4.5l9 44q5 -2 12 -4t20 -2q43 0 58.5 33t15.5 89v497h-216v-435h-51v435h-83v42h83v79q0 81 46 128t129 47q51 0 84.5 -14t56.5 -31l-26 -41q-20 15 -48.5 27.5t-69.5 12.5q-57 0 -89 -34t-32 -101v-73h267v-550q0 -34 -6.5 -62.5
t-21.5 -49.5t-38.5 -32.5t-56.5 -11.5z" />
    <glyph glyph-name="f_k" horiz-adv-x="744" 
d="M104 435h-83v42h83v81q0 85 46.5 129t125.5 44q50 0 89 -7t67 -16v-708h-52v671q-16 5 -44 9.5t-63 4.5q-60 0 -89 -34t-29 -100v-74h119v-42h-119v-435h-51v435zM436 268l210 209h65l-212 -209l222 -268h-64z" />
    </font>
</defs>
</svg>
